<?xml version="1.0" encoding="utf-8"?>
<!-- Generator: Adobe Illustrator 26.0.1, SVG Export Plug-In . SVG Version: 6.00 Build 0)  -->
<svg version="1.1" id="Layer_1" xmlns="http://www.w3.org/2000/svg" xmlns:xlink="http://www.w3.org/1999/xlink" x="0px" y="0px"
	 viewBox="0 0 210 90" style="enable-background:new 0 0 210 90;" xml:space="preserve">
<style type="text/css">
	.st0{fill:none;stroke:#964D22;stroke-width:2;stroke-miterlimit:10;}
	.st1{fill:none;stroke:#000000;stroke-width:2;stroke-miterlimit:10;}
	.st2{opacity:0.6;fill:none;stroke:#000000;stroke-miterlimit:10;}
	.st3{fill:none;stroke:#000000;stroke-width:5;stroke-miterlimit:10;}
	.st4{stroke:#000000;stroke-miterlimit:10;}
</style>
<path class="st0" d="M106.9,17.3l88.9,31.9l-0.5-6.4L105,14.4c-0.3-0.1-0.5-0.1-0.8,0L22.3,44.2v6.2l80.8-33
	C104.3,16.9,105.6,16.9,106.9,17.3z"/>
<polyline class="st1" points="136.1,23.9 135.3,13.9 131.6,13.7 131.2,8.5 157.3,8 158,13.6 154,13.7 155.6,30.1 "/>
<polyline class="st2" points="155.2,27.1 152.2,27.1 152.4,28.5 "/>
<line class="st2" x1="155" y1="24.1" x2="138.4" y2="24.1"/>
<line class="st2" x1="154.6" y1="20.5" x2="136" y2="20.8"/>
<line class="st2" x1="154.3" y1="17" x2="135.8" y2="17"/>
<polyline class="st1" points="154,13.7 139.6,13.9 135.3,13.9 "/>
<line class="st2" x1="139.8" y1="17.1" x2="139.5" y2="14"/>
<line class="st2" x1="145.6" y1="14" x2="145.9" y2="16.9"/>
<line class="st2" x1="150.9" y1="13.8" x2="151.2" y2="16.8"/>
<line class="st2" x1="142.2" y1="17.3" x2="142.6" y2="20.6"/>
<line class="st2" x1="148.3" y1="17.2" x2="148.6" y2="20.5"/>
<line class="st2" x1="151.3" y1="20.8" x2="151.7" y2="24"/>
<line class="st2" x1="144.6" y1="21" x2="144.9" y2="24.1"/>
<line class="st2" x1="138.5" y1="21" x2="138.9" y2="24.3"/>
<line class="st2" x1="149" y1="24.3" x2="149.5" y2="27.6"/>
<path class="st3" d="M142.5,24.5"/>
<polygon class="st1" points="16.7,31.4 10.1,31.2 8.3,81.5 14.7,81.1 "/>
<path class="st1" d="M15.3,65.7c0,0,3.1-9.3,12.1-9.6c0,0,1.6-0.1,1.5,1.9l-0.7,18.7c0,2.5,0.7,5.7,7.4,4.7c1-0.2,5.1-1.3,7-6.6"/>
<line class="st2" x1="152.2" y1="27.1" x2="147.6" y2="27.1"/>
<line class="st2" x1="143" y1="24.2" x2="143.1" y2="25.6"/>
<path class="st1" d="M27.7,56.1c0,0,2.7-0.2,4.9,2.3c0.9,1,1.6,2.1,1.7,3.4c0.2,2.3,0.2,7.3,0.4,14.3c0,0.2-0.6,6.2,2.3,5"/>
<ellipse class="st1" cx="51.3" cy="68.6" rx="10.1" ry="12.4"/>
<polygon class="st1" points="73.9,56.1 67.1,56 67.3,80.7 73.7,80.7 "/>
<path class="st3" d="M81.1,80.9"/>
<path class="st1" d="M73.8,68.5c0-6.8,3.1-12.4,6.8-12.4c2,0,4.4,1.8,5.5,4.5c0.4,0.9,0.5,1.8,0.5,2.8l0.2,16.9"/>
<path class="st1" d="M86.8,67.7c0-6.5,2.9-11.8,6.4-11.8c1.7,0,3.7,1.4,4.8,3.5c0.6,1.1,0.9,2.3,0.9,3.5L99.5,78c0,0,0.1,3.3,1.9,3"
	/>
<path class="st3" d="M93.1,71.8"/>
<path class="st3" d="M93.4,73.3"/>
<polyline class="st1" points="80.3,56 80.7,80.5 87.6,80.5 "/>
<path class="st1" d="M93.1,56.1l0.3,19c0,0-0.3,4,2.6,5.4c1.3,0.7,3.6,0.6,5,0.5c1.3-0.1,2.6-0.6,3.7-1.4c1.3-1,2.8-2.6,3.4-5.2"/>
<path class="st1" d="M124.9,73.3c-1.6,4-4.9,6.8-8.7,6.8c-5.4,0-9.8-5.6-9.8-12.5"/>
<path class="st3" d="M127,67.6"/>
<path class="st3" d="M116.7,55.1"/>
<path class="st1" d="M106.4,67.9c0-0.1,0-0.2,0-0.3c0-0.4-0.1-0.8-0.1-1.3c0-6,4.3-10.9,9.7-10.9s9.7,4.9,9.7,10.9
	c0,0.5,0,1.1-0.1,1.6l-13,0"/>
<path class="st3" d="M115.7,80.1"/>
<path class="st1" d="M112.2,56.7l0.6,18.7c0,0,0,5,4,4.7"/>
<path class="st1" d="M139.1,76.7l-2.1-45.1l-6.4,0.1l1.6,44.8c0,0,0.2,3.5,3.1,3.4C135.3,79.8,139,80.6,139.1,76.7z"/>
<polygon class="st1" points="144.4,55.5 146,80.2 152.3,80.2 150.7,55.4 "/>
<g>
	<path class="st4" d="M146.9,52.2l-0.2-0.1c-3.4-2.8-4.3-3.8-4.3-5.3c0-1.3,1.1-2.4,2.4-2.4c1.1,0,1.7,0.6,2.1,1.1
		c0.4-0.5,1-1.1,2.1-1.1c1.3,0,2.4,1.1,2.4,2.4c0,1.6-0.9,2.6-4.3,5.3L146.9,52.2z M144.8,44.9c-1,0-1.9,0.8-1.9,1.9
		c0,1.3,0.8,2.2,4,4.8c3.1-2.5,4-3.4,4-4.8c0-1-0.8-1.9-1.9-1.9c-0.9,0-1.4,0.6-1.8,1l-0.3,0.3l-0.3-0.3
		C146.2,45.4,145.7,44.9,144.8,44.9z"/>
</g>
<path class="st1" d="M176.6,61.3c0,0-2.7-7.1-11.8-5.9c-9.1,1.2-7.4,7.3-7.4,7.3s0.1,4,10.9,4.7c3.4,0.2,5.6,0.1,7.9,2.1
	s2.2,3.6,2.3,4.6c0.1,1.1-0.1,4.4-5.2,5.9c-5,1.5-11.6-0.6-14.6-5.2"/>
<path class="st1" d="M164.8,55.5c0,0-6.1,6.1,3.5,12"/>
<path class="st1" d="M170.4,67.7c0.6,0.5,1.4,1.4,2,2.8c0.1,0.3,2,4.9-0.8,7.9c-1.7,1.8-4,1.9-4.7,1.9"/>
<path class="st1" d="M205.2,72.3c-1.7,4.5-5.6,7.7-10.1,7.7c-6.1,0-11-5.6-11-12.6s4.9-12.6,11-12.6c4,0,7.5,2.5,9.4,6.1"/>
<path class="st3" d="M195,80"/>
<path class="st1" d="M193.9,54.9C193.9,54.9,193.9,54.9,193.9,54.9c-2.2,0.8-3.1,3-3.3,5.3c-0.4,3.7,0.2,10.9,0.8,14.4
	c0,0,0.8,5.4,4.4,5.4"/>
<path class="st1" d="M50.8,56.1C50.8,56.1,50.8,56.1,50.8,56.1c-2.2,0.8-3.1,2.9-3.3,5.2c-0.4,3.6,0.2,10.8,0.8,14.2
	c0,0,0.8,5.3,4.4,5.3"/>
<line class="st2" x1="10.2" y1="35.1" x2="16.4" y2="35.2"/>
<line class="st2" x1="10.1" y1="38.5" x2="16.3" y2="38.5"/>
<line class="st2" x1="9.9" y1="42.4" x2="16.1" y2="42.5"/>
<line class="st2" x1="9.9" y1="46.3" x2="16.1" y2="46.4"/>
<line class="st2" x1="9.7" y1="49.5" x2="15.9" y2="49.6"/>
<line class="st2" x1="9.4" y1="53.4" x2="15.6" y2="53.4"/>
<line class="st2" x1="9.3" y1="57" x2="15.5" y2="57.1"/>
<line class="st2" x1="9.3" y1="60.8" x2="15.5" y2="60.8"/>
<line class="st2" x1="28.6" y1="64.6" x2="34.5" y2="64.7"/>
<line class="st2" x1="29" y1="60.8" x2="33.9" y2="60.8"/>
<line class="st2" x1="28.5" y1="76.7" x2="34.7" y2="76.8"/>
<line class="st2" x1="41.9" y1="64.8" x2="47.3" y2="64.9"/>
<line class="st2" x1="67.4" y1="60.5" x2="73.8" y2="60.6"/>
<line class="st2" x1="80.7" y1="64.3" x2="87.1" y2="64.3"/>
<line class="st2" x1="80.5" y1="68.1" x2="86.9" y2="68.2"/>
<line class="st2" x1="80.6" y1="60.5" x2="86" y2="60.6"/>
<line class="st2" x1="93.2" y1="60.5" x2="98.6" y2="60.6"/>
<line class="st2" x1="93.6" y1="64.3" x2="98.9" y2="64.4"/>
<line class="st2" x1="106.7" y1="64" x2="112.3" y2="64.1"/>
<line class="st2" x1="130.8" y1="35.2" x2="136.9" y2="35.2"/>
<line class="st2" x1="130.9" y1="38.9" x2="137" y2="39"/>
<line class="st2" x1="131.1" y1="42.2" x2="137.2" y2="42.3"/>
<line class="st2" x1="131.3" y1="45.8" x2="137.4" y2="45.9"/>
<line class="st2" x1="131.4" y1="49.2" x2="137.6" y2="49.3"/>
<line class="st2" x1="131.5" y1="52.9" x2="137.7" y2="52.9"/>
<line class="st2" x1="131.7" y1="56.6" x2="137.8" y2="56.7"/>
<line class="st2" x1="131.8" y1="60.3" x2="138" y2="60.3"/>
<line class="st2" x1="144.7" y1="60.1" x2="150.9" y2="60.2"/>
<line class="st2" x1="157.7" y1="60.2" x2="162.7" y2="60.3"/>
<line class="st2" x1="173" y1="71.8" x2="177.7" y2="71.8"/>
<line class="st2" x1="186.6" y1="59.5" x2="190.6" y2="59.6"/>
<line class="st2" x1="184.8" y1="63.4" x2="190.2" y2="63.5"/>
<line class="st2" x1="184.2" y1="67.5" x2="190.4" y2="67.5"/>
<line class="st2" x1="184.6" y1="71.1" x2="190.8" y2="71.2"/>
<line class="st2" x1="186.3" y1="75" x2="191.3" y2="75"/>
<line class="st2" x1="173.1" y1="75.7" x2="178.1" y2="75.7"/>
<line class="st2" x1="158" y1="63.8" x2="164.1" y2="63.9"/>
<line class="st2" x1="144.8" y1="63.9" x2="151" y2="64"/>
<line class="st2" x1="145.2" y1="67.8" x2="151.4" y2="67.8"/>
<line class="st2" x1="145.5" y1="71.7" x2="151.7" y2="71.8"/>
<line class="st2" x1="145.8" y1="75.7" x2="152" y2="75.7"/>
<line class="st2" x1="132" y1="64" x2="138.2" y2="64.1"/>
<line class="st2" x1="132.1" y1="67.7" x2="138.3" y2="67.8"/>
<line class="st2" x1="132.2" y1="71.3" x2="138.6" y2="71.4"/>
<line class="st2" x1="133" y1="78.6" x2="138.5" y2="78.6"/>
<line class="st2" x1="132.3" y1="75.2" x2="138.7" y2="75.2"/>
<line class="st2" x1="107.1" y1="71.6" x2="112.7" y2="71.7"/>
<line class="st2" x1="108.8" y1="75.4" x2="112.8" y2="75.5"/>
<line class="st2" x1="108" y1="60.4" x2="112.1" y2="60.4"/>
<line class="st2" x1="93.5" y1="68.2" x2="98.9" y2="68.3"/>
<line class="st2" x1="93.7" y1="71.9" x2="99.1" y2="72"/>
<line class="st2" x1="93.7" y1="76.1" x2="99.3" y2="76.2"/>
<line class="st2" x1="80.8" y1="71.7" x2="87.2" y2="71.8"/>
<line class="st2" x1="80.6" y1="75.9" x2="87" y2="75.9"/>
<line class="st2" x1="67.4" y1="64.3" x2="73.8" y2="64.4"/>
<line class="st2" x1="67.2" y1="71.8" x2="73.6" y2="71.9"/>
<line class="st2" x1="67.1" y1="68.2" x2="73.5" y2="68.2"/>
<line class="st2" x1="67.2" y1="76.3" x2="73.6" y2="76.4"/>
<line class="st2" x1="43.4" y1="60.9" x2="47.5" y2="61"/>
<line class="st2" x1="41.3" y1="68.4" x2="47.3" y2="68.5"/>
<line class="st2" x1="41.6" y1="72.1" x2="47.7" y2="72.2"/>
<line class="st2" x1="43.1" y1="75.6" x2="48.3" y2="75.7"/>
<line class="st2" x1="28.5" y1="68.6" x2="34.7" y2="68.7"/>
<line class="st2" x1="28.5" y1="72.3" x2="34.7" y2="72.4"/>
<line class="st2" x1="9" y1="64.8" x2="15.2" y2="64.9"/>
<line class="st2" x1="9.1" y1="68.6" x2="15.3" y2="68.7"/>
<line class="st2" x1="8.9" y1="72.4" x2="15.1" y2="72.5"/>
<line class="st2" x1="8.7" y1="76.4" x2="14.9" y2="76.5"/>
<line class="st2" x1="13.9" y1="31.5" x2="13.8" y2="35.2"/>
<line class="st2" x1="12.9" y1="34.9" x2="12.8" y2="38.6"/>
<line class="st2" x1="14.7" y1="38.7" x2="14.6" y2="42.4"/>
<line class="st2" x1="13.5" y1="42.5" x2="13.4" y2="46.2"/>
<line class="st2" x1="10.9" y1="46.2" x2="10.8" y2="49.6"/>
<line class="st2" x1="13.1" y1="49.6" x2="13" y2="53.3"/>
<line class="st2" x1="31.6" y1="57.5" x2="31.6" y2="60.7"/>
<line class="st2" x1="46.6" y1="57.7" x2="46.6" y2="60.8"/>
<line class="st2" x1="45.4" y1="61.2" x2="45.3" y2="64.6"/>
<line class="st2" x1="43.1" y1="64.9" x2="43.1" y2="68.4"/>
<line class="st2" x1="45.5" y1="68.6" x2="45.5" y2="72"/>
<line class="st2" x1="44.4" y1="72.2" x2="44.3" y2="75.6"/>
<line class="st2" x1="46.8" y1="76" x2="46.7" y2="79.4"/>
<line class="st2" x1="70.3" y1="71.9" x2="70.2" y2="76.3"/>
<line class="st2" x1="82.6" y1="71.7" x2="82.5" y2="75.7"/>
<line class="st2" x1="69.9" y1="64.5" x2="69.8" y2="68"/>
<line class="st2" x1="71.4" y1="60.7" x2="71.3" y2="64.2"/>
<line class="st2" x1="69.3" y1="56.3" x2="69.2" y2="60.4"/>
<line class="st2" x1="71.4" y1="76.6" x2="71.3" y2="80.4"/>
<line class="st2" x1="84.5" y1="76.2" x2="84.5" y2="80.3"/>
<line class="st2" x1="71.3" y1="68.3" x2="71.2" y2="71.8"/>
<line class="st2" x1="84.4" y1="68.2" x2="84.3" y2="71.7"/>
<line class="st2" x1="82.8" y1="64.4" x2="82.7" y2="67.9"/>
<line class="st2" x1="84.5" y1="60.7" x2="84.4" y2="64.2"/>
<line class="st2" x1="82.9" y1="56.8" x2="82.9" y2="60.3"/>
<line class="st2" x1="95.4" y1="56.8" x2="95.3" y2="60.3"/>
<line class="st2" x1="96.9" y1="60.7" x2="96.9" y2="64.1"/>
<line class="st2" x1="95.4" y1="64.5" x2="95.3" y2="68"/>
<path class="st2" d="M110.1,64.1"/>
<line class="st2" x1="106.6" y1="67.8" x2="112.3" y2="67.9"/>
<path class="st2" d="M110.1,68"/>
<line class="st2" x1="109" y1="60.5" x2="108.9" y2="63.8"/>
<line class="st2" x1="134.5" y1="31.6" x2="134.4" y2="35"/>
<line class="st2" x1="132.9" y1="35.3" x2="132.9" y2="38.7"/>
<line class="st2" x1="133.7" y1="42.3" x2="133.6" y2="45.7"/>
<line class="st2" x1="135.5" y1="46.1" x2="135.5" y2="49"/>
<line class="st2" x1="133.6" y1="49.4" x2="133.5" y2="52.6"/>
<line class="st2" x1="136.2" y1="53.1" x2="136.1" y2="56.4"/>
<line class="st2" x1="133.9" y1="56.8" x2="133.9" y2="60.1"/>
<line class="st2" x1="147.1" y1="55.5" x2="147" y2="59.9"/>
<line class="st2" x1="149.3" y1="60.3" x2="149.3" y2="63.7"/>
<line class="st2" x1="159.3" y1="60.5" x2="159.2" y2="63.7"/>
<line class="st2" x1="161.6" y1="64.1" x2="161.6" y2="66.2"/>
<line class="st2" x1="174.4" y1="68.6" x2="174.3" y2="71.5"/>
<line class="st2" x1="176.4" y1="72" x2="176.3" y2="75.5"/>
<line class="st2" x1="190.5" y1="75.2" x2="190.4" y2="78.8"/>
<line class="st2" x1="187.5" y1="71.3" x2="187.4" y2="74.8"/>
<line class="st2" x1="174.1" y1="76" x2="174" y2="80.1"/>
<line class="st2" x1="188.7" y1="67.7" x2="188.7" y2="70.9"/>
<line class="st2" x1="188.4" y1="59.8" x2="188.3" y2="63.2"/>
<line class="st2" x1="189.8" y1="56.6" x2="189.7" y2="59.4"/>
<line class="st2" x1="186.2" y1="63.7" x2="186.1" y2="67.3"/>
<line class="st2" x1="161.1" y1="56.5" x2="161.1" y2="60"/>
<line class="st2" x1="147" y1="64.1" x2="147" y2="67.6"/>
<line class="st2" x1="149.1" y1="68.1" x2="149.1" y2="71.5"/>
<line class="st2" x1="147.6" y1="71.9" x2="147.5" y2="75.4"/>
<line class="st2" x1="149.5" y1="76" x2="149.4" y2="80"/>
<line class="st2" x1="135.9" y1="60.5" x2="135.8" y2="63.8"/>
<line class="st2" x1="133.6" y1="64.2" x2="133.6" y2="67.5"/>
<line class="st2" x1="136" y1="67.9" x2="136" y2="71.3"/>
<line class="st2" x1="134.2" y1="71.6" x2="134.2" y2="74.9"/>
<line class="st2" x1="136.4" y1="75.4" x2="136.3" y2="78.4"/>
<line class="st2" x1="135.6" y1="39.1" x2="135.5" y2="42.1"/>
<line class="st2" x1="110.2" y1="64.3" x2="110.1" y2="67.6"/>
<line class="st2" x1="108.8" y1="68.1" x2="108.7" y2="71.4"/>
<line class="st2" x1="110.7" y1="71.9" x2="110.6" y2="75.3"/>
<line class="st2" x1="111.7" y1="75.7" x2="111.7" y2="78.6"/>
<line class="st2" x1="110.4" y1="57.5" x2="110.3" y2="60.1"/>
<line class="st2" x1="96.9" y1="68.3" x2="96.9" y2="71.8"/>
<line class="st2" x1="95.2" y1="72.1" x2="95.1" y2="75.8"/>
<line class="st2" x1="97.1" y1="76.3" x2="97" y2="80.7"/>
<line class="st2" x1="32.8" y1="60.8" x2="32.8" y2="64.5"/>
<line class="st2" x1="30.8" y1="64.8" x2="30.8" y2="68.5"/>
<line class="st2" x1="32.3" y1="68.8" x2="32.2" y2="72.4"/>
<line class="st2" x1="30.3" y1="72.3" x2="30.2" y2="76.6"/>
<line class="st2" x1="32.5" y1="77" x2="32.4" y2="81.4"/>
<line class="st2" x1="14.4" y1="53.4" x2="14.3" y2="57.1"/>
<line class="st2" x1="11.5" y1="57" x2="11.4" y2="60.7"/>
<line class="st2" x1="13.1" y1="61" x2="13" y2="64.6"/>
<line class="st2" x1="10.2" y1="64.9" x2="10.2" y2="68.6"/>
<line class="st2" x1="12.5" y1="68.7" x2="12.5" y2="72.4"/>
<line class="st2" x1="11.4" y1="72.6" x2="11.3" y2="76.3"/>
<line class="st2" x1="12.4" y1="76.5" x2="12.3" y2="81.1"/>
<path class="st1" d="M136.7,79.8c0.9,0.3,9.3-4,8.7-8.7"/>
</svg>
