<svg width="17" height="19" viewBox="0 0 17 19" fill="none" xmlns="http://www.w3.org/2000/svg">
<path d="M4.55632 2.40807C4.34721 2.61725 4.22974 2.90091 4.22974 3.19669C4.22974 3.49246 4.34721 3.77613 4.55632 3.98531L10.0778 9.50675L4.55632 15.0282C4.35314 15.2386 4.24071 15.5203 4.24325 15.8128C4.24579 16.1053 4.3631 16.385 4.56991 16.5918C4.77672 16.7987 5.05649 16.916 5.34896 16.9185C5.64142 16.921 5.92318 16.8086 6.13356 16.6054L12.4436 10.2954C12.6527 10.0862 12.7702 9.80253 12.7702 9.50675C12.7702 9.21097 12.6527 8.92731 12.4436 8.71813L6.13356 2.40807C5.92438 2.19896 5.64072 2.08148 5.34494 2.08148C5.04917 2.08148 4.7655 2.19896 4.55632 2.40807Z" fill="black"/>
</svg>
