<svg width="17" height="16" viewBox="0 0 17 16" fill="none" xmlns="http://www.w3.org/2000/svg">
<path d="M6.08958 1.65283C6.43964 1.54728 6.8153 1.56482 7.15401 1.70252C7.49272 1.84021 7.77405 2.08977 7.95118 2.40963L8.01118 2.52883L8.53998 3.70563C8.7007 4.06282 8.75288 4.45938 8.69001 4.84598C8.62714 5.23258 8.452 5.59218 8.18638 5.88003L8.08078 5.98563L7.24558 6.76403C7.09518 6.90643 7.20798 7.45763 7.75278 8.40003C8.24158 9.24803 8.64078 9.64403 8.83598 9.66563H8.87038L8.91278 9.65763L10.5528 9.15603C10.7732 9.08844 11.0084 9.08576 11.2303 9.14833C11.4522 9.21089 11.6513 9.33605 11.804 9.50883L11.8776 9.60083L12.9624 11.1048C13.1752 11.3995 13.2814 11.7579 13.2634 12.121C13.2453 12.4841 13.1042 12.8303 12.8632 13.1024L12.7656 13.2032L12.3312 13.6144C11.9418 13.9832 11.4548 14.2323 10.9279 14.3323C10.401 14.4323 9.85656 14.3789 9.35918 14.1784C7.81118 13.5544 6.40478 12.1288 5.12718 9.91603C3.84718 7.69763 3.31518 5.76403 3.55278 4.10803C3.62475 3.60735 3.831 3.13552 4.14962 2.74267C4.46825 2.34981 4.88734 2.0506 5.36238 1.87683L5.51678 1.82563L6.08958 1.65283Z" fill="#F54748"/>
</svg>
