<svg width="268" height="152" viewBox="0 0 268 152" fill="none" xmlns="http://www.w3.org/2000/svg">
<g clip-path="url(#clip0_2229_1376)">
<path d="M105.155 121.497C106.566 117.811 106.77 114.465 105.612 114.023C104.453 113.58 102.37 116.21 100.959 119.896C99.5484 123.581 99.3441 126.928 100.503 127.37C101.661 127.812 103.744 125.183 105.155 121.497Z" fill="#2F2E41"/>
<path d="M103.955 133.776C105.221 125.986 99.9238 118.646 92.1231 117.382C84.3224 116.118 76.9725 121.408 75.7066 129.198C74.4407 136.988 79.7383 144.327 87.5389 145.591C95.3396 146.855 102.69 141.565 103.955 133.776Z" fill="#2F2E41"/>
<path d="M87.6576 142.701H83.3105V150.479H87.6576V142.701Z" fill="#2F2E41"/>
<path d="M96.3517 142.701H92.0046V150.479H96.3517V142.701Z" fill="#2F2E41"/>
<path d="M86.9331 151.926C88.9338 151.926 90.5557 151.318 90.5557 150.569C90.5557 149.82 88.9338 149.212 86.9331 149.212C84.9324 149.212 83.3105 149.82 83.3105 150.569C83.3105 151.318 84.9324 151.926 86.9331 151.926Z" fill="#2F2E41"/>
<path d="M95.6272 151.745C97.6279 151.745 99.2498 151.137 99.2498 150.388C99.2498 149.639 97.6279 149.031 95.6272 149.031C93.6265 149.031 92.0046 149.639 92.0046 150.388C92.0046 151.137 93.6265 151.745 95.6272 151.745Z" fill="#2F2E41"/>
<path d="M90.3371 132.751C93.0368 132.671 95.1611 130.422 95.0818 127.726C95.0024 125.03 92.7495 122.908 90.0498 122.988C87.35 123.067 85.2257 125.317 85.305 128.013C85.3844 130.709 87.6373 132.83 90.3371 132.751Z" fill="white"/>
<path d="M90.1934 129.497C91.0937 129.497 91.8236 128.768 91.8236 127.869C91.8236 126.97 91.0937 126.241 90.1934 126.241C89.2931 126.241 88.5632 126.97 88.5632 127.869C88.5632 128.768 89.2931 129.497 90.1934 129.497Z" fill="#3F3D56"/>
<path d="M75.9508 118.198C74.7954 113.031 78.4888 107.81 84.2001 106.536C89.9115 105.263 95.4781 108.419 96.6335 113.586C97.7889 118.754 94.0038 120.659 88.2924 121.933C82.581 123.206 77.1062 123.365 75.9508 118.198Z" fill="#FFD5AA"/>
<path d="M80.1786 127.918C80.7102 126.799 78.2469 124.521 74.6767 122.83C71.1065 121.139 67.7814 120.676 67.2498 121.795C66.7183 122.914 69.1815 125.192 72.7517 126.883C76.3219 128.574 79.647 129.037 80.1786 127.918Z" fill="#2F2E41"/>
<path d="M82.8025 136.642C82.8025 138.04 86.4085 140.802 90.4099 140.802C94.4113 140.802 98.163 136.864 98.163 135.466C98.163 134.067 94.4113 135.737 90.4099 135.737C86.4085 135.737 82.8025 135.243 82.8025 136.642Z" fill="white"/>
<path d="M190.466 92.6557L174.924 107.974L139.798 142.586L139.087 143.286L135.127 147.188L126.824 138.996L126.093 138.276L110.912 123.303H110.909L106.045 118.502L103.171 115.665L94.6119 107.224L93.4558 106.083L79.8135 92.6259C77.1033 89.9204 74.8061 86.8316 72.9957 83.4586C72.8296 83.1567 72.6734 82.8515 72.5206 82.5462C69.2854 76.105 67.9011 68.8945 68.5215 61.7152C69.1419 54.5359 71.7427 47.6687 76.0351 41.8762C80.3275 36.0837 86.1436 31.5925 92.8375 28.9012C99.5314 26.2099 106.841 25.4239 113.956 26.6305H113.959C114.085 26.6504 114.208 26.6703 114.334 26.6968C115.669 26.932 116.99 27.2388 118.292 27.6159C121.697 28.599 124.952 30.0423 127.967 31.9058C128.282 32.1016 128.595 32.3007 128.904 32.503C131.113 33.961 133.169 35.6384 135.04 37.5097L135.157 37.3936L135.273 37.5097C136.406 36.3781 137.608 35.3166 138.871 34.3312C139.147 34.1155 139.426 33.9032 139.705 33.6975C143.978 30.5513 148.849 28.3089 154.02 27.1074C159.19 25.906 164.552 25.7708 169.777 26.7101C171.113 26.9452 172.435 27.2531 173.738 27.6324C174.173 27.7552 174.605 27.8879 175.033 28.0306C175.379 28.1434 175.724 28.2595 176.067 28.3856C178.916 29.4027 181.636 30.7501 184.17 32.4002C184.725 32.7618 185.272 33.1401 185.812 33.5349C190.377 36.8491 194.169 41.1121 196.926 46.0303C199.683 50.9485 201.34 56.405 201.782 62.0241C202.225 67.6432 201.442 73.2913 199.489 78.5794C197.535 83.8674 194.457 88.6698 190.466 92.6557V92.6557Z" fill="#FF6565"/>
<path opacity="0.15" d="M174.924 107.974L139.798 142.586L139.087 143.286L135.127 147.188L126.824 138.996L126.093 138.276L110.912 123.303C113.351 122.735 117.099 123.515 118.471 124.192C121.724 125.794 124.398 128.425 127.701 129.925C130.65 131.255 133.945 131.618 137.114 130.964C143.034 129.723 147.616 125.151 151.656 120.652C155.696 116.149 159.826 111.319 165.504 109.232C168.498 108.13 171.714 107.881 174.924 107.974Z" fill="black"/>
<path d="M200.46 38.15C195.627 33.3097 189.61 29.8154 183.007 28.014C182.569 27.8912 182.133 27.7817 181.692 27.6789C179.792 27.2256 177.86 26.9161 175.914 26.7532C175.575 26.72 175.236 26.6968 174.894 26.6802C173.186 26.5724 171.474 26.579 169.767 26.7001C160.42 27.3247 151.602 31.2601 144.901 37.7983L144.782 37.6789L144.662 37.7983C140.284 33.5325 134.972 30.3428 129.146 28.4818C128.817 28.3756 128.485 28.2727 128.153 28.1765C123.666 26.877 118.985 26.3772 114.324 26.7001C114.195 26.7067 114.065 26.7167 113.939 26.73C105.394 27.3842 97.2964 30.8096 90.8808 36.4844C90.276 37.0153 89.6812 37.5727 89.1032 38.15C83.6719 43.5837 79.9427 50.4791 78.3708 57.9942C76.799 65.5094 77.4527 73.3189 80.252 80.4692C80.3683 80.7811 80.4945 81.0897 80.6274 81.3982C82.6046 86.1064 85.4838 90.3836 89.1032 93.9895L102.034 106.737L103.051 107.742L131.033 135.323L131.754 136.037L139.104 143.283L144.782 148.88L200.46 93.9862C207.865 86.5762 212.023 76.5359 212.023 66.0681C212.023 55.6003 207.865 45.5599 200.46 38.15ZM199.759 93.2795L144.782 147.48L139.815 142.583L132.621 135.493L131.9 134.782L104.463 107.732L103.463 106.747L89.8074 93.2828C86.302 89.7913 83.5082 85.6538 81.581 81.0996C81.4481 80.7911 81.3217 80.4825 81.2056 80.1739C78.4588 73.1975 77.8097 65.5724 79.3375 58.233C80.8654 50.8937 84.504 44.1587 89.8074 38.8534C90.4255 38.2363 91.0579 37.6457 91.7046 37.0817H91.708C97.8802 31.6879 105.622 28.4132 113.796 27.7386C114.882 27.6457 115.97 27.5992 117.059 27.5992C117.467 27.5992 117.873 27.6059 118.281 27.6191C121.62 27.7218 124.932 28.2571 128.133 29.2117C128.462 29.3079 128.79 29.4108 129.116 29.5203C132.579 30.6473 135.861 32.2664 138.861 34.3278C140.814 35.6653 142.64 37.1803 144.313 38.8534L144.666 39.2051L144.782 39.089L144.898 39.2051L145.25 38.8534C148.973 35.1321 153.421 32.2146 158.32 30.2821C163.219 28.3495 168.463 27.4431 173.727 27.6191C174.149 27.6324 174.571 27.6523 174.993 27.6822C175.332 27.7021 175.671 27.7253 176.007 27.7585C178.149 27.9503 180.27 28.3221 182.349 28.87C182.795 28.9828 183.237 29.1055 183.675 29.2416C190.05 31.1666 195.816 34.7088 200.411 39.5227C205.006 44.3365 208.273 50.2576 209.893 56.7082C211.513 63.1587 211.431 69.9186 209.655 76.3281C207.879 82.7377 204.47 88.5781 199.759 93.2795V93.2795Z" fill="#3F3D56"/>
<path opacity="0.15" d="M122.561 29.1219C120.428 30.8041 118.138 32.3569 116.753 34.6561C115.733 36.3549 115.291 38.329 114.962 40.2799C114.324 44.0755 114.052 47.964 112.802 51.6037C111.556 55.2434 109.124 58.7205 105.52 60.0775C103.283 60.9169 100.818 60.8705 98.436 60.7079C92.5585 60.3098 86.6411 59.258 81.3517 56.6734C78.3947 55.2268 75.5272 53.2759 72.2414 53.0602C71.5727 53.0173 70.9012 53.0541 70.2412 53.1697C73.1083 44.2324 79.1078 36.6279 87.1381 31.7526C95.1683 26.8773 104.69 25.0586 113.955 26.6302H113.959C114.085 26.6502 114.208 26.6701 114.334 26.6966C115.669 26.9318 116.99 27.2386 118.291 27.6156C119.742 28.0348 121.168 28.5378 122.561 29.1219Z" fill="black"/>
<path d="M28.8276 134.318C30.3751 134.861 32.0367 134.997 33.6522 134.713C35.2677 134.429 36.7826 133.734 38.0511 132.695C41.2817 129.988 42.2946 125.527 43.1188 121.396L45.5565 109.178L40.4529 112.688C36.7828 115.211 33.0299 117.816 30.4887 121.471C27.9475 125.126 26.8383 130.116 28.88 134.071L28.8276 134.318Z" fill="#2F2E41"/>
<path d="M29.2636 149.11C28.7471 145.352 28.2159 141.547 28.5782 137.749C28.9 134.377 29.9304 131.083 32.0281 128.382C33.1416 126.951 34.4965 125.725 36.0319 124.759C36.4322 124.506 36.8007 125.14 36.4021 125.391C33.7455 127.068 31.6906 129.544 30.5339 132.462C29.2563 135.707 29.0512 139.244 29.2713 142.691C29.4045 144.776 29.6866 146.847 29.971 148.915C29.9934 149.008 29.9794 149.107 29.9319 149.191C29.8843 149.274 29.8067 149.337 29.7148 149.365C29.621 149.391 29.521 149.378 29.4366 149.33C29.3521 149.282 29.29 149.203 29.2636 149.11H29.2636Z" fill="#CCCCCC"/>
<path d="M34.239 142.461C34.9027 143.468 35.815 144.288 36.8881 144.841C37.9611 145.394 39.1587 145.662 40.3654 145.619C43.4667 145.472 46.0521 143.31 48.3796 141.258L55.2636 135.188L50.7075 134.971C47.4311 134.814 44.0701 134.668 40.9493 135.677C37.8286 136.686 34.9505 139.114 34.3799 142.34L34.239 142.461Z" fill="#2F2E41"/>
<path d="M27.8039 151.27C30.2901 146.877 33.1739 141.994 38.3267 140.434C39.7595 140.001 41.2618 139.847 42.7528 139.977C43.2227 140.018 43.1054 140.741 42.6363 140.701C40.1371 140.494 37.6427 141.153 35.573 142.567C33.5814 143.921 32.0307 145.803 30.7183 147.799C29.9143 149.021 29.1942 150.295 28.474 151.568C28.2438 151.975 27.571 151.681 27.8039 151.27H27.8039Z" fill="#CCCCCC"/>
<path d="M99.7054 39.5216C107.608 39.5216 114.015 33.1241 114.015 25.2325C114.015 17.3408 107.608 10.9434 99.7054 10.9434C91.8027 10.9434 85.3962 17.3408 85.3962 25.2325C85.3962 33.1241 91.8027 39.5216 99.7054 39.5216Z" fill="#2F2E41"/>
<path d="M97.5319 36.4468H93.1848V44.2244H97.5319V36.4468Z" fill="#2F2E41"/>
<path d="M106.226 36.4468H101.879V44.2244H106.226V36.4468Z" fill="#2F2E41"/>
<path d="M96.8074 45.6714C98.8081 45.6714 100.43 45.064 100.43 44.3148C100.43 43.5656 98.8081 42.9583 96.8074 42.9583C94.8067 42.9583 93.1848 43.5656 93.1848 44.3148C93.1848 45.064 94.8067 45.6714 96.8074 45.6714Z" fill="#2F2E41"/>
<path d="M105.501 45.4905C107.502 45.4905 109.124 44.8831 109.124 44.1339C109.124 43.3847 107.502 42.7773 105.501 42.7773C103.501 42.7773 101.879 43.3847 101.879 44.1339C101.879 44.8831 103.501 45.4905 105.501 45.4905Z" fill="#2F2E41"/>
<path d="M100.068 26.4987C102.769 26.4987 104.958 24.3122 104.958 21.6151C104.958 18.9179 102.769 16.7314 100.068 16.7314C97.3668 16.7314 95.1772 18.9179 95.1772 21.6151C95.1772 24.3122 97.3668 26.4987 100.068 26.4987Z" fill="white"/>
<path d="M102.885 23.7651C103.519 23.1322 103.515 22.1021 102.877 21.4644C102.239 20.8267 101.207 20.8229 100.573 21.4558C99.9391 22.0887 99.9425 23.1188 100.581 23.7565C101.219 24.3942 102.251 24.398 102.885 23.7651Z" fill="#3F3D56"/>
<path d="M85.8251 11.9441C84.6697 6.77693 88.363 1.55574 94.0744 0.282226C99.7858 -0.991292 105.352 2.16515 106.508 7.33231C107.663 12.4995 103.878 14.4052 98.1667 15.6787C92.4553 16.9522 86.9805 17.1113 85.8251 11.9441Z" fill="#FFD5AA"/>
<path d="M214.77 122.592C215.727 121.803 214.465 118.697 211.951 115.653C209.437 112.608 206.623 110.779 205.666 111.568C204.709 112.356 205.972 115.462 208.486 118.507C211 121.551 213.813 123.38 214.77 122.592Z" fill="#2F2E41"/>
<path d="M224.967 145.446C232.768 144.182 238.065 136.842 236.799 129.052C235.534 121.263 228.184 115.972 220.383 117.237C212.582 118.501 207.285 125.84 208.551 133.63C209.817 141.42 217.166 146.71 224.967 145.446Z" fill="#2F2E41"/>
<path d="M229.196 142.555H224.849V150.333H229.196V142.555Z" fill="#2F2E41"/>
<path d="M220.502 142.555H216.155V150.333H220.502V142.555Z" fill="#2F2E41"/>
<path d="M225.573 151.78C227.574 151.78 229.196 151.172 229.196 150.423C229.196 149.674 227.574 149.067 225.573 149.067C223.573 149.067 221.951 149.674 221.951 150.423C221.951 151.172 223.573 151.78 225.573 151.78Z" fill="#2F2E41"/>
<path d="M216.879 151.599C218.88 151.599 220.502 150.992 220.502 150.242C220.502 149.493 218.88 148.886 216.879 148.886C214.878 148.886 213.256 149.493 213.256 150.242C213.256 150.992 214.878 151.599 216.879 151.599Z" fill="#2F2E41"/>
<path d="M227.685 123.717C223.174 119.995 220.667 116.582 224.044 112.5C227.421 108.419 233.816 108.128 238.327 111.85C242.838 115.573 243.757 121.899 240.38 125.98C237.003 130.062 232.196 127.44 227.685 123.717Z" fill="#FFD5AA"/>
<path d="M217.871 128.808C220.571 128.729 222.696 126.479 222.616 123.783C222.537 121.087 220.284 118.966 217.584 119.045C214.884 119.124 212.76 121.374 212.839 124.07C212.919 126.766 215.172 128.887 217.871 128.808Z" fill="white"/>
<path d="M216.009 124.345C216.909 124.345 217.639 123.616 217.639 122.717C217.639 121.818 216.909 121.089 216.009 121.089C215.109 121.089 214.379 121.818 214.379 122.717C214.379 123.616 215.109 124.345 216.009 124.345Z" fill="#3F3D56"/>
<path d="M210.336 127.948C209.346 128.937 208.645 132.144 210.038 133.535C211.431 134.926 215.525 133.446 216.516 132.457C217.506 131.468 215.017 131.344 213.625 129.953C212.232 128.562 211.326 126.959 210.336 127.948Z" fill="white"/>
<path d="M236.258 150.449C237.416 150.007 237.212 146.661 235.801 142.975C234.391 139.289 232.308 136.66 231.149 137.102C229.99 137.544 230.195 140.891 231.605 144.577C233.016 148.262 235.099 150.892 236.258 150.449Z" fill="#2F2E41"/>
<path d="M267.71 152H0.290043C0.213119 152 0.139345 151.965 0.0849515 151.903C0.0305578 151.841 0 151.756 0 151.668C0 151.58 0.0305578 151.496 0.0849515 151.434C0.139345 151.371 0.213119 151.336 0.290043 151.336H267.71C267.787 151.336 267.861 151.371 267.915 151.434C267.969 151.496 268 151.58 268 151.668C268 151.756 267.969 151.841 267.915 151.903C267.861 151.965 267.787 152 267.71 152Z" fill="#CCCCCC"/>
</g>
<defs>
<clipPath id="clip0_2229_1376">
<rect width="268" height="152" fill="white"/>
</clipPath>
</defs>
</svg>
