<svg width="260" height="260" viewBox="0 0 260 260" fill="none" xmlns="http://www.w3.org/2000/svg">
<path d="M132.823 51.4312C132.067 50.708 131.061 50.3043 130.015 50.3043C128.969 50.3043 127.963 50.708 127.207 51.4312L33.7188 140.74C33.3217 141.12 33.0058 141.576 32.7903 142.082C32.5747 142.587 32.4638 143.131 32.4645 143.68L32.4492 227.5C32.4492 231.81 34.1613 235.943 37.2087 238.99C40.2562 242.038 44.3895 243.75 48.6992 243.75H97.5C99.6549 243.75 101.722 242.894 103.245 241.37C104.769 239.846 105.625 237.78 105.625 235.625V166.562C105.625 165.485 106.053 164.452 106.815 163.69C107.577 162.928 108.61 162.5 109.688 162.5H150.313C151.39 162.5 152.423 162.928 153.185 163.69C153.947 164.452 154.375 165.485 154.375 166.562V235.625C154.375 237.78 155.231 239.846 156.755 241.37C158.279 242.894 160.345 243.75 162.5 243.75H211.28C215.59 243.75 219.724 242.038 222.771 238.99C225.818 235.943 227.53 231.81 227.53 227.5V143.68C227.531 143.131 227.42 142.587 227.205 142.082C226.989 141.576 226.673 141.12 226.276 140.74L132.823 51.4312Z" fill="#964B00"/>
<path d="M249.29 123.982L211.306 87.6434V32.5C211.306 30.3451 210.45 28.2785 208.926 26.7548C207.402 25.231 205.336 24.375 203.181 24.375H178.806C176.651 24.375 174.584 25.231 173.061 26.7548C171.537 28.2785 170.681 30.3451 170.681 32.5V48.75L141.268 20.6273C138.516 17.8445 134.423 16.25 130 16.25C125.592 16.25 121.509 17.8445 118.757 20.6324L10.7453 123.972C7.58667 127.019 7.19057 132.031 10.0648 135.332C10.7866 136.165 11.6703 136.843 12.6622 137.324C13.6542 137.804 14.7336 138.078 15.8348 138.129C16.9359 138.179 18.0358 138.005 19.0675 137.616C20.0992 137.228 21.0411 136.634 21.8359 135.87L127.207 35.1812C127.963 34.458 128.969 34.0544 130.015 34.0544C131.061 34.0544 132.067 34.458 132.823 35.1812L238.205 135.87C239.757 137.359 241.836 138.171 243.987 138.129C246.137 138.088 248.183 137.195 249.676 135.647C252.794 132.417 252.535 127.085 249.29 123.982Z" fill="#FFD5AA"/>
</svg>
