<svg width="31" height="31" viewBox="0 0 31 31" fill="none" xmlns="http://www.w3.org/2000/svg">
<path d="M17.3029 2.84705L17.3028 2.84694C16.8246 2.36889 16.1761 2.10033 15.5 2.10033C14.8238 2.10033 14.1753 2.36889 13.6971 2.84694L13.697 2.84705L2.84702 13.697L2.84087 13.7032L2.83483 13.7094C2.37033 14.1904 2.1133 14.8345 2.11911 15.5031C2.12492 16.1717 2.39311 16.8113 2.8659 17.2841C3.33869 17.7569 3.97826 18.025 4.64686 18.0309C4.83417 18.0325 5.01956 18.0135 5.19997 17.9751V26.35C5.19997 27.0263 5.46863 27.6749 5.94685 28.1531C6.42507 28.6313 7.07367 28.9 7.74997 28.9H10.85C11.5263 28.9 12.1749 28.6313 12.6531 28.1531C13.1313 27.6749 13.4 27.0263 13.4 26.35V23.25C13.4 23.1041 13.4579 22.9642 13.5611 22.8611C13.6642 22.7579 13.8041 22.7 13.95 22.7H17.05C17.1958 22.7 17.3357 22.7579 17.4389 22.8611L18.146 22.154L17.4389 22.8611C17.542 22.9642 17.6 23.1041 17.6 23.25V26.35C17.6 27.0263 17.8686 27.6749 18.3469 28.1531C18.8251 28.6313 19.4737 28.9 20.15 28.9H23.25C23.9263 28.9 24.5749 28.6313 25.0531 28.1531C25.5313 27.6749 25.8 27.0263 25.8 26.35V17.9751C25.9804 18.0135 26.1658 18.0325 26.3531 18.0309C27.0217 18.025 27.6613 17.7569 28.134 17.2841C28.6068 16.8113 28.875 16.1717 28.8808 15.5031C28.8866 14.8345 28.6296 14.1904 28.1651 13.7094L28.1591 13.7032L28.1529 13.697L17.3029 2.84705Z" stroke="#ADADAF" stroke-width="2"/>
</svg>
