<svg width="289" height="281" viewBox="0 0 289 281" fill="none" xmlns="http://www.w3.org/2000/svg">
<path d="M68.267 265.974C68.2323 265.974 68.189 265.974 68.137 265.974C68.1023 265.957 68.059 265.939 68.007 265.922L67.851 265.844C67.383 265.549 66.9757 265.333 66.629 265.194C66.2997 265.038 66.1177 264.761 66.083 264.362C66.0657 264.067 66.083 263.651 66.135 263.114C66.187 262.559 66.265 261.953 66.369 261.294C66.473 260.635 66.577 260.011 66.681 259.422C66.5597 259.561 66.4383 259.717 66.317 259.89C66.1957 260.063 66.0137 260.306 65.771 260.618C65.7363 260.67 65.7017 260.679 65.667 260.644C65.6323 260.592 65.6323 260.54 65.667 260.488C65.8923 260.141 66.1523 259.751 66.447 259.318C66.7417 258.867 67.019 258.434 67.279 258.018C67.539 257.585 67.7297 257.255 67.851 257.03C67.903 256.926 68.0157 256.961 68.189 257.134C68.3797 257.307 68.553 257.515 68.709 257.758C68.8823 257.983 68.9603 258.139 68.943 258.226C68.8737 258.417 68.761 258.737 68.605 259.188C68.4663 259.621 68.3277 260.124 68.189 260.696C68.0503 261.251 67.929 261.823 67.825 262.412C67.721 263.001 67.669 263.539 67.669 264.024C67.669 264.457 67.721 264.83 67.825 265.142C67.9463 265.454 68.1197 265.627 68.345 265.662C68.657 265.697 68.9603 265.575 69.255 265.298C69.567 265.003 69.853 264.622 70.113 264.154C70.373 263.669 70.607 263.149 70.815 262.594C71.023 262.039 71.1963 261.519 71.335 261.034C71.3177 260.861 71.3003 260.696 71.283 260.54C71.283 260.384 71.283 260.219 71.283 260.046C71.283 259.699 71.3003 259.353 71.335 259.006C71.3697 258.659 71.4043 258.321 71.439 257.992C71.4563 257.923 71.5517 257.836 71.725 257.732C71.8983 257.611 72.089 257.507 72.297 257.42C72.5223 257.316 72.7043 257.247 72.843 257.212C72.999 257.177 73.0597 257.195 73.025 257.264C72.921 257.749 72.869 258.365 72.869 259.11C72.869 259.925 72.947 260.774 73.103 261.658C73.259 262.542 73.5017 263.261 73.831 263.816C74.0737 264.163 74.3337 264.414 74.611 264.57C74.8883 264.726 75.1657 264.804 75.443 264.804C75.911 264.804 76.3443 264.613 76.743 264.232C77.159 263.851 77.4537 263.348 77.627 262.724C77.8177 262.1 77.913 261.259 77.913 260.202C77.913 259.613 77.861 259.041 77.757 258.486C77.6703 257.931 77.5143 257.472 77.289 257.108C77.0637 256.744 76.7603 256.562 76.379 256.562C76.0323 256.562 75.729 256.692 75.469 256.952C75.209 257.195 75.001 257.489 74.845 257.836C74.7063 258.183 74.637 258.521 74.637 258.85C74.637 259.231 74.7497 259.578 74.975 259.89C75.2003 260.185 75.4517 260.332 75.729 260.332C75.9717 260.332 76.1883 260.211 76.379 259.968C76.431 259.899 76.483 259.89 76.535 259.942C76.587 259.977 76.587 260.02 76.535 260.072C76.3963 260.263 76.2577 260.393 76.119 260.462C75.9803 260.531 75.8417 260.566 75.703 260.566C75.183 260.566 74.7583 260.349 74.429 259.916C74.117 259.483 73.961 258.989 73.961 258.434C73.961 257.619 74.1603 257.047 74.559 256.718C74.9577 256.371 75.5037 256.198 76.197 256.198C77.237 256.198 77.9823 256.475 78.433 257.03C78.8837 257.585 79.109 258.321 79.109 259.24C79.109 260.003 78.9617 260.783 78.667 261.58C78.3723 262.377 78.0257 263.088 77.627 263.712C77.3497 264.145 76.925 264.518 76.353 264.83C75.7983 265.142 75.2177 265.298 74.611 265.298C74.195 265.298 73.7877 265.203 73.389 265.012C73.0077 264.821 72.6697 264.509 72.375 264.076C72.1323 263.712 71.9243 263.331 71.751 262.932C71.595 262.516 71.4823 262.083 71.413 261.632C71.205 262.308 70.945 262.993 70.633 263.686C70.3383 264.362 69.9917 264.925 69.593 265.376C69.1943 265.809 68.7523 266.009 68.267 265.974ZM82.7947 256.926C82.4654 256.926 82.214 256.813 82.0407 256.588C81.8674 256.363 81.7807 256.085 81.7807 255.756C81.7807 255.427 81.85 255.201 81.9887 255.08C82.1274 254.959 82.3614 254.898 82.6907 254.898C82.864 254.898 83.0374 254.889 83.2107 254.872C83.384 254.837 83.5487 254.82 83.7047 254.82C84.0514 254.82 84.2247 254.95 84.2247 255.21C84.2247 255.418 84.1467 255.661 83.9907 255.938C83.852 256.198 83.67 256.432 83.4447 256.64C83.2367 256.831 83.02 256.926 82.7947 256.926ZM82.0147 266.858C81.9627 266.91 81.798 266.858 81.5207 266.702C81.2434 266.546 80.9747 266.355 80.7147 266.13C80.4547 265.922 80.3074 265.757 80.2727 265.636C80.1167 265.116 80.0387 264.44 80.0387 263.608C80.0387 262.88 80.0994 262.135 80.2207 261.372C80.3594 260.592 80.55 259.873 80.7927 259.214C81.0354 258.555 81.33 258.061 81.6767 257.732C81.746 257.663 81.8674 257.663 82.0407 257.732C82.214 257.784 82.396 257.871 82.5867 257.992C82.7947 258.113 82.9507 258.235 83.0547 258.356C83.176 258.477 83.202 258.573 83.1327 258.642C82.8034 259.006 82.5 259.509 82.2227 260.15C81.9627 260.791 81.7547 261.467 81.5987 262.178C81.46 262.871 81.3907 263.504 81.3907 264.076C81.3907 264.405 81.4167 264.709 81.4687 264.986C81.538 265.263 81.6334 265.48 81.7547 265.636C81.98 265.22 82.318 264.648 82.7687 263.92C83.2367 263.192 83.748 262.421 84.3027 261.606C84.8747 260.791 85.438 260.055 85.9927 259.396C86.0794 259.292 86.1487 259.257 86.2007 259.292C86.2527 259.327 86.244 259.387 86.1747 259.474C85.984 259.717 85.7934 259.994 85.6027 260.306C85.412 260.601 85.2127 260.913 85.0047 261.242C84.3114 262.386 83.6874 263.461 83.1327 264.466C82.578 265.454 82.2054 266.251 82.0147 266.858ZM87.2198 266.858C87.1678 266.91 87.0031 266.858 86.7258 266.702C86.4484 266.546 86.1798 266.355 85.9198 266.13C85.6598 265.922 85.5124 265.757 85.4778 265.636C85.3218 265.133 85.2091 264.518 85.1398 263.79C85.0878 263.062 85.0618 262.273 85.0618 261.424C85.0618 260.54 85.0878 259.63 85.1398 258.694C85.2091 257.758 85.2958 256.865 85.3998 256.016C85.5038 255.149 85.6164 254.387 85.7378 253.728C84.9231 253.728 84.1518 253.728 83.4238 253.728C82.6784 253.711 82.0544 253.693 81.5518 253.676C81.0318 253.641 80.7024 253.607 80.5638 253.572C80.4944 253.537 80.5118 253.425 80.6158 253.234C80.7198 253.043 80.8584 252.861 81.0318 252.688C81.2051 252.497 81.3698 252.419 81.5258 252.454C81.9764 252.541 82.5831 252.645 83.3458 252.766C84.1084 252.887 84.9578 252.991 85.8938 253.078C86.2058 251.778 86.6218 250.591 87.1418 249.516C87.6618 248.424 88.2598 247.592 88.9358 247.02C89.2131 246.795 89.5424 246.682 89.9238 246.682C90.2184 246.682 90.5044 246.769 90.7818 246.942C91.0591 247.098 91.2584 247.349 91.3798 247.696C91.4664 247.731 91.5098 247.843 91.5098 248.034C91.5098 248.311 91.4231 248.71 91.2498 249.23C91.0764 249.733 90.9378 250.157 90.8338 250.504C90.6951 250.903 90.5218 251.345 90.3138 251.83C90.1231 252.298 89.8978 252.792 89.6378 253.312C90.1924 253.312 90.7558 253.286 91.3278 253.234C91.8998 253.182 92.4631 253.087 93.0178 252.948C93.0524 252.948 93.0698 252.948 93.0698 252.948C93.0871 252.931 93.1044 252.922 93.1218 252.922C93.2604 252.922 93.3298 252.974 93.3298 253.078C93.3298 253.147 93.2691 253.208 93.1478 253.26C92.8878 253.399 92.5411 253.477 92.1078 253.494C91.6744 253.494 91.2584 253.511 90.8598 253.546L89.4818 253.624C89.0831 254.439 88.6238 255.271 88.1038 256.12C87.6011 256.952 87.0811 257.732 86.5438 258.46C86.5091 258.893 86.4831 259.353 86.4658 259.838C86.4484 260.323 86.4398 260.817 86.4398 261.32C86.4398 262.325 86.4831 263.244 86.5698 264.076C86.6564 264.908 86.7864 265.428 86.9598 265.636C87.1851 265.22 87.5231 264.648 87.9738 263.92C88.4418 263.192 88.9531 262.421 89.5078 261.606C90.0798 260.791 90.6431 260.055 91.1978 259.396C91.2844 259.292 91.3538 259.257 91.4058 259.292C91.4578 259.327 91.4491 259.387 91.3798 259.474C91.1891 259.717 90.9984 259.994 90.8078 260.306C90.6171 260.601 90.4178 260.913 90.2098 261.242C89.5164 262.386 88.8924 263.461 88.3378 264.466C87.7831 265.454 87.4104 266.251 87.2198 266.858ZM89.0658 253.286C89.3604 252.697 89.6118 252.133 89.8198 251.596C90.0451 251.041 90.2444 250.513 90.4178 250.01C90.5911 249.438 90.6778 248.97 90.6778 248.606C90.6778 248.173 90.5738 247.956 90.3658 247.956C90.2791 247.956 90.1924 247.999 90.1058 248.086C89.4298 248.71 88.8664 249.473 88.4158 250.374C87.9824 251.275 87.6271 252.22 87.3498 253.208C87.5578 253.225 87.7658 253.243 87.9738 253.26C88.1818 253.26 88.3984 253.26 88.6238 253.26C88.6931 253.277 88.7624 253.286 88.8318 253.286C88.9011 253.286 88.9791 253.286 89.0658 253.286ZM86.5438 257.81C86.9424 257.186 87.3411 256.519 87.7398 255.808C88.1558 255.097 88.5371 254.378 88.8838 253.65C88.6064 253.65 88.3291 253.659 88.0518 253.676C87.7744 253.676 87.4884 253.685 87.1938 253.702C87.0031 254.43 86.8558 255.141 86.7518 255.834C86.6651 256.527 86.5958 257.186 86.5438 257.81ZM92.3728 268.444C92.3902 268.149 92.4335 267.785 92.5028 267.352C92.5722 266.919 92.6675 266.451 92.7888 265.948C92.5462 266.069 92.3122 266.173 92.0868 266.26C91.8615 266.347 91.7488 266.373 91.7488 266.338C91.5755 265.419 91.4368 264.431 91.3328 263.374C91.2462 262.299 91.2028 261.181 91.2028 260.02C91.2028 258.633 91.2808 257.229 91.4368 255.808C91.6102 254.369 91.8702 252.991 92.2168 251.674C92.5808 250.339 93.0488 249.109 93.6208 247.982C94.2102 246.855 94.9295 245.893 95.7788 245.096C96.0042 244.905 96.2382 244.81 96.4808 244.81C96.7755 244.81 97.0702 244.931 97.3648 245.174C97.6768 245.417 97.9108 245.737 98.0668 246.136C98.2748 246.24 98.3788 246.483 98.3788 246.864C98.3788 247.176 98.3008 247.557 98.1448 248.008C97.9368 248.597 97.6075 249.325 97.1568 250.192C96.7062 251.059 96.1948 251.977 95.6228 252.948C95.0682 253.901 94.5135 254.82 93.9588 255.704C93.4215 256.571 92.9622 257.316 92.5808 257.94C92.5635 258.131 92.5548 258.321 92.5548 258.512C92.5548 258.703 92.5548 258.893 92.5548 259.084C92.5548 260.193 92.6068 261.233 92.7108 262.204C92.8322 263.175 92.9622 263.972 93.1008 264.596C93.3262 263.764 93.5688 262.941 93.8288 262.126C94.0888 261.294 94.3402 260.592 94.5828 260.02C94.8602 259.396 95.1722 258.833 95.5188 258.33C95.8828 257.81 96.2035 257.55 96.4808 257.55C96.7235 257.55 96.9055 257.775 97.0268 258.226C97.0615 258.399 97.1568 258.685 97.3128 259.084C97.4862 259.483 97.6942 259.933 97.9368 260.436C98.1795 260.921 98.4482 261.389 98.7428 261.84C99.0375 262.291 99.3322 262.655 99.6268 262.932C99.9215 263.192 100.208 263.287 100.485 263.218C100.624 263.183 100.91 263.01 101.343 262.698C101.776 262.369 102.305 261.736 102.929 260.8C103.102 260.557 103.267 260.315 103.423 260.072C103.596 259.829 103.77 259.604 103.943 259.396C104.03 259.292 104.099 259.257 104.151 259.292C104.203 259.327 104.194 259.387 104.125 259.474C103.588 260.202 103.042 260.999 102.487 261.866C101.932 262.715 101.456 263.556 101.057 264.388C100.918 264.665 100.736 264.873 100.511 265.012C100.303 265.151 100.078 265.22 99.8348 265.22C99.1935 265.22 98.6735 264.882 98.2748 264.206C97.5295 262.923 96.9488 261.901 96.5328 261.138C96.1342 260.358 95.7528 259.968 95.3888 259.968C95.1115 259.968 94.8428 260.245 94.5828 260.8C94.3575 261.303 94.1235 261.944 93.8808 262.724C93.6382 263.487 93.4128 264.267 93.2048 265.064C93.2395 265.151 93.2655 265.237 93.2828 265.324C93.3175 265.411 93.3522 265.489 93.3868 265.558C93.3868 265.61 93.2655 265.705 93.0228 265.844C92.9015 266.364 92.7975 266.849 92.7108 267.3C92.6242 267.768 92.5722 268.149 92.5548 268.444C92.5548 268.513 92.5202 268.539 92.4508 268.522C92.3988 268.522 92.3728 268.496 92.3728 268.444ZM92.6068 257.342C93.0055 256.683 93.4562 255.929 93.9588 255.08C94.4615 254.231 94.9555 253.364 95.4408 252.48C95.9435 251.579 96.3942 250.712 96.7928 249.88C97.2088 249.048 97.5208 248.32 97.7288 247.696C97.8502 247.315 97.9108 247.003 97.9108 246.76C97.9108 246.379 97.7722 246.188 97.4948 246.188C97.2522 246.188 97.0182 246.301 96.7928 246.526C95.7355 247.531 94.8688 248.805 94.1928 250.348C93.5342 251.891 93.0835 253.485 92.8408 255.132C92.7195 255.877 92.6415 256.614 92.6068 257.342ZM109.37 265.142C108.746 265.142 108.252 264.917 107.888 264.466C107.542 264.015 107.282 263.461 107.108 262.802C106.935 262.143 106.822 261.476 106.77 260.8C106.736 260.107 106.718 259.526 106.718 259.058C106.718 257.879 106.805 256.623 106.978 255.288C107.152 253.936 107.412 252.619 107.758 251.336C108.122 250.053 108.573 248.901 109.11 247.878C109.665 246.838 110.306 246.058 111.034 245.538C111.364 245.295 111.736 245.174 112.152 245.174C112.43 245.174 112.69 245.252 112.932 245.408C113.192 245.547 113.383 245.789 113.504 246.136C113.712 246.24 113.816 246.483 113.816 246.864C113.816 247.176 113.738 247.557 113.582 248.008C113.374 248.597 113.045 249.317 112.594 250.166C112.144 251.015 111.641 251.917 111.086 252.87C110.532 253.806 109.986 254.716 109.448 255.6C108.911 256.467 108.452 257.212 108.07 257.836C108.053 258.339 108.062 258.902 108.096 259.526C108.148 260.15 108.218 260.748 108.304 261.32C108.408 261.875 108.53 262.334 108.668 262.698C108.79 263.01 108.928 263.235 109.084 263.374C109.258 263.495 109.448 263.556 109.656 263.556C109.951 263.556 110.28 263.426 110.644 263.166C111.008 262.906 111.355 262.611 111.684 262.282C112.135 261.831 112.525 261.355 112.854 260.852C113.201 260.332 113.574 259.829 113.972 259.344C114.024 259.275 114.076 259.24 114.128 259.24C114.232 259.24 114.241 259.318 114.154 259.474C113.756 259.977 113.366 260.523 112.984 261.112C112.603 261.684 112.23 262.273 111.866 262.88C111.71 263.175 111.511 263.504 111.268 263.868C111.026 264.215 110.748 264.518 110.436 264.778C110.124 265.021 109.769 265.142 109.37 265.142ZM108.122 257.212C108.538 256.553 108.989 255.808 109.474 254.976C109.977 254.144 110.471 253.286 110.956 252.402C111.442 251.518 111.875 250.669 112.256 249.854C112.655 249.039 112.958 248.32 113.166 247.696C113.288 247.315 113.348 247.003 113.348 246.76C113.348 246.379 113.21 246.188 112.932 246.188C112.69 246.188 112.456 246.301 112.23 246.526C111.537 247.167 110.939 247.921 110.436 248.788C109.934 249.637 109.509 250.556 109.162 251.544C108.92 252.237 108.729 252.879 108.59 253.468C108.452 254.057 108.348 254.647 108.278 255.236C108.226 255.825 108.174 256.484 108.122 257.212ZM116.501 266.65C115.998 266.65 115.548 266.468 115.149 266.104C114.768 265.757 114.438 265.315 114.161 264.778C113.901 264.223 113.702 263.66 113.563 263.088C113.424 262.499 113.355 261.979 113.355 261.528C113.355 260.141 113.537 258.893 113.901 257.784C114.282 256.657 114.837 255.895 115.565 255.496C115.981 255.305 116.423 255.21 116.891 255.21H117.203C117.29 255.21 117.368 255.21 117.437 255.21C117.524 255.21 117.61 255.227 117.697 255.262C117.888 255.383 117.983 255.453 117.983 255.47C117.983 255.487 117.844 255.496 117.567 255.496C116.787 255.496 116.18 255.704 115.747 256.12C115.331 256.519 115.028 257.03 114.837 257.654C114.664 258.261 114.551 258.893 114.499 259.552C114.464 260.193 114.447 260.757 114.447 261.242C114.447 261.467 114.473 261.779 114.525 262.178C114.577 262.559 114.672 262.949 114.811 263.348C114.967 263.729 115.184 264.059 115.461 264.336C115.756 264.596 116.137 264.726 116.605 264.726C117.056 264.726 117.454 264.535 117.801 264.154C118.148 263.755 118.425 263.296 118.633 262.776C118.841 262.239 118.945 261.762 118.945 261.346C118.945 260.791 118.884 260.219 118.763 259.63C118.642 259.023 118.451 258.521 118.191 258.122C117.74 257.463 117.255 257.134 116.735 257.134C116.094 257.134 115.773 257.602 115.773 258.538C115.773 259.595 115.964 260.124 116.345 260.124C116.432 260.124 116.518 260.081 116.605 259.994C116.709 259.907 116.787 259.812 116.839 259.708C116.874 259.639 116.908 259.578 116.943 259.526C116.978 259.474 117.012 259.431 117.047 259.396C117.082 259.361 117.099 259.335 117.099 259.318C117.186 259.318 117.229 259.379 117.229 259.5C117.229 259.812 117.099 260.072 116.839 260.28C116.596 260.471 116.38 260.566 116.189 260.566C115.894 260.566 115.678 260.41 115.539 260.098C115.4 259.769 115.331 259.309 115.331 258.72C115.331 257.385 115.756 256.718 116.605 256.718C117.281 256.718 117.896 257.073 118.451 257.784C118.728 258.183 118.954 258.642 119.127 259.162C119.3 259.665 119.404 260.211 119.439 260.8C119.439 260.939 119.439 261.086 119.439 261.242C119.456 261.381 119.465 261.545 119.465 261.736C119.465 262.135 119.404 262.611 119.283 263.166C119.179 263.721 119.006 264.267 118.763 264.804C118.538 265.324 118.234 265.757 117.853 266.104C117.472 266.468 117.021 266.65 116.501 266.65ZM123.236 266.208C123.254 266.087 123.262 265.931 123.262 265.74C123.28 265.532 123.288 265.298 123.288 265.038C123.288 264.535 123.262 263.972 123.21 263.348C123.176 262.707 123.098 262.083 122.976 261.476C122.872 260.852 122.716 260.306 122.508 259.838C122.318 259.37 122.066 259.049 121.754 258.876C121.72 258.859 121.685 258.85 121.65 258.85C121.616 258.833 121.581 258.824 121.546 258.824C121.373 258.824 121.191 258.954 121 259.214C120.896 259.335 120.818 259.396 120.766 259.396C120.68 259.396 120.636 259.335 120.636 259.214C120.636 259.058 120.706 258.919 120.844 258.798C121.139 258.607 121.52 258.512 121.988 258.512C122.612 258.512 123.106 258.729 123.47 259.162C123.834 259.578 124.094 260.115 124.25 260.774C124.424 261.415 124.528 262.091 124.562 262.802C124.614 263.513 124.64 264.154 124.64 264.726L124.744 264.336C124.883 263.833 125.004 263.365 125.108 262.932C125.23 262.481 125.36 262.057 125.498 261.658C125.602 261.311 125.732 260.895 125.888 260.41C126.044 259.925 126.235 259.439 126.46 258.954C126.703 258.469 126.989 258.07 127.318 257.758C127.648 257.429 128.029 257.264 128.462 257.264C128.636 257.264 128.809 257.281 128.982 257.316C129.156 257.351 129.329 257.42 129.502 257.524C129.589 257.576 129.615 257.628 129.58 257.68C129.563 257.715 129.511 257.706 129.424 257.654C129.338 257.585 129.234 257.55 129.112 257.55C128.783 257.55 128.428 257.784 128.046 258.252C127.665 258.703 127.275 259.283 126.876 259.994C126.495 260.705 126.14 261.441 125.81 262.204C125.481 262.949 125.204 263.625 124.978 264.232C124.77 264.821 124.649 265.237 124.614 265.48V265.636H124.588C124.554 265.723 124.415 265.835 124.172 265.974C123.93 266.095 123.704 266.182 123.496 266.234C123.288 266.303 123.202 266.295 123.236 266.208ZM132.34 266.364C131.75 266.364 131.256 266.165 130.858 265.766C130.459 265.367 130.156 264.839 129.948 264.18C129.74 263.521 129.636 262.802 129.636 262.022C129.636 261.398 129.679 260.739 129.766 260.046C129.852 259.335 129.991 258.677 130.182 258.07C130.39 257.446 130.658 256.961 130.988 256.614C131.421 256.094 132.123 255.834 133.094 255.834C133.908 255.834 134.463 256.007 134.758 256.354C135.07 256.701 135.226 257.143 135.226 257.68C135.226 257.94 135.191 258.226 135.122 258.538C135.052 258.833 134.974 259.127 134.888 259.422C134.749 259.855 134.567 260.289 134.342 260.722C134.134 261.138 133.856 261.493 133.51 261.788C133.163 262.065 132.721 262.221 132.184 262.256C132.114 262.256 131.967 262.239 131.742 262.204C131.534 262.152 131.334 262.048 131.144 261.892C131.178 262.36 131.239 262.837 131.326 263.322C131.412 263.79 131.568 264.189 131.794 264.518C132.019 264.83 132.348 264.986 132.782 264.986C133.198 264.986 133.605 264.804 134.004 264.44C134.402 264.059 134.766 263.634 135.096 263.166C135.425 262.681 135.694 262.282 135.902 261.97C136.196 261.537 136.491 261.103 136.786 260.67C137.08 260.219 137.358 259.847 137.618 259.552C137.704 259.448 137.765 259.396 137.8 259.396C137.904 259.396 137.895 259.474 137.774 259.63C137.236 260.341 136.673 261.199 136.084 262.204C135.512 263.14 135.035 263.92 134.654 264.544C134.272 265.151 133.908 265.61 133.562 265.922C133.215 266.217 132.808 266.364 132.34 266.364ZM132.132 261.944C132.34 261.944 132.53 261.823 132.704 261.58C132.894 261.337 133.059 261.043 133.198 260.696C133.336 260.349 133.449 260.02 133.536 259.708C133.622 259.396 133.674 259.162 133.692 259.006C133.709 258.763 133.735 258.477 133.77 258.148C133.822 257.819 133.848 257.515 133.848 257.238C133.848 256.943 133.804 256.692 133.718 256.484C133.648 256.276 133.501 256.172 133.276 256.172C133.085 256.172 132.86 256.302 132.6 256.562C132.357 256.805 132.14 257.099 131.95 257.446C131.69 257.931 131.49 258.521 131.352 259.214C131.23 259.89 131.161 260.583 131.144 261.294C131.265 261.45 131.395 261.597 131.534 261.736C131.69 261.875 131.889 261.944 132.132 261.944ZM146.903 273.93C146.487 273.93 146.071 273.8 145.655 273.54C145.239 273.297 144.883 272.873 144.589 272.266C144.259 271.607 143.973 270.723 143.731 269.614C143.488 268.522 143.297 267.317 143.159 266C143.02 264.683 142.933 263.374 142.899 262.074C142.812 262.178 142.734 262.291 142.665 262.412C142.595 262.533 142.526 262.655 142.457 262.776C142.301 263.001 142.188 263.114 142.119 263.114C142.049 263.114 142.049 262.967 142.119 262.672C142.205 262.36 142.37 262.013 142.613 261.632C142.647 261.563 142.691 261.493 142.743 261.424C142.795 261.355 142.847 261.294 142.899 261.242V260.722C142.899 259.578 142.985 258.356 143.159 257.056C143.349 255.756 143.609 254.473 143.939 253.208C144.285 251.943 144.693 250.799 145.161 249.776C145.629 248.736 146.14 247.913 146.695 247.306C147.267 246.682 147.865 246.37 148.489 246.37C148.835 246.37 149.121 246.457 149.347 246.63C149.572 246.803 149.763 247.089 149.919 247.488C150.127 247.592 150.231 247.835 150.231 248.216C150.231 248.528 150.153 248.909 149.997 249.36C149.823 249.845 149.563 250.435 149.217 251.128C148.87 251.821 148.471 252.558 148.021 253.338C147.587 254.101 147.137 254.872 146.669 255.652C146.201 256.415 145.759 257.134 145.343 257.81C144.927 258.486 144.571 259.067 144.277 259.552C144.259 259.639 144.251 259.734 144.251 259.838C144.251 259.925 144.251 260.02 144.251 260.124C144.355 260.055 144.459 259.994 144.563 259.942C144.684 259.89 144.805 259.829 144.927 259.76C145.551 259.448 146.235 259.171 146.981 258.928C147.726 258.685 148.463 258.564 149.191 258.564C149.312 258.564 149.425 258.573 149.529 258.59C149.633 258.59 149.737 258.599 149.841 258.616C149.893 258.633 149.919 258.659 149.919 258.694C149.919 258.729 149.893 258.755 149.841 258.772C148.87 258.824 147.891 259.015 146.903 259.344C145.915 259.673 145.022 260.141 144.225 260.748C144.225 260.956 144.225 261.164 144.225 261.372C144.242 261.58 144.259 261.779 144.277 261.97C144.935 262.074 145.533 262.351 146.071 262.802C146.608 263.253 147.085 263.807 147.501 264.466C147.917 265.107 148.255 265.801 148.515 266.546C148.653 266.979 148.792 267.56 148.931 268.288C149.087 269.033 149.165 269.787 149.165 270.55C149.165 271.139 149.095 271.685 148.957 272.188C148.835 272.708 148.61 273.124 148.281 273.436C147.951 273.765 147.492 273.93 146.903 273.93ZM144.303 258.902C144.701 258.261 145.152 257.515 145.655 256.666C146.175 255.799 146.695 254.907 147.215 253.988C147.735 253.052 148.203 252.159 148.619 251.31C149.052 250.443 149.373 249.689 149.581 249.048C149.702 248.684 149.763 248.381 149.763 248.138C149.763 247.895 149.711 247.722 149.607 247.618C149.503 247.514 149.381 247.462 149.243 247.462C148.965 247.462 148.723 247.566 148.515 247.774C147.665 248.606 146.946 249.646 146.357 250.894C145.767 252.125 145.308 253.442 144.979 254.846C144.649 256.233 144.424 257.585 144.303 258.902ZM147.527 272.994C147.908 272.994 148.168 272.743 148.307 272.24C148.463 271.737 148.541 271.157 148.541 270.498C148.541 269.787 148.48 269.077 148.359 268.366C148.255 267.673 148.151 267.161 148.047 266.832C147.804 266.121 147.501 265.454 147.137 264.83C146.773 264.189 146.348 263.651 145.863 263.218C145.395 262.767 144.849 262.49 144.225 262.386C144.242 262.386 144.268 262.646 144.303 263.166C144.337 263.669 144.398 264.327 144.485 265.142C144.589 265.939 144.71 266.789 144.849 267.69C145.005 268.591 145.204 269.441 145.447 270.238C145.689 271.053 145.975 271.711 146.305 272.214C146.651 272.734 147.059 272.994 147.527 272.994ZM153.541 266.702C153.489 266.754 153.376 266.737 153.203 266.65C153.03 266.563 152.839 266.442 152.631 266.286C152.423 266.13 152.232 265.983 152.059 265.844C151.903 265.688 151.816 265.567 151.799 265.48C151.799 264.561 151.946 263.669 152.241 262.802C152.536 261.918 152.874 261.129 153.255 260.436C153.636 259.725 153.957 259.162 154.217 258.746C153.506 259.318 152.813 259.604 152.137 259.604C151.894 259.604 151.678 259.569 151.487 259.5C151.158 259.933 150.828 260.367 150.499 260.8C150.187 261.216 149.875 261.649 149.563 262.1C149.494 262.204 149.442 262.256 149.407 262.256C149.39 262.256 149.381 262.239 149.381 262.204C149.381 262.135 149.407 262.048 149.459 261.944C149.771 261.493 150.066 261.051 150.343 260.618C150.638 260.185 150.906 259.76 151.149 259.344C150.82 259.136 150.56 258.833 150.369 258.434C150.196 258.035 150.109 257.628 150.109 257.212C150.109 256.571 150.3 256.085 150.681 255.756C151.062 255.409 151.522 255.236 152.059 255.236C152.371 255.236 152.657 255.305 152.917 255.444C153.194 255.565 153.333 255.773 153.333 256.068C153.333 256.363 153.229 256.718 153.021 257.134C152.813 257.55 152.579 257.957 152.319 258.356C152.059 258.737 151.842 259.049 151.669 259.292C151.825 259.344 151.998 259.37 152.189 259.37C152.605 259.37 153.03 259.257 153.463 259.032C153.914 258.807 154.269 258.555 154.529 258.278C154.581 258.209 154.668 258.174 154.789 258.174C154.98 258.174 155.188 258.235 155.413 258.356C155.638 258.477 155.708 258.59 155.621 258.694C155.396 259.023 155.11 259.561 154.763 260.306C154.416 261.034 154.096 261.883 153.801 262.854C153.506 263.825 153.324 264.847 153.255 265.922C153.428 265.61 153.662 265.194 153.957 264.674C154.252 264.137 154.581 263.556 154.945 262.932C155.309 262.308 155.69 261.693 156.089 261.086C156.505 260.462 156.921 259.899 157.337 259.396C157.424 259.292 157.493 259.257 157.545 259.292C157.597 259.327 157.588 259.387 157.519 259.474C157.103 260.029 156.687 260.644 156.271 261.32C155.855 261.979 155.465 262.655 155.101 263.348C154.737 264.024 154.416 264.657 154.139 265.246C153.862 265.835 153.662 266.321 153.541 266.702ZM151.279 259.136C151.452 258.893 151.652 258.538 151.877 258.07C152.12 257.602 152.241 257.195 152.241 256.848C152.241 256.623 152.18 256.458 152.059 256.354C151.955 256.25 151.842 256.198 151.721 256.198C151.409 256.198 151.149 256.363 150.941 256.692C150.733 257.004 150.629 257.351 150.629 257.732C150.629 258.009 150.681 258.278 150.785 258.538C150.906 258.798 151.071 258.997 151.279 259.136ZM159.893 266.65C159.391 266.65 158.94 266.468 158.541 266.104C158.16 265.757 157.831 265.315 157.553 264.778C157.293 264.223 157.094 263.66 156.955 263.088C156.817 262.499 156.747 261.979 156.747 261.528C156.747 260.141 156.929 258.893 157.293 257.784C157.675 256.657 158.229 255.895 158.957 255.496C159.373 255.305 159.815 255.21 160.283 255.21H160.595C160.682 255.21 160.76 255.21 160.829 255.21C160.916 255.21 161.003 255.227 161.089 255.262C161.28 255.383 161.375 255.453 161.375 255.47C161.375 255.487 161.237 255.496 160.959 255.496C160.179 255.496 159.573 255.704 159.139 256.12C158.723 256.519 158.42 257.03 158.229 257.654C158.056 258.261 157.943 258.893 157.891 259.552C157.857 260.193 157.839 260.757 157.839 261.242C157.839 261.467 157.865 261.779 157.917 262.178C157.969 262.559 158.065 262.949 158.203 263.348C158.359 263.729 158.576 264.059 158.853 264.336C159.148 264.596 159.529 264.726 159.997 264.726C160.448 264.726 160.847 264.535 161.193 264.154C161.54 263.755 161.817 263.296 162.025 262.776C162.233 262.239 162.337 261.762 162.337 261.346C162.337 260.791 162.277 260.219 162.155 259.63C162.034 259.023 161.843 258.521 161.583 258.122C161.133 257.463 160.647 257.134 160.127 257.134C159.486 257.134 159.165 257.602 159.165 258.538C159.165 259.595 159.356 260.124 159.737 260.124C159.824 260.124 159.911 260.081 159.997 259.994C160.101 259.907 160.179 259.812 160.231 259.708C160.266 259.639 160.301 259.578 160.335 259.526C160.37 259.474 160.405 259.431 160.439 259.396C160.474 259.361 160.491 259.335 160.491 259.318C160.578 259.318 160.621 259.379 160.621 259.5C160.621 259.812 160.491 260.072 160.231 260.28C159.989 260.471 159.772 260.566 159.581 260.566C159.287 260.566 159.07 260.41 158.931 260.098C158.793 259.769 158.723 259.309 158.723 258.72C158.723 257.385 159.148 256.718 159.997 256.718C160.673 256.718 161.289 257.073 161.843 257.784C162.121 258.183 162.346 258.642 162.519 259.162C162.693 259.665 162.797 260.211 162.831 260.8C162.831 260.939 162.831 261.086 162.831 261.242C162.849 261.381 162.857 261.545 162.857 261.736C162.857 262.135 162.797 262.611 162.675 263.166C162.571 263.721 162.398 264.267 162.155 264.804C161.93 265.324 161.627 265.757 161.245 266.104C160.864 266.468 160.413 266.65 159.893 266.65ZM165.199 266.26C165.095 266.26 165.017 266.225 164.965 266.156C164.792 265.965 164.67 265.688 164.601 265.324C164.532 264.943 164.497 264.527 164.497 264.076C164.497 263.504 164.532 262.915 164.601 262.308C164.688 261.684 164.774 261.121 164.861 260.618C164.965 260.098 165.034 259.725 165.069 259.5C164.948 259.639 164.835 259.795 164.731 259.968C164.627 260.124 164.454 260.358 164.211 260.67C164.194 260.687 164.168 260.696 164.133 260.696C164.098 260.696 164.064 260.679 164.029 260.644C164.012 260.592 164.012 260.549 164.029 260.514C164.376 260.011 164.679 259.535 164.939 259.084C165.216 258.633 165.45 258.235 165.641 257.888C165.693 257.784 165.806 257.819 165.979 257.992C166.17 258.165 166.343 258.373 166.499 258.616C166.672 258.841 166.75 258.997 166.733 259.084C166.612 259.379 166.499 259.777 166.395 260.28C166.291 260.783 166.204 261.311 166.135 261.866C166.083 262.421 166.057 262.932 166.057 263.4C166.456 262.464 166.898 261.563 167.383 260.696C167.868 259.829 168.414 259.006 169.021 258.226C169.558 257.55 170.104 257.212 170.659 257.212C171.092 257.212 171.309 257.463 171.309 257.966C171.309 258.174 171.274 258.391 171.205 258.616C171.101 258.876 170.98 259.266 170.841 259.786C170.72 260.306 170.607 260.895 170.503 261.554C170.416 262.195 170.347 262.828 170.295 263.452C170.434 263.157 170.564 262.871 170.685 262.594C170.824 262.299 170.962 262.031 171.101 261.788C171.448 261.129 171.812 260.497 172.193 259.89C172.574 259.266 172.956 258.711 173.337 258.226C173.874 257.55 174.42 257.212 174.975 257.212C175.408 257.212 175.625 257.463 175.625 257.966C175.625 258.174 175.59 258.391 175.521 258.616C175.434 258.841 175.33 259.179 175.209 259.63C175.105 260.063 175.001 260.549 174.897 261.086C174.793 261.606 174.706 262.117 174.637 262.62C174.585 263.123 174.559 263.565 174.559 263.946C174.559 264.327 174.594 264.587 174.663 264.726C175.027 264.119 175.486 263.339 176.041 262.386C176.613 261.415 177.315 260.419 178.147 259.396C178.234 259.292 178.303 259.257 178.355 259.292C178.407 259.327 178.398 259.387 178.329 259.474C178.121 259.769 177.922 260.055 177.731 260.332C177.54 260.592 177.35 260.869 177.159 261.164C176.084 262.88 175.348 264.327 174.949 265.506C174.897 265.558 174.715 265.532 174.403 265.428C174.108 265.324 173.822 265.185 173.545 265.012C173.268 264.839 173.112 264.7 173.077 264.596C173.094 263.556 173.172 262.542 173.311 261.554C173.467 260.566 173.632 259.708 173.805 258.98C173.857 258.807 173.814 258.72 173.675 258.72C173.588 258.72 173.467 258.772 173.311 258.876C173.172 258.963 173.025 259.119 172.869 259.344C172.609 259.691 172.314 260.15 171.985 260.722C171.673 261.277 171.378 261.875 171.101 262.516C170.841 263.157 170.659 263.773 170.555 264.362C170.503 264.761 170.382 264.891 170.191 264.752C169.931 264.648 169.645 264.509 169.333 264.336C169.021 264.145 168.848 263.989 168.813 263.868C168.83 262.828 168.9 261.935 169.021 261.19C169.16 260.445 169.316 259.708 169.489 258.98C169.541 258.807 169.498 258.72 169.359 258.72C169.272 258.72 169.151 258.772 168.995 258.876C168.856 258.963 168.709 259.119 168.553 259.344C168.258 259.743 167.92 260.28 167.539 260.956C167.175 261.615 166.854 262.317 166.577 263.062C166.317 263.79 166.187 264.466 166.187 265.09C166.187 265.489 166.213 265.757 166.265 265.896C166.109 265.948 165.927 266.017 165.719 266.104C165.511 266.208 165.338 266.26 165.199 266.26ZM184.49 268.444C184.507 268.149 184.551 267.785 184.62 267.352C184.689 266.919 184.785 266.451 184.906 265.948C184.663 266.069 184.429 266.173 184.204 266.26C183.979 266.347 183.866 266.373 183.866 266.338C183.693 265.419 183.554 264.431 183.45 263.374C183.363 262.299 183.32 261.181 183.32 260.02C183.32 258.633 183.398 257.229 183.554 255.808C183.727 254.369 183.987 252.991 184.334 251.674C184.698 250.339 185.166 249.109 185.738 247.982C186.327 246.855 187.047 245.893 187.896 245.096C188.121 244.905 188.355 244.81 188.598 244.81C188.893 244.81 189.187 244.931 189.482 245.174C189.794 245.417 190.028 245.737 190.184 246.136C190.392 246.24 190.496 246.483 190.496 246.864C190.496 247.176 190.418 247.557 190.262 248.008C190.054 248.597 189.725 249.325 189.274 250.192C188.823 251.059 188.312 251.977 187.74 252.948C187.185 253.901 186.631 254.82 186.076 255.704C185.539 256.571 185.079 257.316 184.698 257.94C184.681 258.131 184.672 258.321 184.672 258.512C184.672 258.703 184.672 258.893 184.672 259.084C184.672 260.193 184.724 261.233 184.828 262.204C184.949 263.175 185.079 263.972 185.218 264.596C185.443 263.764 185.686 262.941 185.946 262.126C186.206 261.294 186.457 260.592 186.7 260.02C186.977 259.396 187.289 258.833 187.636 258.33C188 257.81 188.321 257.55 188.598 257.55C188.841 257.55 189.023 257.775 189.144 258.226C189.179 258.399 189.274 258.685 189.43 259.084C189.603 259.483 189.811 259.933 190.054 260.436C190.297 260.921 190.565 261.389 190.86 261.84C191.155 262.291 191.449 262.655 191.744 262.932C192.039 263.192 192.325 263.287 192.602 263.218C192.741 263.183 193.027 263.01 193.46 262.698C193.893 262.369 194.422 261.736 195.046 260.8C195.219 260.557 195.384 260.315 195.54 260.072C195.713 259.829 195.887 259.604 196.06 259.396C196.147 259.292 196.216 259.257 196.268 259.292C196.32 259.327 196.311 259.387 196.242 259.474C195.705 260.202 195.159 260.999 194.604 261.866C194.049 262.715 193.573 263.556 193.174 264.388C193.035 264.665 192.853 264.873 192.628 265.012C192.42 265.151 192.195 265.22 191.952 265.22C191.311 265.22 190.791 264.882 190.392 264.206C189.647 262.923 189.066 261.901 188.65 261.138C188.251 260.358 187.87 259.968 187.506 259.968C187.229 259.968 186.96 260.245 186.7 260.8C186.475 261.303 186.241 261.944 185.998 262.724C185.755 263.487 185.53 264.267 185.322 265.064C185.357 265.151 185.383 265.237 185.4 265.324C185.435 265.411 185.469 265.489 185.504 265.558C185.504 265.61 185.383 265.705 185.14 265.844C185.019 266.364 184.915 266.849 184.828 267.3C184.741 267.768 184.689 268.149 184.672 268.444C184.672 268.513 184.637 268.539 184.568 268.522C184.516 268.522 184.49 268.496 184.49 268.444ZM184.724 257.342C185.123 256.683 185.573 255.929 186.076 255.08C186.579 254.231 187.073 253.364 187.558 252.48C188.061 251.579 188.511 250.712 188.91 249.88C189.326 249.048 189.638 248.32 189.846 247.696C189.967 247.315 190.028 247.003 190.028 246.76C190.028 246.379 189.889 246.188 189.612 246.188C189.369 246.188 189.135 246.301 188.91 246.526C187.853 247.531 186.986 248.805 186.31 250.348C185.651 251.891 185.201 253.485 184.958 255.132C184.837 255.877 184.759 256.614 184.724 257.342ZM198.589 266.65C198.086 266.65 197.635 266.468 197.237 266.104C196.855 265.757 196.526 265.315 196.249 264.778C195.989 264.223 195.789 263.66 195.651 263.088C195.512 262.499 195.443 261.979 195.443 261.528C195.443 260.141 195.625 258.893 195.989 257.784C196.37 256.657 196.925 255.895 197.653 255.496C198.069 255.305 198.511 255.21 198.979 255.21H199.291C199.377 255.21 199.455 255.21 199.525 255.21C199.611 255.21 199.698 255.227 199.785 255.262C199.975 255.383 200.071 255.453 200.071 255.47C200.071 255.487 199.932 255.496 199.655 255.496C198.875 255.496 198.268 255.704 197.835 256.12C197.419 256.519 197.115 257.03 196.925 257.654C196.751 258.261 196.639 258.893 196.587 259.552C196.552 260.193 196.535 260.757 196.535 261.242C196.535 261.467 196.561 261.779 196.613 262.178C196.665 262.559 196.76 262.949 196.899 263.348C197.055 263.729 197.271 264.059 197.549 264.336C197.843 264.596 198.225 264.726 198.693 264.726C199.143 264.726 199.542 264.535 199.889 264.154C200.235 263.755 200.513 263.296 200.721 262.776C200.929 262.239 201.033 261.762 201.033 261.346C201.033 260.791 200.972 260.219 200.851 259.63C200.729 259.023 200.539 258.521 200.279 258.122C199.828 257.463 199.343 257.134 198.823 257.134C198.181 257.134 197.861 257.602 197.861 258.538C197.861 259.595 198.051 260.124 198.433 260.124C198.519 260.124 198.606 260.081 198.693 259.994C198.797 259.907 198.875 259.812 198.927 259.708C198.961 259.639 198.996 259.578 199.031 259.526C199.065 259.474 199.1 259.431 199.135 259.396C199.169 259.361 199.187 259.335 199.187 259.318C199.273 259.318 199.317 259.379 199.317 259.5C199.317 259.812 199.187 260.072 198.927 260.28C198.684 260.471 198.467 260.566 198.277 260.566C197.982 260.566 197.765 260.41 197.627 260.098C197.488 259.769 197.419 259.309 197.419 258.72C197.419 257.385 197.843 256.718 198.693 256.718C199.369 256.718 199.984 257.073 200.539 257.784C200.816 258.183 201.041 258.642 201.215 259.162C201.388 259.665 201.492 260.211 201.527 260.8C201.527 260.939 201.527 261.086 201.527 261.242C201.544 261.381 201.553 261.545 201.553 261.736C201.553 262.135 201.492 262.611 201.371 263.166C201.267 263.721 201.093 264.267 200.851 264.804C200.625 265.324 200.322 265.757 199.941 266.104C199.559 266.468 199.109 266.65 198.589 266.65ZM203.894 266.26C203.79 266.26 203.712 266.225 203.66 266.156C203.487 265.965 203.366 265.688 203.296 265.324C203.227 264.943 203.192 264.527 203.192 264.076C203.192 263.504 203.227 262.915 203.296 262.308C203.383 261.684 203.47 261.121 203.556 260.618C203.66 260.098 203.73 259.725 203.764 259.5C203.643 259.639 203.53 259.795 203.426 259.968C203.322 260.124 203.149 260.358 202.906 260.67C202.889 260.687 202.863 260.696 202.828 260.696C202.794 260.696 202.759 260.679 202.724 260.644C202.707 260.592 202.707 260.549 202.724 260.514C203.071 260.011 203.374 259.535 203.634 259.084C203.912 258.633 204.146 258.235 204.336 257.888C204.388 257.784 204.501 257.819 204.674 257.992C204.865 258.165 205.038 258.373 205.194 258.616C205.368 258.841 205.446 258.997 205.428 259.084C205.307 259.379 205.194 259.777 205.09 260.28C204.986 260.783 204.9 261.311 204.83 261.866C204.778 262.421 204.752 262.932 204.752 263.4C205.151 262.464 205.593 261.563 206.078 260.696C206.564 259.829 207.11 259.006 207.716 258.226C208.254 257.55 208.8 257.212 209.354 257.212C209.788 257.212 210.004 257.463 210.004 257.966C210.004 258.174 209.97 258.391 209.9 258.616C209.796 258.876 209.675 259.266 209.536 259.786C209.415 260.306 209.302 260.895 209.198 261.554C209.112 262.195 209.042 262.828 208.99 263.452C209.129 263.157 209.259 262.871 209.38 262.594C209.519 262.299 209.658 262.031 209.796 261.788C210.143 261.129 210.507 260.497 210.888 259.89C211.27 259.266 211.651 258.711 212.032 258.226C212.57 257.55 213.116 257.212 213.67 257.212C214.104 257.212 214.32 257.463 214.32 257.966C214.32 258.174 214.286 258.391 214.216 258.616C214.13 258.841 214.026 259.179 213.904 259.63C213.8 260.063 213.696 260.549 213.592 261.086C213.488 261.606 213.402 262.117 213.332 262.62C213.28 263.123 213.254 263.565 213.254 263.946C213.254 264.327 213.289 264.587 213.358 264.726C213.722 264.119 214.182 263.339 214.736 262.386C215.308 261.415 216.01 260.419 216.842 259.396C216.929 259.292 216.998 259.257 217.05 259.292C217.102 259.327 217.094 259.387 217.024 259.474C216.816 259.769 216.617 260.055 216.426 260.332C216.236 260.592 216.045 260.869 215.854 261.164C214.78 262.88 214.043 264.327 213.644 265.506C213.592 265.558 213.41 265.532 213.098 265.428C212.804 265.324 212.518 265.185 212.24 265.012C211.963 264.839 211.807 264.7 211.772 264.596C211.79 263.556 211.868 262.542 212.006 261.554C212.162 260.566 212.327 259.708 212.5 258.98C212.552 258.807 212.509 258.72 212.37 258.72C212.284 258.72 212.162 258.772 212.006 258.876C211.868 258.963 211.72 259.119 211.564 259.344C211.304 259.691 211.01 260.15 210.68 260.722C210.368 261.277 210.074 261.875 209.796 262.516C209.536 263.157 209.354 263.773 209.25 264.362C209.198 264.761 209.077 264.891 208.886 264.752C208.626 264.648 208.34 264.509 208.028 264.336C207.716 264.145 207.543 263.989 207.508 263.868C207.526 262.828 207.595 261.935 207.716 261.19C207.855 260.445 208.011 259.708 208.184 258.98C208.236 258.807 208.193 258.72 208.054 258.72C207.968 258.72 207.846 258.772 207.69 258.876C207.552 258.963 207.404 259.119 207.248 259.344C206.954 259.743 206.616 260.28 206.234 260.956C205.87 261.615 205.55 262.317 205.272 263.062C205.012 263.79 204.882 264.466 204.882 265.09C204.882 265.489 204.908 265.757 204.96 265.896C204.804 265.948 204.622 266.017 204.414 266.104C204.206 266.208 204.033 266.26 203.894 266.26ZM219.176 266.364C218.586 266.364 218.092 266.165 217.694 265.766C217.295 265.367 216.992 264.839 216.784 264.18C216.576 263.521 216.472 262.802 216.472 262.022C216.472 261.398 216.515 260.739 216.602 260.046C216.688 259.335 216.827 258.677 217.018 258.07C217.226 257.446 217.494 256.961 217.824 256.614C218.257 256.094 218.959 255.834 219.93 255.834C220.744 255.834 221.299 256.007 221.594 256.354C221.906 256.701 222.062 257.143 222.062 257.68C222.062 257.94 222.027 258.226 221.958 258.538C221.888 258.833 221.81 259.127 221.724 259.422C221.585 259.855 221.403 260.289 221.178 260.722C220.97 261.138 220.692 261.493 220.346 261.788C219.999 262.065 219.557 262.221 219.02 262.256C218.95 262.256 218.803 262.239 218.578 262.204C218.37 262.152 218.17 262.048 217.98 261.892C218.014 262.36 218.075 262.837 218.162 263.322C218.248 263.79 218.404 264.189 218.63 264.518C218.855 264.83 219.184 264.986 219.618 264.986C220.034 264.986 220.441 264.804 220.84 264.44C221.238 264.059 221.602 263.634 221.932 263.166C222.261 262.681 222.53 262.282 222.738 261.97C223.032 261.537 223.327 261.103 223.622 260.67C223.916 260.219 224.194 259.847 224.454 259.552C224.54 259.448 224.601 259.396 224.636 259.396C224.74 259.396 224.731 259.474 224.61 259.63C224.072 260.341 223.509 261.199 222.92 262.204C222.348 263.14 221.871 263.92 221.49 264.544C221.108 265.151 220.744 265.61 220.398 265.922C220.051 266.217 219.644 266.364 219.176 266.364ZM218.968 261.944C219.176 261.944 219.366 261.823 219.54 261.58C219.73 261.337 219.895 261.043 220.034 260.696C220.172 260.349 220.285 260.02 220.372 259.708C220.458 259.396 220.51 259.162 220.528 259.006C220.545 258.763 220.571 258.477 220.606 258.148C220.658 257.819 220.684 257.515 220.684 257.238C220.684 256.943 220.64 256.692 220.554 256.484C220.484 256.276 220.337 256.172 220.112 256.172C219.921 256.172 219.696 256.302 219.436 256.562C219.193 256.805 218.976 257.099 218.786 257.446C218.526 257.931 218.326 258.521 218.188 259.214C218.066 259.89 217.997 260.583 217.98 261.294C218.101 261.45 218.231 261.597 218.37 261.736C218.526 261.875 218.725 261.944 218.968 261.944Z" fill="#964B00"/>
<path d="M147.803 127.305L251.513 164.451L250.935 157.022L145.573 123.92C145.243 123.838 144.913 123.838 144.665 123.92L49.0474 158.673V165.937L143.261 127.47C144.748 126.809 146.317 126.809 147.803 127.305Z" stroke="black" stroke-width="2" stroke-miterlimit="10"/>
<path d="M181.905 135.064L180.914 123.342L176.62 123.095L176.125 117.069L206.594 116.491L207.42 123.012L202.796 123.095L204.612 142.163" stroke="black" stroke-width="2" stroke-miterlimit="10"/>
<path opacity="0.6" d="M204.199 139.522H200.648L200.896 141.09" stroke="black" stroke-miterlimit="10"/>
<path opacity="0.6" d="M203.869 135.229H182.235" stroke="black" stroke-miterlimit="10"/>
<path opacity="0.6" d="M203.373 131.019L181.74 131.432" stroke="black" stroke-miterlimit="10"/>
<path opacity="0.6" d="M203.043 126.974H181.575" stroke="black" stroke-miterlimit="10"/>
<path d="M202.796 123.095L185.951 123.26L180.914 123.342" stroke="black" stroke-width="2" stroke-miterlimit="10"/>
<path opacity="0.6" d="M186.116 127.057L185.868 123.425" stroke="black" stroke-miterlimit="10"/>
<path opacity="0.6" d="M192.887 123.425L193.3 126.809" stroke="black" stroke-miterlimit="10"/>
<path opacity="0.6" d="M199.08 123.177L199.492 126.727" stroke="black" stroke-miterlimit="10"/>
<path opacity="0.6" d="M189.006 127.387L189.419 131.102" stroke="black" stroke-miterlimit="10"/>
<path opacity="0.6" d="M196.107 127.14L196.437 131.019" stroke="black" stroke-miterlimit="10"/>
<path opacity="0.6" d="M199.575 131.432L200.071 135.147" stroke="black" stroke-miterlimit="10"/>
<path opacity="0.6" d="M191.731 131.597L192.061 135.229" stroke="black" stroke-miterlimit="10"/>
<path opacity="0.6" d="M184.63 131.597L185.125 135.395" stroke="black" stroke-miterlimit="10"/>
<path opacity="0.6" d="M196.933 135.394L197.428 139.274" stroke="black" stroke-miterlimit="10"/>
<path d="M42.5242 143.732L34.9276 143.567L32.7808 202.176L40.2948 201.763L42.5242 143.732Z" stroke="black" stroke-width="2" stroke-miterlimit="10"/>
<path d="M40.9553 183.768C40.9553 183.768 44.5059 172.871 55.075 172.541C55.075 172.541 56.8916 172.459 56.809 174.77L56.0659 196.563C56.0659 199.535 56.8916 203.167 64.6533 202.094C65.8093 201.846 70.681 200.608 72.8279 194.334" stroke="black" stroke-width="2" stroke-miterlimit="10"/>
<path opacity="0.6" d="M200.731 139.522H195.364" stroke="black" stroke-miterlimit="10"/>
<path opacity="0.6" d="M189.171 135.312L189.254 137.458" stroke="black" stroke-miterlimit="10"/>
<path d="M55.3228 172.624C55.3228 172.624 58.4605 172.376 61.0202 175.265C62.011 176.421 62.8368 177.742 63.0019 179.31C63.2496 181.952 63.2496 187.813 63.4148 195.903C63.4148 196.15 62.7542 203.084 66.057 201.763" stroke="black" stroke-width="2" stroke-miterlimit="10"/>
<path d="M82.9017 201.516C89.4229 201.516 94.7094 195.048 94.7094 187.07C94.7094 179.091 89.4229 172.624 82.9017 172.624C76.3805 172.624 71.094 179.091 71.094 187.07C71.094 195.048 76.3805 201.516 82.9017 201.516Z" stroke="black" stroke-width="2" stroke-miterlimit="10"/>
<path d="M109.242 172.541L101.398 172.459L101.563 201.268L109.077 201.186L109.242 172.541Z" stroke="black" stroke-width="2" stroke-miterlimit="10"/>
<path d="M109.159 186.987C109.159 178.98 112.71 172.541 117.169 172.541C119.563 172.541 122.371 174.605 123.609 177.824C124.022 178.897 124.187 179.971 124.27 181.126L124.518 200.855" stroke="black" stroke-width="2" stroke-miterlimit="10"/>
<path d="M124.353 186.079C124.353 178.485 127.738 172.294 131.867 172.294C133.848 172.294 136.16 173.862 137.481 176.338C138.142 177.577 138.472 178.98 138.555 180.383L139.215 198.049C139.215 198.049 139.298 201.928 141.445 201.598" stroke="black" stroke-width="2" stroke-miterlimit="10"/>
<path d="M116.839 172.459L117.251 201.103L125.343 201.186" stroke="black" stroke-width="2" stroke-miterlimit="10"/>
<path d="M131.701 172.541L132.114 194.747C132.114 194.747 131.784 199.37 135.087 201.02C136.656 201.763 139.215 201.681 140.949 201.516C142.518 201.351 144.005 200.855 145.243 199.865C146.729 198.709 148.546 196.811 149.207 193.839" stroke="black" stroke-width="2" stroke-miterlimit="10"/>
<path d="M168.776 192.683C166.877 197.388 163.079 200.608 158.62 200.608C152.344 200.608 147.225 194.086 147.225 185.997" stroke="black" stroke-width="2" stroke-miterlimit="10"/>
<path d="M147.225 186.327C147.225 186.244 147.225 186.079 147.225 185.997C147.142 185.501 147.142 185.006 147.142 184.511C147.142 177.494 152.179 171.798 158.455 171.798C164.73 171.798 169.767 177.494 169.767 184.511C169.767 185.171 169.767 185.749 169.684 186.327H154.491" stroke="black" stroke-width="2" stroke-miterlimit="10"/>
<path d="M153.996 173.202L154.739 195.077C154.739 195.077 154.739 200.938 159.445 200.608" stroke="black" stroke-width="2" stroke-miterlimit="10"/>
<path d="M185.29 196.563L182.813 143.897L175.382 143.98L177.198 196.233C177.198 196.233 177.364 200.278 180.832 200.195C180.832 200.278 185.29 201.103 185.29 196.563Z" stroke="black" stroke-width="2" stroke-miterlimit="10"/>
<path d="M191.566 171.881L193.382 200.69H200.731L198.915 171.716L191.566 171.881Z" stroke="black" stroke-width="2" stroke-miterlimit="10"/>
<path d="M194.456 168.001L194.291 167.836C190.327 164.617 189.254 163.461 189.254 161.562C189.254 159.994 190.492 158.756 192.061 158.756C193.3 158.756 194.043 159.499 194.538 159.994C195.034 159.416 195.777 158.756 197.015 158.756C198.584 158.756 199.823 159.994 199.823 161.562C199.823 163.378 198.749 164.534 194.786 167.836L194.456 168.001ZM191.979 159.416C190.74 159.416 189.832 160.407 189.832 161.562C189.832 163.131 190.823 164.204 194.456 167.176C198.089 164.204 199.08 163.131 199.08 161.562C199.08 160.324 198.089 159.416 196.933 159.416C195.859 159.416 195.281 160.076 194.786 160.572L194.456 160.984L194.125 160.572C193.63 160.076 193.052 159.416 191.979 159.416Z" fill="#010101" stroke="black" stroke-miterlimit="10"/>
<path d="M229.136 178.65C229.136 178.65 225.915 170.395 215.346 171.798C204.777 173.202 206.759 180.383 206.759 180.383C206.759 180.383 206.924 185.089 219.392 185.914C223.356 186.162 225.915 185.997 228.558 188.391C231.2 190.784 231.117 192.518 231.2 193.756C231.365 194.994 231.035 198.874 225.172 200.608C219.31 202.341 211.63 199.865 208.162 194.499" stroke="black" stroke-width="2" stroke-miterlimit="10"/>
<path d="M215.346 171.798C215.346 171.798 208.245 178.898 219.392 185.832" stroke="black" stroke-width="2" stroke-miterlimit="10"/>
<path d="M221.869 186.079C222.53 186.657 223.521 187.73 224.181 189.381C224.346 189.711 226.493 195.077 223.19 198.544C221.209 200.608 218.484 200.773 217.658 200.773" stroke="black" stroke-width="2" stroke-miterlimit="10"/>
<path d="M262.412 191.445C260.43 196.728 255.889 200.36 250.604 200.36C243.503 200.36 237.806 193.756 237.806 185.667C237.806 177.577 243.503 170.973 250.604 170.973C255.311 170.973 259.357 173.862 261.586 178.155" stroke="black" stroke-width="2" stroke-miterlimit="10"/>
<path d="M249.283 171.138C249.283 171.138 249.283 171.22 249.283 171.138C246.723 172.129 245.733 174.605 245.402 177.247C244.907 181.539 245.567 190.042 246.311 194.086C246.311 194.086 247.219 200.443 251.43 200.443" stroke="black" stroke-width="2" stroke-miterlimit="10"/>
<path d="M82.4062 172.541C79.8465 173.532 78.8556 175.926 78.5253 178.567C78.0299 182.86 78.6905 191.115 79.4336 195.077C79.4336 195.077 80.3419 201.268 84.553 201.268" stroke="black" stroke-width="2" stroke-miterlimit="10"/>
<path opacity="0.6" d="M34.9277 148.024L42.194 148.107" stroke="black" stroke-miterlimit="10"/>
<path opacity="0.6" d="M34.8452 151.987L42.1115 152.069" stroke="black" stroke-miterlimit="10"/>
<path opacity="0.6" d="M34.5974 156.609L41.8637 156.692" stroke="black" stroke-miterlimit="10"/>
<path opacity="0.6" d="M34.5974 161.067L41.8637 161.232" stroke="black" stroke-miterlimit="10"/>
<path opacity="0.6" d="M34.4324 164.864L41.6161 164.947" stroke="black" stroke-miterlimit="10"/>
<path opacity="0.6" d="M34.0195 169.322L41.2032 169.404" stroke="black" stroke-miterlimit="10"/>
<path opacity="0.6" d="M33.9368 173.614L41.2031 173.697" stroke="black" stroke-miterlimit="10"/>
<path opacity="0.6" d="M33.8542 177.99L41.1205 178.072" stroke="black" stroke-miterlimit="10"/>
<path opacity="0.6" d="M56.3962 182.447L63.3322 182.53" stroke="black" stroke-miterlimit="10"/>
<path opacity="0.6" d="M56.8916 177.99L62.589 178.072" stroke="black" stroke-miterlimit="10"/>
<path opacity="0.6" d="M56.3137 196.563L63.58 196.645" stroke="black" stroke-miterlimit="10"/>
<path opacity="0.6" d="M71.9197 182.695L78.2777 182.777" stroke="black" stroke-miterlimit="10"/>
<path opacity="0.6" d="M101.728 177.742L109.159 177.824" stroke="black" stroke-miterlimit="10"/>
<path opacity="0.6" d="M117.169 182.034L124.6 182.199" stroke="black" stroke-miterlimit="10"/>
<path opacity="0.6" d="M117.004 186.574L124.435 186.657" stroke="black" stroke-miterlimit="10"/>
<path opacity="0.6" d="M117.086 177.659L123.362 177.742" stroke="black" stroke-miterlimit="10"/>
<path opacity="0.6" d="M131.784 177.659L138.059 177.742" stroke="black" stroke-miterlimit="10"/>
<path opacity="0.6" d="M132.28 182.117L138.472 182.199" stroke="black" stroke-miterlimit="10"/>
<path opacity="0.6" d="M147.555 181.787L154.078 181.869" stroke="black" stroke-miterlimit="10"/>
<path opacity="0.6" d="M175.629 148.107L182.813 148.189" stroke="black" stroke-miterlimit="10"/>
<path opacity="0.6" d="M175.712 152.482L182.896 152.564" stroke="black" stroke-miterlimit="10"/>
<path opacity="0.6" d="M176.042 156.362L183.143 156.444" stroke="black" stroke-miterlimit="10"/>
<path opacity="0.6" d="M176.208 160.572L183.391 160.654" stroke="black" stroke-miterlimit="10"/>
<path opacity="0.6" d="M176.373 164.452L183.556 164.617" stroke="black" stroke-miterlimit="10"/>
<path opacity="0.6" d="M176.538 168.744L183.639 168.827" stroke="black" stroke-miterlimit="10"/>
<path opacity="0.6" d="M176.703 173.119L183.804 173.202" stroke="black" stroke-miterlimit="10"/>
<path opacity="0.6" d="M176.785 177.412L184.052 177.494" stroke="black" stroke-miterlimit="10"/>
<path opacity="0.6" d="M191.896 177.164L199.162 177.329" stroke="black" stroke-miterlimit="10"/>
<path opacity="0.6" d="M207.007 177.329L212.787 177.412" stroke="black" stroke-miterlimit="10"/>
<path opacity="0.6" d="M224.842 190.785L230.457 190.867" stroke="black" stroke-miterlimit="10"/>
<path opacity="0.6" d="M240.778 176.504L245.402 176.586" stroke="black" stroke-miterlimit="10"/>
<path opacity="0.6" d="M238.714 181.044L244.989 181.126" stroke="black" stroke-miterlimit="10"/>
<path opacity="0.6" d="M237.971 185.832L245.237 185.914" stroke="black" stroke-miterlimit="10"/>
<path opacity="0.6" d="M238.466 190.042L245.65 190.124" stroke="black" stroke-miterlimit="10"/>
<path opacity="0.6" d="M240.448 194.582L246.228 194.664" stroke="black" stroke-miterlimit="10"/>
<path opacity="0.6" d="M225.09 195.407H230.87" stroke="black" stroke-miterlimit="10"/>
<path opacity="0.6" d="M207.419 181.622L214.603 181.704" stroke="black" stroke-miterlimit="10"/>
<path opacity="0.6" d="M191.979 181.622L199.245 181.704" stroke="black" stroke-miterlimit="10"/>
<path opacity="0.6" d="M192.474 186.162L199.74 186.244" stroke="black" stroke-miterlimit="10"/>
<path opacity="0.6" d="M192.804 190.702L200.07 190.784" stroke="black" stroke-miterlimit="10"/>
<path opacity="0.6" d="M193.135 195.325L200.401 195.49" stroke="black" stroke-miterlimit="10"/>
<path opacity="0.6" d="M177.033 181.787L184.299 181.869" stroke="black" stroke-miterlimit="10"/>
<path opacity="0.6" d="M177.198 186.079L184.465 186.162" stroke="black" stroke-miterlimit="10"/>
<path opacity="0.6" d="M177.281 190.289L184.712 190.372" stroke="black" stroke-miterlimit="10"/>
<path opacity="0.6" d="M178.272 198.792L184.63 198.874" stroke="black" stroke-miterlimit="10"/>
<path opacity="0.6" d="M177.446 194.747L184.877 194.912" stroke="black" stroke-miterlimit="10"/>
<path opacity="0.6" d="M148.051 190.619L154.491 190.702" stroke="black" stroke-miterlimit="10"/>
<path opacity="0.6" d="M149.95 195.077L154.656 195.16" stroke="black" stroke-miterlimit="10"/>
<path opacity="0.6" d="M149.124 177.494L153.831 177.577" stroke="black" stroke-miterlimit="10"/>
<path opacity="0.6" d="M132.197 186.657L138.39 186.74" stroke="black" stroke-miterlimit="10"/>
<path opacity="0.6" d="M132.445 190.95L138.637 191.032" stroke="black" stroke-miterlimit="10"/>
<path opacity="0.6" d="M132.362 195.902L138.885 195.985" stroke="black" stroke-miterlimit="10"/>
<path opacity="0.6" d="M117.334 190.702L124.765 190.784" stroke="black" stroke-miterlimit="10"/>
<path opacity="0.6" d="M117.169 195.572L124.6 195.655" stroke="black" stroke-miterlimit="10"/>
<path opacity="0.6" d="M101.728 182.117L109.159 182.199" stroke="black" stroke-miterlimit="10"/>
<path opacity="0.6" d="M101.48 190.867L108.912 190.95" stroke="black" stroke-miterlimit="10"/>
<path opacity="0.6" d="M101.398 186.574L108.829 186.74" stroke="black" stroke-miterlimit="10"/>
<path opacity="0.6" d="M101.48 196.068L108.912 196.15" stroke="black" stroke-miterlimit="10"/>
<path opacity="0.6" d="M73.7363 178.155L78.5255 178.237" stroke="black" stroke-miterlimit="10"/>
<path opacity="0.6" d="M71.259 186.905L78.2776 187.07" stroke="black" stroke-miterlimit="10"/>
<path opacity="0.6" d="M71.6721 191.28L78.6907 191.362" stroke="black" stroke-miterlimit="10"/>
<path opacity="0.6" d="M73.3235 195.325L79.3512 195.407" stroke="black" stroke-miterlimit="10"/>
<path opacity="0.6" d="M56.3137 187.152L63.58 187.235" stroke="black" stroke-miterlimit="10"/>
<path opacity="0.6" d="M56.3137 191.445L63.58 191.527" stroke="black" stroke-miterlimit="10"/>
<path opacity="0.6" d="M33.6067 182.695L40.873 182.777" stroke="black" stroke-miterlimit="10"/>
<path opacity="0.6" d="M33.6892 187.152L40.8729 187.235" stroke="black" stroke-miterlimit="10"/>
<path opacity="0.6" d="M33.5239 191.61L40.7076 191.693" stroke="black" stroke-miterlimit="10"/>
<path opacity="0.6" d="M33.1936 196.233L40.4599 196.315" stroke="black" stroke-miterlimit="10"/>
<path opacity="0.6" d="M39.2215 143.897L39.1389 148.189" stroke="black" stroke-miterlimit="10"/>
<path opacity="0.6" d="M38.148 147.859L38.0654 152.152" stroke="black" stroke-miterlimit="10"/>
<path opacity="0.6" d="M40.2122 152.317L40.1296 156.609" stroke="black" stroke-miterlimit="10"/>
<path opacity="0.6" d="M38.8912 156.692L38.7261 160.985" stroke="black" stroke-miterlimit="10"/>
<path opacity="0.6" d="M35.836 161.067L35.6709 164.947" stroke="black" stroke-miterlimit="10"/>
<path opacity="0.6" d="M38.313 165.029L38.2305 169.322" stroke="black" stroke-miterlimit="10"/>
<path opacity="0.6" d="M59.9468 174.275V177.824" stroke="black" stroke-miterlimit="10"/>
<path opacity="0.6" d="M77.452 174.357L77.3694 177.989" stroke="black" stroke-miterlimit="10"/>
<path opacity="0.6" d="M76.0484 178.485L75.9658 182.53" stroke="black" stroke-miterlimit="10"/>
<path opacity="0.6" d="M73.4061 182.86L73.3235 186.905" stroke="black" stroke-miterlimit="10"/>
<path opacity="0.6" d="M76.2134 187.07L76.1309 191.115" stroke="black" stroke-miterlimit="10"/>
<path opacity="0.6" d="M74.8096 191.28L74.7271 195.242" stroke="black" stroke-miterlimit="10"/>
<path opacity="0.6" d="M77.6998 195.737L77.6172 199.782" stroke="black" stroke-miterlimit="10"/>
<path opacity="0.6" d="M105.113 191.032L105.031 196.068" stroke="black" stroke-miterlimit="10"/>
<path opacity="0.6" d="M119.398 190.785L119.316 195.325" stroke="black" stroke-miterlimit="10"/>
<path opacity="0.6" d="M104.618 182.365L104.535 186.409" stroke="black" stroke-miterlimit="10"/>
<path opacity="0.6" d="M106.352 177.99L106.27 182.034" stroke="black" stroke-miterlimit="10"/>
<path opacity="0.6" d="M103.957 172.789L103.875 177.494" stroke="black" stroke-miterlimit="10"/>
<path opacity="0.6" d="M106.352 196.398L106.27 200.855" stroke="black" stroke-miterlimit="10"/>
<path opacity="0.6" d="M121.71 195.985L121.628 200.773" stroke="black" stroke-miterlimit="10"/>
<path opacity="0.6" d="M106.187 186.74L106.104 190.784" stroke="black" stroke-miterlimit="10"/>
<path opacity="0.6" d="M121.545 186.657L121.463 190.702" stroke="black" stroke-miterlimit="10"/>
<path opacity="0.6" d="M119.729 182.282L119.563 186.327" stroke="black" stroke-miterlimit="10"/>
<path opacity="0.6" d="M121.628 177.99L121.545 182.034" stroke="black" stroke-miterlimit="10"/>
<path opacity="0.6" d="M119.811 173.449L119.729 177.494" stroke="black" stroke-miterlimit="10"/>
<path opacity="0.6" d="M134.344 173.367L134.261 177.412" stroke="black" stroke-miterlimit="10"/>
<path opacity="0.6" d="M136.16 177.824L136.078 181.869" stroke="black" stroke-miterlimit="10"/>
<path opacity="0.6" d="M134.344 182.365L134.261 186.409" stroke="black" stroke-miterlimit="10"/>
<path opacity="0.6" d="M147.473 186.244L154.078 186.327" stroke="black" stroke-miterlimit="10"/>
<path opacity="0.6" d="M150.197 177.659L150.115 181.539" stroke="black" stroke-miterlimit="10"/>
<path opacity="0.6" d="M179.923 143.979L179.841 147.942" stroke="black" stroke-miterlimit="10"/>
<path opacity="0.6" d="M178.107 148.355L178.024 152.234" stroke="black" stroke-miterlimit="10"/>
<path opacity="0.6" d="M179.015 156.444L178.932 160.407" stroke="black" stroke-miterlimit="10"/>
<path opacity="0.6" d="M181.162 160.902L181.079 164.286" stroke="black" stroke-miterlimit="10"/>
<path opacity="0.6" d="M178.932 164.782L178.85 168.496" stroke="black" stroke-miterlimit="10"/>
<path opacity="0.6" d="M181.987 169.074L181.905 172.954" stroke="black" stroke-miterlimit="10"/>
<path opacity="0.6" d="M179.345 173.284L179.263 177.164" stroke="black" stroke-miterlimit="10"/>
<path opacity="0.6" d="M194.703 171.881L194.621 176.916" stroke="black" stroke-miterlimit="10"/>
<path opacity="0.6" d="M197.263 177.494L197.181 181.456" stroke="black" stroke-miterlimit="10"/>
<path opacity="0.6" d="M208.906 177.659L208.823 181.374" stroke="black" stroke-miterlimit="10"/>
<path opacity="0.6" d="M211.63 181.869L211.548 184.263" stroke="black" stroke-miterlimit="10"/>
<path opacity="0.6" d="M226.493 187.152L226.411 190.537" stroke="black" stroke-miterlimit="10"/>
<path opacity="0.6" d="M228.805 191.115L228.723 195.16" stroke="black" stroke-miterlimit="10"/>
<path opacity="0.6" d="M245.237 194.829L245.155 198.957" stroke="black" stroke-miterlimit="10"/>
<path opacity="0.6" d="M241.769 190.289L241.687 194.417" stroke="black" stroke-miterlimit="10"/>
<path opacity="0.6" d="M226.246 195.737L226.081 200.525" stroke="black" stroke-miterlimit="10"/>
<path opacity="0.6" d="M243.255 186.079L243.173 189.876" stroke="black" stroke-miterlimit="10"/>
<path opacity="0.6" d="M242.843 176.834L242.76 180.796" stroke="black" stroke-miterlimit="10"/>
<path opacity="0.6" d="M244.494 173.119L244.411 176.421" stroke="black" stroke-miterlimit="10"/>
<path opacity="0.6" d="M240.283 181.374L240.2 185.584" stroke="black" stroke-miterlimit="10"/>
<path opacity="0.6" d="M211.053 173.037L210.97 177.164" stroke="black" stroke-miterlimit="10"/>
<path opacity="0.6" d="M194.621 181.869L194.538 185.914" stroke="black" stroke-miterlimit="10"/>
<path opacity="0.6" d="M197.015 186.574L196.933 190.537" stroke="black" stroke-miterlimit="10"/>
<path opacity="0.6" d="M195.199 191.032L195.116 195.077" stroke="black" stroke-miterlimit="10"/>
<path opacity="0.6" d="M197.511 195.737L197.428 200.443" stroke="black" stroke-miterlimit="10"/>
<path opacity="0.6" d="M181.575 177.659L181.492 181.539" stroke="black" stroke-miterlimit="10"/>
<path opacity="0.6" d="M179.015 182.034L178.932 185.914" stroke="black" stroke-miterlimit="10"/>
<path opacity="0.6" d="M181.74 186.327L181.657 190.207" stroke="black" stroke-miterlimit="10"/>
<path opacity="0.6" d="M179.675 190.619L179.593 194.499" stroke="black" stroke-miterlimit="10"/>
<path opacity="0.6" d="M182.152 194.995L182.07 198.544" stroke="black" stroke-miterlimit="10"/>
<path opacity="0.6" d="M181.244 152.73L181.162 156.197" stroke="black" stroke-miterlimit="10"/>
<path opacity="0.6" d="M151.601 182.034L151.519 185.997" stroke="black" stroke-miterlimit="10"/>
<path opacity="0.6" d="M149.95 186.492L149.867 190.454" stroke="black" stroke-miterlimit="10"/>
<path opacity="0.6" d="M152.179 191.032L152.097 194.912" stroke="black" stroke-miterlimit="10"/>
<path opacity="0.6" d="M153.418 195.325L153.335 198.792" stroke="black" stroke-miterlimit="10"/>
<path opacity="0.6" d="M151.849 174.192L151.766 177.247" stroke="black" stroke-miterlimit="10"/>
<path opacity="0.6" d="M136.16 186.822L136.078 190.867" stroke="black" stroke-miterlimit="10"/>
<path opacity="0.6" d="M134.179 191.28L134.096 195.572" stroke="black" stroke-miterlimit="10"/>
<path opacity="0.6" d="M136.325 196.068L136.16 201.186" stroke="black" stroke-miterlimit="10"/>
<path opacity="0.6" d="M61.4332 178.072L61.2681 182.365" stroke="black" stroke-miterlimit="10"/>
<path opacity="0.6" d="M59.0386 182.777L58.9561 187.07" stroke="black" stroke-miterlimit="10"/>
<path opacity="0.6" d="M60.69 187.318L60.6074 191.61" stroke="black" stroke-miterlimit="10"/>
<path opacity="0.6" d="M58.378 191.445L58.2954 196.48" stroke="black" stroke-miterlimit="10"/>
<path opacity="0.6" d="M60.9378 196.893L60.8552 202.094" stroke="black" stroke-miterlimit="10"/>
<path opacity="0.6" d="M39.7994 169.404L39.7168 173.697" stroke="black" stroke-miterlimit="10"/>
<path opacity="0.6" d="M36.4141 173.614L36.3315 177.907" stroke="black" stroke-miterlimit="10"/>
<path opacity="0.6" d="M38.313 178.237L38.2305 182.53" stroke="black" stroke-miterlimit="10"/>
<path opacity="0.6" d="M35.0103 182.777L34.9277 187.07" stroke="black" stroke-miterlimit="10"/>
<path opacity="0.6" d="M37.7352 187.235L37.5701 191.527" stroke="black" stroke-miterlimit="10"/>
<path opacity="0.6" d="M36.3314 191.775L36.2488 196.068" stroke="black" stroke-miterlimit="10"/>
<path opacity="0.6" d="M37.5701 196.315L37.4875 201.763" stroke="black" stroke-miterlimit="10"/>
<path d="M182.565 200.195C183.639 200.525 193.382 195.49 192.722 190.042" stroke="black" stroke-width="2" stroke-miterlimit="10"/>
<path opacity="0.8" d="M127.16 215.466C127.16 215.466 126.499 221.74 132.94 221.41C133.105 215.384 127.16 215.466 127.16 215.466Z" fill="black" stroke="black" stroke-width="2" stroke-miterlimit="10"/>
<path opacity="0.8" d="M132.94 223.391C132.94 223.391 133.601 229.665 127.16 229.335C126.995 223.226 132.94 223.391 132.94 223.391Z" fill="black" stroke="black" stroke-width="2" stroke-miterlimit="10"/>
<path opacity="0.8" d="M112.958 215.466C112.958 215.466 112.297 221.74 118.738 221.41C118.903 215.384 112.958 215.466 112.958 215.466Z" fill="black" stroke="black" stroke-width="2" stroke-miterlimit="10"/>
<path opacity="0.8" d="M118.738 223.391C118.738 223.391 119.398 229.665 112.958 229.335C112.793 223.226 118.738 223.391 118.738 223.391Z" fill="black" stroke="black" stroke-width="2" stroke-miterlimit="10"/>
<path opacity="0.8" d="M98.838 215.466C98.838 215.466 98.1774 221.74 104.618 221.41C104.783 215.384 98.838 215.466 98.838 215.466Z" fill="black" stroke="black" stroke-width="2" stroke-miterlimit="10"/>
<path opacity="0.8" d="M104.618 223.391C104.618 223.391 105.279 229.665 98.8381 229.335C98.673 223.226 104.618 223.391 104.618 223.391Z" fill="black" stroke="black" stroke-width="2" stroke-miterlimit="10"/>
<path opacity="0.8" d="M84.4706 215.466C84.4706 215.466 83.81 221.74 90.2506 221.41C90.4157 215.384 84.4706 215.466 84.4706 215.466Z" fill="black" stroke="black" stroke-width="2" stroke-miterlimit="10"/>
<path opacity="0.8" d="M90.2506 223.391C90.2506 223.391 90.9112 229.665 84.4706 229.335C84.388 223.226 90.2506 223.391 90.2506 223.391Z" fill="black" stroke="black" stroke-width="2" stroke-miterlimit="10"/>
<path opacity="0.8" d="M70.3509 215.466C70.3509 215.466 69.6904 221.74 76.1309 221.41C76.2961 215.384 70.3509 215.466 70.3509 215.466Z" fill="black" stroke="black" stroke-width="2" stroke-miterlimit="10"/>
<path opacity="0.8" d="M76.131 223.391C76.131 223.391 76.7915 229.665 70.351 229.335C70.2684 223.226 76.131 223.391 76.131 223.391Z" fill="black" stroke="black" stroke-width="2" stroke-miterlimit="10"/>
<path opacity="0.8" d="M56.1485 215.466C56.1485 215.466 55.488 221.74 61.9285 221.41C62.0937 215.384 56.1485 215.466 56.1485 215.466Z" fill="black" stroke="black" stroke-width="2" stroke-miterlimit="10"/>
<path opacity="0.8" d="M61.9286 223.391C61.9286 223.391 62.5891 229.665 56.1486 229.335C56.066 223.226 61.9286 223.391 61.9286 223.391Z" fill="black" stroke="black" stroke-width="2" stroke-miterlimit="10"/>
<path opacity="0.8" d="M42.0289 215.466C42.0289 215.466 41.3683 221.74 47.8089 221.41C47.974 215.384 42.0289 215.466 42.0289 215.466Z" fill="black" stroke="black" stroke-width="2" stroke-miterlimit="10"/>
<path opacity="0.8" d="M47.8089 223.391C47.8089 223.391 48.4695 229.665 42.0289 229.335C41.9464 223.226 47.8089 223.391 47.8089 223.391Z" fill="black" stroke="black" stroke-width="2" stroke-miterlimit="10"/>
<path opacity="0.8" d="M27.8265 215.466C27.8265 215.466 27.1659 221.74 33.6065 221.41C33.7717 215.384 27.8265 215.466 27.8265 215.466Z" fill="black" stroke="black" stroke-width="2" stroke-miterlimit="10"/>
<path opacity="0.8" d="M33.6066 223.391C33.6066 223.391 34.2672 229.665 27.8266 229.335C27.6615 223.226 33.6066 223.391 33.6066 223.391Z" fill="black" stroke="black" stroke-width="2" stroke-miterlimit="10"/>
<path opacity="0.8" d="M13.7894 215.466C13.7894 215.466 13.1288 221.74 19.5694 221.41C19.7345 215.384 13.7894 215.466 13.7894 215.466Z" fill="black" stroke="black" stroke-width="2" stroke-miterlimit="10"/>
<path opacity="0.8" d="M19.5695 223.391C19.5695 223.391 20.2301 229.665 13.7895 229.335C13.6244 223.226 19.5695 223.391 19.5695 223.391Z" fill="black" stroke="black" stroke-width="2" stroke-miterlimit="10"/>
<path opacity="0.8" d="M167.62 215.466C167.62 215.466 168.281 221.74 161.84 221.41C161.757 215.384 167.62 215.466 167.62 215.466Z" fill="black" stroke="black" stroke-width="2" stroke-miterlimit="10"/>
<path opacity="0.8" d="M161.84 223.391C161.84 223.391 161.179 229.665 167.62 229.335C167.785 223.226 161.84 223.391 161.84 223.391Z" fill="black" stroke="black" stroke-width="2" stroke-miterlimit="10"/>
<path opacity="0.8" d="M181.822 215.466C181.822 215.466 182.483 221.74 176.042 221.41C175.877 215.384 181.822 215.466 181.822 215.466Z" fill="black" stroke="black" stroke-width="2" stroke-miterlimit="10"/>
<path opacity="0.8" d="M176.042 223.391C176.042 223.391 175.382 229.665 181.822 229.335C181.987 223.226 176.042 223.391 176.042 223.391Z" fill="black" stroke="black" stroke-width="2" stroke-miterlimit="10"/>
<path opacity="0.8" d="M195.942 215.466C195.942 215.466 196.603 221.74 190.162 221.41C189.997 215.384 195.942 215.466 195.942 215.466Z" fill="black" stroke="black" stroke-width="2" stroke-miterlimit="10"/>
<path opacity="0.8" d="M190.162 223.391C190.162 223.391 189.501 229.665 195.942 229.335C196.107 223.226 190.162 223.391 190.162 223.391Z" fill="black" stroke="black" stroke-width="2" stroke-miterlimit="10"/>
<path opacity="0.8" d="M210.31 215.466C210.31 215.466 210.97 221.74 204.53 221.41C204.364 215.384 210.31 215.466 210.31 215.466Z" fill="black" stroke="black" stroke-width="2" stroke-miterlimit="10"/>
<path opacity="0.8" d="M204.529 223.391C204.529 223.391 203.869 229.665 210.309 229.335C210.475 223.226 204.529 223.391 204.529 223.391Z" fill="black" stroke="black" stroke-width="2" stroke-miterlimit="10"/>
<path opacity="0.8" d="M224.429 215.466C224.429 215.466 225.09 221.74 218.649 221.41C218.484 215.384 224.429 215.466 224.429 215.466Z" fill="black" stroke="black" stroke-width="2" stroke-miterlimit="10"/>
<path opacity="0.8" d="M218.649 223.391C218.649 223.391 217.988 229.665 224.429 229.335C224.594 223.226 218.649 223.391 218.649 223.391Z" fill="black" stroke="black" stroke-width="2" stroke-miterlimit="10"/>
<path opacity="0.8" d="M238.631 215.466C238.631 215.466 239.292 221.74 232.852 221.41C232.686 215.384 238.631 215.466 238.631 215.466Z" fill="black" stroke="black" stroke-width="2" stroke-miterlimit="10"/>
<path opacity="0.8" d="M232.851 223.391C232.851 223.391 232.191 229.665 238.631 229.335C238.797 223.226 232.851 223.391 232.851 223.391Z" fill="black" stroke="black" stroke-width="2" stroke-miterlimit="10"/>
<path opacity="0.8" d="M252.751 215.466C252.751 215.466 253.412 221.74 246.971 221.41C246.806 215.384 252.751 215.466 252.751 215.466Z" fill="black" stroke="black" stroke-width="2" stroke-miterlimit="10"/>
<path opacity="0.8" d="M246.971 223.391C246.971 223.391 246.31 229.665 252.751 229.335C252.916 223.226 246.971 223.391 246.971 223.391Z" fill="black" stroke="black" stroke-width="2" stroke-miterlimit="10"/>
<path opacity="0.8" d="M266.953 215.466C266.953 215.466 267.614 221.74 261.173 221.41C261.091 215.384 266.953 215.466 266.953 215.466Z" fill="black" stroke="black" stroke-width="2" stroke-miterlimit="10"/>
<path opacity="0.8" d="M261.173 223.391C261.173 223.391 260.513 229.665 266.953 229.335C267.119 223.226 261.173 223.391 261.173 223.391Z" fill="black" stroke="black" stroke-width="2" stroke-miterlimit="10"/>
<path opacity="0.8" d="M280.991 215.466C280.991 215.466 281.651 221.74 275.211 221.41C275.046 215.384 280.991 215.466 280.991 215.466Z" fill="black" stroke="black" stroke-width="2" stroke-miterlimit="10"/>
<path opacity="0.8" d="M275.211 223.391C275.211 223.391 274.55 229.665 280.991 229.335C281.156 223.226 275.211 223.391 275.211 223.391Z" fill="black" stroke="black" stroke-width="2" stroke-miterlimit="10"/>
<path d="M189.092 111.496V103.883C189.092 103.238 188.94 102.607 188.656 102.071C188.371 101.534 187.967 101.116 187.494 100.869C187.022 100.622 186.501 100.558 185.999 100.684C185.498 100.809 185.036 101.12 184.675 101.576C184.313 102.033 184.066 102.614 183.966 103.247C183.867 103.88 183.918 104.536 184.114 105.132C184.31 105.728 184.641 106.238 185.067 106.596M195.992 110.408V98.4459C195.992 97.8006 196.143 97.1698 196.428 96.6333C196.712 96.0968 197.116 95.6786 197.589 95.4317C198.062 95.1848 198.582 95.1202 199.084 95.2461C199.586 95.3719 200.047 95.6827 200.409 96.1389C200.771 96.5952 201.017 97.1765 201.117 97.8094C201.217 98.4423 201.166 99.0982 200.97 99.6944C200.774 100.291 200.442 100.8 200.017 101.159M192.542 112.583V94.0959C192.542 93.4506 192.39 92.8198 192.106 92.2833C191.821 91.7468 191.417 91.3287 190.944 91.0817C190.472 90.8348 189.951 90.7702 189.449 90.8961C188.948 91.0219 188.486 91.3327 188.125 91.7889C187.763 92.2452 187.516 92.8265 187.416 93.4594C187.317 94.0923 187.368 94.7482 187.564 95.3444C187.76 95.9405 188.091 96.4501 188.517 96.8085C188.942 97.167 189.442 97.3584 189.954 97.3584" stroke="black" stroke-width="2" stroke-linecap="round" stroke-linejoin="round"/>
<g clip-path="url(#clip0_2558_1218)">
<path d="M243.499 88.8808C243.883 88.6697 244.248 88.4269 244.591 88.1548C245.312 87.5786 245.835 86.8294 246.063 86.0448C246.313 85.1848 246.181 84.3449 245.698 83.7428C245.314 83.2623 244.753 82.9671 244.076 82.8916C243.113 82.7843 242.046 83.1331 241.15 83.8495C239.715 84.9964 238.765 86.6929 238.218 87.9198C238.061 86.6094 237.656 84.8185 236.624 83.5274C236.071 82.8357 235.31 82.4264 234.557 82.3425C233.942 82.2739 233.335 82.4225 232.849 82.8098C231.77 83.6719 231.712 85.391 232.718 86.6489C233.076 87.0977 233.511 87.4857 233.977 87.8194L229.764 87.3498L229.21 92.3191L230.453 92.4575L229.483 101.154L244.391 102.815L245.36 94.1192L246.603 94.2577L247.156 89.2885L243.498 88.8807L243.499 88.8808ZM242.027 84.9473C242.625 84.4693 243.333 84.2225 243.919 84.2878C244.127 84.3109 244.414 84.387 244.599 84.6189C245.049 85.1809 244.634 86.3195 243.713 87.0557C242.764 87.814 241.552 88.2726 240.511 88.5478L239.527 88.4381C240.012 87.3614 240.833 85.9021 242.027 84.9473V84.9473ZM233.408 84.6292C233.414 84.4501 233.464 84.1198 233.729 83.9091C233.922 83.7657 234.164 83.705 234.403 83.7402C234.815 83.7862 235.224 84.0293 235.526 84.405C236.11 85.1354 236.535 86.2418 236.754 87.6057L236.771 87.7157L236.667 87.6753C235.386 87.1614 234.4 86.5032 233.815 85.7726C233.549 85.4517 233.404 85.0473 233.407 84.6303L233.408 84.6292ZM235.835 100.604L230.865 100.05L231.765 91.975L236.735 92.5289L235.835 100.604ZM236.804 91.9077L230.592 91.2154L230.869 88.7307L237.081 89.4231L236.804 91.9077ZM243.288 101.435L238.319 100.881L239.219 92.8058L244.188 93.3597L243.288 101.435ZM245.5 92.877L239.288 92.1847L239.565 89.7001L245.777 90.3924L245.5 92.877Z" fill="#964B00"/>
</g>
<g clip-path="url(#clip1_2558_1218)">
<path d="M148.96 92.1649L149.679 95.8454M149.679 95.8454L146.407 96.484L145.37 91.1677L146.217 84.6344L149.089 81.951L153.179 81.1526L157.258 82.4789L160.092 88.2938L161.129 93.6101L157.858 94.2488L158.417 97.1114L150.238 98.708L149.679 95.8454ZM157.139 90.5682L157.858 94.2488L157.139 90.5682Z" stroke="#964B00" stroke-width="1.66667" stroke-linecap="round" stroke-linejoin="round"/>
</g>
<g clip-path="url(#clip2_2558_1218)">
<path d="M174.317 59.8744L173.69 62.2616L173.083 62.6122L176.45 63.4963L177.328 60.1551L176.721 60.5058L174.317 59.8744Z" fill="#964B00"/>
<path d="M181.875 64.9207C181.878 64.8824 181.878 64.844 181.884 64.8064C181.677 64.7843 181.479 64.7134 181.306 64.5995C181.133 64.4855 180.989 64.3318 180.887 64.1511C180.765 63.9355 180.707 63.6897 180.718 63.4422C180.73 63.1947 180.812 62.9556 180.954 62.7525C180.894 62.7298 180.836 62.7029 180.78 62.6719C180.616 62.5823 180.473 62.4587 180.361 62.3094C180.234 62.1423 180.15 61.9468 180.115 61.7398C180.097 61.6193 180.096 61.4969 180.112 61.3761L180.088 61.3898L177.683 60.7583L177.056 63.1452L176.45 63.4962L181.875 64.9207V64.9207ZM173.439 63.2162L172.813 65.6028L172.206 65.954L175.573 66.838L176.45 63.4963L175.844 63.8476L173.439 63.2162ZM176.806 64.1001L176.179 66.4867L175.573 66.838L178.94 67.7221L179.817 64.3804L179.211 64.7316L176.806 64.1001Z" fill="#964B00"/>
<path d="M182.622 70.6386C182.563 70.5659 182.497 70.4978 182.427 70.435L183.485 66.4066L182.923 66.2591C182.757 66.2267 182.599 66.1621 182.458 66.0689C182.231 65.9209 182.056 65.7054 181.957 65.4527L180.173 64.9841L179.546 67.3707L178.94 67.7221L182.306 68.6061L181.7 68.957L179.295 68.3256L179.055 69.2393C178.893 69.214 178.727 69.1903 178.56 69.1684L178.94 67.7221L178.333 68.073L175.928 67.4415L175.538 68.9292C175.366 68.923 175.196 68.9177 175.028 68.9133L175.573 66.838L174.967 67.189L172.562 66.5576L171.941 68.923C171.746 68.9291 171.571 68.9352 171.422 68.9415L173.961 59.2711L180.21 60.9119L180.358 60.3452L173.548 58.5569L168.786 76.6922L180.01 79.6392L181.495 73.9837C182.455 72.7589 183.629 71.8907 182.622 70.6386V70.6386ZM181.533 72.9725C180.859 73.7595 179.975 74.791 179.895 76.2441C178.294 75.7713 177.871 74.7336 177.339 73.4292C176.816 72.1465 176.196 70.6278 174.308 69.5253C176.241 69.5477 178.594 69.6823 180.296 70.1292C181.469 70.4372 181.949 70.7922 182.144 71.0354C182.605 71.6085 182.44 71.9141 181.533 72.9725V72.9725ZM169.497 76.273L171.371 69.1346C171.47 69.1666 171.563 69.2005 171.657 69.2341C172.219 69.4668 173.499 70.0679 174.424 71.0319C174.855 71.5422 175.155 72.0933 175.392 72.656C175.49 72.9607 175.603 73.2604 175.731 73.5537C176.349 75.3518 176.751 77.0899 179.302 77.7596C179.148 77.4246 179.092 77.0342 179.102 76.6155C179.335 76.7209 179.592 76.8129 179.882 76.8891C179.957 76.9088 180.037 76.9263 180.117 76.9439L179.596 78.9249L169.497 76.273" fill="#964B00"/>
</g>
<path d="M204 73C204 71.7898 204.274 70.5953 204.802 69.5064C205.33 68.4175 206.098 67.4626 207.049 66.7137C207.999 65.9647 209.108 65.4411 210.29 65.1824C211.472 64.9237 212.697 64.9365 213.874 65.22C213.961 65.2407 214.041 65.2846 214.106 65.3469C214.17 65.4092 214.217 65.4878 214.241 65.5743C214.264 65.6608 214.264 65.7521 214.241 65.8386C214.217 65.9251 214.171 66.0037 214.106 66.066C213.848 66.3173 213.662 66.6337 213.569 66.9817C213.475 67.3297 213.478 67.6965 213.576 68.0433C213.673 68.3901 213.863 68.704 214.125 68.952C214.386 69.1999 214.71 69.3727 215.061 69.452C215.186 69.48 215.297 69.5494 215.377 69.649C215.456 69.7486 215.5 69.8724 215.5 70C215.5 70.4067 215.624 70.8037 215.855 71.1382C216.086 71.4727 216.414 71.7287 216.795 71.8721C217.175 72.0155 217.591 72.0395 217.985 71.9408C218.38 71.8422 218.735 71.6256 219.003 71.32C219.065 71.2493 219.146 71.1975 219.236 71.1705C219.326 71.1435 219.422 71.1425 219.512 71.1676C219.603 71.1927 219.685 71.2428 219.748 71.3122C219.812 71.3816 219.854 71.4675 219.871 71.56C220.07 72.6529 220.039 73.7751 219.78 74.8553C219.521 75.9354 219.04 76.9498 218.367 77.8339C217.695 78.718 216.846 79.4524 215.874 79.9902C214.902 80.5281 213.829 80.8578 212.723 80.9581C211.617 81.0585 210.502 80.9274 209.449 80.5732C208.396 80.219 207.429 79.6495 206.608 78.9009C205.788 78.1522 205.132 77.2409 204.683 76.225C204.234 75.2091 204.001 74.1108 204 73V73ZM209 71C209 70.7348 208.895 70.4805 208.707 70.2929C208.52 70.1054 208.265 70 208 70C207.735 70 207.48 70.1054 207.293 70.2929C207.105 70.4805 207 70.7348 207 71C207 71.2652 207.105 71.5196 207.293 71.7071C207.48 71.8947 207.735 72 208 72C208.265 72 208.52 71.8947 208.707 71.7071C208.895 71.5196 209 71.2652 209 71V71ZM212 74C212.265 74 212.52 73.8947 212.707 73.7071C212.895 73.5196 213 73.2652 213 73C213 72.7348 212.895 72.4805 212.707 72.2929C212.52 72.1054 212.265 72 212 72C211.735 72 211.48 72.1054 211.293 72.2929C211.105 72.4805 211 72.7348 211 73C211 73.2652 211.105 73.5196 211.293 73.7071C211.48 73.8947 211.735 74 212 74V74ZM215 77C215 76.7348 214.895 76.4805 214.707 76.2929C214.52 76.1054 214.265 76 214 76C213.735 76 213.48 76.1054 213.293 76.2929C213.105 76.4805 213 76.7348 213 77C213 77.2652 213.105 77.5196 213.293 77.7071C213.48 77.8947 213.735 78 214 78C214.265 78 214.52 77.8947 214.707 77.7071C214.895 77.5196 215 77.2652 215 77ZM209 77C209.265 77 209.52 76.8947 209.707 76.7071C209.895 76.5196 210 76.2652 210 76C210 75.7348 209.895 75.4805 209.707 75.2929C209.52 75.1054 209.265 75 209 75C208.735 75 208.48 75.1054 208.293 75.2929C208.105 75.4805 208 75.7348 208 76C208 76.2652 208.105 76.5196 208.293 76.7071C208.48 76.8947 208.735 77 209 77Z" fill="#964B00"/>
<g clip-path="url(#clip3_2558_1218)">
<path d="M192.896 33.9015C192.943 34.3527 192.895 34.8086 192.756 35.2405C192.617 35.6724 192.39 36.0707 192.09 36.4103C192.84 36.5987 193.501 37.0457 193.954 37.6727C194.408 38.2997 194.626 39.0665 194.57 39.8384C194.515 40.6103 194.189 41.3379 193.65 41.8933C193.111 42.4487 192.393 42.7963 191.623 42.875L185.065 43.5602C184.195 43.6511 183.325 43.3927 182.645 42.8419C181.966 42.2912 181.533 41.4931 181.442 40.6234C181.352 39.7536 181.61 38.8834 182.161 38.2041C182.712 37.5248 183.51 37.0922 184.379 37.0013L187.417 36.684C186.809 36.1433 186.424 35.3956 186.337 34.5866L181.965 35.0434C181.095 35.1343 180.297 35.5669 179.746 36.2462C179.195 36.9255 178.937 37.7957 179.028 38.6655L179.485 43.0381C179.575 43.9078 180.008 44.7059 180.687 45.2566C181.367 45.8074 182.237 46.0658 183.107 45.9749L194.038 44.8329C194.908 44.7421 195.706 44.3094 196.257 43.6301C196.807 42.9509 197.066 42.0806 196.975 41.2109L196.518 36.8383C196.427 35.9685 195.995 35.1705 195.315 34.6197C194.636 34.069 193.766 33.8106 192.896 33.9015ZM189.845 36.4303C190.277 36.3852 190.687 36.2128 191.021 35.935C191.356 35.6572 191.6 35.2865 191.724 34.8697C191.848 34.4529 191.845 34.0088 191.716 33.5935C191.588 33.1782 191.339 32.8104 191.001 32.5366C190.663 32.2628 190.252 32.0953 189.819 32.0552C189.386 32.0152 188.951 32.1044 188.569 32.3116C188.187 32.5188 187.875 32.8347 187.672 33.2193C187.469 33.6039 187.385 34.04 187.43 34.4724C187.491 35.0523 187.779 35.5843 188.232 35.9515C188.685 36.3187 189.265 36.4909 189.845 36.4303ZM185.448 31.3643C185.772 31.3304 186.079 31.2011 186.33 30.9928C186.581 30.7844 186.764 30.5064 186.857 30.1938C186.95 29.8812 186.948 29.5481 186.852 29.2367C186.755 28.9252 186.568 28.6494 186.315 28.444C186.062 28.2386 185.753 28.113 185.429 28.083C185.104 28.0529 184.778 28.1198 184.491 28.2752C184.204 28.4306 183.97 28.6676 183.818 28.956C183.666 29.2445 183.603 29.5716 183.637 29.8959C183.682 30.3308 183.899 30.7298 184.238 31.0052C184.578 31.2805 185.013 31.4097 185.448 31.3643ZM191.346 29.6431C191.562 29.6205 191.767 29.5343 191.934 29.3954C192.101 29.2565 192.224 29.0711 192.286 28.8627C192.347 28.6544 192.346 28.4323 192.282 28.2247C192.217 28.017 192.093 27.8331 191.924 27.6962C191.755 27.5593 191.55 27.4755 191.333 27.4555C191.117 27.4355 190.899 27.4801 190.708 27.5837C190.517 27.6873 190.361 27.8452 190.26 28.0376C190.158 28.2299 190.116 28.4479 190.139 28.6641C190.169 28.954 190.313 29.2201 190.54 29.4036C190.766 29.5872 191.056 29.6734 191.346 29.6431ZM184.494 38.0945C183.914 38.1551 183.382 38.4435 183.014 38.8963C182.647 39.3492 182.475 39.9293 182.536 40.5092C182.596 41.089 182.885 41.621 183.337 41.9882C183.79 42.3554 184.37 42.5276 184.95 42.4671L191.509 41.7819C192.089 41.7213 192.621 41.4329 192.988 40.98C193.355 40.5272 193.528 39.947 193.467 39.3672C193.407 38.7873 193.118 38.2553 192.665 37.8881C192.212 37.521 191.632 37.3487 191.052 37.4093L184.494 38.0945Z" fill="#964B00"/>
</g>
<path d="M181.695 3.52606H182.825V4.41338C182.825 4.61479 183.037 5.12236 183.474 5.57954C183.596 5.70786 183.994 6.37961 183.994 7.78908V12.2485C183.994 14.1215 182.605 16 180.587 16H177.104C175.674 15.9036 174.002 14.3956 174.002 12.4202V7.42357C174.002 5.39178 175.131 5.45708 175.131 4.26139V3.52606H176.255V4.40438C176.255 4.82031 176.099 5.27758 175.926 5.60312C177.153 6.79053 180.365 4.374 182.148 5.78857C181.725 5.11346 181.71 4.33697 181.71 4.33697L181.695 3.52606H181.695ZM175.223 1C174.773 1.11613 174.463 1.38604 174.365 1.97172V2.441C174.365 2.441 174.37 2.97455 174.926 3.04647C174.926 3.04647 175.168 3.1128 175.336 2.94227C175.47 2.80779 175.602 2.20334 175.878 2.22851C176.173 2.25546 176.403 3.04814 176.689 3.05673C176.946 3.06449 177.15 2.24567 177.444 2.24052C177.738 2.23536 177.937 3.03666 178.209 3.06537C178.482 3.09408 178.697 2.14056 178.964 2.22385C179.267 2.31827 179.451 3.05389 179.738 3.05389C180.024 3.05389 180.259 2.19912 180.525 2.2242C180.858 2.25546 181.022 3.07111 181.281 3.04814C181.589 3.02096 181.741 2.25895 182.081 2.23536C182.412 2.21236 182.681 3.03379 182.832 3.06824C183.303 3.07009 183.587 2.88631 183.592 2.48544V1.9956C183.56 1.56563 183.316 1.19219 182.799 1H175.223ZM182.484 7.2545C182.484 7.2545 182.42 7.0329 182.327 7.02827C182.252 7.02458 181.909 7.26118 181.696 7.55497C180.912 7.03431 179.093 8.66239 178.367 9.50093C177.603 10.3838 175.238 12.8721 176.036 13.9313C176.938 15.1283 180.069 11.4941 180.069 11.4941C180.069 11.4941 182.531 8.68149 181.853 7.70881C182.081 7.32479 182.484 7.2545 182.484 7.2545V7.2545Z" fill="#964B00"/>
<path fill-rule="evenodd" clip-rule="evenodd" d="M243.22 41.9561C244.264 38.0601 241.792 34.0361 237.731 32.9481C233.145 31.7181 226.636 34.9121 228.084 39.0091C228.564 40.3641 229.488 40.6811 231.231 40.7061L231.34 40.7081C232.261 40.7191 232.52 40.7791 232.598 40.9051C232.725 41.1131 232.727 41.4441 232.584 42.3551C232.516 42.7851 232.494 42.9351 232.468 43.1701C232.309 44.6011 232.551 45.7171 233.488 46.7271C236.416 49.8801 242.041 46.3541 243.22 41.9561V41.9561ZM229.97 38.3411C229.241 36.2811 233.906 33.9921 237.213 34.8781C240.23 35.6871 242.039 38.6321 241.288 41.4371C240.45 44.5651 236.506 47.0371 234.954 45.3651C234.474 44.8491 234.355 44.2971 234.456 43.3901C234.477 43.1961 234.497 43.0621 234.56 42.6641C234.779 41.2671 234.776 40.6291 234.302 39.8581C233.708 38.8911 233.002 38.7281 231.365 38.7071L231.259 38.7051C230.295 38.6921 230.066 38.6131 229.969 38.3411H229.97Z" fill="#964B00"/>
<path d="M233 38.0001C232.668 38.0001 232.351 37.8684 232.116 37.634C231.882 37.3996 231.75 37.0816 231.75 36.7501C231.75 36.4186 231.882 36.1006 232.116 35.8662C232.351 35.6318 232.668 35.5001 233 35.5001C233.332 35.5001 233.649 35.6318 233.884 35.8662C234.118 36.1006 234.25 36.4186 234.25 36.7501C234.25 37.0816 234.118 37.3996 233.884 37.634C233.649 37.8684 233.332 38.0001 233 38.0001V38.0001ZM236.75 38.0001C236.418 38.0001 236.101 37.8684 235.866 37.634C235.632 37.3996 235.5 37.0816 235.5 36.7501C235.5 36.4186 235.632 36.1006 235.866 35.8662C236.101 35.6318 236.418 35.5001 236.75 35.5001C237.082 35.5001 237.399 35.6318 237.634 35.8662C237.868 36.1006 238 36.4186 238 36.7501C238 37.0816 237.868 37.3996 237.634 37.634C237.399 37.8684 237.082 38.0001 236.75 38.0001ZM239.25 41.0001C238.918 41.0001 238.601 40.8684 238.366 40.634C238.132 40.3996 238 40.0816 238 39.7501C238 39.4186 238.132 39.1006 238.366 38.8662C238.601 38.6318 238.918 38.5001 239.25 38.5001C239.582 38.5001 239.899 38.6318 240.134 38.8662C240.368 39.1006 240.5 39.4186 240.5 39.7501C240.5 40.0816 240.368 40.3996 240.134 40.634C239.899 40.8684 239.582 41.0001 239.25 41.0001ZM237.75 44.5001C237.418 44.5001 237.101 44.3684 236.866 44.134C236.632 43.8996 236.5 43.5816 236.5 43.2501C236.5 42.9186 236.632 42.6006 236.866 42.3662C237.101 42.1318 237.418 42.0001 237.75 42.0001C238.082 42.0001 238.399 42.1318 238.634 42.3662C238.868 42.6006 239 42.9186 239 43.2501C239 43.5816 238.868 43.8996 238.634 44.134C238.399 44.3684 238.082 44.5001 237.75 44.5001V44.5001ZM241.37 31.6051C241.489 31.5416 241.619 31.5026 241.753 31.4906C241.887 31.4785 242.022 31.4937 242.15 31.535C242.278 31.5764 242.396 31.6431 242.498 31.7313C242.599 31.8195 242.682 31.9272 242.741 32.0481L246.834 40.4481C246.902 40.5991 246.911 40.7704 246.857 40.9273C246.804 41.0842 246.692 41.2148 246.546 41.2926C246.4 41.3704 246.229 41.3896 246.069 41.3462C245.909 41.3029 245.772 41.2002 245.685 41.0591L240.977 32.9891C240.909 32.873 240.866 32.7445 240.849 32.6111C240.832 32.4778 240.843 32.3425 240.879 32.2132C240.916 32.084 240.979 31.9635 241.063 31.859C241.148 31.7545 241.252 31.6681 241.371 31.6051H241.37Z" fill="#964B00"/>
<path fill-rule="evenodd" clip-rule="evenodd" d="M239.537 31.4841C240.024 32.3991 240.843 32.6551 241.635 32.2341C242.426 31.8141 242.673 30.9911 242.186 30.0761C241.63 29.0281 240.438 28.0781 239.648 28.4971C238.858 28.9171 238.98 30.4361 239.538 31.4841H239.537ZM240.42 31.0141C240.243 30.6585 240.134 30.2728 240.1 29.8771C240.085 29.7116 240.091 29.545 240.118 29.3811L240.136 29.3901C240.186 29.4141 240.341 29.4861 240.539 29.6441C240.841 29.8851 241.141 30.2401 241.303 30.5451C241.532 30.9751 241.467 31.1911 241.165 31.3521C240.865 31.5121 240.649 31.4441 240.42 31.0151V31.0141Z" fill="#964B00"/>
<path d="M217.017 10.7094C216.097 8.65317 215.206 7.34067 215.206 7.34067V7.33911H210.195C209.897 7.92349 209.397 8.87192 208.678 10.1954C207.805 11.8047 205.83 16.9844 205.83 16.9844C205.83 16.9844 205.945 17.6688 207.626 17.9766C208.742 18.1813 209.078 18.0063 210.011 18.5125C210.834 18.9594 211.405 19.3766 212.8 19.3766C214.195 19.3766 214.547 19.0313 215.683 18.5125C216.65 18.0704 217.172 18.286 218.283 18.0579C220.637 17.575 220.792 15.8532 220.792 15.8532C220.792 15.8532 218.992 15.1204 217.017 10.7094V10.7094Z" fill="#964B00"/>
<path d="M215.897 1.06246C215.9 0.935896 215.817 0.823396 215.697 0.789021L215.156 0.635896C214.997 0.590584 214.836 0.693709 214.809 0.857771L214.542 2.50621C214.542 2.50621 213.714 2.6484 212.797 3.39527L212.736 3.39371C211.819 2.64683 210.972 2.50621 210.972 2.50621L210.703 0.856209C210.697 0.817904 210.683 0.78136 210.661 0.748944C210.64 0.716529 210.612 0.688968 210.579 0.668047C210.546 0.647127 210.51 0.633315 210.471 0.627507C210.433 0.621699 210.394 0.624025 210.356 0.634334L209.816 0.787459C209.694 0.821834 209.611 0.934334 209.616 1.0609C209.63 1.56558 209.678 2.8859 209.823 4.2234C209.972 5.59215 210.292 6.98902 210.248 7.48121C210.248 7.48121 211.505 7.65308 212.719 7.66558V7.66715H212.8V7.66558C214.013 7.65465 215.27 7.48121 215.27 7.48121C215.227 6.98902 215.547 5.59215 215.695 4.2234C215.834 2.8859 215.883 1.56715 215.897 1.06246V1.06246Z" fill="#964B00"/>
<path d="M212.875 7.83754C211.453 7.83754 210.48 7.72192 210.148 7.68442C210.133 7.6825 210.117 7.67747 210.103 7.66959C210.089 7.66171 210.077 7.65116 210.067 7.63853C210.057 7.6259 210.05 7.61144 210.046 7.59599C210.041 7.58053 210.04 7.56439 210.042 7.54848L210.136 6.87973C210.14 6.84832 210.156 6.81971 210.181 6.80012C210.206 6.78052 210.237 6.77151 210.269 6.77504C210.586 6.80942 211.533 6.89848 212.875 6.89848C214.166 6.89848 214.942 6.81567 215.219 6.78129C215.283 6.77348 215.342 6.81723 215.353 6.88129L215.425 7.54536C215.436 7.61254 215.391 7.67661 215.322 7.68598C215.027 7.72348 214.263 7.83754 212.875 7.83754Z" fill="#FFD5AA"/>
<path d="M214.534 2.514C214.403 2.49369 214.03 2.64057 213.933 2.67807C213.506 2.84213 213.153 3.06869 212.814 3.37338C212.812 3.37494 212.792 3.38744 212.767 3.38744C212.742 3.38744 212.725 3.37338 212.723 3.37182C212.384 3.06713 212.028 2.84369 211.602 2.67963C211.503 2.64213 211.13 2.49525 211 2.51557C210.844 2.539 211.033 2.71244 211.316 2.95932C211.6 3.20619 212.002 3.55307 212.342 3.85932C212.459 3.964 212.616 4.01088 212.767 4.02338C212.919 4.01088 213.075 3.964 213.192 3.85932C213.533 3.55307 213.934 3.20619 214.219 2.95932C214.503 2.71244 214.691 2.53744 214.534 2.514V2.514Z" fill="#964B00"/>
<path d="M209.188 18.1344C209.77 13.7235 211.303 9.87659 211.303 9.87659C211.303 9.87659 210.791 14.411 210.677 18.875C210.677 18.875 210.231 18.5938 209.823 18.4141C209.416 18.2344 209.188 18.1344 209.188 18.1344Z" fill="#FFD5AA"/>
<path d="M215.102 18.7906C214.719 16.4297 214.489 14.0797 214.6 12.1735C214.6 12.1735 215.467 15.7656 216.712 18.225C216.712 18.225 216.289 18.286 215.884 18.4266C215.602 18.525 215.102 18.7906 215.102 18.7906V18.7906Z" fill="#FFD5AA"/>
<g clip-path="url(#clip4_2558_1218)">
<path d="M139.504 65.1394V58.7432L143.914 60.7094L139.504 65.1394ZM131.083 73.5963L136.493 63.4107L138.866 65.7807L131.083 73.5963ZM128 54.4038L139.129 58.4469V65.5138L128 54.4038ZM146.171 58.4469H139.758L148.001 62.1219L146.171 58.4469Z" fill="#964B00"/>
</g>
<path d="M151.119 44.1391L156.336 44.7251L157.215 36.8993C157.241 36.6687 157.174 36.4372 157.029 36.2558C156.884 36.0745 156.673 35.958 156.443 35.9321L152.965 35.5415C152.734 35.5156 152.503 35.5823 152.321 35.7271C152.14 35.8719 152.023 36.0827 151.998 36.3133L151.119 44.1391ZM155.485 28.7805L156.599 30.3479C156.799 30.6178 156.917 30.9395 156.939 31.2746C156.961 31.6097 156.886 31.9441 156.723 32.2378C156.56 32.5316 156.316 32.7722 156.02 32.9311C155.725 33.09 155.389 33.1604 155.054 33.1339C154.72 33.1074 154.4 32.9851 154.132 32.7816C153.865 32.5781 153.662 32.3021 153.548 31.9864C153.433 31.6707 153.412 31.3287 153.486 31.0012C153.561 30.6737 153.728 30.3746 153.968 30.1395L155.485 28.7805Z" stroke="#964B00" stroke-width="2" stroke-linecap="round" stroke-linejoin="round"/>
<g clip-path="url(#clip5_2558_1218)">
<path d="M259.486 56.8846C260.216 56.763 260.838 56.1974 261.038 55.4807C261.165 55.0253 261.138 54.5748 260.971 54.1819L260.073 51.7817C260.041 51.6999 259.989 51.6278 259.921 51.5725C259.853 51.5171 259.771 51.4804 259.685 51.466C259.598 51.4516 259.509 51.4599 259.427 51.4902C259.345 51.5205 259.272 51.5716 259.215 51.6387L257.587 53.618C257.37 53.886 257.214 54.2148 257.152 54.5896C256.935 55.8917 258.048 57.1214 259.486 56.8846V56.8846ZM261.633 67.421L260.811 66.2702L259.57 67.1481C258.074 68.2167 255.823 67.8517 254.747 66.3441L253.867 65.1128L252.616 65.989C251.868 66.5233 250.951 66.7354 250.043 66.5842C249.323 66.4642 248.7 66.1271 248.21 65.6602L247.617 69.2211C247.436 70.3062 248.176 71.3419 249.261 71.5227L263.07 73.8243C264.155 74.0051 265.191 73.2653 265.372 72.1803L265.965 68.6194C265.142 68.9992 264.155 69.0781 263.177 68.6819C262.549 68.4353 262.028 67.9733 261.633 67.421V67.421ZM264.221 60.8368L259.289 60.0148L259.453 59.0284C259.544 58.4859 259.174 57.968 258.631 57.8776C258.089 57.7872 257.571 58.1571 257.481 58.6996L257.316 59.686L252.384 58.864C250.747 58.5911 249.205 59.6926 248.932 61.33L248.692 62.7701C248.552 63.6085 248.91 64.4996 249.665 64.8991C250.346 65.2558 251.155 65.2081 251.743 64.7791L254.204 63.0299L255.955 65.4811C256.58 66.3557 257.813 66.5612 258.687 65.9364L261.148 64.1872L262.899 66.6384C263.253 67.1333 263.812 67.4292 264.436 67.4522C265.434 67.4867 266.278 66.6845 266.442 65.6981L266.675 64.2974C266.744 63.9087 266.734 63.5104 266.648 63.1254C266.561 62.7405 266.399 62.3765 266.171 62.0546C265.942 61.7328 265.653 61.4594 265.318 61.2503C264.983 61.0413 264.61 60.9007 264.221 60.8368V60.8368Z" fill="#964B00"/>
</g>
<path d="M217 50.3334C217 51.9247 216.368 53.4508 215.243 54.576C214.117 55.7012 212.591 56.3334 211 56.3334C209.409 56.3334 207.883 55.7012 206.757 54.576C205.632 53.4508 205 51.9247 205 50.3334C205.001 49.1642 205.343 48.0207 205.985 47.0435C206.627 46.0663 207.54 45.2981 208.613 44.8334L208.848 45.016L209.88 45.8174C208.87 46.0666 207.972 46.6465 207.329 47.4649C206.687 48.2832 206.336 49.2929 206.333 50.3334C206.333 52.9067 208.427 55 211 55C213.573 55 215.667 52.9067 215.667 50.3334C215.664 49.2929 215.313 48.2832 214.671 47.4649C214.028 46.6465 213.13 46.0666 212.12 45.8174L213.387 44.8334C214.46 45.2981 215.373 46.0663 216.015 47.0435C216.657 48.0207 216.999 49.1642 217 50.3334V50.3334ZM211 45L214.333 42.4067L213 40.3334H209L207.667 42.4067L209.667 43.9627L211 45Z" fill="#964B00"/>
<defs>
<clipPath id="clip0_2558_1218">
<rect width="20" height="20" fill="white" transform="translate(229.216 81) rotate(6.36022)"/>
</clipPath>
<clipPath id="clip1_2558_1218">
<rect width="20" height="20" fill="white" transform="translate(141 81.8319) rotate(-11.0459)"/>
</clipPath>
<clipPath id="clip2_2558_1218">
<rect width="20" height="20" fill="white" transform="translate(170.079 57) rotate(14.712)"/>
</clipPath>
<clipPath id="clip3_2558_1218">
<rect width="17.5855" height="17.5855" fill="white" transform="translate(178 28.8271) rotate(-5.9639)"/>
</clipPath>
<clipPath id="clip4_2558_1218">
<rect width="20" height="20" fill="white" transform="translate(128 54)"/>
</clipPath>
<clipPath id="clip5_2558_1218">
<rect width="24" height="24" fill="white" transform="translate(247.946 49) rotate(9.46232)"/>
</clipPath>
</defs>
</svg>
