<svg width="285" height="205" viewBox="0 0 285 205" fill="none" xmlns="http://www.w3.org/2000/svg">
<g clip-path="url(#clip0_1373_923)">
<path d="M148 3.75271H147.118V0.742373C147.118 0.513561 146.757 0.28699 146.055 0.0755957C145.352 -0.135799 144.323 -0.327876 143.025 -0.489671C141.727 -0.651465 140.186 -0.779807 138.49 -0.86737C136.794 -0.954932 134.977 -1 133.141 -1H81.9772C78.2702 -1 74.7151 -0.816429 72.0938 -0.489671C69.4726 -0.162912 68 0.280267 68 0.742373V17.2576C68 17.4864 68.3615 17.713 69.0639 17.9244C69.7664 18.1358 70.7959 18.3279 72.0938 18.4897C73.3917 18.6515 74.9326 18.7798 76.6284 18.8674C78.3241 18.9549 80.1417 19 81.9772 19H133.141C136.848 19 140.403 18.8164 143.025 18.4897C145.646 18.1629 147.118 17.7197 147.118 17.2576V5.89554H148L148 3.75271Z" fill="#FFD5AA"/>
<path d="M285 205C270.315 202.85 256.192 200.996 242.631 199.439L247.993 190.763C246.186 190.23 238.243 195.175 238.243 195.175L245.282 169.953C236.19 170.829 231.564 196.594 231.564 196.594L221.408 187.829L226.324 197.653C184.82 193.37 148.976 191.687 118.827 191.493L123.416 184.068C121.609 183.534 113.666 188.48 113.666 188.48L120.705 163.258C111.613 164.133 106.987 189.898 106.987 189.898L96.8306 181.133L102.038 191.539C76.7624 191.845 56.1507 193.194 40.2413 194.766C44.884 183.188 60.6512 172.228 60.6512 172.228C48.6107 175.17 42.2942 180.163 38.9934 184.83C38.7411 170.507 40.4385 143.959 53.0491 114.618C53.0491 114.618 28.156 159.833 31.3271 190.274L31.7061 195.679C10.6076 198.11 0 200.692 0 200.692L285 205Z" fill="#3F3D56"/>
<path d="M151.544 8.21089V190.919C151.542 193.096 150.676 195.183 149.136 196.721C147.596 198.259 145.509 199.124 143.332 199.125H69.1422C68.0636 199.127 66.9953 198.916 65.9984 198.504C65.0015 198.092 64.0957 197.488 63.3328 196.726C62.5699 195.964 61.9649 195.058 61.5525 194.062C61.1401 193.066 60.9284 191.998 60.9296 190.919V8.21089C60.9295 7.13259 61.1418 6.06484 61.5545 5.06861C61.9672 4.07238 62.5722 3.16718 63.3348 2.40471C64.0974 1.64224 65.0028 1.03743 65.9992 0.624827C66.9957 0.212224 68.0637 -9.29089e-05 69.1422 3.85225e-07H80.2445V1.42345C80.2443 3.21644 80.9564 4.9361 82.2243 6.20421C83.4921 7.47231 85.2118 8.185 87.0052 8.18552H124.739C126.182 8.1886 127.588 7.72597 128.748 6.86637C128.982 6.6959 129.204 6.50942 129.413 6.30826C130.074 5.67773 130.599 4.91962 130.958 4.07994C131.316 3.24025 131.501 2.33648 131.499 1.42345V3.85225e-07H143.332C144.41 -0.000329976 145.479 0.211826 146.475 0.624345C147.472 1.03686 148.377 1.64166 149.14 2.40418C149.902 3.1667 150.507 4.07199 150.92 5.06833C151.333 6.06467 151.545 7.13253 151.544 8.21089Z" fill="#3F3D56"/>
<path d="M81.5978 32.4151C82.6877 32.4151 83.5713 31.5317 83.5713 30.442C83.5713 29.3523 82.6877 28.4689 81.5978 28.4689C80.5078 28.4689 79.6243 29.3523 79.6243 30.442C79.6243 31.5317 80.5078 32.4151 81.5978 32.4151Z" fill="#F2F2F2"/>
<path d="M129.413 6.30823C129.204 6.50938 128.982 6.69587 128.748 6.86633C131.165 11.1189 134.439 14.8228 138.364 17.7434C142.288 20.664 146.776 22.7374 151.544 23.8321V22.9527C146.905 21.8585 142.543 19.8144 138.734 16.9496C134.925 14.0848 131.751 10.4614 129.413 6.30823Z" fill="#FFD5AA"/>
<path d="M112.551 8.18555H111.626C114.909 16.525 120.323 23.857 127.328 29.4488C134.333 35.0406 142.684 38.6965 151.544 40.051V39.1772C142.914 37.8372 134.781 34.2754 127.945 28.8417C121.108 23.408 115.803 16.2895 112.551 8.18555V8.18555Z" fill="#FFD5AA"/>
<path d="M95.5166 8.18555H94.6257C102.077 34.0444 124.561 53.2933 151.544 56.4192V55.5595C125.029 52.4477 102.931 33.5652 95.5166 8.18555Z" fill="#FFD5AA"/>
<path d="M75.1133 45.0491H74.5996V44.5355H74.4996V45.0491H73.9856V45.1494H74.4996V45.663H74.5996V45.1494H75.1133V45.0491Z" fill="#F2F2F2"/>
<path d="M109.791 19.3989H109.277V18.8854H109.177V19.3989H108.663V19.4993H109.177V20.0129H109.277V19.4993H109.791V19.3989Z" fill="#F2F2F2"/>
<path d="M80.188 65.3438H79.6743V64.8302H79.5743V65.3438H79.0603V65.4441H79.5743V65.9577H79.6743V65.4441H80.188V65.3438Z" fill="#F2F2F2"/>
<path d="M103.87 50.4047H103.356V49.8911H103.256V50.4047H102.742V50.505H103.256V51.0186H103.356V50.505H103.87V50.4047Z" fill="#F2F2F2"/>
<path d="M137.702 59.7064H137.188V59.1929H137.088V59.7064H136.574V59.8068H137.088V60.3203H137.188V59.8068H137.702V59.7064Z" fill="#F2F2F2"/>
<path d="M131.781 36.3613C132.404 36.3613 132.909 35.8565 132.909 35.2338C132.909 34.6111 132.404 34.1063 131.781 34.1063C131.158 34.1063 130.654 34.6111 130.654 35.2338C130.654 35.8565 131.158 36.3613 131.781 36.3613Z" fill="#FF6584"/>
<path d="M91.3808 61.6733L90.7408 61.772C90.941 63.0517 91.0988 64.3596 91.2144 65.6534L91.86 65.597C91.7444 64.2863 91.5837 62.9671 91.3808 61.6733Z" fill="#E6E6E6"/>
<path d="M89.63 53.9669L89.0097 54.1558C89.3847 55.396 89.7202 56.6672 90.0049 57.9328L90.6393 57.7891C90.3489 56.5094 90.0077 55.2241 89.63 53.9669Z" fill="#E6E6E6"/>
<path d="M86.8361 46.5763L86.2468 46.8469C86.7881 48.0279 87.2956 49.24 87.7552 50.452L88.3613 50.2237C87.8961 48.9976 87.3858 47.7686 86.8361 46.5763Z" fill="#E6E6E6"/>
<path d="M83.0582 39.6479L82.5112 39.9947C83.2076 41.0883 83.8758 42.2214 84.496 43.3574L85.0655 43.0473C84.4396 41.8973 83.763 40.7529 83.0582 39.6479Z" fill="#E6E6E6"/>
<path d="M78.3613 33.2974L77.8679 33.7173C78.7081 34.7039 79.5257 35.7355 80.2981 36.7785L80.8169 36.3923C80.0388 35.3381 79.2127 34.2952 78.3613 33.2974Z" fill="#E6E6E6"/>
<path d="M72.8411 27.6431L72.4097 28.1251C73.3796 28.9904 74.3297 29.9009 75.2347 30.8282L75.6999 30.3744C74.7836 29.4357 73.8222 28.5168 72.8411 27.6431Z" fill="#E6E6E6"/>
<path d="M66.6048 22.7892L66.2411 23.3247C67.3181 24.0491 68.3838 24.8215 69.4072 25.6192L69.8075 25.109C68.77 24.3028 67.693 23.5221 66.6048 22.7892Z" fill="#E6E6E6"/>
<path d="M60.9296 19.4181V20.151C61.6034 20.5033 62.2715 20.8725 62.9256 21.2502L63.2498 20.6893C62.4886 20.2496 61.7152 19.8258 60.9296 19.4181Z" fill="#E6E6E6"/>
<path d="M91.2343 122.558C91.3394 121.928 91.4356 121.284 91.5203 120.646L92.1629 120.731C92.0773 121.377 91.98 122.027 91.8737 122.665L91.2343 122.558Z" fill="#E6E6E6"/>
<path d="M89.4274 130.163L90.0469 130.356C90.4356 129.103 90.7874 127.82 91.0921 126.542L90.4608 126.392C90.1589 127.657 89.8132 128.924 89.4274 130.163Z" fill="#E6E6E6"/>
<path d="M86.5964 137.444L87.1846 137.72C87.7438 136.534 88.2673 135.311 88.7421 134.088L88.1371 133.852C87.6679 135.062 87.15 136.271 86.5964 137.444Z" fill="#E6E6E6"/>
<path d="M82.7871 144.275L83.3307 144.628C84.0477 143.529 84.7356 142.389 85.376 141.242L84.8106 140.925C84.1786 142.059 83.4963 143.186 82.7871 144.275Z" fill="#E6E6E6"/>
<path d="M78.0742 150.515L78.5655 150.941C79.428 149.946 80.2641 148.912 81.0567 147.865L80.5375 147.477C79.7561 148.511 78.9283 149.533 78.0742 150.515Z" fill="#E6E6E6"/>
<path d="M72.5554 156.052L72.9823 156.54C73.9737 155.675 74.9431 154.763 75.8694 153.836L75.4109 153.377C74.4951 154.294 73.534 155.194 72.5554 156.052Z" fill="#E6E6E6"/>
<path d="M66.3381 160.785L66.6962 161.327C67.7908 160.605 68.8779 159.834 69.9209 159.041L69.529 158.523C68.496 159.31 67.4222 160.072 66.3381 160.785Z" fill="#E6E6E6"/>
<path d="M63.3231 163.386C62.5394 163.829 61.7387 164.257 60.9296 164.663V163.936C61.6288 163.581 62.3223 163.206 63.0017 162.825L63.3231 163.386Z" fill="#E6E6E6"/>
<path d="M91.4244 69.6518L92.0725 69.64C92.0844 70.2943 92.0853 70.952 92.0751 71.5951L91.4271 71.585C91.437 70.9492 91.4362 70.2988 91.4244 69.6518Z" fill="#E6E6E6"/>
<path d="M63.777 85.0211H130.09C135.025 85.0211 139.757 86.9811 143.247 90.4699C146.737 93.9588 148.697 98.6906 148.697 103.625V106.087H82.3843C77.4494 106.087 72.7165 104.127 69.227 100.638C65.7374 97.1495 63.777 92.4176 63.777 87.4836V85.0211V85.0211Z" fill="white"/>
<path d="M107.786 198.866C107.721 198.76 106.196 196.213 105.667 190.925C105.182 186.073 105.494 177.895 109.736 166.487C117.773 144.876 107.884 127.439 107.783 127.265L108.271 126.982C108.296 127.026 110.848 131.472 112.355 138.551C114.347 147.937 113.622 157.696 110.265 166.684C102.242 188.258 108.206 198.471 108.267 198.572L107.786 198.866Z" fill="#F2F2F2"/>
<path d="M104.644 125.996C106.668 125.996 108.309 124.356 108.309 122.332C108.309 120.308 106.668 118.667 104.644 118.667C102.619 118.667 100.979 120.308 100.979 122.332C100.979 124.356 102.619 125.996 104.644 125.996Z" fill="#FFD5AA"/>
<path d="M116.203 139.526C118.227 139.526 119.868 137.885 119.868 135.862C119.868 133.838 118.227 132.197 116.203 132.197C114.179 132.197 112.538 133.838 112.538 135.862C112.538 137.885 114.179 139.526 116.203 139.526Z" fill="#F2F2F2"/>
<path d="M108.309 148.546C110.333 148.546 111.974 146.905 111.974 144.881C111.974 142.858 110.333 141.217 108.309 141.217C106.285 141.217 104.644 142.858 104.644 144.881C104.644 146.905 106.285 148.546 108.309 148.546Z" fill="#FFD5AA"/>
<path d="M117.894 156.156C119.918 156.156 121.559 154.516 121.559 152.492C121.559 150.468 119.918 148.828 117.894 148.828C115.87 148.828 114.229 150.468 114.229 152.492C114.229 154.516 115.87 156.156 117.894 156.156Z" fill="#FFD5AA"/>
<path d="M105.489 167.995C107.514 167.995 109.155 166.354 109.155 164.331C109.155 162.307 107.514 160.666 105.489 160.666C103.465 160.666 101.824 162.307 101.824 164.331C101.824 166.354 103.465 167.995 105.489 167.995Z" fill="#F2F2F2"/>
<path d="M110 199.001C110 199.001 106.335 189.981 117.33 183.216L110 199.001Z" fill="#F2F2F2"/>
<path d="M105.493 198.837C105.493 198.837 103.825 189.245 90.9147 189.327L105.493 198.837Z" fill="#F2F2F2"/>
<path opacity="0.2" d="M90.9014 118.104C103.358 118.104 113.456 108.008 113.456 95.5542C113.456 83.1003 103.358 73.0045 90.9014 73.0045C78.445 73.0045 68.3471 83.1003 68.3471 95.5542C68.3471 108.008 78.445 118.104 90.9014 118.104Z" fill="#FFD5AA"/>
<path opacity="0.2" d="M90.9015 111.434C99.6736 111.434 106.785 104.324 106.785 95.5541C106.785 86.7838 99.6736 79.6741 90.9015 79.6741C82.1293 79.6741 75.0181 86.7838 75.0181 95.5541C75.0181 104.324 82.1293 111.434 90.9015 111.434Z" fill="#FFD5AA"/>
<path d="M90.9015 106.035C96.6911 106.035 101.384 101.342 101.384 95.5541C101.384 89.7657 96.6911 85.0732 90.9015 85.0732C85.1119 85.0732 80.4185 89.7657 80.4185 95.5541C80.4185 101.342 85.1119 106.035 90.9015 106.035Z" fill="#FFD5AA"/>
<path d="M92.8075 93.2936C92.8076 92.972 92.7263 92.6556 92.5711 92.3739C92.416 92.0922 92.192 91.8543 91.9201 91.6824C91.6483 91.5106 91.3373 91.4103 91.0162 91.3909C90.6951 91.3715 90.3744 91.4337 90.0838 91.5717C89.7933 91.7097 89.5423 91.9189 89.3545 92.1799C89.1666 92.441 89.0478 92.7453 89.0092 93.0646C88.9707 93.3838 89.0135 93.7077 89.1339 94.0059C89.2542 94.3042 89.4481 94.5671 89.6974 94.7703L88.9955 99.683H92.8075L92.1055 94.7703C92.325 94.5918 92.5019 94.3667 92.6234 94.1112C92.7448 93.8558 92.8077 93.5764 92.8075 93.2936V93.2936Z" fill="white"/>
<path d="M196.253 15.0237C196.253 15.0237 189.966 9.38776 181.51 20.0094C173.054 30.631 173.535 35.8335 170.5 39.952C170.5 39.952 173.045 39.8701 174 32.5C178.336 30.3323 174.5 31.2029 174.5 31.2029C174.5 31.2029 171.97 34.9664 170.886 39.085C169.802 43.2035 170.669 46.6718 168.718 50.7904C166.767 54.909 206.01 53.6084 206.01 53.6084C206.01 53.6084 209.912 46.8886 208.828 39.952C207.744 33.0155 208.395 15.8908 196.253 15.0237Z" fill="#2F2E41"/>
<path d="M184.361 32.7539C184.361 32.7539 185.728 42.3225 179.868 44.4705C174.009 46.6186 176.157 49.5478 176.157 49.5478L184.946 53.8439L194.322 50.9147L197.447 46.228C197.447 46.228 192.369 45.0564 193.736 41.5414C195.103 38.0264 195.494 36.8547 195.494 36.8547L184.361 32.7539Z" fill="#FFB9B9"/>
<path opacity="0.1" d="M184.361 32.7539C184.361 32.7539 185.728 42.3225 179.868 44.4705C174.009 46.6186 176.157 49.5478 176.157 49.5478L184.946 53.8439L194.322 50.9147L197.447 46.228C197.447 46.228 192.369 45.0564 193.736 41.5414C195.103 38.0264 195.494 36.8547 195.494 36.8547L184.361 32.7539Z" fill="black"/>
<path d="M208.971 60.0928C208.971 60.0928 207.603 78.0583 207.994 78.8394C208.385 79.6205 207.994 106.764 207.994 106.764C207.994 106.764 210.728 121.41 207.213 122.191C203.697 122.972 204.478 105.788 204.478 105.788L200.963 83.1355L201.353 60.6786L208.971 60.0928Z" fill="#FFB9B9"/>
<path opacity="0.1" d="M208.971 60.0928C208.971 60.0928 207.603 78.0583 207.994 78.8394C208.385 79.6205 207.994 106.764 207.994 106.764C207.994 106.764 210.728 121.41 207.213 122.191C203.697 122.972 204.478 105.788 204.478 105.788L200.963 83.1355L201.353 60.6786L208.971 60.0928Z" fill="black"/>
<path d="M170.884 114.185C170.884 114.185 164.438 138.594 164.633 150.506C164.829 162.418 167.368 179.017 167.368 179.017C167.368 179.017 167.758 186.242 167.173 187.023C166.587 187.804 170.102 191.124 170.102 191.124L173.813 188.976L175.181 187.414V186.047C175.181 186.047 173.032 179.407 174.79 174.135C176.548 168.862 177.524 155.583 175.767 151.483L187.876 115.552L170.884 114.185Z" fill="#2F2E41"/>
<path d="M170.493 187.999C170.493 187.999 168.149 185.07 166.587 186.047C165.024 187.023 162.485 193.663 162.485 193.663C162.485 193.663 153.696 202.06 159.946 202.45C166.196 202.841 168.93 200.693 169.712 199.13C170.493 197.568 177.72 193.467 177.72 193.467C177.72 193.467 176.938 186.047 175.767 185.851C174.595 185.656 172.837 188.781 172.837 188.781L170.493 187.999Z" fill="#FFD5AA"/>
<path d="M192.173 115.747V139.961C192.196 142.899 192.392 145.834 192.759 148.749C193.345 153.045 189.439 185.07 189.439 185.07L189.829 190.733L194.712 190.343L195.298 185.461L202.33 163.98C202.33 163.98 204.674 150.897 203.502 146.015C202.33 141.133 209.557 109.889 209.557 109.889L192.173 115.747Z" fill="#2F2E41"/>
<path d="M188.267 189.366L189.713 189.052C189.713 189.052 190.806 186.633 192.173 187.218C193.135 187.662 194.047 188.208 194.892 188.847L195.494 189.952C195.494 189.952 196.861 192.881 198.619 194.834C200.377 196.787 202.33 201.083 199.4 201.474C196.47 201.864 192.564 202.059 191.392 201.083C190.22 200.107 191.001 198.544 189.829 198.154C188.658 197.763 187.681 196.592 187.876 196.201C188.072 195.811 188.267 189.366 188.267 189.366Z" fill="#FFD5AA"/>
<path d="M192.173 39.48C196.967 39.48 200.854 35.5944 200.854 30.8012C200.854 26.008 196.967 22.1223 192.173 22.1223C187.379 22.1223 183.493 26.008 183.493 30.8012C183.493 35.5944 187.379 39.48 192.173 39.48Z" fill="#FFB9B9"/>
<path d="M175.767 46.0329L178.347 45.1323C178.347 45.1323 177.329 46.814 182.798 47.7904C188.267 48.7668 193.931 49.1124 196.47 45.9128C196.47 45.9128 197.447 45.447 198.814 46.814C200.181 48.1809 200.963 47.7904 200.963 47.7904L199.986 52.8676L198.033 62.2409L195.494 69.2709L188.267 67.7087L180.454 62.0456L177.524 54.4298V47.3998L175.767 46.0329Z" fill="#2F2E41"/>
<path d="M199.595 48.7667L201.549 47.3997C201.549 47.3997 208.189 48.5714 208.58 51.6958L203.502 61.4597C204.537 64.1765 204.467 67.1909 203.306 69.8566C201.353 74.348 201.549 75.3244 201.549 75.3244L200.181 81.1827L175.376 83.1355C175.376 83.1355 174.399 80.7922 174.009 80.4016C173.618 80.011 173.618 78.6441 174.009 78.6441C174.399 78.6441 174.009 78.0583 173.618 77.4724C173.227 76.8866 173.032 76.6913 173.618 75.9102C174.204 75.1291 172.641 68.0991 172.641 68.0991V60.4833L166.001 51.6958C166.001 51.6958 168.344 48.1808 169.516 47.7903C170.688 47.3997 176.263 45.8595 176.263 45.8595L177.524 47.7165L179.282 61.8502L181.821 70.4424L192.512 68.6263L196.666 61.655L199.4 53.4533L199.595 48.7667Z" fill="#2F2E41"/>
<path d="M207.017 50.5242L208.58 51.6958C208.58 51.6958 209.947 62.6314 209.557 63.4125C209.166 64.1936 202.33 64.9747 202.135 64.5841C201.939 64.1936 207.017 50.5242 207.017 50.5242Z" fill="#2F2E41"/>
<path d="M174.79 45.0564L176.743 57.9447C176.743 57.9447 174.985 77.0819 175.376 80.9874L175.767 82.1591C175.767 82.1591 174.985 81.7685 174.79 82.5496C174.595 83.3308 174.79 85.8694 174.79 85.8694C174.79 85.8694 173.618 87.041 173.227 93.4852C172.837 99.9293 168.149 115.356 169.907 115.942C171.665 116.528 182.212 119.457 187.876 118.871C193.54 118.285 213.854 111.451 213.658 109.693C213.463 107.936 203.697 83.1355 203.697 83.1355C203.697 83.1355 201.939 80.2063 201.939 79.8158C201.939 79.4252 204.283 77.863 203.697 76.3008C203.111 74.7386 199.986 58.3353 199.986 58.3353L202.134 46.6186L199.205 45.8375L197.056 57.1636C197.056 57.1636 188.658 61.2644 179.868 57.5541L177.915 44.2753L174.79 45.0564Z" fill="#FFD5AA"/>
<path d="M184.187 24.5727C184.187 24.5727 198.641 34.5318 202.547 30.0404C206.454 25.549 195.711 21.6435 195.711 21.6435L186.726 20.6671L184.187 24.5727Z" fill="#2F2E41"/>
<path d="M161.73 130.518C163.218 131.625 165.058 132.152 166.907 131.999C168.755 131.847 170.484 131.026 171.77 129.69C173.056 128.354 173.811 126.595 173.893 124.742C173.974 122.89 173.377 121.071 172.214 119.627C171.05 118.183 169.4 117.213 167.572 116.899C165.744 116.585 163.865 116.947 162.285 117.92C160.706 118.892 159.536 120.406 158.993 122.179C158.451 123.953 158.574 125.863 159.34 127.552L139.405 144.146L136.751 140.996L135.559 141.794L134.232 140.219L135.322 139.3L133.995 137.726L132.299 139.155L133.115 140.124L131.298 141.655L130.481 140.686L127.816 142.931L129.041 144.385L130.01 143.568L131.337 145.143L130.126 146.164L132.576 149.071L129.668 151.52L132.628 155.033L161.73 130.518ZM166.707 119.386C167.701 119.471 168.647 119.849 169.426 120.471C170.205 121.093 170.781 121.933 171.083 122.883C171.385 123.833 171.398 124.851 171.121 125.809C170.844 126.766 170.289 127.62 169.527 128.263C168.764 128.905 167.828 129.307 166.837 129.417C165.846 129.528 164.845 129.342 163.959 128.884C163.074 128.425 162.345 127.715 161.863 126.842C161.382 125.969 161.17 124.972 161.255 123.979C161.369 122.647 162.007 121.415 163.03 120.554C164.052 119.692 165.375 119.272 166.707 119.386V119.386Z" fill="#FFD5AA"/>
<path d="M164.633 62.4362C164.633 62.4362 166.001 80.4017 165.61 81.1828C165.219 81.9639 165.61 109.107 165.61 109.107C165.61 109.107 162.876 123.753 166.391 124.534C169.907 125.315 169.126 108.131 169.126 108.131L172.641 85.4789L172.251 63.022L164.633 62.4362Z" fill="#FFB9B9"/>
<path d="M167.563 51.11L166.001 51.6958C166.001 51.6958 163.071 63.9983 163.852 63.9983C164.633 63.9983 174.009 65.17 174.009 64.7794C174.009 64.3888 172.251 54.8203 172.251 54.8203L167.563 51.11Z" fill="#2F2E41"/>
</g>
<defs>
<clipPath id="clip0_1373_923">
<rect width="285" height="205" fill="white"/>
</clipPath>
</defs>
</svg>
