<svg width="187" height="188" viewBox="0 0 187 188" fill="none" xmlns="http://www.w3.org/2000/svg">
<g clip-path="url(#clip0_1_1111)">
<path d="M17.983 158.374L16.3361 151.863C13.416 150.622 10.4284 149.548 7.38763 148.645L7.17976 151.671L6.3367 148.337C2.56556 147.257 0 146.781 0 146.781C0 146.781 3.4646 159.99 10.7337 170.088L19.2029 171.579L12.6234 172.53C13.5378 173.633 14.5205 174.677 15.5656 175.656C26.1389 185.494 37.9158 190.007 41.8697 185.737C45.8236 181.467 40.4575 170.031 29.8842 160.195C26.6064 157.145 22.4888 154.698 18.3669 152.771L17.983 158.374Z" fill="#3F3D56" fill-opacity="0.8"/>
<path d="M33.6455 151.302L35.5932 144.875C33.7334 142.3 31.7301 139.833 29.593 137.484L27.8546 139.967L28.8518 136.676C26.1803 133.798 24.2293 132.062 24.2293 132.062C24.2293 132.062 20.3844 145.165 21.3987 157.575L27.8797 163.24L21.7559 160.645C21.9702 162.063 22.2732 163.466 22.6632 164.846C26.6415 178.745 34.3954 188.711 39.982 187.104C45.5685 185.498 46.8725 172.928 42.8942 159.028C41.6611 154.719 39.398 150.491 36.8631 146.706L33.6455 151.302Z" fill="#3F3D56" fill-opacity="0.8"/>
<path d="M130.488 44.5373H129.46V16.3276C129.46 14.1835 129.039 12.0603 128.22 10.0793C127.402 8.09836 126.202 6.29842 124.689 4.78226C123.177 3.26609 121.381 2.06341 119.405 1.24287C117.428 0.422326 115.31 0 113.171 0H53.5429C49.2227 0 45.0794 1.72023 42.0246 4.78226C38.9697 7.84428 37.2535 11.9973 37.2535 16.3276V171.091C37.2535 173.235 37.6749 175.358 38.4935 177.339C39.3121 179.32 40.512 181.12 42.0246 182.636C43.5372 184.152 45.3329 185.355 47.3093 186.176C49.2856 186.996 51.4038 187.418 53.5429 187.418H113.171C117.491 187.418 121.634 185.698 124.689 182.636C127.744 179.574 129.46 175.421 129.46 171.091V64.6175H130.487L130.488 44.5373Z" fill="#3F3D56"/>
<path d="M113.828 4.24634H106.045C106.403 5.12599 106.54 6.08039 106.443 7.02545C106.346 7.9705 106.019 8.8772 105.491 9.66566C104.962 10.4541 104.248 11.1002 103.411 11.5468C102.575 11.9935 101.642 12.2271 100.694 12.2271H66.5336C65.5859 12.227 64.6527 11.9934 63.8162 11.5467C62.9798 11.0999 62.2658 10.4539 61.7372 9.66546C61.2085 8.877 60.8814 7.97033 60.7847 7.02532C60.688 6.08031 60.8246 5.12595 61.1826 4.24634H53.9129C50.6866 4.24634 47.5925 5.53099 45.3111 7.81768C43.0298 10.1044 41.7482 13.2058 41.7482 16.4397V170.978C41.7482 174.212 43.0298 177.313 45.3111 179.6C47.5925 181.887 50.6866 183.171 53.9129 183.171H113.828C117.054 183.171 120.149 181.887 122.43 179.6C124.711 177.313 125.993 174.212 125.993 170.978V16.4394C125.993 13.2056 124.711 10.1042 122.43 7.81759C120.149 5.53095 117.054 4.24634 113.828 4.24634Z" fill="white"/>
<path d="M76.2358 65.8066C76.2356 64.7264 76.5193 63.6652 77.0583 62.7298C77.5973 61.7944 78.3726 61.0178 79.3062 60.4782C78.3731 59.938 77.3145 59.6536 76.237 59.6534C75.1594 59.6533 74.1007 59.9375 73.1675 60.4775C72.2342 61.0175 71.4592 61.7942 70.9204 62.7296C70.3816 63.665 70.0979 64.7261 70.0979 65.8062C70.0979 66.8863 70.3816 67.9474 70.9204 68.8828C71.4592 69.8182 72.2342 70.5949 73.1675 71.1349C74.1007 71.6749 75.1594 71.9591 76.237 71.959C77.3145 71.9589 78.3731 71.6744 79.3062 71.1342C78.3727 70.5948 77.5974 69.8183 77.0584 68.883C76.5194 67.9478 76.2357 66.8867 76.2358 65.8066Z" fill="#CCCCCC"/>
<path d="M83.9526 65.8066C83.9524 64.7264 84.2361 63.6652 84.7751 62.7298C85.3141 61.7944 86.0894 61.0178 87.023 60.4782C86.0899 59.938 85.0313 59.6536 83.9538 59.6534C82.8762 59.6533 81.8175 59.9375 80.8843 60.4775C79.951 61.0175 79.176 61.7942 78.6372 62.7296C78.0984 63.665 77.8147 64.7261 77.8147 65.8062C77.8147 66.8863 78.0984 67.9474 78.6372 68.8828C79.176 69.8182 79.951 70.5949 80.8843 71.1349C81.8175 71.6749 82.8762 71.9591 83.9538 71.959C85.0313 71.9589 86.0899 71.6744 87.023 71.1342C86.0895 70.5948 85.3142 69.8183 84.7752 68.883C84.2362 67.9478 83.9525 66.8867 83.9526 65.8066Z" fill="#CCCCCC"/>
<path d="M91.4941 71.9591C94.8842 71.9591 97.6325 69.2044 97.6325 65.8063C97.6325 62.4083 94.8842 59.6536 91.4941 59.6536C88.104 59.6536 85.3557 62.4083 85.3557 65.8063C85.3557 69.2044 88.104 71.9591 91.4941 71.9591Z" fill="#964B00"/>
<path d="M101.753 85.0239H65.977C65.6365 85.0235 65.3099 84.8877 65.0691 84.6463C64.8283 84.4049 64.6928 84.0776 64.6924 83.7362V47.8764C64.6928 47.535 64.8283 47.2077 65.0691 46.9663C65.3099 46.7249 65.6365 46.5891 65.977 46.5887H101.753C102.093 46.5891 102.42 46.7249 102.661 46.9663C102.902 47.2077 103.037 47.535 103.037 47.8764V83.7362C103.037 84.0776 102.902 84.4049 102.661 84.6463C102.42 84.8877 102.093 85.0235 101.753 85.0239ZM65.977 47.1041C65.7727 47.1043 65.5768 47.1858 65.4323 47.3306C65.2878 47.4755 65.2065 47.6718 65.2063 47.8767V83.7364C65.2065 83.9413 65.2878 84.1376 65.4323 84.2825C65.5768 84.4273 65.7727 84.5088 65.977 84.509H101.753C101.957 84.5088 102.153 84.4273 102.298 84.2825C102.442 84.1376 102.523 83.9413 102.524 83.7364V47.8767C102.523 47.6718 102.442 47.4755 102.298 47.3306C102.153 47.1858 101.957 47.1043 101.753 47.1041H65.977Z" fill="#CCCCCC"/>
<path d="M109.741 112.512H54.8717V113.027H109.741V112.512Z" fill="#CCCCCC"/>
<path d="M56.6045 109.296C57.5615 109.296 58.3373 108.518 58.3373 107.559C58.3373 106.6 57.5615 105.822 56.6045 105.822C55.6475 105.822 54.8717 106.6 54.8717 107.559C54.8717 108.518 55.6475 109.296 56.6045 109.296Z" fill="#964B00"/>
<path d="M109.741 129.88H54.8717V130.395H109.741V129.88Z" fill="#CCCCCC"/>
<path d="M56.6045 126.664C57.5615 126.664 58.3373 125.886 58.3373 124.927C58.3373 123.968 57.5615 123.19 56.6045 123.19C55.6475 123.19 54.8717 123.968 54.8717 124.927C54.8717 125.886 55.6475 126.664 56.6045 126.664Z" fill="#964B00"/>
<path d="M108.737 149.657H91.3966C91.0971 149.657 90.8099 149.538 90.5981 149.325C90.3863 149.113 90.2672 148.825 90.2668 148.525V142.433C90.2672 142.133 90.3863 141.845 90.5981 141.633C90.8099 141.42 91.0971 141.301 91.3966 141.301H108.737C109.036 141.301 109.323 141.42 109.535 141.633C109.747 141.845 109.866 142.133 109.867 142.433V148.525C109.866 148.825 109.747 149.113 109.535 149.325C109.323 149.538 109.036 149.657 108.737 149.657Z" fill="#964B00"/>
<path d="M62.2568 109.296C63.2138 109.296 63.9896 108.518 63.9896 107.559C63.9896 106.6 63.2138 105.822 62.2568 105.822C61.2999 105.822 60.524 106.6 60.524 107.559C60.524 108.518 61.2999 109.296 62.2568 109.296Z" fill="#964B00"/>
<path d="M67.9092 109.296C68.8662 109.296 69.642 108.518 69.642 107.559C69.642 106.6 68.8662 105.822 67.9092 105.822C66.9522 105.822 66.1764 106.6 66.1764 107.559C66.1764 108.518 66.9522 109.296 67.9092 109.296Z" fill="#964B00"/>
<path d="M62.2568 126.664C63.2138 126.664 63.9896 125.886 63.9896 124.927C63.9896 123.968 63.2138 123.19 62.2568 123.19C61.2999 123.19 60.524 123.968 60.524 124.927C60.524 125.886 61.2999 126.664 62.2568 126.664Z" fill="#964B00"/>
<path d="M67.9092 126.664C68.8662 126.664 69.642 125.886 69.642 124.927C69.642 123.968 68.8662 123.19 67.9092 123.19C66.9522 123.19 66.1764 123.968 66.1764 124.927C66.1764 125.886 66.9522 126.664 67.9092 126.664Z" fill="#964B00"/>
<path d="M186.302 188H6.04549C5.65962 188 5.34705 187.863 5.34705 187.693C5.34705 187.524 5.65962 187.387 6.04549 187.387H186.302C186.687 187.387 187 187.524 187 187.693C187 187.863 186.687 188 186.302 188Z" fill="#3F3D56"/>
<path d="M141.767 123.172C141.89 123.228 142.008 123.294 142.121 123.37L153.381 118.552L153.783 115.579L158.283 115.552L158.017 122.371L143.154 126.311C143.123 126.414 143.085 126.516 143.042 126.615C142.827 127.074 142.481 127.46 142.048 127.723C141.616 127.987 141.115 128.116 140.609 128.095C140.103 128.074 139.614 127.904 139.205 127.605C138.795 127.307 138.483 126.894 138.306 126.418C138.13 125.942 138.098 125.425 138.214 124.931C138.33 124.437 138.59 123.988 138.959 123.641C139.329 123.295 139.793 123.065 140.292 122.981C140.792 122.898 141.304 122.964 141.767 123.172Z" fill="#FFB8B8"/>
<path d="M159.919 184.966H156.841L155.377 173.066L159.919 173.066L159.919 184.966Z" fill="#FFB8B8"/>
<path d="M154.642 184.085H160.578V187.831H150.905C150.905 186.837 151.299 185.884 152 185.182C152.7 184.479 153.651 184.085 154.642 184.085Z" fill="#2F2E41"/>
<path d="M171.889 184.094L168.826 184.397L166.205 172.698L170.726 172.252L171.889 184.094Z" fill="#FFB8B8"/>
<path d="M166.552 183.736L172.46 183.152L172.826 186.881L163.199 187.831C163.151 187.341 163.199 186.847 163.342 186.376C163.484 185.906 163.718 185.468 164.029 185.087C164.341 184.707 164.724 184.392 165.157 184.16C165.589 183.928 166.064 183.784 166.552 183.736Z" fill="#2F2E41"/>
<path d="M160.776 102.958C164.181 102.958 166.942 100.191 166.942 96.777C166.942 93.3635 164.181 90.5963 160.776 90.5963C157.37 90.5963 154.609 93.3635 154.609 96.777C154.609 100.191 157.37 102.958 160.776 102.958Z" fill="#FFB8B8"/>
<path d="M156.153 182.56C155.889 182.56 155.632 182.467 155.43 182.297C155.227 182.127 155.09 181.89 155.045 181.629C153.452 172.765 148.244 143.78 148.12 142.977C148.117 142.959 148.115 142.94 148.116 142.921V140.76C148.115 140.682 148.14 140.605 148.186 140.541L148.874 139.575C148.906 139.529 148.949 139.49 148.999 139.463C149.049 139.436 149.104 139.42 149.161 139.418C153.083 139.233 165.927 138.693 166.548 139.47C167.171 140.251 166.951 142.618 166.901 143.084L166.903 143.133L172.674 180.124C172.719 180.419 172.646 180.72 172.472 180.962C172.297 181.203 172.035 181.367 171.741 181.416L168.137 182.011C167.868 182.054 167.593 181.999 167.362 181.857C167.13 181.714 166.958 181.492 166.875 181.233C165.76 177.662 162.022 165.651 160.727 161.004C160.719 160.974 160.7 160.949 160.675 160.932C160.649 160.915 160.619 160.908 160.588 160.913C160.558 160.917 160.531 160.932 160.511 160.955C160.491 160.978 160.48 161.008 160.481 161.039C160.545 165.469 160.702 176.772 160.756 180.676L160.762 181.097C160.764 181.382 160.66 181.657 160.47 181.868C160.279 182.079 160.017 182.212 159.734 182.238L156.259 182.555C156.223 182.558 156.188 182.56 156.153 182.56Z" fill="#2F2E41"/>
<path d="M156.862 105.388C155.786 106.029 155.142 107.207 154.773 108.406C154.089 110.626 153.677 112.921 153.546 115.241L153.156 122.187L148.322 140.6C152.512 144.153 154.928 143.345 160.569 140.439C166.209 137.532 166.853 141.408 166.853 141.408L167.981 125.741L169.592 108.621C169.231 108.184 168.821 107.79 168.372 107.444C166.882 106.284 165.149 105.477 163.304 105.085C161.458 104.692 159.548 104.725 157.716 105.181L156.862 105.388Z" fill="#FFD5AA"/>
<path d="M155.292 126.89C155.422 126.94 155.548 126.999 155.669 127.068L166.803 121.482L166.988 118.456L171.58 118.138L171.827 125.036L156.947 129.969C156.826 130.491 156.549 130.964 156.152 131.324C155.756 131.685 155.26 131.916 154.73 131.987C154.199 132.058 153.66 131.965 153.183 131.721C152.707 131.478 152.315 131.094 152.062 130.622C151.808 130.15 151.703 129.612 151.762 129.078C151.821 128.545 152.04 128.043 152.391 127.638C152.742 127.233 153.207 126.944 153.725 126.811C154.243 126.677 154.79 126.705 155.292 126.89Z" fill="#FFB8B8"/>
<path d="M169.512 108.699C172.251 109.668 172.734 120.168 172.734 120.168C169.511 118.391 165.643 121.298 165.643 121.298C165.643 121.298 164.838 118.552 163.871 114.999C163.579 114 163.544 112.942 163.769 111.926C163.995 110.909 164.473 109.966 165.16 109.184C165.16 109.184 166.772 107.729 169.512 108.699Z" fill="#FFD5AA"/>
<path d="M166.305 98.4115C165.536 97.7954 164.488 98.9153 164.488 98.9153L163.874 93.3706C163.874 93.3706 160.032 93.8318 157.574 93.2167C155.115 92.6015 154.731 95.4501 154.731 95.4501C154.604 94.2994 154.579 93.1398 154.654 91.9847C154.808 90.5985 156.805 89.2123 160.339 88.2881C163.873 87.3639 165.717 91.3685 165.717 91.3685C168.176 92.6005 167.073 99.0277 166.305 98.4115Z" fill="#2F2E41"/>
</g>
<defs>
<clipPath id="clip0_1_1111">
<rect width="187" height="188" fill="white"/>
</clipPath>
</defs>
</svg>
