<svg width="215" height="174" viewBox="0 0 215 174" fill="none" xmlns="http://www.w3.org/2000/svg">
<g clip-path="url(#clip0_2223_967)">
<path d="M60.5208 115.704C73.9924 115.704 84.9132 104.739 84.9132 91.2125C84.9132 77.686 73.9924 66.7207 60.5208 66.7207C47.0493 66.7207 36.1284 77.686 36.1284 91.2125C36.1284 104.739 47.0493 115.704 60.5208 115.704Z" fill="#E6E6E6"/>
<path d="M53.9305 126.977L59.9307 130.71V105.475L53.2052 101.29C52.6491 100.944 52.2428 100.401 52.0668 99.7687V99.7687C52.7093 99.6455 53.3745 99.7691 53.9305 100.115L59.9307 103.848V94.0628C59.9307 92.1697 60.1619 90.2838 60.6192 88.4473C61.0765 90.2838 61.3077 92.1697 61.3077 94.0628V110.035L70.1597 104.527C70.8665 104.087 71.6843 103.861 72.5157 103.874C72.1578 104.628 71.5918 105.262 70.885 105.702L61.3076 111.661V171.341H59.9307V132.337L53.2052 128.152C52.6491 127.806 52.2428 127.263 52.0668 126.631V126.631C52.7093 126.507 53.3744 126.631 53.9305 126.977Z" fill="#CCCCCC"/>
<path d="M24.3924 117.784C37.8639 117.784 48.7848 106.819 48.7848 93.2921C48.7848 79.7656 37.8639 68.8003 24.3924 68.8003C10.9208 68.8003 0 79.7656 0 93.2921C0 106.819 10.9208 117.784 24.3924 117.784Z" fill="#E6E6E6"/>
<path d="M30.9828 129.057L24.9826 132.79V107.554L31.7081 103.37C32.2641 103.024 32.6704 102.481 32.8465 101.848V101.848C32.204 101.725 31.5388 101.849 30.9828 102.195L24.9826 105.928V96.1424C24.9826 94.2493 24.7513 92.3634 24.2941 90.5269C23.8368 92.3634 23.6056 94.2493 23.6056 96.1424V112.114L14.7536 106.607C14.0468 106.167 13.229 105.94 12.3976 105.954C12.7555 106.708 13.3215 107.342 14.0283 107.782L23.6056 113.741V171.473H24.9826V134.416L31.7081 130.232C32.2641 129.886 32.6704 129.343 32.8465 128.71V128.71C32.204 128.587 31.5388 128.711 30.9828 129.057V129.057Z" fill="#CCCCCC"/>
<path d="M42.1113 84.3373C65.3059 84.3373 84.1088 65.4578 84.1088 42.1687C84.1088 18.8796 65.3059 0 42.1113 0C18.9167 0 0.11377 18.8796 0.11377 42.1687C0.11377 65.4578 18.9167 84.3373 42.1113 84.3373Z" fill="#E6E6E6"/>
<path d="M53.4582 103.746L43.1274 110.174V66.7249L54.707 59.5202C55.6644 58.9245 56.3639 57.9895 56.6671 56.9004L56.6671 56.9004H56.6671C55.5608 56.6882 54.4156 56.901 53.4582 57.4967L43.1274 63.9244V47.0762C43.1274 43.8168 42.7293 40.5698 41.942 37.4077C41.1547 40.5698 40.7566 43.8168 40.7566 47.0762V74.5757L25.5158 65.0929C24.2988 64.3357 22.8907 63.9457 21.4592 63.9692C22.0754 65.2668 23.05 66.3592 24.267 67.1164L40.7566 77.3761V171.565H43.1274V112.974L54.707 105.77C55.6644 105.174 56.3639 104.239 56.6671 103.15L56.6671 103.15H56.6671C55.5608 102.938 54.4156 103.151 53.4582 103.746V103.746Z" fill="#CCCCCC"/>
<path d="M215 171.341H16.7499V171.845H215V171.341Z" fill="#3F3D56"/>
<path d="M163.943 76.079L154.103 81.783L159.784 91.6625L169.624 85.9585L163.943 76.079Z" fill="#FF6584"/>
<path d="M164.068 93.7215L158.136 83.4054L168.41 77.4495L174.342 87.7657L164.068 93.7215ZM158.822 83.5899L164.252 93.033L173.656 87.5811L168.226 78.138L158.822 83.5899Z" fill="#2F2E41"/>
<path d="M154.863 121.443C157.496 121.443 159.631 119.299 159.631 116.655C159.631 114.011 157.496 111.868 154.863 111.868C152.23 111.868 150.095 114.011 150.095 116.655C150.095 119.299 152.23 121.443 154.863 121.443Z" fill="#D0CDE1"/>
<path d="M158.376 121.695C157.384 121.695 156.413 121.399 155.588 120.845C154.763 120.292 154.119 119.505 153.739 118.584C153.359 117.663 153.26 116.65 153.454 115.672C153.647 114.694 154.125 113.797 154.827 113.092C155.529 112.387 156.424 111.907 157.397 111.713C158.371 111.518 159.38 111.618 160.297 111.999C161.214 112.381 161.998 113.027 162.549 113.855C163.101 114.684 163.395 115.658 163.395 116.655C163.395 117.992 162.866 119.274 161.925 120.219C160.984 121.164 159.707 121.695 158.376 121.695V121.695ZM158.376 112.12C157.483 112.12 156.61 112.386 155.867 112.884C155.124 113.382 154.545 114.091 154.203 114.92C153.861 115.748 153.772 116.66 153.946 117.54C154.12 118.42 154.55 119.228 155.182 119.862C155.814 120.497 156.619 120.929 157.495 121.104C158.371 121.279 159.28 121.189 160.105 120.845C160.93 120.502 161.636 119.921 162.132 119.175C162.628 118.429 162.893 117.552 162.893 116.655C162.893 115.452 162.417 114.299 161.57 113.448C160.723 112.598 159.574 112.12 158.376 112.12V112.12Z" fill="#2F2E41"/>
<path d="M184.942 172.487H138.768C138.202 172.487 137.66 172.261 137.26 171.859C136.86 171.458 136.635 170.913 136.635 170.345V127.258C136.635 126.69 136.86 126.146 137.26 125.744C137.66 125.343 138.202 125.117 138.768 125.116H184.942C185.508 125.117 186.05 125.343 186.45 125.744C186.85 126.146 187.075 126.69 187.075 127.258V170.345C187.075 170.913 186.85 171.458 186.45 171.859C186.05 172.261 185.508 172.487 184.942 172.487V172.487Z" fill="#FFD5AA"/>
<path d="M165.117 174H158.592C158.027 173.999 157.485 173.774 157.085 173.372C156.685 172.97 156.46 172.426 156.459 171.858V125.978C156.46 125.41 156.685 124.866 157.085 124.464C157.485 124.063 158.027 123.837 158.592 123.836H165.117C165.683 123.837 166.225 124.063 166.625 124.464C167.024 124.866 167.249 125.41 167.25 125.978V171.858C167.249 172.426 167.024 172.97 166.625 173.372C166.225 173.774 165.683 173.999 165.117 174V174Z" fill="#3F3D56"/>
<path d="M197.21 120.851C196.94 125.296 190.961 128.547 190.961 128.547C190.961 128.547 185.418 124.591 185.688 120.146C185.958 115.701 191.938 112.45 191.938 112.45C191.938 112.45 197.48 116.406 197.21 120.851Z" fill="#3F3D56"/>
<path d="M197.481 134.72C193.053 134.463 189.797 128.469 189.797 128.469C189.797 128.469 193.72 122.891 198.147 123.148C202.575 123.405 205.831 129.399 205.831 129.399C205.831 129.399 201.909 134.977 197.481 134.72Z" fill="#3F3D56"/>
<path opacity="0.1" d="M186.95 130.388V146.836L170.656 125.242H183.068L186.95 130.388Z" fill="black"/>
<path d="M200.783 158.544C200.453 158.545 200.128 158.469 199.832 158.322C199.537 158.175 199.279 157.961 199.08 157.697L165.133 112.71C164.964 112.485 164.84 112.23 164.77 111.958C164.699 111.686 164.682 111.402 164.72 111.124C164.758 110.845 164.851 110.577 164.992 110.334C165.134 110.091 165.322 109.879 165.545 109.709L170.546 105.905C170.769 105.735 171.023 105.611 171.294 105.54C171.565 105.469 171.848 105.452 172.125 105.49C172.403 105.529 172.67 105.622 172.912 105.764C173.153 105.906 173.365 106.095 173.534 106.319L207.481 151.306C207.65 151.53 207.774 151.786 207.845 152.058C207.915 152.33 207.932 152.613 207.894 152.892C207.856 153.17 207.763 153.439 207.622 153.681C207.48 153.924 207.292 154.137 207.069 154.306L202.068 158.111C201.699 158.393 201.247 158.545 200.783 158.544V158.544Z" fill="#FFD5AA"/>
<path d="M187.195 123.587L178.594 130.131L185.11 138.767L193.711 132.223L187.195 123.587Z" fill="#3F3D56"/>
<path d="M142.95 90.6781L140.009 101.697L150.984 104.65L153.924 93.6307L142.95 90.6781Z" fill="#D0CDE1"/>
<path d="M146.328 106.297L134.869 103.214L137.94 91.7083L149.399 94.7912L146.328 106.297ZM135.484 102.858L145.973 105.68L148.784 95.1475L138.294 92.3254L135.484 102.858Z" fill="#2F2E41"/>
<path d="M98.0583 133.041C98.3598 132.751 98.5943 132.398 98.7454 132.007C98.8964 131.616 98.9602 131.197 98.9323 130.779C98.9044 130.36 98.7855 129.953 98.584 129.586C98.3825 129.219 98.1032 128.9 97.7659 128.653L93.1575 91.3538L87.2034 93.1313L93.6314 129.43C93.2555 130.027 93.1105 130.741 93.2241 131.438C93.3376 132.134 93.7017 132.765 94.2474 133.21C94.7931 133.655 95.4824 133.884 96.1848 133.853C96.8871 133.822 97.5537 133.533 98.0583 133.041Z" fill="#FFB8B8"/>
<path d="M103.577 168.693H107.06L108.717 155.206H103.577V168.693Z" fill="#FFB8B8"/>
<path d="M113.776 171.939H102.831V167.694H109.934C110.953 167.694 111.93 168.1 112.651 168.823C113.371 169.547 113.776 170.528 113.776 171.551V171.939V171.939Z" fill="#2F2E41"/>
<path d="M79.4955 163.246L82.7596 164.465L88.9957 152.405L84.1785 150.605L79.4955 163.246Z" fill="#FFB8B8"/>
<path d="M87.9269 169.859L77.6688 166.028L79.143 162.049L85.8003 164.535C86.7553 164.892 87.5301 165.615 87.9542 166.545C88.3783 167.475 88.417 168.536 88.0617 169.495L87.9269 169.859L87.9269 169.859Z" fill="#2F2E41"/>
<path d="M97.3303 81.6709C100.967 81.6709 103.915 78.7109 103.915 75.0594C103.915 71.408 100.967 68.448 97.3303 68.448C93.6938 68.448 90.7457 71.408 90.7457 75.0594C90.7457 78.7109 93.6938 81.6709 97.3303 81.6709Z" fill="#FFB8B8"/>
<path d="M87.0312 92.0278C86.825 85.938 93.1992 81.7134 98.5623 84.5647C99.2456 84.928 106.301 90.9466 106.567 94.6842C106.833 98.4218 107.365 104.562 107.365 104.562L114.809 160.36L98.8561 159.559L100.783 143.282L90.4131 159.834L77.8508 155.821L93.2724 111.237C93.2724 111.237 87.3436 101.256 87.0312 92.0278Z" fill="#2F2E41"/>
<path d="M87.1567 94.1478L88.1811 107.52C88.1918 107.659 88.2546 107.79 88.3569 107.885C88.4593 107.98 88.5936 108.033 88.7331 108.033H93.2405C93.3316 108.033 93.4213 108.01 93.5016 107.967C93.582 107.924 93.6504 107.862 93.701 107.786C93.7516 107.71 93.7827 107.622 93.7915 107.531C93.8004 107.44 93.7867 107.348 93.7518 107.264L88.2199 93.892C88.1694 93.7698 88.0772 93.6698 87.9598 93.6098C87.8425 93.5498 87.7077 93.5338 87.5796 93.5646C87.4516 93.5954 87.3386 93.6711 87.2611 93.778C87.1836 93.8849 87.1466 94.016 87.1567 94.1478V94.1478Z" fill="#2F2E41"/>
<path d="M110.304 130.724C110.57 130.401 110.762 130.023 110.866 129.617C110.971 129.211 110.985 128.787 110.909 128.375C110.832 127.962 110.667 127.572 110.424 127.231C110.181 126.89 109.866 126.607 109.503 126.401L100.578 89.8992L94.8724 92.3642L105.487 127.658C105.183 128.295 105.123 129.021 105.317 129.7C105.511 130.378 105.946 130.962 106.539 131.34C107.133 131.718 107.844 131.864 108.538 131.75C109.232 131.637 109.861 131.272 110.304 130.724V130.724Z" fill="#FFB8B8"/>
<path d="M95.6653 86.675C95.6653 86.675 93.8041 90.4126 95.6653 97.087C97.5266 103.761 98.856 109.368 98.856 109.368C98.856 109.368 103.11 106.698 104.971 107.499C106.833 108.3 102.027 89.7069 102.027 89.7069C102.027 89.7069 99.1219 83.4713 95.6653 86.675Z" fill="#2F2E41"/>
<path d="M98.8754 76.0911C98.9643 74.7192 100.688 74.6722 102.057 74.6592C103.426 74.6463 105.063 74.6953 105.838 73.5618C106.35 72.8127 106.252 71.7727 105.829 70.9696C105.406 70.1664 104.71 69.5487 104.026 68.9544C102.259 67.4202 100.438 65.8982 98.3162 64.9162C96.1947 63.9342 93.7087 63.5374 91.5085 64.3257C88.8057 65.294 85.1521 70.2788 84.8366 73.1426C84.5211 76.0065 85.661 78.926 87.5825 81.0661C89.504 83.2062 93.9019 82.3427 96.6695 83.1041C94.9869 80.7129 96.096 76.3682 98.7915 75.2516L98.8754 76.0911Z" fill="#2F2E41"/>
</g>
<defs>
<clipPath id="clip0_2223_967">
<rect width="215" height="174" fill="white"/>
</clipPath>
</defs>
</svg>
