<svg width="285" height="121" viewBox="0 0 285 121" fill="none" xmlns="http://www.w3.org/2000/svg">
<g clip-path="url(#clip0_2069_895)">
<path d="M102.913 39.4894H0V73.2623H3.89834V82.0955L12.7342 73.2623H102.913V39.4894Z" fill="#F0F0F0"/>
<path d="M100.054 42.7783H2.85864V69.7966H100.054V42.7783Z" fill="white"/>
<path d="M58.2516 50.9263H11.4543V52.346H58.2516V50.9263Z" fill="#F0F0F0"/>
<path d="M93.018 55.8374H11.4543V57.2571H93.018V55.8374Z" fill="#F0F0F0"/>
<path d="M92.9381 60.7485H11.4543V62.1682H92.9381V60.7485Z" fill="#F0F0F0"/>
<path d="M172.874 115.775C172.874 115.775 173.365 105.5 183.421 106.694Z" fill="#F0F0F0"/>
<path d="M170.033 105.997C172.812 105.997 175.066 103.744 175.066 100.965C175.066 98.1865 172.812 95.9338 170.033 95.9338C167.253 95.9338 165 98.1865 165 100.965C165 103.744 167.253 105.997 170.033 105.997Z" fill="#F0F0F0"/>
<path d="M170.634 109.438H169.214V119.38H170.634V109.438Z" fill="#F0F0F0"/>
<path d="M220.015 100.045C242.479 100.045 260.69 81.8406 260.69 59.3843C260.69 36.9281 242.479 18.7238 220.015 18.7238C197.551 18.7238 179.341 36.9281 179.341 59.3843C179.341 81.8406 197.551 100.045 220.015 100.045Z" fill="#3F3D56"/>
<path d="M194.408 62.6483C195.418 61.4393 196.682 60.4668 198.109 59.7995C199.536 59.1322 201.093 58.7863 202.669 58.7863C204.244 58.7863 205.801 59.1322 207.228 59.7995C208.656 60.4668 209.919 61.4393 210.929 62.6483C212.641 61.015 213.829 58.9111 214.345 56.6026C214.86 54.2942 214.679 51.8847 213.824 49.6791C212.97 47.4735 211.48 45.5707 209.544 44.2113C207.608 42.852 205.312 42.0972 202.946 42.0423C200.581 41.9874 198.252 42.635 196.255 43.903C194.258 45.1711 192.681 47.0028 191.725 49.1664C190.769 51.3301 190.477 53.7285 190.884 56.0584C191.292 58.3883 192.382 60.545 194.016 62.2559C194.143 62.3897 194.274 62.5205 194.408 62.6483Z" fill="white"/>
<path d="M226.708 62.6483C227.719 61.4393 228.982 60.4668 230.409 59.7995C231.837 59.1322 233.393 58.7864 234.969 58.7864C236.545 58.7864 238.101 59.1322 239.529 59.7995C240.956 60.4668 242.219 61.4393 243.23 62.6483C244.941 61.015 246.13 58.9111 246.645 56.6026C247.16 54.2942 246.979 51.8848 246.125 49.6791C245.27 47.4735 243.781 45.5707 241.844 44.2113C239.908 42.852 237.612 42.0972 235.247 42.0423C232.881 41.9874 230.552 42.635 228.555 43.903C226.558 45.1711 224.982 47.0028 224.026 49.1664C223.07 51.3301 222.777 53.7285 223.185 56.0584C223.592 58.3883 224.682 60.545 226.316 62.2559C226.444 62.3897 226.574 62.5205 226.708 62.6483Z" fill="white"/>
<path d="M198.588 54.0397C200.86 54.0397 202.703 52.1979 202.703 49.9259C202.703 47.6539 200.86 45.8121 198.588 45.8121C196.315 45.8121 194.472 47.6539 194.472 49.9259C194.472 52.1979 196.315 54.0397 198.588 54.0397Z" fill="#3F3D56"/>
<path d="M230.887 54.0397C233.16 54.0397 235.002 52.1979 235.002 49.9259C235.002 47.6539 233.16 45.8121 230.887 45.8121C228.614 45.8121 226.772 47.6539 226.772 49.9259C226.772 52.1979 228.614 54.0397 230.887 54.0397Z" fill="#3F3D56"/>
<path d="M190.705 74.3331C193.348 74.3331 195.491 72.1914 195.491 69.5495C195.491 66.9076 193.348 64.7659 190.705 64.7659C188.063 64.7659 185.92 66.9076 185.92 69.5495C185.92 72.1914 188.063 74.3331 190.705 74.3331Z" fill="#FFD5AA"/>
<path d="M245.736 74.3331C248.379 74.3331 250.521 72.1914 250.521 69.5495C250.521 66.9076 248.379 64.7659 245.736 64.7659C243.093 64.7659 240.951 66.9076 240.951 69.5495C240.951 72.1914 243.093 74.3331 245.736 74.3331Z" fill="#FFD5AA"/>
<path d="M218.221 59.9821L214.632 75.5288L220.613 69.5496L218.221 59.9821Z" fill="#FFD5AA"/>
<path d="M236.662 119.777L232.587 116.359L232.682 119.777H231.417L231.315 116.162L225.814 119.777H223.511L231.274 114.676L230.973 103.965L230.749 95.8758L232.011 95.8412L232.239 103.965L232.539 114.667L238.629 119.777H236.662Z" fill="#3F3D56"/>
<path d="M217.519 119.777L213.445 116.359L213.54 119.777H212.277L212.176 116.162L206.675 119.777H204.372L212.132 114.676L211.831 103.965L211.607 95.8758L212.872 95.8412L213.1 103.965L213.397 114.667L219.487 119.777H217.519Z" fill="#3F3D56"/>
<path d="M220.613 15.734C219.497 15.734 218.513 16.6007 217.854 17.9318C217.274 15.9302 216.055 14.5381 214.632 14.5381C214.535 14.5478 214.439 14.5639 214.344 14.5864C213.797 12.4493 212.525 10.9504 211.043 10.9504C209.061 10.9504 207.454 13.6276 207.454 16.9299C207.454 20.2323 209.061 22.9094 211.043 22.9094C211.14 22.8998 211.236 22.8837 211.33 22.8612C211.877 24.9983 213.149 26.4971 214.632 26.4971C215.748 26.4971 216.732 25.6305 217.391 24.2993C217.971 26.301 219.19 27.693 220.613 27.693C222.595 27.693 224.202 25.0159 224.202 21.7135C224.202 18.4112 222.595 15.734 220.613 15.734Z" fill="#3F3D56"/>
<path d="M181.666 60.6495L159.26 57.0164C158.13 56.8334 156.981 56.6499 155.848 56.8093C154.715 56.9686 153.581 57.5261 153.004 58.5132C152.726 58.9876 152.592 59.532 152.616 60.081C152.641 60.63 152.824 61.1602 153.143 61.6079C153.461 62.0556 153.903 62.4017 154.414 62.6046C154.924 62.8076 155.483 62.8587 156.022 62.7519C154.799 62.7122 153.514 62.686 152.429 63.251C151.343 63.8161 150.575 65.1887 151.104 66.2917C151.263 66.5961 151.477 66.8678 151.737 67.0927C152.554 67.8245 153.561 68.3102 154.642 68.4935C155.724 68.6768 156.835 68.5503 157.848 68.1286C157.023 69.3111 155.386 69.4867 153.97 69.7606C152.554 70.0344 150.917 70.835 150.865 72.2757C150.805 73.8944 152.733 74.7548 154.319 75.0843C162.791 76.8269 171.584 76.1104 179.662 73.0195C180.57 72.7072 181.429 72.2686 182.214 71.7167C183.094 71.0485 183.763 70.1408 184.141 69.1024C184.519 68.0639 184.589 66.9387 184.343 65.8613C184.098 64.784 183.547 63.8002 182.757 63.0277C181.966 62.2552 180.97 61.7268 179.887 61.5056" fill="#3F3D56"/>
<path d="M278.379 79.009C274.681 71.1931 268.824 64.5978 261.498 60.0016C260.703 59.4639 259.836 59.041 258.922 58.7452C257.859 58.4435 256.731 58.4545 255.674 58.7769C254.617 59.0992 253.675 59.7193 252.961 60.5629C252.247 61.4066 251.792 62.438 251.649 63.5337C251.507 64.6293 251.683 65.7429 252.157 66.7411L250.403 65.8345C253.924 72.5297 257.444 79.225 260.964 85.9203C261.497 86.9325 262.041 87.9613 262.849 88.7706C263.657 89.5798 264.784 90.1507 265.921 90.0189C266.372 89.9683 266.804 89.8102 267.181 89.558C267.559 89.3058 267.87 88.9667 268.089 88.5693C268.308 88.1719 268.429 87.7278 268.44 87.2743C268.452 86.8207 268.355 86.3709 268.157 85.9626C268.651 86.6588 269.301 87.2301 270.055 87.6312C271.159 88.1588 272.718 87.9479 273.282 86.8623C273.43 86.5525 273.518 86.2175 273.542 85.875C273.636 84.7826 273.419 83.6859 272.916 82.7117C272.412 81.7375 271.643 80.9257 270.698 80.3702C272.139 80.3186 273.263 81.5208 274.333 82.4875C275.403 83.4543 277.026 84.2809 278.21 83.4571C279.54 82.5315 279.069 80.4746 278.379 79.009Z" fill="#3F3D56"/>
<path d="M18.3938 0H166.926V48.7436H161.299V61.4915L148.547 48.7436H18.3938V0Z" fill="#CACACA"/>
<path d="M162.8 4.74658H22.5198V43.7415H162.8V4.74658Z" fill="white"/>
<path d="M101.342 16.1315H33.8003V18.1805H101.342V16.1315Z" fill="#FFD5AA"/>
<path d="M151.519 23.2196H33.8003V25.2686H151.519V23.2196Z" fill="#FFD5AA"/>
<path d="M151.404 30.3077H33.8003V32.3567H151.404V30.3077Z" fill="#FFD5AA"/>
<path d="M284.67 120.107H158.981C158.894 120.107 158.81 120.072 158.748 120.01C158.686 119.949 158.651 119.865 158.651 119.777C158.651 119.69 158.686 119.606 158.748 119.544C158.81 119.482 158.894 119.448 158.981 119.448H284.67C284.758 119.448 284.842 119.482 284.903 119.544C284.965 119.606 285 119.69 285 119.777C285 119.865 284.965 119.949 284.903 120.01C284.842 120.072 284.758 120.107 284.67 120.107Z" fill="#CACACA"/>
</g>
<defs>
<clipPath id="clip0_2069_895">
<rect width="285" height="120.107" fill="white"/>
</clipPath>
</defs>
</svg>
