<svg width="282" height="204" viewBox="0 0 282 204" fill="none" xmlns="http://www.w3.org/2000/svg">
<g clip-path="url(#clip0_2223_1307)">
<path d="M247.381 99.3669H244.871V198.704H247.381V99.3669Z" fill="#3F3D56"/>
<path d="M270.547 112.026C270.707 146.762 246.314 175.034 246.314 175.034C246.314 175.034 221.661 146.988 221.501 112.253C221.341 77.5171 245.735 49.2451 245.735 49.2451C245.735 49.2451 270.388 77.2906 270.547 112.026Z" fill="#3F3D56"/>
<path d="M197.189 146.106H195.898V197.197H197.189V146.106Z" fill="#3F3D56"/>
<path d="M209.104 152.617C209.186 170.482 196.64 185.023 196.64 185.023C196.64 185.023 183.961 170.599 183.878 152.734C183.796 134.868 196.342 120.327 196.342 120.327C196.342 120.327 209.022 134.752 209.104 152.617Z" fill="#3F3D56"/>
<path d="M222.637 204C241.955 204 257.616 201.595 257.616 198.628C257.616 195.662 241.955 193.257 222.637 193.257C203.318 193.257 187.657 195.662 187.657 198.628C187.657 201.595 203.318 204 222.637 204Z" fill="#3F3D56"/>
<path d="M225.522 73.4339C222.558 68.4173 216.695 68.1835 216.695 68.1835C216.695 68.1835 210.982 67.4515 207.317 75.092C203.9 82.2135 199.186 89.0895 206.558 90.7566L207.889 86.6046L208.714 91.0657C209.763 91.1413 210.816 91.1593 211.868 91.1197C219.762 90.8643 227.281 91.1944 227.039 88.3563C226.717 84.5834 228.373 78.261 225.522 73.4339Z" fill="#2F2E41"/>
<path d="M214.849 82.8813C214.849 82.8813 218.679 88.253 216.381 92.6015C214.083 96.95 221.743 101.554 221.743 101.554L227.36 89.2762C227.36 89.2762 220.722 84.9277 222.509 80.835L214.849 82.8813Z" fill="#FBBEBE"/>
<path d="M217.402 85.1834C221.069 85.1834 224.041 82.2058 224.041 78.5327C224.041 74.8597 221.069 71.8821 217.402 71.8821C213.736 71.8821 210.764 74.8597 210.764 78.5327C210.764 82.2058 213.736 85.1834 217.402 85.1834Z" fill="#FBBEBE"/>
<path d="M194.428 86.221L199.976 79.0501C199.976 79.0501 201.929 71.5336 204.759 71.9146C207.588 72.2957 203.641 80.9288 203.641 80.9288L198.129 88.8663L194.428 86.221Z" fill="#FBBEBE"/>
<path d="M222.509 181.618L224.296 191.082L228.126 192.106L227.105 180.851L222.509 181.618Z" fill="#FBBEBE"/>
<path d="M261.063 171.386L267.957 180.851L270.766 182.13L273.064 178.293L266.17 169.34L261.063 171.386Z" fill="#FBBEBE"/>
<path d="M220.977 97.4615L216.718 91.8444C216.718 91.8444 208.466 93.3688 207.7 94.1362C206.934 94.9036 209.743 108.972 209.743 108.972C209.743 108.972 210.253 112.809 212.551 114.856L214.849 116.39L233.743 112.553L234.454 104.131C234.712 101.063 234.329 97.9754 233.327 95.0649C232.325 92.1545 230.728 89.4857 228.637 87.2297V87.2297L225.349 87.68L220.977 97.4615Z" fill="#575A89"/>
<path d="M208.721 94.6478L207.445 94.1362L201.572 93.6246C201.572 93.6246 199.529 93.113 200.04 92.0898C200.551 91.0667 201.061 90.8109 200.04 90.5551C199.019 90.2993 198.764 90.0435 199.019 89.2761C199.274 88.5087 200.806 86.9739 200.806 86.9739L196.466 83.3928C196.466 83.3928 196.231 83.5593 195.851 83.8673C193.696 85.6153 186.877 91.9221 191.87 98.2289C197.742 105.647 204.636 109.995 210.253 108.461L208.721 94.6478Z" fill="#575A89"/>
<path d="M214.338 115.111V118.693C214.338 118.693 212.04 123.041 212.806 127.134C213.572 131.226 213.828 133.273 213.828 133.273C213.911 136.754 214.514 140.202 215.615 143.505C217.402 148.62 211.53 182.13 218.934 182.641C226.339 183.153 230.424 183.664 232.722 181.106C235.02 178.548 228.892 134.552 228.892 134.552C228.892 134.552 249.829 178.293 254.169 176.502C258.51 174.712 269.489 170.619 268.212 168.317C266.936 166.015 234.765 114.856 234.765 114.856L233.743 112.553L214.338 115.111Z" fill="#2F2E41"/>
<path d="M226.594 189.292C226.594 189.292 222.509 189.036 222.509 190.315C222.509 191.594 220.466 195.943 220.466 195.943C220.466 195.943 218.934 201.058 223.02 200.547C227.105 200.035 229.658 195.431 229.658 195.431L228.637 190.571L226.594 189.292Z" fill="#2F2E41"/>
<path d="M269.234 180.339C269.234 180.339 265.659 178.037 265.914 179.572C266.17 181.106 266.425 185.199 268.212 185.455C270 185.711 275.361 187.245 275.617 187.757C275.872 188.269 282 190.315 282 186.99C282 183.664 278.17 181.106 278.17 181.106L273.83 177.781C273.83 177.781 271.021 177.525 270.51 179.316C270 181.106 269.234 180.339 269.234 180.339Z" fill="#2F2E41"/>
<path d="M217.412 72.456C219.754 72.456 221.652 70.5545 221.652 68.2088C221.652 65.8632 219.754 63.9617 217.412 63.9617C215.071 63.9617 213.173 65.8632 213.173 68.2088C213.173 70.5545 215.071 72.456 217.412 72.456Z" fill="#2F2E41"/>
<path d="M212.727 67.0911C212.727 66.0422 213.115 65.0304 213.815 64.2506C214.515 63.4709 215.479 62.9783 216.52 62.8679C216.372 62.8521 216.223 62.8442 216.074 62.844C214.949 62.844 213.871 63.2915 213.076 64.088C212.281 64.8845 211.834 65.9647 211.834 67.0911C211.834 68.2176 212.281 69.2978 213.076 70.0943C213.871 70.8908 214.949 71.3383 216.074 71.3383C216.223 71.3381 216.372 71.3302 216.52 71.3144C215.479 71.204 214.515 70.7114 213.815 69.9317C213.115 69.1519 212.727 68.1401 212.727 67.0911V67.0911Z" fill="#2F2E41"/>
<path d="M224.211 72.9503L218.419 69.9104L210.42 71.1541L208.765 78.477L212.885 78.3181L214.036 75.6279V78.2739L215.937 78.2007L217.04 73.9174L217.729 78.477L224.487 78.3388L224.211 72.9503Z" fill="#2F2E41"/>
<path d="M223.865 115.704L214.931 115.946C214.931 115.946 207.309 117.432 207.737 114.35C208.164 111.267 215.601 112.345 215.601 112.345L223.74 111.101L223.865 115.704Z" fill="#FBBEBE"/>
<path d="M230.933 86.7962C231.382 86.7281 231.84 86.8228 232.226 87.0633C232.611 87.3037 232.898 87.6742 233.035 88.1079C234.784 93.629 240.172 112.105 234.819 114.64C228.514 117.625 223.913 117.494 223.913 117.494L221.45 111.419L223.692 109.311L226.086 93.8934L227.233 87.3577L230.933 86.7962Z" fill="#575A89"/>
<path opacity="0.4" d="M229.275 97.0779L228.254 107.31L219.317 111.147L229.275 108.844V97.0779Z" fill="black"/>
<path d="M181.081 63.2996C183.96 64.0637 186.45 65.876 188.065 68.3821L188.9 69.6779L188.942 69.7315L203.594 74.0266C203.863 74.1053 204.09 74.2866 204.226 74.5312C204.363 74.7759 204.398 75.0646 204.324 75.335L203.187 79.5134C203.15 79.6496 203.086 79.777 203 79.8884C202.914 79.9998 202.806 80.093 202.684 80.1626C202.561 80.2322 202.426 80.2768 202.286 80.294C202.147 80.3111 202.005 80.3004 201.869 80.2624L187.214 76.1584L187.213 76.1589L185.741 76.7164C183.031 77.7429 180.058 77.8441 177.284 77.0043V77.0043L181.081 63.2996Z" fill="#3F3D56"/>
<path d="M196.511 75.4174C196.65 74.9423 196.042 74.3458 195.152 74.0851C194.263 73.8245 193.43 73.9983 193.291 74.4734C193.152 74.9486 193.761 75.5451 194.65 75.8057C195.539 76.0664 196.372 75.8925 196.511 75.4174Z" fill="#575A89"/>
<path d="M195.763 75.8555C196.103 75.8555 196.378 75.5796 196.378 75.2393C196.378 74.8989 196.103 74.623 195.763 74.623C195.423 74.623 195.148 74.8989 195.148 75.2393C195.148 75.5796 195.423 75.8555 195.763 75.8555Z" fill="#3F3D56"/>
<path d="M182.306 71.2141C183.528 67.4393 183.137 63.9304 181.433 63.3769C179.729 62.8234 177.357 65.4348 176.136 69.2097C174.914 72.9845 175.305 76.4934 177.009 77.0469C178.712 77.6005 181.084 74.989 182.306 71.2141Z" fill="#FFD5AA"/>
<path opacity="0.4" d="M181.851 71.0806C183.028 67.4432 182.708 64.0533 181.158 63.3159C181.252 63.3276 181.344 63.348 181.433 63.3768C183.137 63.9303 183.528 67.4392 182.306 71.2141C181.084 74.989 178.712 77.6004 177.008 77.0469C176.947 77.0266 176.886 77.0024 176.828 76.9743C178.504 77.1881 180.693 74.6567 181.851 71.0806Z" fill="black"/>
<path d="M181.274 63.313L148.021 37.4713C142.14 32.8687 136.498 27.9694 131.114 22.7924C121.635 13.7404 108.767 6.5032 93.7851 2.65004C57.3854 -6.71144 28.5495 9.8876 15.4341 34.2607C-4.60759 71.5054 -19.9669 131.943 68.8979 99.7722C88.3326 92.7365 108.005 91.9886 122.921 88.2825L176.933 77.1259L181.274 63.313Z" fill="#FFD5AA"/>
<path d="M81.4411 19.8279C82.4282 19.8279 83.2284 19.0263 83.2284 18.0374C83.2284 17.0485 82.4282 16.2468 81.4411 16.2468C80.454 16.2468 79.6538 17.0485 79.6538 18.0374C79.6538 19.0263 80.454 19.8279 81.4411 19.8279Z" fill="#F2F2F2"/>
<path d="M116.16 22.176H115.695V21.71H115.604V22.176H115.139V22.2671H115.604V22.7331H115.695V22.2671H116.16V22.176Z" fill="#F2F2F2"/>
<path d="M162.885 61.0569H162.42V60.5908H162.329V61.0569H161.864V61.1479H162.329V61.614H162.42V61.1479H162.885V61.0569Z" fill="#F2F2F2"/>
<path d="M159.566 73.0793H159.101V72.6133H159.01V73.0793H158.545V73.1704H159.01V73.6365H159.101V73.1704H159.566V73.0793Z" fill="#F2F2F2"/>
<path d="M16.8384 83.311H16.3732V82.845H16.2823V83.311H15.8171V83.4021H16.2823V83.8681H16.3732V83.4021H16.8384V83.311Z" fill="#F2F2F2"/>
<path d="M37.2647 27.5478H36.7995V27.0818H36.7086V27.5478H36.2434V27.6389H36.7086V28.105H36.7995V27.6389H37.2647V27.5478Z" fill="#F2F2F2"/>
<path d="M116.671 75.1255H116.206V74.6594H116.115V75.1255H115.65V75.2165H116.115V75.6826H116.206V75.2165H116.671V75.1255Z" fill="#F2F2F2"/>
<path d="M67.9039 11.177H67.4387V10.7109H67.3478V11.177H66.8826V11.2681H67.3478V11.7341H67.4387V11.2681H67.9039V11.177Z" fill="#F2F2F2"/>
<path d="M68.0825 48.0056L67.5029 48.0951C67.6842 49.2564 67.8272 50.4433 67.9319 51.6174L68.5166 51.5663C68.4119 50.3768 68.2664 49.1797 68.0825 48.0056Z" fill="#E6E6E6"/>
<path d="M66.497 41.0122L65.9353 41.1836C66.2749 42.3091 66.5787 43.4627 66.8366 44.6112L67.4111 44.4808C67.1481 43.3195 66.8392 42.1531 66.497 41.0122Z" fill="#E6E6E6"/>
<path d="M63.9667 34.3054L63.4331 34.551C63.9233 35.6228 64.3829 36.7227 64.7991 37.8226L65.3481 37.6154C64.9268 36.5027 64.4646 35.3874 63.9667 34.3054Z" fill="#E6E6E6"/>
<path d="M60.5454 28.0178L60.05 28.3324C60.6807 29.3249 61.2858 30.3532 61.8475 31.3841L62.3633 31.1027C61.7965 30.0591 61.1837 29.0205 60.5454 28.0178Z" fill="#E6E6E6"/>
<path d="M56.2915 22.2549L55.8447 22.636C56.6056 23.5313 57.3461 24.4675 58.0456 25.4139L58.5154 25.0635C57.8107 24.1068 57.0626 23.1604 56.2915 22.2549Z" fill="#E6E6E6"/>
<path d="M51.2923 17.1235L50.9016 17.5609C51.7799 18.3462 52.6404 19.1724 53.46 20.014L53.8813 19.6022C53.0515 18.7504 52.1808 17.9165 51.2923 17.1235Z" fill="#E6E6E6"/>
<path d="M45.6446 12.7188L45.3152 13.2048C46.2905 13.8622 47.2557 14.563 48.1825 15.2869L48.5451 14.8239C47.6055 14.0924 46.6301 13.3838 45.6446 12.7188Z" fill="#E6E6E6"/>
<path d="M40.5049 9.65967V10.3247C41.1151 10.6445 41.7202 10.9796 42.3126 11.3223L42.6062 10.8133C41.9168 10.4143 41.2164 10.0297 40.5049 9.65967Z" fill="#E6E6E6"/>
<path d="M68.1221 55.2463L68.709 55.2356C68.7198 55.8293 68.7206 56.4262 68.7114 57.0098L68.1245 57.0006C68.1334 56.4237 68.1327 55.8334 68.1221 55.2463Z" fill="#E6E6E6"/>
<path d="M33.6135 98.3972L33.0339 98.4867C33.2152 99.6481 33.3582 100.835 33.4629 102.009L34.0476 101.958C33.9429 100.768 33.7974 99.5713 33.6135 98.3972Z" fill="#E6E6E6"/>
<path d="M32.028 91.4038L31.4663 91.5752C31.8059 92.7007 32.1097 93.8543 32.3676 95.0028L32.9421 94.8724C32.6791 93.7111 32.3702 92.5447 32.028 91.4038Z" fill="#E6E6E6"/>
<path d="M29.4977 84.6968L28.9641 84.9423C29.4543 86.0141 29.9139 87.114 30.3301 88.214L30.8791 88.0068C30.4578 86.894 29.9956 85.7788 29.4977 84.6968Z" fill="#E6E6E6"/>
<path d="M26.0764 78.4094L25.5811 78.7241C26.2117 79.7165 26.8168 80.7448 27.3786 81.7757L27.8943 81.4943C27.3275 80.4507 26.7147 79.4121 26.0764 78.4094Z" fill="#E6E6E6"/>
<path d="M21.8226 72.6465L21.3757 73.0276C22.1366 73.9229 22.8771 74.8591 23.5766 75.8055L24.0464 75.4551C23.3417 74.4984 22.5936 73.552 21.8226 72.6465Z" fill="#E6E6E6"/>
<path d="M16.8233 67.5151L16.4326 67.9525C17.3109 68.7378 18.1714 69.564 18.991 70.4056L19.4123 69.9938C18.5825 69.142 17.7118 68.3081 16.8233 67.5151Z" fill="#E6E6E6"/>
<path d="M11.1756 63.1104L10.8462 63.5964C11.8215 64.2537 12.7867 64.9546 13.7135 65.6785L14.0761 65.2155C13.1365 64.484 12.1611 63.7754 11.1756 63.1104Z" fill="#E6E6E6"/>
<path d="M6.03564 60.051V60.7161C6.64587 61.0358 7.251 61.3709 7.84336 61.7137L8.13698 61.2047C7.44759 60.8056 6.74715 60.4211 6.03564 60.051Z" fill="#E6E6E6"/>
<path d="M33.6531 105.638L34.24 105.627C34.2508 106.221 34.2516 106.818 34.2424 107.401L33.6555 107.392C33.6645 106.815 33.6637 106.225 33.6531 105.638Z" fill="#E6E6E6"/>
<path d="M151.574 73.0735L150.995 73.163C151.176 74.3243 151.319 75.5112 151.424 76.6853L152.008 76.6341C151.904 75.4447 151.758 74.2476 151.574 73.0735Z" fill="#E6E6E6"/>
<path d="M149.989 66.0801L149.427 66.2515C149.767 67.377 150.07 68.5306 150.328 69.6791L150.903 69.5487C150.64 68.3874 150.331 67.2209 149.989 66.0801Z" fill="#E6E6E6"/>
<path d="M147.458 59.3733L146.925 59.6189C147.415 60.6906 147.875 61.7905 148.291 62.8905L148.84 62.6833C148.418 61.5705 147.956 60.4553 147.458 59.3733Z" fill="#E6E6E6"/>
<path d="M144.037 53.0857L143.542 53.4003C144.172 54.3928 144.778 55.4211 145.339 56.4519L145.855 56.1706C145.288 55.1269 144.675 54.0884 144.037 53.0857Z" fill="#E6E6E6"/>
<path d="M139.783 47.3228L139.336 47.7039C140.097 48.5992 140.838 49.5354 141.537 50.4818L142.007 50.1314C141.302 49.1747 140.554 48.2283 139.783 47.3228Z" fill="#E6E6E6"/>
<path d="M134.784 42.1914L134.393 42.6288C135.272 43.4141 136.132 44.2403 136.952 45.0819L137.373 44.6701C136.543 43.8183 135.672 42.9844 134.784 42.1914Z" fill="#E6E6E6"/>
<path d="M129.136 37.7866L128.807 38.2726C129.782 38.93 130.747 39.6309 131.674 40.3548L132.037 39.8918C131.097 39.1602 130.122 38.4517 129.136 37.7866Z" fill="#E6E6E6"/>
<path d="M123.997 34.7275V35.3926C124.607 35.7123 125.212 36.0474 125.804 36.3902L126.098 35.8812C125.409 35.4821 124.708 35.0976 123.997 34.7275Z" fill="#E6E6E6"/>
<path d="M151.614 80.3142L152.201 80.3035C152.211 80.8972 152.212 81.4941 152.203 82.0777L151.616 82.0685C151.625 81.4915 151.624 80.9013 151.614 80.3142Z" fill="#E6E6E6"/>
<path d="M38.119 51.1321H37.6863V50.6982H37.6017V51.1321H37.1687V51.2165H37.6017V51.6503H37.6863V51.2165H38.119V51.1321Z" fill="#F2F2F2"/>
<path d="M33.1295 77.3144H32.6967V76.8806H32.6122V77.3144H32.1792V77.3991H32.6122V77.8327H32.6967V77.3991H33.1295V77.3144Z" fill="#F2F2F2"/>
<path d="M18.4899 100.261H18.0568V99.8274H17.9723V100.261H17.5396V100.346H17.9723V100.779H18.0568V100.346H18.4899V100.261Z" fill="#F2F2F2"/>
<path d="M59.2149 71.1577C55.0292 64.9244 53.2118 57.3948 54.0923 49.9343C54.9727 42.4738 58.4927 35.5763 64.0139 30.4928C69.535 25.4093 76.6918 22.4763 84.1864 22.2257C91.681 21.9752 99.017 24.4236 104.864 29.127C110.711 33.8304 114.683 40.4774 116.058 47.8625C117.433 55.2476 116.12 62.8818 112.359 69.3808C108.597 75.8798 102.636 80.8131 95.5548 83.2861C88.474 85.7592 80.7431 85.6082 73.7639 82.8606C73.3114 84.4786 72.4655 85.9589 71.302 87.169C70.1384 88.3791 68.6934 89.2813 67.0965 89.7948C65.4995 90.3083 63.8004 90.417 62.1512 90.1113C60.502 89.8055 58.9543 89.0949 57.6465 88.0429C56.3387 86.9909 55.3117 85.6305 54.6574 84.0833C54.0031 82.5362 53.742 80.8507 53.8974 79.1776C54.0528 77.5046 54.6199 75.8963 55.5479 74.4967C56.4759 73.0971 57.7358 71.9498 59.2149 71.1577V71.1577Z" fill="#3F3D56"/>
<path d="M85.0565 35.6672C92.245 35.6672 97.1906 39.6617 97.1906 45.4039C97.1906 49.2063 95.3504 51.8373 91.8041 53.9306C88.4686 55.8703 87.3376 57.2914 87.3376 59.7495C87.3376 59.9488 87.2985 60.1461 87.2224 60.3301C87.1463 60.5142 87.0347 60.6814 86.8941 60.8223C86.7535 60.9632 86.5865 61.075 86.4028 61.1512C86.2191 61.2274 86.0221 61.2667 85.8233 61.2667H82.1484C81.7559 61.2667 81.3787 61.114 81.0964 60.8409C80.8141 60.5677 80.6486 60.1954 80.6349 59.8024L80.6284 59.6151C80.3025 55.659 81.6827 53.2008 85.1524 51.1652C88.3919 49.2255 89.753 47.9965 89.753 45.6151C89.753 43.2338 87.4527 41.4862 84.5964 41.4862C82.4255 41.4862 80.7075 42.5448 79.9194 44.2732C79.6425 44.8583 79.2041 45.3517 78.656 45.695C78.108 46.0383 77.4733 46.2172 76.8269 46.2105V46.2105C74.337 46.2105 72.6921 43.5577 73.8566 41.3528C75.6986 37.8649 79.5851 35.6672 85.0565 35.6672ZM80.015 68.5836C80.015 66.375 81.8552 64.6274 84.1172 64.6274C86.3983 64.6274 88.2386 66.3559 88.2386 68.5836C88.2386 70.8113 86.3983 72.5397 84.1172 72.5397C81.8361 72.5397 80.015 70.8113 80.015 68.5836V68.5836Z" fill="#FFD5AA"/>
</g>
<defs>
<clipPath id="clip0_2223_1307">
<rect width="282" height="204" fill="white"/>
</clipPath>
</defs>
</svg>
