<svg width="287" height="207" viewBox="0 0 287 207" fill="none" xmlns="http://www.w3.org/2000/svg">
<g clip-path="url(#clip0_173_424)">
<path d="M280.301 206.767H108.104C106.328 206.765 104.626 206.056 103.37 204.796C102.114 203.536 101.408 201.827 101.406 200.046V6.7209C101.408 4.93902 102.114 3.2307 103.37 1.97072C104.626 0.710742 106.328 0.00200594 108.104 0H280.301C282.077 0.00200594 283.78 0.710742 285.036 1.97072C286.292 3.2307 286.998 4.93902 287 6.7209V200.046C286.998 201.827 286.292 203.536 285.036 204.796C283.78 206.056 282.077 206.765 280.301 206.767ZM108.104 0.790694C106.537 0.792473 105.035 1.41783 103.927 2.52957C102.819 3.64132 102.195 5.14866 102.194 6.7209V200.046C102.195 201.618 102.819 203.125 103.927 204.237C105.035 205.349 106.537 205.974 108.104 205.976H280.301C281.868 205.974 283.371 205.349 284.479 204.237C285.587 203.125 286.21 201.618 286.212 200.046V6.7209C286.21 5.14866 285.587 3.64132 284.479 2.52957C283.371 1.41783 281.868 0.792473 280.301 0.790694H108.104Z" fill="#3F3D56"/>
<path d="M286.606 16.4426H101.8V17.2333H286.606V16.4426Z" fill="#3F3D56"/>
<path d="M110.863 11.8605C112.604 11.8605 114.015 10.4444 114.015 8.69769C114.015 6.95094 112.604 5.53491 110.863 5.53491C109.122 5.53491 107.71 6.95094 107.71 8.69769C107.71 10.4444 109.122 11.8605 110.863 11.8605Z" fill="#F54748"/>
<path d="M120.714 11.8605C122.455 11.8605 123.866 10.4444 123.866 8.69769C123.866 6.95094 122.455 5.53491 120.714 5.53491C118.973 5.53491 117.561 6.95094 117.561 8.69769C117.561 10.4444 118.973 11.8605 120.714 11.8605Z" fill="#F54748"/>
<path d="M130.565 11.8605C132.306 11.8605 133.717 10.4444 133.717 8.69769C133.717 6.95094 132.306 5.53491 130.565 5.53491C128.824 5.53491 127.413 6.95094 127.413 8.69769C127.413 10.4444 128.824 11.8605 130.565 11.8605Z" fill="#F54748"/>
<path d="M255.674 45.4649H132.732C131.373 45.4649 130.071 44.9235 129.11 43.9596C128.149 42.9958 127.609 41.6885 127.609 40.3254C127.609 38.9623 128.149 37.6551 129.11 36.6912C130.071 35.7274 131.373 35.1859 132.732 35.1859H255.674C257.032 35.1859 258.335 35.7274 259.296 36.6912C260.256 37.6551 260.796 38.9623 260.796 40.3254C260.796 41.6885 260.256 42.9958 259.296 43.9596C258.335 44.9235 257.032 45.4649 255.674 45.4649ZM132.732 35.9766C131.582 35.9766 130.48 36.4348 129.667 37.2503C128.854 38.0659 128.398 39.172 128.398 40.3254C128.398 41.4788 128.854 42.5849 129.667 43.4005C130.48 44.2161 131.582 44.6742 132.732 44.6742H255.674C256.823 44.6742 257.926 44.2161 258.738 43.4005C259.551 42.5849 260.008 41.4788 260.008 40.3254C260.008 39.172 259.551 38.0659 258.738 37.2503C257.926 36.4348 256.823 35.9766 255.674 35.9766H132.732Z" fill="#3F3D56"/>
<path d="M225.275 86.0238H169.321C168.485 86.0238 167.683 85.6906 167.092 85.0974C166.501 84.5043 166.168 83.6998 166.168 82.861C166.168 82.0222 166.501 81.2177 167.092 80.6246C167.683 80.0315 168.485 79.6982 169.321 79.6982H225.275C226.111 79.6982 226.913 80.0315 227.504 80.6246C228.095 81.2177 228.427 82.0222 228.427 82.861C228.427 83.6998 228.095 84.5043 227.504 85.0974C226.913 85.6906 226.111 86.0238 225.275 86.0238Z" fill="#CCCCCC"/>
<path d="M257.586 96.6981H169.321C168.485 96.6981 167.683 96.3649 167.092 95.7718C166.501 95.1786 166.168 94.3742 166.168 93.5353C166.168 92.6965 166.501 91.892 167.092 91.2989C167.683 90.7058 168.485 90.3726 169.321 90.3726H257.586C258.422 90.3726 259.224 90.7058 259.815 91.2989C260.407 91.892 260.739 92.6965 260.739 93.5353C260.739 94.3742 260.407 95.1786 259.815 95.7718C259.224 96.3649 258.422 96.6981 257.586 96.6981Z" fill="#CCCCCC"/>
<path d="M148.354 97.2912H131.41C130.418 97.2901 129.466 96.894 128.765 96.1899C128.063 95.4858 127.668 94.5312 127.667 93.5354V82.861C127.668 81.8653 128.063 80.9106 128.765 80.2065C129.466 79.5024 130.418 79.1064 131.41 79.1052H148.354C149.347 79.1064 150.298 79.5024 151 80.2065C151.702 80.9106 152.097 81.8653 152.098 82.861V93.5354C152.096 94.5312 151.702 95.4858 151 96.1899C150.298 96.894 149.347 97.2901 148.354 97.2912ZM131.41 79.8959C130.627 79.8968 129.876 80.2095 129.322 80.7653C128.768 81.3212 128.456 82.0749 128.455 82.861V93.5354C128.456 94.3215 128.768 95.0752 129.322 95.6311C129.876 96.1869 130.627 96.4996 131.41 96.5005H148.354C149.138 96.4996 149.889 96.1869 150.443 95.6311C150.997 95.0752 151.309 94.3215 151.31 93.5354V82.861C151.309 82.0749 150.997 81.3212 150.443 80.7653C149.889 80.2095 149.138 79.8968 148.354 79.8959H131.41Z" fill="#CCCCCC"/>
<path d="M225.275 123.582H169.321C168.485 123.582 167.683 123.249 167.092 122.655C166.501 122.062 166.168 121.258 166.168 120.419C166.168 119.58 166.501 118.776 167.092 118.183C167.683 117.589 168.485 117.256 169.321 117.256H225.275C226.111 117.256 226.913 117.589 227.504 118.183C228.095 118.776 228.427 119.58 228.427 120.419C228.427 121.258 228.095 122.062 227.504 122.655C226.913 123.249 226.111 123.582 225.275 123.582Z" fill="#CCCCCC"/>
<path d="M257.586 134.256H169.321C168.485 134.256 167.683 133.923 167.092 133.33C166.501 132.737 166.168 131.932 166.168 131.093C166.168 130.255 166.501 129.45 167.092 128.857C167.683 128.264 168.485 127.931 169.321 127.931H257.586C258.422 127.931 259.224 128.264 259.815 128.857C260.407 129.45 260.739 130.255 260.739 131.093C260.739 131.932 260.407 132.737 259.815 133.33C259.224 133.923 258.422 134.256 257.586 134.256Z" fill="#CCCCCC"/>
<path d="M148.354 134.849H131.41C130.418 134.848 129.466 134.452 128.765 133.748C128.063 133.044 127.668 132.089 127.667 131.093V120.419C127.668 119.423 128.063 118.469 128.765 117.765C129.466 117.06 130.418 116.664 131.41 116.663H148.354C149.347 116.664 150.298 117.06 151 117.765C151.702 118.469 152.097 119.423 152.098 120.419V131.093C152.096 132.089 151.702 133.044 151 133.748C150.298 134.452 149.347 134.848 148.354 134.849ZM131.41 117.454C130.627 117.455 129.876 117.767 129.322 118.323C128.768 118.879 128.456 119.633 128.455 120.419V131.093C128.456 131.88 128.768 132.633 129.322 133.189C129.876 133.745 130.627 134.058 131.41 134.058H148.354C149.138 134.058 149.889 133.745 150.443 133.189C150.997 132.633 151.309 131.88 151.31 131.093V120.419C151.309 119.633 150.997 118.879 150.443 118.323C149.889 117.767 149.138 117.455 148.354 117.454H131.41Z" fill="#CCCCCC"/>
<path d="M225.275 161.14H169.321C168.485 161.14 167.683 160.807 167.092 160.213C166.501 159.62 166.168 158.816 166.168 157.977C166.168 157.138 166.501 156.334 167.092 155.741C167.683 155.147 168.485 154.814 169.321 154.814H225.275C226.111 154.814 226.913 155.147 227.504 155.741C228.095 156.334 228.427 157.138 228.427 157.977C228.427 158.816 228.095 159.62 227.504 160.213C226.913 160.807 226.111 161.14 225.275 161.14Z" fill="#F2F2F2"/>
<path d="M257.586 171.814H169.321C168.485 171.814 167.683 171.481 167.092 170.888C166.501 170.295 166.168 169.49 166.168 168.651C166.168 167.812 166.501 167.008 167.092 166.415C167.683 165.822 168.485 165.489 169.321 165.489H257.586C258.422 165.489 259.224 165.822 259.815 166.415C260.407 167.008 260.739 167.812 260.739 168.651C260.739 169.49 260.407 170.295 259.815 170.888C259.224 171.481 258.422 171.814 257.586 171.814Z" fill="#F2F2F2"/>
<path d="M148.354 172.407H131.41C130.418 172.406 129.466 172.01 128.765 171.306C128.063 170.602 127.668 169.647 127.667 168.651V157.977C127.668 156.981 128.063 156.027 128.765 155.322C129.466 154.618 130.418 154.222 131.41 154.221H148.354C149.347 154.222 150.298 154.618 151 155.322C151.702 156.027 152.097 156.981 152.098 157.977V168.651C152.096 169.647 151.702 170.602 151 171.306C150.298 172.01 149.347 172.406 148.354 172.407Z" fill="#F2F2F2"/>
<path d="M139.882 94.025L138.97 93.1992C135.73 90.2146 133.591 88.2774 133.591 85.8643C133.583 85.4052 133.667 84.9491 133.837 84.5231C134.008 84.0971 134.262 83.7097 134.585 83.3841C134.908 83.0584 135.292 82.8009 135.716 82.627C136.139 82.4531 136.593 82.3662 137.051 82.3714C137.591 82.3743 138.124 82.4951 138.613 82.7254C139.102 82.9557 139.535 83.29 139.882 83.7051C140.229 83.29 140.663 82.9557 141.151 82.7254C141.64 82.4951 142.173 82.3743 142.713 82.3714C143.171 82.3662 143.625 82.4531 144.049 82.627C144.472 82.8009 144.857 83.0584 145.179 83.3841C145.502 83.7097 145.756 84.0971 145.927 84.5231C146.098 84.9491 146.182 85.4052 146.174 85.8643C146.174 88.2774 144.035 90.2146 140.795 93.1992L139.882 94.025Z" fill="#F54748"/>
<path d="M139.882 131.583L138.97 130.757C135.73 127.773 133.591 125.835 133.591 123.422C133.583 122.963 133.667 122.507 133.837 122.081C134.008 121.655 134.262 121.268 134.585 120.942C134.908 120.616 135.292 120.359 135.716 120.185C136.139 120.011 136.593 119.924 137.051 119.929C137.591 119.932 138.124 120.053 138.613 120.283C139.102 120.514 139.535 120.848 139.882 121.263C140.229 120.848 140.663 120.514 141.151 120.283C141.64 120.053 142.173 119.932 142.713 119.929C143.171 119.924 143.625 120.011 144.049 120.185C144.472 120.359 144.857 120.616 145.179 120.942C145.502 121.268 145.756 121.655 145.927 122.081C146.098 122.507 146.182 122.963 146.174 123.422C146.174 125.835 144.035 127.773 140.795 130.757L139.882 131.583Z" fill="#F54748"/>
<path d="M68.2998 125.265H51.356C50.3635 125.264 49.412 124.867 48.7102 124.163C48.0084 123.459 47.6137 122.505 47.6125 121.509V110.835C47.6137 109.839 48.0084 108.884 48.7102 108.18C49.412 107.476 50.3635 107.08 51.356 107.079H68.2998C69.2923 107.08 70.2438 107.476 70.9456 108.18C71.6474 108.884 72.0421 109.839 72.0432 110.835V121.509C72.0421 122.505 71.6474 123.459 70.9456 124.163C70.2438 124.867 69.2923 125.264 68.2998 125.265ZM51.356 107.869C50.5724 107.87 49.8212 108.183 49.2672 108.739C48.7132 109.295 48.4015 110.048 48.4006 110.835V121.509C48.4015 122.295 48.7132 123.049 49.2672 123.605C49.8212 124.16 50.5724 124.473 51.356 124.474H68.2998C69.0834 124.473 69.8346 124.16 70.3886 123.605C70.9426 123.049 71.2543 122.295 71.2552 121.509V110.835C71.2543 110.048 70.9426 109.295 70.3886 108.739C69.8346 108.183 69.0834 107.87 68.2998 107.869H51.356Z" fill="#3F3D56"/>
<path d="M59.8279 121.998L58.9155 121.173C55.6754 118.188 53.5364 116.251 53.5364 113.838C53.5283 113.379 53.6122 112.923 53.783 112.497C53.9538 112.071 54.208 111.683 54.5307 111.358C54.8533 111.032 55.2378 110.774 55.6614 110.601C56.085 110.427 56.539 110.34 56.9967 110.345C57.5368 110.348 58.0698 110.469 58.5587 110.699C59.0476 110.929 59.4807 111.264 59.8279 111.679C60.1751 111.264 60.6081 110.929 61.097 110.699C61.5859 110.469 62.1189 110.348 62.6591 110.345C63.1167 110.34 63.5708 110.427 63.9943 110.601C64.4179 110.774 64.8024 111.032 65.1251 111.358C65.4477 111.683 65.702 112.071 65.8727 112.497C66.0435 112.923 66.1274 113.379 66.1194 113.838C66.1194 116.251 63.9803 118.188 60.7403 121.173L59.8279 121.998Z" fill="#F54748"/>
<path d="M50.0297 202.46L54.4123 201.414L52.4767 183.956L46.0085 185.5L50.0297 202.46Z" fill="#FFB8B8"/>
<path d="M63.832 203.479L50.0585 206.767L48.7926 201.427L57.2446 199.41C57.9434 199.243 58.6682 199.216 59.3774 199.331C60.0867 199.445 60.7666 199.698 61.3783 200.076C61.99 200.454 62.5215 200.949 62.9425 201.533C63.3635 202.117 63.6658 202.778 63.832 203.479Z" fill="#2F2E41"/>
<path d="M45.7279 191.218L36.2097 158.489L48.1039 155.529L55.0817 190.192C55.1328 190.446 55.1281 190.708 55.0678 190.959C55.0075 191.211 54.8931 191.447 54.7325 191.65C54.572 191.853 54.3693 192.018 54.1385 192.134C53.9077 192.25 53.6544 192.315 53.3963 192.322L47.4829 192.498C47.4651 192.499 47.4474 192.499 47.4297 192.499C47.0461 192.499 46.6729 192.374 46.3661 192.143C46.0593 191.912 45.8354 191.588 45.7279 191.218Z" fill="#2F2E41"/>
<path d="M22.8899 202.569L27.3946 202.569L29.5371 185.136L22.8884 185.137L22.8899 202.569Z" fill="#FFB8B8"/>
<path d="M36.0829 206.765L21.9251 206.766L21.9246 201.278L30.6124 201.278C32.0631 201.277 33.4545 201.855 34.4805 202.885C35.5064 203.914 36.0828 205.31 36.0829 206.765Z" fill="#2F2E41"/>
<path d="M22.099 195.796C21.9334 195.635 21.8014 195.443 21.7104 195.231C21.6195 195.018 21.5715 194.79 21.5692 194.559L17.465 161.909C17.4634 161.438 17.6476 160.986 17.9774 160.651C18.3073 160.316 18.756 160.125 19.2253 160.121L28.3862 160.055H28.3993C28.8644 160.056 29.3106 160.24 29.642 160.567C29.9734 160.895 30.1637 161.34 30.1721 161.806L30.659 193.97C30.6663 194.439 30.4883 194.892 30.1638 195.23C29.8393 195.569 29.3947 195.764 28.9269 195.775L23.3659 196.305C23.3573 196.305 23.3487 196.305 23.3402 196.305C22.8757 196.306 22.4296 196.123 22.099 195.796Z" fill="#2F2E41"/>
<path d="M24.0621 87.731C29.4072 87.731 33.7403 83.3837 33.7403 78.0209C33.7403 72.6582 29.4072 68.3108 24.0621 68.3108C18.7171 68.3108 14.384 72.6582 14.384 78.0209C14.384 83.3837 18.7171 87.731 24.0621 87.731Z" fill="#FFB8B8"/>
<path d="M11.3121 160.204C5.01508 155.267 5.08173 149.508 7.23039 141.816C7.83569 139.649 8.489 137.453 9.18059 135.128C12.394 124.325 16.0361 112.081 14.6534 101.971L14.8486 101.944L14.6534 101.971C14.2747 99.2017 15.2401 96.2891 17.3019 93.98C19.3638 91.6704 22.139 90.3908 24.9288 90.463C27.7136 90.5375 30.4216 91.9658 32.3581 94.3819C34.2853 96.7862 35.205 105.24 35.4777 106.452C36.7294 112.013 37.4848 115.37 38.0267 120.725C38.6675 127.056 46.342 145.984 48.7875 149.159C49.4365 149.996 49.9012 150.963 50.1509 151.994C50.4007 153.025 50.4297 154.098 50.2363 155.141C50.0561 156.134 49.6653 157.076 49.0904 157.904C48.5156 158.731 47.7701 159.425 46.9046 159.939C42.9358 162.373 38.5747 164.095 34.017 165.027C32.0399 165.412 30.0307 165.606 28.0168 165.607C21.7685 165.607 15.7982 163.72 11.3121 160.204Z" fill="#F54748"/>
<path d="M51.5586 123.621C51.308 123.141 50.9555 122.722 50.5259 122.393C50.0964 122.065 49.6003 121.834 49.0725 121.719C48.5447 121.603 47.9981 121.606 47.4712 121.725C46.9443 121.844 46.4499 122.078 46.0229 122.41L38.6892 118.212L35.0593 122.061L45.4988 127.844C46.102 128.527 46.934 128.964 47.8369 129.072C48.7399 129.181 49.6512 128.953 50.3982 128.433C51.1451 127.912 51.6758 127.135 51.8897 126.248C52.1036 125.361 51.9857 124.427 51.5586 123.621V123.621Z" fill="#FFB8B8"/>
<path d="M40.379 126.467L27.2348 122.324C25.47 121.764 23.919 120.674 22.791 119.201C21.663 117.729 21.0122 115.945 20.9264 114.09L20.3609 101.276C20.3291 100.555 20.4425 99.8353 20.6944 99.1595C20.9463 98.4836 21.3315 97.8657 21.8269 97.3427C22.3223 96.8197 22.9177 96.4023 23.5776 96.1155C24.2375 95.8286 24.9483 95.6783 25.6674 95.6735C26.3865 95.6686 27.0993 95.8093 27.7629 96.0872C28.4266 96.3651 29.0276 96.7744 29.53 97.2907C30.0323 97.807 30.4258 98.4196 30.6867 99.092C30.9476 99.7643 31.0707 100.483 31.0486 101.204L30.6871 112.993L44.6763 118.717C44.9233 118.818 45.1444 118.974 45.3231 119.172C45.5018 119.371 45.6335 119.608 45.7084 119.865C45.7833 120.122 45.7995 120.392 45.7558 120.656C45.712 120.92 45.6095 121.171 45.4557 121.39L42.3597 125.795C42.1436 126.104 41.835 126.335 41.4789 126.456C41.1227 126.577 40.7374 126.581 40.379 126.467H40.379Z" fill="#2F2E41"/>
<path d="M8.46488 90.1039C8.90712 87.4428 8.89087 84.6847 8.87509 82.0172C8.87085 81.2931 8.86652 80.5692 8.87095 79.8467C8.89153 76.4887 9.09924 72.9297 10.4675 69.6532C11.9567 66.0873 14.7144 63.5124 17.8445 62.7653C21.3734 61.9221 25.2025 63.7861 26.3553 66.8553C27.1173 66.4234 27.9654 66.1667 28.8384 66.1035C29.7113 66.0404 30.5874 66.1725 31.4033 66.4903C32.2192 66.808 32.9546 67.3035 33.5565 67.941C34.1584 68.5785 34.6117 69.3421 34.8838 70.1767C35.1559 71.0113 35.24 71.8961 35.1299 72.7672C35.0198 73.6383 34.7184 74.4741 34.2474 75.2142C33.7764 75.9543 33.1475 76.5803 32.4061 77.0469C31.6647 77.5136 30.8294 77.8093 29.9602 77.9128L29.8124 77.9259L28.6592 74.9191C28.6527 74.9718 28.6464 75.0251 28.6401 75.0788C28.5667 75.7023 28.4908 76.3469 27.9777 76.7192C27.3372 77.1841 26.5395 78.7139 26.7726 80.2638C26.9179 81.0569 27.1345 81.8351 27.4196 82.589C27.7366 83.4167 27.9666 84.2752 28.1061 85.1507C28.2527 86.2729 27.96 87.4085 27.2896 88.3188C27.0909 88.5845 26.8403 88.8068 26.5531 88.9721C26.266 89.1374 25.9483 89.2423 25.6194 89.2804L12.6208 90.629L12.0396 86.2728L8.34222 90.8417L8.46488 90.1039Z" fill="#2F2E41"/>
<path d="M76.0503 207H0.394043C0.289536 207 0.18931 206.958 0.115412 206.884C0.0415148 206.81 0 206.709 0 206.605C0 206.5 0.0415148 206.399 0.115412 206.325C0.18931 206.251 0.289536 206.209 0.394043 206.209H76.0503C76.1549 206.209 76.2551 206.251 76.329 206.325C76.4029 206.399 76.4444 206.5 76.4444 206.605C76.4444 206.709 76.4029 206.81 76.329 206.884C76.2551 206.958 76.1549 207 76.0503 207Z" fill="#CCCCCC"/>
</g>
<defs>
<clipPath id="clip0_173_424">
<rect width="287" height="207" fill="white"/>
</clipPath>
</defs>
</svg>
