<svg width="106" height="92" viewBox="0 0 106 92" fill="none" xmlns="http://www.w3.org/2000/svg">
<g clip-path="url(#clip0_1_3241)">
<path d="M30.7416 56.7666C30.4762 56.7893 30.2077 56.8081 29.9438 56.8225L29.9335 56.6318C30.3124 56.6111 30.6983 56.5812 31.0776 56.5435L31.0965 56.7337C30.9785 56.7454 30.8602 56.7564 30.7416 56.7666ZM32.2441 56.5932L32.2166 56.4041C32.5932 56.3494 32.9738 56.2853 33.348 56.2136L33.3842 56.4012C33.0072 56.4735 32.6237 56.5381 32.2441 56.5932ZM28.7884 56.8597C28.4042 56.8633 28.0153 56.8583 27.6323 56.8445L27.6394 56.6535C28.0195 56.6671 28.4054 56.6722 28.7867 56.6686L28.7884 56.8597ZM34.5142 56.1576L34.4694 55.9719C34.8406 55.8828 35.2139 55.7844 35.5786 55.6792L35.6319 55.8627C35.2643 55.9687 34.8883 56.068 34.5142 56.1576ZM26.4783 56.7767C26.0959 56.7455 25.709 56.705 25.3286 56.6563L25.3532 56.4667C25.7308 56.5151 26.1146 56.5552 26.4942 56.5861L26.4783 56.7767ZM36.735 55.517L36.6731 55.3361C37.0345 55.2135 37.397 55.0813 37.7508 54.943L37.8208 55.121C37.4643 55.2603 37.099 55.3936 36.735 55.517ZM24.1857 56.4834C23.8075 56.4172 23.4261 56.3414 23.0521 56.258L23.0942 56.0715C23.4654 56.1542 23.8438 56.2294 24.2191 56.295L24.1857 56.4834ZM38.8872 54.6755L38.809 54.5011C39.1566 54.3464 39.5054 54.1815 39.8458 54.0109L39.932 54.1816C39.589 54.3535 39.2375 54.5197 38.8872 54.6755L38.8872 54.6755ZM21.9272 55.98C21.5568 55.8794 21.1832 55.7686 20.817 55.6507L20.8762 55.4687C21.2396 55.5857 21.6103 55.6957 21.978 55.7956L21.9272 55.98ZM40.9505 53.6416L40.8564 53.475C41.187 53.2899 41.5185 53.0942 41.8417 52.8933L41.9433 53.0554C41.6177 53.2579 41.2836 53.455 40.9505 53.6416L40.9505 53.6416ZM42.9083 52.4244L42.7994 52.2672C43.1132 52.0515 43.4256 51.8263 43.7278 51.5978L43.8438 51.7499C43.5393 51.9802 43.2246 52.2072 42.9083 52.4244L42.9083 52.4244ZM44.7476 51.0333L44.6247 50.8867C44.9168 50.644 45.2074 50.3912 45.4884 50.1354L45.6179 50.2764C45.3348 50.5342 45.042 50.7889 44.7476 51.0333ZM15.5624 53.2664C15.2344 53.0696 14.9059 52.8622 14.5858 52.6498L14.6924 52.4908C15.0101 52.7015 15.3361 52.9074 15.6616 53.1026L15.5624 53.2664ZM46.4529 49.4807L46.3171 49.3456C46.5858 49.0776 46.8521 48.7995 47.109 48.5189L47.2509 48.6477C46.9921 48.9304 46.7236 49.2106 46.4529 49.4807L46.4529 49.4807ZM13.6387 51.9896C13.3295 51.7636 13.0214 51.5273 12.7229 51.2874L12.8436 51.1386C13.1399 51.3768 13.4457 51.6112 13.7524 51.8356L13.6387 51.9896ZM48.0101 47.7791L47.8624 47.6571C48.1063 47.365 48.3464 47.0637 48.576 46.7618L48.7291 46.877C48.4977 47.1813 48.2558 47.4848 48.0101 47.7791ZM11.8405 50.5445C11.553 50.291 11.2679 50.0279 10.9932 49.7626L11.127 49.6254C11.3996 49.8887 11.6825 50.1498 11.9679 50.4014L11.8405 50.5445ZM49.4062 45.9432L49.248 45.835C49.4641 45.5222 49.6756 45.2005 49.877 44.8785L50.04 44.9793C49.8372 45.3038 49.6239 45.6281 49.4062 45.9432L49.4062 45.9432ZM10.1826 48.9432C9.92011 48.6655 9.66038 48.3778 9.41065 48.0881L9.55638 47.9636C9.80422 48.251 10.062 48.5365 10.3225 48.8122L10.1826 48.9432ZM50.629 43.9876L50.4615 43.8942C50.6481 43.5632 50.8295 43.2234 51.0006 42.8842L51.1722 42.9699C50.9997 43.3117 50.8169 43.6541 50.629 43.9876L50.629 43.9876ZM8.67891 47.1992C8.44315 46.8989 8.21103 46.5891 7.98892 46.2781L8.14543 46.1672C8.36588 46.4759 8.59624 46.7834 8.83021 47.0813L8.67891 47.1992ZM51.6681 41.9282L51.4928 41.8505C51.6481 41.5039 51.7974 41.1488 51.9367 40.7951L52.1155 40.8648C51.9751 41.2212 51.8246 41.579 51.6681 41.9282ZM52.5133 39.7818L52.3315 39.7204C52.4542 39.3608 52.5702 38.9933 52.6762 38.6282L52.8607 38.6811C52.7539 39.0491 52.6369 39.4194 52.5133 39.7818ZM6.18395 43.3416C6.00722 43.0038 5.83601 42.6573 5.67508 42.3118L5.84934 42.2313C6.00901 42.5742 6.17891 42.9179 6.35424 43.2531L6.18395 43.3416ZM53.1567 37.5654L52.9699 37.5211C53.0586 37.1527 53.1399 36.7771 53.2114 36.4044L53.4001 36.4401C53.3279 36.8157 53.246 37.1943 53.1567 37.5654ZM5.21334 41.2571C5.06837 40.9039 4.9296 40.5424 4.80088 40.1823L4.98181 40.1181C5.10954 40.4754 5.24728 40.8343 5.39112 41.1847L5.21334 41.2571ZM53.591 35.3049L53.4009 35.2777C53.4551 34.9034 53.5012 34.5218 53.5382 34.1438L53.7293 34.1621C53.6921 34.5431 53.6456 34.9275 53.591 35.3049L53.591 35.3049ZM4.43876 39.0896C4.32707 38.7245 4.22235 38.3518 4.12754 37.9816L4.31358 37.9341C4.40773 38.3016 4.51164 38.6715 4.62248 39.0338L4.43876 39.0896ZM53.8146 33.0145L53.6227 33.0049C53.6422 32.6275 53.653 32.2435 53.655 31.8634L53.847 31.8641C53.845 32.2472 53.8341 32.6342 53.8146 33.0145L53.8146 33.0145ZM3.86772 36.8605C3.79026 36.4874 3.72029 36.1066 3.65969 35.7288L3.84937 35.6984C3.90944 36.0735 3.97893 36.4513 4.05582 36.8217L3.86772 36.8605ZM53.8268 30.7137L53.6349 30.7215C53.6196 30.3427 53.5954 29.9592 53.5631 29.5818L53.7544 29.5654C53.787 29.9457 53.8114 30.3321 53.8268 30.7137ZM3.5035 34.5886C3.47693 34.3556 3.45319 34.1177 3.43288 33.8815C3.42031 33.735 3.40902 33.5886 3.39902 33.4424L3.59065 33.4293C3.60055 33.5744 3.61174 33.7197 3.62421 33.8651C3.64437 34.0995 3.66797 34.3357 3.6943 34.567L3.5035 34.5886ZM3.53854 32.2885L3.34655 32.2929C3.33779 31.9104 3.3378 31.5232 3.34649 31.1422L3.53846 31.1464C3.52981 31.5246 3.52987 31.9088 3.53853 32.2885L3.53854 32.2885ZM53.205 26.8581C53.1346 26.486 53.0663 26.3074 52.9788 25.9384L53.1657 25.8943C53.2538 26.2662 53.3264 26.5496 53.3975 26.9246L53.205 26.8581ZM3.59067 30.0056L3.39908 29.9927C3.42539 29.6109 3.46093 29.2254 3.50472 28.8466L3.69547 28.8683C3.65204 29.2441 3.61677 29.6268 3.59067 30.0056ZM52.6895 24.8336C52.5847 24.4684 52.4703 24.1015 52.3494 23.7432L52.5314 23.6822C52.6532 24.0433 52.7685 24.413 52.8741 24.781L52.6895 24.8336ZM3.85263 27.7369L3.66307 27.7065C3.72434 27.3297 3.79535 26.949 3.87413 26.5748L4.06203 26.6139C3.98391 26.9852 3.91345 27.363 3.85263 27.7369ZM51.9591 22.6695C51.8213 22.316 51.6735 21.9613 51.5196 21.6149L51.6952 21.5375C51.8503 21.8865 51.9993 22.244 52.1382 22.6002L51.9591 22.6695ZM4.32415 25.4986L4.13823 25.4509C4.23451 25.08 4.34077 24.7065 4.45405 24.3408L4.63759 24.397C4.52515 24.7599 4.41968 25.1305 4.32415 25.4986ZM51.0316 20.5817C50.8619 20.2432 50.6823 19.9043 50.4976 19.5743L50.6654 19.4812C50.8515 19.8137 51.0326 20.1552 51.2034 20.4962L51.0316 20.5817ZM5.00163 23.3113L4.82094 23.2467C4.95104 22.8866 5.09133 22.5246 5.23792 22.1709L5.41545 22.2436C5.26994 22.5947 5.13073 22.9539 5.00163 23.3113ZM49.9176 18.5921C49.7175 18.2706 49.5072 17.9492 49.2925 17.6371L49.4509 17.529C49.6674 17.8436 49.8792 18.1673 50.0808 18.4913L49.9176 18.5921ZM5.87811 21.1963L5.70413 21.1155C5.8667 20.7693 6.03967 20.4218 6.21826 20.0828L6.3883 20.1715C6.21109 20.5079 6.0394 20.8527 5.87811 21.1963ZM48.6239 16.7113C48.3943 16.4083 48.1552 16.1073 47.9134 15.8167L48.0612 15.6947C48.3049 15.9875 48.5459 16.2908 48.7773 16.5961L48.6239 16.7113ZM6.94501 19.1712L6.77921 19.0748C6.97308 18.7445 7.17708 18.4144 7.38569 18.0936L7.54687 18.1973C7.33988 18.5158 7.13736 18.8434 6.94501 19.1712ZM47.1622 14.9551C46.9059 14.6743 46.6401 14.396 46.3722 14.1282L46.5084 13.9933C46.7783 14.2632 47.0461 14.5435 47.3044 14.8264L47.1622 14.9551ZM8.19258 17.2521L8.03634 17.1411C8.25905 16.8305 8.49234 16.5203 8.72971 16.2192L8.88071 16.3371C8.64517 16.636 8.41366 16.9438 8.19258 17.2521ZM45.5451 13.3377C45.2642 13.0813 44.9739 12.8282 44.6824 12.5855L44.8057 12.4388C45.0994 12.6834 45.3919 12.9384 45.6749 13.1968L45.5451 13.3377ZM9.60973 15.4546L9.46426 15.3299C9.71501 15.04 9.97555 14.7524 10.2386 14.4749L10.3782 14.6061C10.1171 14.8814 9.85859 15.1669 9.60973 15.4546ZM43.7862 11.8729C43.4827 11.6428 43.1704 11.4169 42.8579 11.2016L42.9673 11.0444C43.2821 11.2614 43.5968 11.4889 43.9026 11.7208L43.7862 11.8729ZM11.1844 13.7933L11.051 13.6559C11.3263 13.3907 11.6118 13.1279 11.8997 12.8748L12.0268 13.018C11.7411 13.2692 11.4577 13.53 11.1844 13.7933ZM12.9034 12.2821L12.7831 12.1332C13.0816 11.894 13.3899 11.6583 13.6993 11.4327L13.8127 11.5869C13.5056 11.8108 13.1997 12.0447 12.9034 12.2821ZM14.7526 10.9339L14.6464 10.7747C14.9659 10.5635 15.2942 10.3569 15.6224 10.1608L15.7212 10.3247C15.3955 10.5193 15.0696 10.7242 14.7526 10.9339ZM37.8062 8.5121C37.4513 8.37247 37.0886 8.23929 36.7281 8.11625L36.7905 7.93545C37.1538 8.05941 37.5193 8.19363 37.877 8.33433L37.8062 8.5121ZM16.7164 9.7604L16.6254 9.59219C16.9626 9.4111 17.3084 9.2355 17.653 9.07025L17.7362 9.2425C17.3942 9.40645 17.0511 9.5807 16.7164 9.7604ZM35.6324 7.77015C35.2664 7.6638 34.8926 7.56443 34.5214 7.47488L34.5668 7.28906C34.9408 7.37937 35.3175 7.47947 35.6863 7.58671L35.6324 7.77015ZM18.7815 8.77071L18.7063 8.59487C19.0598 8.44502 19.4212 8.30148 19.7805 8.16832L19.8474 8.3474C19.4908 8.47957 19.1322 8.62199 18.7815 8.77071ZM33.4005 7.23159C33.0267 7.15935 32.6462 7.09484 32.2697 7.03988L32.2977 6.85079C32.6772 6.90615 33.0605 6.97116 33.4373 7.0439L33.4005 7.23159ZM20.9318 7.97342L20.8732 7.79142C21.2387 7.67469 21.6118 7.56489 21.9821 7.46512L22.0322 7.64958C21.6647 7.74864 21.2945 7.85758 20.9318 7.97342ZM31.1311 6.90036C30.7525 6.86271 30.3677 6.83333 29.9872 6.81304L29.9976 6.62218C30.381 6.64264 30.7688 6.67223 31.1503 6.71014L31.1311 6.90036ZM23.1465 7.37645L23.105 7.18986C23.4794 7.10706 23.861 7.03172 24.239 6.96604L24.2719 7.15431C23.8967 7.21955 23.5181 7.29427 23.1465 7.37645ZM28.8405 6.77801C28.4606 6.775 28.0746 6.78065 27.6933 6.79496L27.6863 6.6039C28.0705 6.58955 28.4593 6.58383 28.8422 6.58687L28.8405 6.77801ZM25.4066 6.98341L25.3822 6.79384C25.7326 6.74908 26.0904 6.7109 26.4457 6.68034L26.5323 6.67305L26.5481 6.86354L26.462 6.87078C26.1094 6.90111 25.7543 6.93902 25.4066 6.9834L25.4066 6.98341Z" fill="#3F3D56"/>
<path d="M57.9991 13.0104L63.2931 74.7326C63.3554 75.4679 63.1219 76.198 62.644 76.7625C62.166 77.3271 61.4827 77.6799 60.744 77.7435L35.5689 79.9028C35.203 79.9348 34.8343 79.8946 34.4841 79.7846C34.1339 79.6746 33.809 79.4968 33.5281 79.2615C33.2471 79.0262 33.0156 78.738 32.8468 78.4134C32.678 78.0888 32.5752 77.7342 32.5443 77.3699L27.2504 15.6477C27.2191 15.2834 27.2602 14.9165 27.3714 14.568C27.4826 14.2194 27.6616 13.896 27.8983 13.6163C28.135 13.3365 28.4247 13.1058 28.7509 12.9374C29.077 12.7691 29.4333 12.6662 29.7993 12.6349L33.5667 12.3118L33.6079 12.7926C33.6598 13.3983 33.9513 13.9585 34.4182 14.35C34.8852 14.7415 35.4894 14.9322 36.098 14.8802L48.9022 13.782C49.3922 13.741 49.8558 13.5438 50.2244 13.2197C50.299 13.1552 50.369 13.0858 50.434 13.0117C50.6399 12.7795 50.7962 12.5081 50.8936 12.214C50.9909 11.9199 51.0273 11.6093 51.0004 11.3009L50.9592 10.82L54.9744 10.4756C55.3404 10.4441 55.709 10.4847 56.0591 10.595C56.4092 10.7054 56.734 10.8833 57.0149 11.1187C57.2958 11.3541 57.5273 11.6423 57.6961 11.9669C57.865 12.2915 57.968 12.6461 57.9991 13.0104Z" fill="#3F3D56"/>
<path d="M55.989 32.8025L32.6014 34.8085L34.1205 52.5196L57.5081 50.5136L55.989 32.8025Z" fill="#FFD5AA"/>
<path d="M20.0299 32.8806C22.116 32.7465 23.9013 34.1064 23.9013 34.1064C23.9013 34.1064 22.3043 35.6837 20.2182 35.8179C18.1321 35.952 16.3468 34.5921 16.3468 34.5921C16.3468 34.5921 17.9438 33.0148 20.0299 32.8806Z" fill="#FFD5AA"/>
<path d="M8.95445 26.7038C10.912 27.4321 13.0175 26.6438 13.0175 26.6438C13.0175 26.6438 11.9491 24.6749 9.99156 23.9467C8.03399 23.2184 5.92852 24.0067 5.92852 24.0067C5.92852 24.0067 6.99689 25.9756 8.95445 26.7038Z" fill="#FFD5AA"/>
<path d="M9.06986 25.8034C11.1278 25.4369 13.0554 26.5884 13.0554 26.5884C13.0554 26.5884 11.6464 28.3342 9.58847 28.7007C7.53052 29.0673 5.60291 27.9158 5.60291 27.9158C5.60291 27.9158 7.01191 26.17 9.06986 25.8034Z" fill="#3F3D56"/>
<path d="M16.7036 25.5087C16.6818 27.5894 18.1425 29.2902 18.1425 29.2902C18.1425 29.2902 19.6386 27.6177 19.6604 25.5371C19.6822 23.4565 18.2215 21.7556 18.2215 21.7556C18.2215 21.7556 16.7254 23.4281 16.7036 25.5087Z" fill="#3F3D56"/>
<path d="M27.5572 37.3267C26.6209 39.1878 27.1838 41.3546 27.1838 41.3546C27.1838 41.3546 29.2647 40.504 30.2009 38.6429C31.1372 36.7819 30.5743 34.6151 30.5743 34.6151C30.5743 34.6151 28.4934 35.4656 27.5572 37.3267Z" fill="#3F3D56"/>
<path d="M26.0496 56.8177L26.199 56.6974C25.571 55.9382 25.184 55.01 25.0873 54.0309C24.9687 52.5968 25.5625 51.2099 26.1368 49.8687C26.2434 49.6198 26.3497 49.3716 26.4511 49.124C26.8794 48.1132 27.1994 47.0604 27.406 45.9829C28.1307 41.9659 26.6884 37.4237 23.5479 33.8324C21.0566 30.9834 17.5035 28.61 12.6857 26.5766L12.6106 26.7526C17.401 28.7744 20.9312 31.1313 23.403 33.9579C26.5057 37.506 27.9315 41.9888 27.217 45.9493C27.0127 47.0136 26.6965 48.0535 26.2734 49.052C26.1722 49.2986 26.0664 49.5458 25.9602 49.7939C25.3767 51.1565 24.7734 52.5655 24.8959 54.0468C24.9959 55.0641 25.3975 56.0285 26.0496 56.8177Z" fill="#3F3D56"/>
<path d="M3.62109 27.6061C4.62498 27.52 5.36931 26.6402 5.28361 25.641C5.19791 24.6418 4.31463 23.9016 3.31074 23.9877C2.30685 24.0738 1.56252 24.9537 1.64822 25.9528C1.73392 26.952 2.61721 27.6922 3.62109 27.6061Z" fill="#3F3D56"/>
<path d="M31.5723 52.9698L20.0809 53.0021L18.6522 36.3453L30.0138 34.7988L31.5723 52.9698Z" fill="#FFD5AA"/>
<path d="M60.0957 50.5233L71.4247 48.5983L69.9961 31.9415L58.5371 32.3523L60.0957 50.5233Z" fill="#FFD5AA"/>
<path d="M48.8316 40.113C48.4671 39.8503 48.0327 39.7004 47.5829 39.6823C47.1331 39.6642 46.6878 39.7785 46.3027 40.0111C45.968 40.2091 45.6015 40.3483 45.2194 40.4225C45.1385 39.592 45.221 38.7535 45.4624 37.9541L45.5018 37.8202L44.8311 37.8777L44.8179 37.9494C44.7666 38.2292 44.7315 38.5116 44.7129 38.7953C44.6662 38.6771 44.6091 38.5631 44.5423 38.4548C43.9923 37.5669 42.8729 37.2804 42.8254 37.2687L42.7301 37.2451L42.7085 37.3405C42.6978 37.388 42.4524 38.5127 43.0023 39.4006C43.3961 40.0364 44.0817 40.3637 44.4568 40.5027C43.998 40.5126 43.5418 40.4321 43.1144 40.2658C42.8475 40.1566 42.555 40.1245 42.2705 40.1732C41.986 40.2219 41.7209 40.3493 41.5057 40.541C40.3348 41.5954 39.7357 43.0453 39.862 44.5188C40.0281 46.4544 41.4395 48.1191 43.458 48.7596C43.64 48.8171 43.8317 48.8382 44.0221 48.8216C44.2864 48.799 44.5398 48.7059 44.7556 48.5522C45.0427 48.3513 45.378 48.2294 45.7274 48.1988C46.0769 48.1681 46.4282 48.2297 46.746 48.3774C46.9517 48.4756 47.1775 48.5248 47.4056 48.5213C47.6338 48.5177 47.858 48.4615 48.0607 48.3569C49.9289 47.3799 51.0292 45.5029 50.8639 43.5751C50.7455 42.1953 50.0237 40.9658 48.8316 40.113ZM44.9939 38.0556L45.2401 38.0345C45.0265 38.7965 44.9524 39.5905 45.0214 40.3785L44.9774 40.3823C44.8516 39.6114 44.8571 38.8248 44.9939 38.0556ZM43.1659 39.3003C42.7483 38.6262 42.8329 37.7728 42.8778 37.4834C43.1575 37.573 43.9605 37.8799 44.3788 38.5552C44.7962 39.2292 44.7117 40.0825 44.6668 40.372C44.3869 40.282 43.5833 39.9742 43.1659 39.3003ZM47.9714 48.1877C47.7953 48.2785 47.6004 48.3274 47.4021 48.3303C47.2038 48.3333 47.0076 48.2904 46.8289 48.2049C46.4801 48.0424 46.0944 47.9746 45.7107 48.0084C45.327 48.0421 44.9589 48.1761 44.6438 48.3969C44.4828 48.5119 44.2971 48.5881 44.1014 48.6195C43.9057 48.6508 43.7055 48.6365 43.5164 48.5775C41.5721 47.9605 40.2128 46.3609 40.0534 44.5023C39.9321 43.0889 40.5084 41.6967 41.6344 40.6827C41.8505 40.4892 42.1243 40.3714 42.4138 40.3473C42.6276 40.3288 42.8427 40.3615 43.0412 40.4426C43.5866 40.6466 44.1706 40.7283 44.7516 40.6819C45.3326 40.6355 45.8963 40.4622 46.4025 40.1743C46.7553 39.9613 47.1633 39.8566 47.5754 39.8733C47.9876 39.8901 48.3855 40.0275 48.7194 40.2683C49.8654 41.088 50.5591 42.2682 50.6726 43.5915C50.8313 45.4425 49.771 47.2465 47.9714 48.1877Z" fill="#964B00"/>
<path d="M24.7129 40.3688L24.6938 40.1453L24.783 40.1376L24.7233 39.4412C24.7192 39.3895 24.7009 39.34 24.6705 39.298C24.64 39.256 24.5985 39.2232 24.5505 39.2031C24.1381 39.0319 23.7138 39.0685 23.2894 39.3122C23.2426 39.3395 23.2045 39.3794 23.1795 39.4273C23.1546 39.4753 23.1439 39.5293 23.1486 39.583L23.2077 40.2728L23.297 40.2651L23.3143 40.4675C22.9936 40.5873 22.7212 40.8086 22.5388 41.0972C22.3564 41.3859 22.2741 41.7261 22.3046 42.0656L22.4339 43.5726L22.6087 43.6145L22.4484 43.7418L22.4872 44.1947L22.6621 44.2366L22.5017 44.364L22.5406 44.8168L22.7154 44.8587L22.5551 44.9861L22.8509 48.4352C22.8743 48.7042 23.0039 48.953 23.2114 49.1268C23.4188 49.3007 23.6872 49.3855 23.9575 49.3626L25.4605 49.2337C25.7301 49.2102 25.9795 49.0813 26.154 48.8751C26.3284 48.669 26.4136 48.4024 26.3909 48.134L26.0948 44.6825L25.9151 44.5842L26.0803 44.5132L26.0415 44.0604L25.8618 43.9621L26.0269 43.8911L25.9881 43.4382L25.8084 43.34L25.9736 43.269L25.8377 41.6842C25.8101 41.3759 25.6871 41.0839 25.4856 40.8483C25.2842 40.6127 25.0142 40.4452 24.7129 40.3688ZM23.3852 39.4778C23.7603 39.2626 24.1174 39.2304 24.4765 39.3795C24.4919 39.3863 24.5053 39.3972 24.515 39.4109C24.5248 39.4247 24.5307 39.4408 24.532 39.4576L24.5639 39.8303L23.3713 39.9326L23.3399 39.5666C23.3382 39.5491 23.3416 39.5314 23.3496 39.5157C23.3576 39.4999 23.37 39.4868 23.3852 39.4778ZM25.7705 43.1482L25.3718 43.3195L25.8055 43.5566L25.8238 43.7703L25.4252 43.9416L25.8589 44.1787L25.8772 44.3924L25.4785 44.5637L25.9122 44.8008L26.1995 48.1504C26.218 48.3683 26.1488 48.5847 26.0072 48.7521C25.8656 48.9195 25.6631 49.0242 25.4441 49.0432L23.9411 49.1721C23.7215 49.1907 23.5036 49.1218 23.3351 48.9806C23.1666 48.8394 23.0613 48.6374 23.0423 48.4188L22.7552 45.0716L23.1421 44.7641L22.7201 44.6632L22.7018 44.4495L23.0888 44.142L22.6668 44.041L22.6484 43.8273L23.0354 43.5199L22.6134 43.4189L22.4959 42.0492C22.4682 41.7397 22.5471 41.4299 22.7198 41.1709C22.8924 40.9118 23.1485 40.719 23.4459 40.624L23.5185 40.6006L23.4883 40.2487L24.5024 40.1617L24.5337 40.5264L24.6044 40.5404C24.8805 40.5963 25.131 40.7394 25.3188 40.9484C25.5065 41.1574 25.6214 41.4212 25.6463 41.7006L25.7705 43.1482Z" fill="#964B00"/>
<path d="M69.9069 39.1196L69.417 39.0651L69.511 38.8296L69.2863 38.8045L69.3049 38.5726L69.0602 38.5532L69.0416 38.3363L68.8411 38.2974L69.0071 38.0504L68.6847 38.078L68.7377 37.9048L68.4959 37.8858L68.5526 37.5966L68.2946 37.6187L68.2721 37.3554L68.1764 37.3636C67.875 37.3895 67.7375 37.7602 67.6945 37.9076C66.0554 38.3392 61.5099 42.0842 60.9913 42.5145C60.7559 42.4602 60.431 42.6628 60.3634 42.7073L60.2563 42.7779L60.4321 42.9252L60.3962 43.0735L60.703 43.1589L60.6518 43.3265L60.8523 43.4658L60.6949 43.6059L60.961 43.7354L60.9355 43.9601L61.2216 43.9761L61.2406 44.1973L61.4075 44.2159L61.3502 44.5084L61.5325 44.4928L61.5518 44.7186L61.7297 44.7033L61.831 44.9369L61.9123 44.9132C62.1015 44.8584 62.2436 44.5792 62.298 44.4562C63.876 44.0341 68.5262 40.1452 68.9787 39.7647C69.5466 39.7835 69.7404 39.6163 69.761 39.5968L69.8462 39.5161L69.6122 39.3537L69.9069 39.1196ZM68.9498 39.5722L68.9121 39.5704L68.8832 39.5948C68.8319 39.6381 63.7343 43.9294 62.2064 44.282L62.1574 44.2933L62.1388 44.3399C62.0898 44.4653 62.0191 44.5812 61.9298 44.6822L61.8513 44.501L61.7268 44.5117L61.7075 44.2859L61.5874 44.2962L61.6361 44.0491L61.4186 44.0248L61.3988 43.7946L61.1491 43.7807L61.167 43.6227L61.0357 43.5588L61.1613 43.4472L60.8761 43.2492L60.9438 43.0275L60.6264 42.9391L60.6467 42.8551L60.5822 42.801C60.7208 42.7292 60.8908 42.6701 60.9693 42.7081L61.0253 42.7354L61.0731 42.6955C61.1241 42.653 66.1913 38.4392 67.7939 38.0801L67.8537 38.0667L67.8668 38.007C67.8869 37.9146 67.9664 37.6787 68.0993 37.5889L68.1196 37.8256L68.3154 37.8088L68.2661 38.0594L68.4844 38.0766L68.4183 38.2927L68.6253 38.2749L68.521 38.4302L68.8626 38.4964L68.8827 38.7309L69.0982 38.748L69.08 38.974L69.2398 38.9917L69.1457 39.2272L69.4247 39.2583L69.2915 39.3641L69.509 39.5152C69.3277 39.5683 69.1381 39.5876 68.9498 39.5722Z" fill="#964B00"/>
<path d="M46.5086 59.6104C48.0408 59.479 49.1769 58.1361 49.0461 56.611C48.9153 55.0859 47.5671 53.9562 46.0349 54.0876C44.5026 54.219 43.3665 55.5619 43.4973 57.0869C43.6282 58.612 44.9763 59.7418 46.5086 59.6104Z" fill="#FFD5AA"/>
<path d="M47.9951 56.4264L46.5223 56.5528L46.3965 55.0868L45.8485 55.1338L45.9743 56.5998L44.5015 56.7261L44.5482 57.2715L46.0211 57.1452L46.1468 58.6111L46.6948 58.5641L46.569 57.0982L48.0419 56.9719L47.9951 56.4264Z" fill="#964B00"/>
<path d="M55.0301 56.1937L53.538 55.6502L53.5706 56.0311L50.2222 56.3183L50.2712 56.8896L53.6196 56.6024L53.6523 56.9833L55.0301 56.1937Z" fill="white"/>
<path d="M37.5297 57.6947L38.9076 56.9051L38.9402 57.286L42.2886 56.9988L42.3376 57.5701L38.9892 57.8573L39.0219 58.2382L37.5297 57.6947Z" fill="white"/>
<path d="M83.2208 75.8377L13.0959 81.8524L13.1123 82.0428L83.2371 76.0281L83.2208 75.8377Z" fill="#3F3D56"/>
<path d="M52.3442 19.7821L33.976 21.3575L33.9923 21.548L52.3605 19.9725L52.3442 19.7821Z" fill="white"/>
<path d="M56.8479 71.7689L38.4796 73.3443L38.4959 73.5348L56.8643 71.9593L56.8479 71.7689Z" fill="white"/>
<path d="M84.7486 50.4313L84.4254 52.2816C84.4254 52.2816 83.0301 56.2381 84.7684 56.2808C86.5068 56.3236 86.1614 51.1735 86.1614 51.1735L84.7486 50.4313Z" fill="#A0616A"/>
<path d="M86.5954 37.1317L84.3111 50.9485C84.3111 50.9485 85.6831 51.2145 86.3936 51.6332L86.5954 37.1317Z" fill="#D0CDE1"/>
<path d="M98.288 46.4884L100.511 61.1655C100.511 61.1655 103.305 66.7771 103.683 72.3081C103.683 72.3081 103.01 74.572 103.712 74.8955C104.414 75.2189 104.822 75.4718 104.463 75.7903C104.105 76.1087 103.875 76.7999 104.179 76.9657C104.482 77.1315 104.602 77.409 104.507 77.4172L101.636 77.6634C101.636 77.6634 102.088 76.1858 101.194 75.8788C100.301 75.5718 100.697 74.5785 100.697 74.5785L92.6867 56.465L89.0864 74.0397C89.0864 74.0397 89.9964 74.5371 89.3513 74.8802C88.7061 75.2233 88.3701 74.6766 88.7061 75.2233C89.0421 75.77 88.6839 76.0885 88.6921 76.1838C88.7003 76.279 85.7975 76.1443 85.7975 76.1443C85.7975 76.1443 87.1264 74.7833 86.4322 74.5551C85.738 74.3269 85.4265 74.0658 85.6015 73.859C85.7765 73.6521 86.3867 71.7773 86.3867 71.7773C86.3867 71.7773 86.1813 64.8885 86.2525 64.5947C86.3237 64.3008 86.1137 62.9759 86.0565 62.3094C85.9993 61.6428 85.675 58.9848 85.9048 58.2937C86.1346 57.6025 85.7193 49.3889 87.1683 48.3054C88.6173 47.2219 98.288 46.4884 98.288 46.4884Z" fill="#2F2E41"/>
<path d="M88.5555 75.7159C88.5555 75.7159 90.8037 79.4558 89.5052 80.0468C88.2067 80.6378 86.452 80.4046 86.1183 81.0087C85.7847 81.6129 81.6324 82.6405 81.4142 81.2204C81.1961 79.8003 85.6551 76.732 85.6551 76.732L86.1818 75.7009L88.5555 75.7159Z" fill="#2F2E41"/>
<path d="M104.299 77.2432C104.299 77.2432 106.547 80.9831 105.249 81.5741C103.95 82.1651 102.195 81.9319 101.862 82.536C101.528 83.1402 97.3758 84.1678 97.1576 82.7477C96.9395 81.3276 101.399 78.2593 101.399 78.2593L101.925 77.2283L104.299 77.2432Z" fill="#2F2E41"/>
<path d="M91.2475 29.011C92.9911 28.8615 94.2839 27.3334 94.135 25.5979C93.9862 23.8625 92.452 22.5769 90.7084 22.7264C88.9649 22.876 87.6721 24.4041 87.8209 26.1395C87.9698 27.8749 89.5039 29.1605 91.2475 29.011Z" fill="#A0616A"/>
<path d="M93.2734 27.3505L93.1276 30.1447L90.4454 32.5809L89.5902 31.5992L89.2799 27.9808L93.2734 27.3505Z" fill="#A0616A"/>
<path d="M89.0792 31.2593C89.0792 31.2593 92.0695 31.2906 93.5103 30.1119L98.1153 47.8461C98.1153 47.8461 87.3783 49.6303 86.8509 49.1L86.3691 43.4819L87.4984 34.1766L89.0792 31.2593Z" fill="#3F3D56"/>
<path d="M93.173 29.274L94.2756 30.0462C94.2756 30.0462 98.5422 30.3517 98.3532 31.519L98.3649 45.1388L99.1396 49.6766C99.1396 49.6766 95.8134 49.0986 93.3995 50.1689C90.9856 51.2393 91.3087 31.7968 91.3087 31.7968C91.3087 31.7968 93.4121 29.5378 93.173 29.274Z" fill="#D0CDE1"/>
<path d="M89.5078 30.6383C89.5078 30.6383 86.635 33.0996 86.3748 34.5607C86.1147 36.0219 86.1614 51.1735 86.1614 51.1735C86.1614 51.1735 86.7109 50.8386 87.0387 51.2901C87.3666 51.7415 90.0507 31.3504 89.5078 30.6383Z" fill="#D0CDE1"/>
<path d="M99.6343 49.826L99.1395 52.1122C99.1395 52.1122 99.3205 56.2797 96.9754 55.9053C94.6304 55.5309 97.1796 50.4203 97.1796 50.4203L97.7594 49.3154L99.6343 49.826Z" fill="#A0616A"/>
<path d="M87.8106 26.0025C87.8106 26.0025 87.425 25.5215 87.5093 24.9607C87.5611 24.642 87.5645 24.3174 87.5194 23.9978C87.5194 23.9978 87.7192 23.0844 87.9526 22.5635C88.186 22.0427 88.0366 21.8446 88.8907 21.6132C89.7448 21.3818 89.2934 20.2871 91.685 21.3076C91.7713 21.4083 91.8857 21.4811 92.0137 21.5171C92.1417 21.553 92.2775 21.5504 92.4041 21.5096C92.8695 21.3774 93.0964 22.0169 93.0964 22.0169C93.0964 22.0169 93.3962 21.8067 93.537 22.0582C93.6777 22.3097 94.4853 21.8187 94.6368 23.5849C94.7883 25.3512 93.9637 27.0113 93.9637 27.0113C93.9637 27.0113 93.7793 24.0342 92.1892 23.8674C90.5992 23.7007 88.8414 22.9684 88.5304 24.1285C88.3646 24.7789 88.123 25.4078 87.8106 26.0025Z" fill="#2F2E41"/>
<path d="M93.9279 26.1894C94.0983 26.1748 94.2207 25.9796 94.2013 25.7535C94.1819 25.5273 94.028 25.3558 93.8576 25.3705C93.6872 25.3851 93.5648 25.5803 93.5842 25.8064C93.6036 26.0325 93.7575 26.204 93.9279 26.1894Z" fill="#A0616A"/>
<path d="M97.5306 30.9181C97.5306 30.9181 99.0287 30.4059 99.7275 32.9359C100.426 35.4658 101.629 42.7486 101.629 42.7486L99.9948 50.6584C99.9948 50.6584 97.5925 49.6175 97.1305 49.849L98.363 42.998L96.2578 36.303C96.2578 36.303 97.148 30.9509 97.5306 30.9181Z" fill="#D0CDE1"/>
<path opacity="0.15" d="M95.7655 36.4764L98.3462 42.9695L96.9171 49.9026L97.4852 43.0434L95.7655 36.4764Z" fill="black"/>
</g>
<defs>
<clipPath id="clip0_1_3241">
<rect width="98.9457" height="82.6904" fill="white" transform="translate(0.188354 8.93243) rotate(-4.9023)"/>
</clipPath>
</defs>
</svg>
