<svg width="134" height="101" viewBox="0 0 134 101" fill="none" xmlns="http://www.w3.org/2000/svg">
<g clip-path="url(#clip0_1_3136)">
<path d="M28.5133 97.5612C23.5037 96.9432 18.8468 94.6611 15.2889 91.0808C11.7311 87.5004 9.47833 82.8292 8.89182 77.8159C8.74569 76.5669 8.70795 75.2768 9.08191 74.0761C9.45588 72.8754 10.2994 71.7679 11.4814 71.3383C12.7714 70.8696 14.2528 71.2816 15.3668 72.0833C16.4808 72.885 17.2934 74.0299 18.0529 75.1731C22.6275 82.0588 26.4092 89.5966 28.5111 97.5918L28.5133 97.5612Z" fill="#F2F2F2"/>
<path d="M10.9112 71.664L14.1929 77.0591L17.4746 82.4543C18.514 84.1629 19.5519 85.8726 20.6164 87.5657C21.6716 89.2439 22.7533 90.9061 23.8876 92.5321C25.0204 94.1558 26.206 95.7435 27.4668 97.2702C27.6238 97.4603 27.782 97.6495 27.9413 97.8377C28.0516 97.968 28.2625 97.8056 28.1515 97.6743C26.8723 96.1626 25.6696 94.5878 24.5233 92.9733C23.3757 91.3571 22.284 89.702 21.2221 88.0285C20.1545 86.3461 19.1169 84.6449 18.0813 82.9427C16.9912 81.1509 15.9013 79.3591 14.8115 77.5672L11.5298 72.172L11.1214 71.5006C11.0326 71.3546 10.823 71.5189 10.9112 71.664L10.9112 71.664Z" fill="white"/>
<path d="M27.4667 97.7406C24.699 98.7721 21.6651 98.8445 18.8514 97.9461C16.0377 97.0478 13.607 95.2307 11.9491 92.7862C11.536 92.1772 11.1682 91.5176 11.0382 90.7932C10.9082 90.0689 11.0472 89.2662 11.5449 88.7241C12.0881 88.1325 12.9684 87.9464 13.7632 88.0619C14.558 88.1774 15.289 88.5525 15.9919 88.941C20.2259 91.2809 24.2242 94.1736 27.4739 97.757L27.4667 97.7406Z" fill="#F2F2F2"/>
<path d="M11.3367 89.0471L14.4969 90.9622L17.6572 92.8774C18.6581 93.4839 19.6585 94.0913 20.6683 94.6829C21.6692 95.2694 22.6795 95.8403 23.7074 96.3783C24.7338 96.9155 25.778 97.4197 26.8447 97.872C26.9776 97.9283 27.1108 97.9838 27.2443 98.0385C27.3367 98.0764 27.4024 97.9351 27.3093 97.897C26.2371 97.4574 25.1875 96.9645 24.1565 96.4358C23.1244 95.9065 22.1108 95.3419 21.1077 94.7597C20.0992 94.1745 19.1012 93.5714 18.104 92.9672C17.0544 92.3312 16.0048 91.6951 14.9552 91.059L11.7949 89.1439L11.4017 88.9056C11.3161 88.8537 11.2517 88.9956 11.3367 89.0471L11.3367 89.0471Z" fill="white"/>
<path d="M121.429 0.523561L44.7023 10.7003C44.41 10.7394 44.1451 10.8929 43.9658 11.127C43.7864 11.3612 43.7073 11.657 43.7458 11.9494L50.6417 63.9407C50.6808 64.2331 50.8343 64.498 51.0685 64.6773C51.3026 64.8567 51.5984 64.9358 51.8908 64.8973L128.617 54.7206C128.91 54.6815 129.175 54.528 129.354 54.2938C129.533 54.0597 129.612 53.7639 129.574 53.4715L122.678 1.48013C122.639 1.18778 122.486 0.922882 122.251 0.743551C122.017 0.564221 121.721 0.485104 121.429 0.523561ZM129.259 53.5133C129.287 53.7222 129.23 53.9335 129.102 54.1008C128.974 54.2681 128.785 54.3777 128.576 54.4055L51.849 64.5822C51.6401 64.6098 51.4288 64.5534 51.2615 64.4253C51.0942 64.2971 50.9846 64.1078 50.9568 63.899L44.0609 11.9076C44.0332 11.6987 44.0897 11.4874 44.2178 11.3201C44.3459 11.1528 44.5352 11.0432 44.7441 11.0154L121.471 0.83866C121.68 0.811037 121.891 0.867489 122.058 0.995611C122.226 1.12373 122.335 1.31304 122.363 1.52192L129.259 53.5133Z" fill="#3F3D56"/>
<path d="M122.96 4.81587L44.343 15.2433L44.3848 15.5584L123.002 5.13097L122.96 4.81587Z" fill="#3F3D56"/>
<path d="M46.8743 13.7789C47.3964 13.7097 47.7634 13.2303 47.6942 12.7083C47.625 12.1862 47.1456 11.8191 46.6235 11.8884C46.1014 11.9576 45.7344 12.437 45.8036 12.959C45.8728 13.4811 46.3522 13.8482 46.8743 13.7789Z" fill="#3F3D56"/>
<path d="M49.5919 13.4185C50.114 13.3492 50.4811 12.8699 50.4119 12.3478C50.3426 11.8257 49.8633 11.4586 49.3412 11.5279C48.8191 11.5971 48.452 12.0765 48.5213 12.5986C48.5905 13.1206 49.0699 13.4877 49.5919 13.4185Z" fill="#3F3D56"/>
<path d="M52.3097 13.058C52.8318 12.9888 53.1989 12.5094 53.1296 11.9873C53.0604 11.4652 52.581 11.0982 52.0589 11.1674C51.5369 11.2367 51.1698 11.716 51.239 12.2381C51.3083 12.7602 51.7876 13.1272 52.3097 13.058Z" fill="#3F3D56"/>
<path d="M64.5141 20.0164L51.2799 21.7718C50.9874 21.8106 50.6915 21.7316 50.4573 21.5522C50.223 21.3728 50.0696 21.1077 50.0308 20.8152C49.992 20.5227 50.071 20.2268 50.2504 19.9925C50.4298 19.7583 50.6949 19.6049 50.9874 19.5661L64.2215 17.8107C64.514 17.7719 64.81 17.8509 65.0442 18.0303C65.2785 18.2097 65.4319 18.4748 65.4707 18.7673C65.5094 19.0598 65.4305 19.3557 65.2511 19.59C65.0717 19.8242 64.8066 19.9776 64.5141 20.0164Z" fill="#CCCCCC"/>
<path d="M83.3427 22.97L51.9904 27.1284C51.6979 27.1672 51.402 27.0883 51.1677 26.9089C50.9334 26.7295 50.78 26.4644 50.7412 26.1719C50.7025 25.8794 50.7814 25.5835 50.9608 25.3492C51.1402 25.1149 51.4053 24.9615 51.6978 24.9228L83.0502 20.7643C83.3427 20.7255 83.6386 20.8045 83.8729 20.9839C84.1071 21.1633 84.2605 21.4284 84.2993 21.7209C84.3381 22.0134 84.2591 22.3093 84.0797 22.5435C83.9003 22.7778 83.6352 22.9312 83.3427 22.97Z" fill="#CCCCCC"/>
<path d="M93.7432 23.7585C92.552 26.1077 92.0248 28.7376 92.2187 31.3644C92.4125 33.9912 93.32 36.5152 94.8433 38.6641C96.3665 40.8129 98.4476 42.505 100.862 43.5577C103.277 44.6104 105.933 44.9838 108.544 44.6376L106.884 32.1218L93.7432 23.7585Z" fill="#FFD5AA"/>
<path d="M104.741 15.9635C102.412 16.2709 100.193 17.1414 98.277 18.4997C96.3607 19.858 94.8045 21.6631 93.7433 23.7585L106.884 32.1218L104.741 15.9635Z" fill="#CCCCCC"/>
<path d="M108.565 44.7951L108.407 44.816L104.562 15.8269L104.72 15.806C108.564 15.2961 112.453 16.3342 115.532 18.6919C118.611 21.0497 120.627 24.5339 121.137 28.3781C121.647 32.2223 120.609 36.1116 118.251 39.1903C115.893 42.2691 112.409 44.2852 108.565 44.7951ZM104.919 16.1011L108.68 44.4583C112.408 43.9216 115.773 41.9366 118.047 38.9339C120.32 35.9312 121.317 32.1532 120.822 28.4199C120.326 24.6865 118.379 21.2991 115.402 18.9928C112.424 16.6865 108.658 15.6474 104.919 16.1011Z" fill="#3F3D56"/>
<path d="M65.1927 56.5598L62.5144 56.9151C62.3264 56.9398 62.1363 56.8889 61.9857 56.7737C61.8352 56.6584 61.7365 56.4881 61.7114 56.3001L60.6874 48.5802C60.6627 48.3922 60.7136 48.2021 60.8288 48.0516C60.9441 47.901 61.1144 47.8024 61.3024 47.7772L63.9807 47.422C64.1687 47.3972 64.3588 47.4481 64.5094 47.5634C64.6599 47.6787 64.7586 47.849 64.7837 48.0369L65.8076 55.7568C65.8324 55.9448 65.7815 56.1349 65.6662 56.2855C65.5509 56.436 65.3806 56.5347 65.1927 56.5598Z" fill="#CCCCCC"/>
<path d="M73.0702 55.515L70.3918 55.8702C70.2039 55.895 70.0137 55.8441 69.8632 55.7288C69.7126 55.6135 69.614 55.4432 69.5888 55.2553L68.0843 43.9117C68.0596 43.7237 68.1104 43.5336 68.2257 43.3831C68.341 43.2325 68.5113 43.1339 68.6992 43.1087L71.3776 42.7535C71.5656 42.7288 71.7557 42.7796 71.9062 42.8949C72.0568 43.0102 72.1554 43.1805 72.1806 43.3684L73.6851 54.712C73.7099 54.9 73.659 55.0901 73.5437 55.2406C73.4284 55.3912 73.2581 55.4898 73.0702 55.515Z" fill="#FF6584"/>
<path d="M80.9477 54.4701L78.2694 54.8254C78.0814 54.8501 77.8913 54.7992 77.7407 54.684C77.5902 54.5687 77.4915 54.3984 77.4664 54.2105L75.5439 39.7159C75.5191 39.5279 75.57 39.3378 75.6853 39.1872C75.8006 39.0367 75.9709 38.938 76.1588 38.9129L78.8371 38.5576C79.0251 38.5329 79.2153 38.5838 79.3658 38.6991C79.5164 38.8144 79.615 38.9846 79.6402 39.1726L81.5627 53.6671C81.5874 53.8551 81.5365 54.0453 81.4212 54.1958C81.3059 54.3463 81.1357 54.445 80.9477 54.4701Z" fill="#FFD5AA"/>
<path d="M65.2032 56.6386L62.5248 56.9938C62.316 57.0213 62.1047 56.9648 61.9375 56.8367C61.7702 56.7086 61.6606 56.5194 61.6326 56.3106L59.334 38.9801C59.3065 38.7712 59.363 38.56 59.4911 38.3927C59.6192 38.2255 59.8084 38.1158 60.0172 38.0879L62.6956 37.7327C62.9045 37.7052 63.1157 37.7617 63.283 37.8898C63.4502 38.0179 63.5599 38.2071 63.5878 38.4159L65.8865 55.7464C65.9139 55.9553 65.8574 56.1665 65.7293 56.3338C65.6012 56.501 65.412 56.6107 65.2032 56.6386ZM60.059 38.403C59.9337 38.4198 59.8202 38.4855 59.7434 38.5859C59.6665 38.6863 59.6326 38.813 59.6491 38.9383L61.9477 56.2688C61.9645 56.3941 62.0303 56.5076 62.1306 56.5845C62.231 56.6613 62.3577 56.6952 62.4831 56.6787L65.1614 56.3235C65.2867 56.3067 65.4002 56.241 65.4771 56.1406C65.5539 56.0402 65.5878 55.9135 65.5714 55.7882L63.2727 38.4577C63.256 38.3324 63.1902 38.2189 63.0898 38.142C62.9895 38.0652 62.8627 38.0313 62.7374 38.0478L60.059 38.403Z" fill="#3F3D56"/>
<path d="M73.0806 55.5938L70.4023 55.949C70.1934 55.9765 69.9822 55.92 69.8149 55.7919C69.6476 55.6638 69.538 55.4746 69.5101 55.2658L67.2114 37.9353C67.184 37.7264 67.2405 37.5152 67.3686 37.3479C67.4967 37.1806 67.6859 37.071 67.8947 37.0431L70.573 36.6878C70.7819 36.6604 70.9932 36.7169 71.1604 36.845C71.3277 36.9731 71.4373 37.1623 71.4653 37.3711L73.7639 54.7015C73.7914 54.9104 73.7349 55.1217 73.6068 55.2889C73.4787 55.4562 73.2895 55.5658 73.0806 55.5938ZM67.9365 37.3582C67.8112 37.3749 67.6977 37.4407 67.6208 37.5411C67.5439 37.6414 67.51 37.7682 67.5265 37.8935L69.8252 55.224C69.8419 55.3493 69.9077 55.4628 70.0081 55.5396C70.1084 55.6165 70.2352 55.6504 70.3605 55.6339L73.0388 55.2787C73.1641 55.2619 73.2777 55.1961 73.3545 55.0958C73.4314 54.9954 73.4653 54.8687 73.4488 54.7433L71.1502 37.4129C71.1334 37.2876 71.0676 37.1741 70.9673 37.0972C70.8669 37.0203 70.7402 36.9864 70.6148 37.0029L67.9365 37.3582Z" fill="#3F3D56"/>
<path d="M80.9581 54.5489L78.2797 54.9042C78.0708 54.9316 77.8596 54.8751 77.6923 54.747C77.5251 54.6189 77.4154 54.4297 77.3875 54.2209L75.0889 36.8905C75.0614 36.6816 75.1179 36.4703 75.246 36.3031C75.3741 36.1358 75.5633 36.0262 75.7721 35.9982L78.4504 35.643C78.6593 35.6155 78.8706 35.672 79.0378 35.8001C79.2051 35.9282 79.3147 36.1174 79.3427 36.3263L81.6413 53.6567C81.6688 53.8656 81.6123 54.0768 81.4842 54.2441C81.3561 54.4114 81.1669 54.521 80.9581 54.5489ZM75.8139 36.3133C75.6886 36.3301 75.5751 36.3959 75.4982 36.4962C75.4214 36.5966 75.3875 36.7233 75.404 36.8487L77.7026 54.1791C77.7194 54.3044 77.7851 54.418 77.8855 54.4948C77.9859 54.5717 78.1126 54.6056 78.2379 54.5891L80.9163 54.2338C81.0416 54.2171 81.1551 54.1513 81.2319 54.0509C81.3088 53.9506 81.3427 53.8238 81.3262 53.6985L79.0276 36.3681C79.0108 36.2428 78.945 36.1292 78.8447 36.0524C78.7443 35.9755 78.6176 35.9416 78.4922 35.9581L75.8139 36.3133Z" fill="#3F3D56"/>
<path d="M25.9758 70.7398C26.0074 70.5083 25.9879 70.2727 25.9186 70.0496C25.8492 69.8265 25.7319 69.6212 25.5746 69.4484C25.4174 69.2756 25.2243 69.1393 25.0087 69.0492C24.7931 68.9591 24.5604 68.9173 24.327 68.9269L22.2473 63.642L20.5496 66.0561L22.7848 70.7046C22.8268 71.0957 23.0109 71.4578 23.3021 71.7223C23.5932 71.9868 23.9713 72.1352 24.3647 72.1396C24.758 72.1439 25.1393 72.0038 25.4362 71.7458C25.7332 71.4878 25.9252 71.1299 25.9758 70.7398L25.9758 70.7398Z" fill="#FFB8B8"/>
<path d="M22.1204 69.5409C22.0234 69.5148 21.9329 69.4685 21.855 69.4051C21.7771 69.3417 21.7133 69.2626 21.668 69.173L18.483 62.5127C17.6768 60.9184 17.4772 59.0856 17.9213 57.3551L19.3836 51.6533C19.3934 51.3507 19.4627 51.053 19.5876 50.7772C19.7125 50.5014 19.8905 50.2529 20.1115 50.0459C20.3324 49.8389 20.5921 49.6776 20.8754 49.571C21.1588 49.4644 21.4605 49.4148 21.7631 49.4248C22.0657 49.4349 22.3633 49.5045 22.639 49.6297C22.9147 49.7549 23.163 49.9332 23.3697 50.1544C23.5764 50.3756 23.7375 50.6354 23.8438 50.9189C23.95 51.2024 23.9993 51.5041 23.9889 51.8067L22.1419 60.9588L24.1401 67.9465C24.1734 68.0896 24.1619 68.2395 24.1071 68.3759C24.0524 68.5123 23.9571 68.6286 23.8341 68.7091L22.6965 69.4497C22.5744 69.5291 22.4311 69.5694 22.2856 69.5652C22.2297 69.5637 22.1743 69.5555 22.1204 69.5409Z" fill="#2F2E41"/>
<path d="M36.8559 94.8584L38.7875 94.602L38.7181 87.0299L35.8675 87.4082L36.8559 94.8584Z" fill="#FFB8B8"/>
<path d="M42.7506 95.9014L36.6802 96.7068L36.369 94.3614L40.094 93.8672C40.7161 93.7847 41.3454 93.9526 41.8436 94.3341C42.3418 94.7156 42.6681 95.2794 42.7506 95.9014Z" fill="#2F2E41"/>
<path d="M27.2456 96.1331L29.1771 95.8767L29.1078 88.3046L26.2571 88.6829L27.2456 96.1331Z" fill="#FFB8B8"/>
<path d="M33.14 97.1761L27.0696 97.9815L26.7584 95.6361L30.4834 95.1419C31.1055 95.0594 31.7348 95.2273 32.233 95.6088C32.7312 95.9903 33.0575 96.554 33.14 97.1761Z" fill="#2F2E41"/>
<path d="M33.3565 64.4236L36.8387 77.6509C37.3174 79.4693 37.7269 81.3039 38.0673 83.1546L39.7381 92.2426C39.7537 92.3273 39.7519 92.4144 39.7328 92.4984C39.7137 92.5824 39.6778 92.6617 39.6271 92.7314C39.5765 92.801 39.5122 92.8597 39.4381 92.9038C39.3641 92.9479 39.2819 92.9764 39.1965 92.9878L36.6196 93.3296C36.4688 93.3496 36.3159 93.3149 36.1885 93.2317C36.0612 93.1486 35.9678 93.0226 35.9255 92.8766L31.5827 77.9153C31.5618 77.8432 31.516 77.7808 31.4534 77.7392C31.3909 77.6976 31.3156 77.6795 31.241 77.6881C31.1664 77.6967 31.0972 77.7315 31.0458 77.7862C30.9944 77.841 30.964 77.9121 30.96 77.9871L30.1515 93.3116C30.1417 93.4496 30.0871 93.5808 29.996 93.685C29.9049 93.7892 29.7822 93.8608 29.6467 93.889L27.2949 94.3541C27.2077 94.3722 27.1177 94.3718 27.0306 94.3529C26.9436 94.334 26.8615 94.297 26.7897 94.2443C26.7178 94.1917 26.6579 94.1245 26.6137 94.0472C26.5694 93.9699 26.542 93.8841 26.533 93.7955L24.0482 69.1853L33.3565 64.4236Z" fill="#2F2E41"/>
<path d="M23.2923 46.2602C25.4294 45.9767 26.9321 44.0144 26.6486 41.8773C26.3652 39.7402 24.4029 38.2375 22.2658 38.521C20.1287 38.8045 18.626 40.7667 18.9095 42.9038C19.1929 45.0409 21.1552 46.5436 23.2923 46.2602Z" fill="#FFB8B8"/>
<path d="M23.3023 69.6048C24.5402 71.6851 28.8454 72.7173 29.3728 69.4409C29.7808 66.9083 32.5407 65.5001 33.7734 64.9919C33.9284 64.9278 34.0519 64.8052 34.1172 64.6508C34.1826 64.4963 34.1845 64.3223 34.1225 64.1664L28.69 50.6104C28.3735 49.8207 27.8597 49.1255 27.1977 48.5913C26.5357 48.057 25.7476 47.7017 24.9089 47.5592C21.9533 47.0566 19.2 49.2639 19.1083 52.2596C19.0861 53.0992 19.1124 53.9393 19.1872 54.7758C19.7119 61.0053 22.4873 68.2348 23.3023 69.6048Z" fill="#FFD5AA"/>
<path d="M36.1246 67.9C36.0709 67.6726 35.968 67.4598 35.8231 67.2765C35.6782 67.0932 35.4949 66.9439 35.2861 66.8391C35.0772 66.7343 34.848 66.6766 34.6144 66.67C34.3809 66.6634 34.1487 66.7081 33.9343 66.8009L30.094 62.6169L29.3775 65.4799L33.1342 69.0142C33.3141 69.364 33.616 69.6358 33.9828 69.7779C34.3496 69.92 34.7557 69.9227 35.1243 69.7853C35.493 69.648 35.7984 69.3802 35.9827 69.0327C36.1671 68.6852 36.2176 68.2822 36.1247 67.9L36.1246 67.9Z" fill="#FFB8B8"/>
<path d="M32.0958 68.1672C31.9959 68.1776 31.8949 68.1669 31.7993 68.1358C31.7038 68.1047 31.6159 68.0538 31.5414 67.9864L26.1752 62.9162C24.8498 61.7182 24.0047 60.0796 23.7971 58.3052L23.1121 52.4589C23.0126 52.1731 22.9704 51.8704 22.9879 51.5682C23.0054 51.2661 23.0823 50.9703 23.2141 50.6979C23.346 50.4254 23.5302 50.1816 23.7563 49.9804C23.9824 49.7792 24.2459 49.6245 24.5318 49.5252C24.8177 49.4258 25.1204 49.3838 25.4226 49.4015C25.7247 49.4192 26.0204 49.4962 26.2928 49.6282C26.5652 49.7602 26.8089 49.9446 27.0099 50.1708C27.211 50.397 27.3656 50.6606 27.4647 50.9466L29.031 60.1509L33.4074 65.9532C33.4899 66.0748 33.5331 66.2189 33.531 66.3659C33.529 66.5128 33.4818 66.6556 33.396 66.7749L32.6006 67.8749C32.5153 67.9929 32.396 68.082 32.2587 68.1304C32.206 68.149 32.1514 68.1614 32.0958 68.1672Z" fill="#2F2E41"/>
<path d="M20.2619 45.9452C20.3518 45.9835 20.4493 46.0007 20.5469 45.9953C20.6445 45.9899 20.7395 45.9622 20.8246 45.9142C20.9098 45.8662 20.9827 45.7992 21.0378 45.7185C21.0929 45.6378 21.1287 45.5455 21.1424 45.4487L21.1434 45.4396C21.1747 45.1366 21.0757 44.8377 21.0156 44.539C20.9554 44.2404 20.941 43.9055 21.1169 43.6568C21.4446 43.1931 22.1542 43.3217 22.6935 43.1439C23.0079 43.0286 23.2695 42.8027 23.4294 42.5085C23.5892 42.2142 23.6364 41.8718 23.562 41.5453C23.5458 41.4837 23.5252 41.4227 23.503 41.3618C23.4473 41.2077 23.4282 41.0427 23.447 40.8799C23.4659 40.7171 23.5222 40.5608 23.6115 40.4234C23.7009 40.286 23.8209 40.1712 23.9621 40.088C24.1034 40.0048 24.2619 39.9555 24.4254 39.9439C24.9887 39.9017 25.6145 39.991 26.0221 39.5157C26.17 39.3299 26.2599 39.1046 26.2806 38.868C26.3013 38.6315 26.2519 38.394 26.1385 38.1854C25.7733 37.4581 24.974 37.1581 24.2063 37.0367C23.2578 36.8939 22.2894 36.9642 21.3714 37.2427C20.4535 37.5211 19.6092 38.0006 18.8999 38.6462C18.4769 39.0369 18.0961 39.5079 17.9682 40.0693C17.8403 40.6307 18.0258 41.293 18.521 41.5867C18.2222 42.0008 18.0375 42.4861 17.9854 42.9941C17.9333 43.502 18.0156 44.0147 18.2241 44.4808C18.5402 45.1651 19.6879 45.7091 20.2619 45.9452Z" fill="#2F2E41"/>
<path d="M55.3661 94.4871L13.6155 100.025C13.5737 100.03 13.5314 100.019 13.498 99.9934C13.4645 99.9677 13.4426 99.9299 13.437 99.8881C13.4315 99.8463 13.4428 99.804 13.4684 99.7706C13.494 99.7371 13.5319 99.7152 13.5737 99.7096L55.3243 94.172C55.3661 94.1665 55.4084 94.1777 55.4418 94.2034C55.4753 94.229 55.4972 94.2669 55.5028 94.3086C55.5083 94.3504 55.497 94.3927 55.4714 94.4262C55.4458 94.4596 55.4079 94.4815 55.3661 94.4871Z" fill="#3F3D56"/>
</g>
<defs>
<clipPath id="clip0_1_3136">
<rect width="122.838" height="84.4615" fill="white" transform="translate(0.760376 16.5286) rotate(-7.55539)"/>
</clipPath>
</defs>
</svg>
