<svg width="100" height="93" viewBox="0 0 100 93" fill="none" xmlns="http://www.w3.org/2000/svg">
<g clip-path="url(#clip0_467_1096)">
<path d="M81.4382 78.8788L13.4689 73.1703L14.438 61.6312L15.4866 61.7192L16.2079 53.1304C16.3801 51.1071 17.348 49.2346 18.899 47.9239C20.4501 46.6132 22.4577 45.9713 24.4815 46.1389L75.212 50.3996C77.2353 50.5719 79.1078 51.5397 80.4185 53.0907C81.7292 54.6418 82.3711 56.6494 82.2035 58.6732L81.4821 67.262L82.4073 67.3397L81.4382 78.8788Z" fill="#E4E4E4"/>
<path d="M82.2131 91.7338L78.8296 91.4497L78.8347 91.388C79.0827 88.3952 78.1334 85.4263 76.1951 83.1326C74.2568 80.8389 71.4878 79.4076 68.4956 79.1529L26.1844 75.5994C23.1917 75.3514 20.2227 76.3007 17.929 78.239C15.6353 80.1773 14.2041 82.9463 13.9494 85.9385L13.9442 86.0002L10.5606 85.716C9.78981 85.6504 9.07651 85.2817 8.5772 84.6908C8.07788 84.0999 7.83334 83.3351 7.89721 82.5642L9.48141 63.7016C8.5455 63.064 7.99958 59.982 8.72087 57.6179C9.17352 56.1342 10.2672 54.3884 12.9068 54.4963C15.4764 54.6013 17.1749 57.1646 17.1503 59.4927C17.1401 60.718 16.6809 61.897 15.8598 62.8065L15.8919 62.8092L15.6659 65.5001C21.3674 64.1872 27.0034 63.7488 32.4185 64.1972C37.9587 64.6679 43.384 66.0458 48.4775 68.2756C59.6764 65.6649 70.472 66.5025 80.5667 70.7661L80.7773 68.2587L80.8094 68.2614C80.1515 67.2276 79.8954 65.9886 80.0897 64.7787C80.489 62.2565 82.7386 60.3639 85.1044 60.5599L85.1123 60.5606C87.9018 60.7948 88.7474 62.5571 88.9656 63.9949C89.3516 66.5394 87.9824 69.731 86.9491 70.2078L85.3649 89.0704C85.2993 89.8412 84.9306 90.5545 84.3398 91.0539C83.7489 91.5532 82.9841 91.7977 82.2131 91.7338Z" fill="#CACACA"/>
<path d="M63.7334 85.0987L65.2686 86.4026L71.0284 81.1015L68.7625 79.1772L63.7334 85.0987Z" fill="#FFB6B6"/>
<path d="M63.7675 84.2649L64.1997 84.6319L66.4694 85.3788L66.7909 86.8327L66.7911 86.8328C67.302 87.2668 67.6196 87.886 67.6741 88.5542C67.7285 89.2224 67.5153 89.8849 67.0813 90.3959L67.0282 90.4585L62.078 86.2544L63.7675 84.2649Z" fill="#2F2E41"/>
<path d="M76.0924 70.6491L64.1002 69.6419C62.982 69.5474 61.947 69.0127 61.2229 68.1553C60.4988 67.298 60.1448 66.1882 60.2388 65.0699C60.3327 63.9516 60.8668 62.9164 61.7238 62.1918C62.5808 61.4673 63.6904 61.1127 64.8087 61.206L76.8009 62.2132C77.9196 62.3071 78.9551 62.8416 79.6797 63.6991C80.4043 64.5565 80.7586 65.6667 80.6646 66.7854C80.5707 67.9041 80.0362 68.9396 79.1787 69.6642C78.3213 70.3888 77.2111 70.743 76.0924 70.6491Z" fill="#2F2E41"/>
<path d="M72.6825 40.7018L74.4931 42.3372L76.7657 43.25C76.7657 43.25 76.5908 56.8966 77.3867 57.8385C78.1827 58.7805 77.3971 58.738 77.4769 59.8815C77.5567 61.0251 77.7867 63.3747 77.7867 63.3747C71.6603 65.987 66.5966 65.6456 62.8398 61.6712C62.8068 61.4421 62.853 61.2085 62.9708 61.0092C63.0886 60.81 63.271 60.657 63.4877 60.5756C64.2774 60.238 62.9818 58.2437 63.6259 57.9826C64.27 57.7214 63.6291 54.9329 63.6291 54.9329L64.675 49.315L64.3007 48.3715L65.8652 42.922L67.8307 42.3857L68.7467 40.6143L72.6825 40.7018Z" fill="#FFD5AA"/>
<path d="M74.9579 28.1383C74.9287 28.3826 74.9533 28.6303 75.0302 28.864C75.107 29.0977 75.2342 29.3117 75.4027 29.4909C75.5712 29.6701 75.7769 29.8103 76.0054 29.9014C76.2339 29.9925 76.4796 30.0324 76.7252 30.0183L79.0063 35.546L80.7517 32.975L78.318 28.12C78.2669 27.709 78.0669 27.331 77.7557 27.0576C77.4446 26.7843 77.044 26.6345 76.6298 26.6368C76.2157 26.639 75.8167 26.7931 75.5086 27.0699C75.2004 27.3466 75.0045 27.7268 74.9579 28.1383L74.9579 28.1383Z" fill="#FFB6B6"/>
<path d="M79.44 29.8201L84.5259 39.3734L84.5031 39.4135C84.4771 39.4594 82.9128 42.2078 81.4099 44.7193C81.1785 45.1061 80.9485 45.4872 80.7258 45.852C80.6297 46.0094 80.5351 46.1635 80.442 46.3143C79.8139 47.3314 79.2694 48.1699 78.9533 48.5633C78.2525 49.4541 77.2681 50.0784 76.1636 50.3326L76.136 50.3373L76.111 50.3244C75.6036 50.0582 75.2019 49.627 74.9724 49.1019C74.7429 48.5768 74.6991 47.9892 74.8484 47.4359C75.5831 44.7685 76.9278 42.3083 78.7763 40.2496L79.8291 39.0798L77.1366 31.6415L79.44 29.8201Z" fill="#FFD5AA"/>
<path d="M69.5401 26.5652C69.5282 26.8109 69.4626 27.0511 69.3478 27.2687C69.2331 27.4863 69.072 27.6761 68.876 27.8247C68.68 27.9733 68.4537 28.0772 68.2132 28.1289C67.9727 28.1806 67.7238 28.179 67.484 28.1241L64.3129 33.1939L63.0207 30.3678L66.2301 25.9868C66.349 25.59 66.6093 25.2507 66.9617 25.033C67.3141 24.8154 67.7341 24.7346 68.142 24.8059C68.55 24.8772 68.9177 25.0956 69.1754 25.4199C69.433 25.7442 69.5628 26.1517 69.5401 26.5652L69.5401 26.5652Z" fill="#FFB6B6"/>
<path d="M64.8402 27.4759L58.2321 36.0471L58.2479 36.0904C58.2659 36.14 59.3498 39.1108 60.4128 41.8378C60.5765 42.2578 60.7397 42.6719 60.8984 43.0688C60.9669 43.24 61.0345 43.4077 61.1011 43.5719C61.5507 44.6795 61.9478 45.5971 62.1938 46.0378C62.7362 47.033 63.6027 47.8127 64.6493 48.2476L64.6758 48.2568L64.7025 48.2482C65.2473 48.0704 65.7152 47.7122 66.0291 47.2328C66.343 46.7533 66.4842 46.1812 66.4293 45.6108C66.1498 42.8582 65.2342 40.2082 63.755 37.87L62.9121 36.541L66.8076 29.656L64.8402 27.4759Z" fill="#FFD5AA"/>
<path d="M70.7711 39.7157C72.8842 39.8932 74.7411 38.324 74.9186 36.2109C75.0961 34.0978 73.5269 32.2409 71.4138 32.0634C69.3007 31.8859 67.4438 33.4551 67.2663 35.5682C67.0888 37.6813 68.658 39.5382 70.7711 39.7157Z" fill="#FFB6B6"/>
<path d="M68.2521 32.3408C68.6436 31.4519 70.2633 30.9485 72.81 31.0735C75.3567 31.1984 75.7494 34.245 75.7494 34.245C77.3291 35.7625 73.5146 39.1497 73.3561 39.0029L73.4905 38.3176C73.713 37.1825 74.3245 36.3336 73.7425 35.0822L73.0867 35.0347L71.824 35.1693C71.7453 35.1777 71.666 35.16 71.5984 35.1189C71.5307 35.0777 71.4785 35.0155 71.4497 34.9418C71.4209 34.868 71.4172 34.7869 71.4391 34.7108C71.461 34.6347 71.5073 34.568 71.5709 34.5208L71.5831 34.5118L71.5585 34.4657C71.1039 34.6298 70.6371 34.7781 70.1562 34.766C69.6151 34.7525 69.0445 34.4888 68.8264 33.9934C68.7685 33.8574 68.7384 33.7112 68.7379 33.5634C67.9875 33.7925 67.5803 34.6597 67.5803 34.6597C67.5803 34.6597 67.8605 33.2298 68.2521 32.3408Z" fill="#2F2E41"/>
<path d="M74.2908 84.3464L72.65 85.5147L67.3628 79.7423L69.7842 78.0179L74.2908 84.3464Z" fill="#FFB6B6"/>
<path d="M75.8417 85.6386L70.5515 89.406L70.5038 89.3391C70.1149 88.793 69.9589 88.1148 70.0701 87.4536C70.1812 86.7925 70.5504 86.2026 71.0965 85.8136L71.0966 85.8135L71.5408 84.3923L73.8659 83.8415L74.3277 83.5126L75.8417 85.6386Z" fill="#2F2E41"/>
<path d="M66.053 68.9212L67.5497 66.2819C67.7458 63.7763 65.8203 61.5664 63.3076 61.5134C61.9083 61.4839 60.5395 62.153 59.8066 64.4217C57.9221 70.2555 70.4696 83.7789 70.4696 83.7789L73.0959 82.4456L73.3478 80.8253L72.022 79.846L72.1375 78.4558L70.8573 77.7114L66.053 68.9212Z" fill="#2F2E41"/>
<path d="M74.4343 68.8636L73.0626 66.4311C73.0806 63.9179 75.1873 61.88 77.6954 62.0412C79.0921 62.1309 80.399 62.9142 80.936 65.237C82.3168 71.2101 68.6633 83.6158 68.6633 83.6158L66.1601 82.0638L66.047 80.4279L67.4514 79.5651L67.4548 78.1701L68.7936 77.5374L74.4343 68.8636Z" fill="#2F2E41"/>
<path d="M41.2426 86.3265L39.3711 86.1692L39.0869 78.875L41.8493 79.1071L41.2426 86.3265Z" fill="#A0616A"/>
<path d="M41.1446 88.2846L35.3889 87.801L35.395 87.7282C35.4449 87.1341 35.7288 86.5841 36.1843 86.1993C36.6397 85.8144 37.2293 85.6263 37.8234 85.6761L37.8236 85.6761L38.9419 84.9668L40.8365 85.9293L41.3389 85.9715L41.1446 88.2846Z" fill="#2F2E41"/>
<path d="M54.4861 87.4388L56.3576 87.5958L57.8544 80.4512L55.0919 80.2193L54.4861 87.4388Z" fill="#A0616A"/>
<path d="M54.2562 89.3858L60.0119 89.869L60.018 89.7962C60.0679 89.2021 59.8797 88.6125 59.4948 88.1571C59.11 87.7017 58.56 87.4178 57.9659 87.3678L57.9657 87.3678L56.9814 86.4819L54.9528 87.1149L54.4503 87.0727L54.2562 89.3858Z" fill="#2F2E41"/>
<path d="M39.4501 73.5629C39.5124 73.1532 39.9235 70.8935 39.9235 70.8935L40.8557 66.1063L42.8592 53.3771L42.9902 52.5438L47.9289 52.0189L51.3845 50.7054L55.2269 52.2992L58.2045 53.7103C58.2045 53.7103 58.1683 54.2043 58.1419 54.8025C58.108 55.5856 58.0829 56.547 58.1936 56.8068C58.3765 57.2649 58.123 59.62 58.123 59.62C58.123 59.62 57.9382 64.4395 58.1691 64.9891C58.4 65.5386 58.3631 66.6396 58.2618 66.8524C58.1604 67.0653 58.0341 72.8612 58.0341 72.8612C58.0341 72.8612 58.096 83.1419 57.3903 84.632C56.6846 86.1221 54.5909 84.9314 54.5909 84.9314C54.5909 84.9314 54.7307 84.5296 54.1152 84.283C53.4998 84.0365 52.7907 69.4069 52.7907 69.4069C52.7907 69.4069 52.6819 66.4103 52.4243 65.5325C52.1666 64.6546 52.0645 62.2405 52.0645 62.2405C52.0645 62.2405 50.3645 58.1162 50.412 57.2348C50.412 57.2348 50.2153 56.3899 49.8878 57.2743C49.5604 58.1586 48.6373 60.2654 48.6373 60.2654L47.691 62.8685L46.5065 66.777L45.675 70.0816C45.675 70.0816 44.4776 74.4596 44.3298 74.6407C44.1821 74.8218 43.9725 78.8957 43.9725 78.8957C43.9725 78.8957 43.0449 82.3022 42.0939 82.8307C41.143 83.3592 38.8079 82.5644 38.8079 82.5644C38.8079 82.5644 39.3879 73.9725 39.4501 73.5629Z" fill="#2F2E41"/>
<path d="M44.4235 39.2101L45.2664 42.1302L43.8172 43.3979L44.3602 43.9724L43.8648 44.6786L42.0819 52.3658L48.1015 54.9268L50.3771 52.8297L51.8301 55.24L59.1215 54.32L58.1282 44.2427L58.1827 43.594L57.772 42.298L57.9948 39.6459L61.0267 31.9507L56.0584 30.2867L54.2269 28.786L53.4398 30.6141L50.7963 29.9749L50.8451 28.5562L48.6546 30.067L45.8864 30.2655L43.7857 30.5027L43.4744 31.0526L44.0104 30.9823L44.3067 38.502L44.4235 39.2101Z" fill="#2F2E41"/>
<path d="M49.2311 31.9209L50.8445 28.5643L54.2268 28.7861L55.051 32.4097L57.1892 55.2493C57.1892 55.2493 44.5606 57.6494 45.0327 53.5291C45.5291 49.197 46.6074 43.4777 46.6074 43.4777L49.2311 31.9209Z" fill="#3F3D56"/>
<path d="M52.5389 27.7298C54.7361 27.9143 56.6669 26.2828 56.8514 24.0856C57.0359 21.8885 55.4044 19.9577 53.2072 19.7732C51.01 19.5887 49.0793 21.2202 48.8948 23.4174C48.7102 25.6145 50.3418 27.5453 52.5389 27.7298Z" fill="#A0616A"/>
<path d="M48.9026 20.5117C49.6095 19.8611 50.528 18.6387 53.0273 18.3029C56.1155 17.888 57.3182 20.7474 56.5498 20.7281C58.7288 21.5929 56.9039 26.0992 56.2955 25.6573C56.2904 25.653 56.2854 25.6484 56.2807 25.6436C55.9573 25.3608 55.695 25.015 55.5097 24.6274C55.3245 24.2397 55.2202 23.8184 55.2032 23.3891L55.1735 22.284C55.0814 23.1734 54.1609 23.2147 53.2583 22.8085C53.3297 22.6178 53.4495 22.4491 53.6061 22.3188C53.7626 22.1886 53.9504 22.1015 54.1509 22.066C53.5378 22.5431 52.7657 22.8564 51.721 22.8891C51.8893 22.4082 52.1726 22.0676 52.5867 21.8864L52.553 21.8473C52.1498 22.1039 51.7314 22.348 51.2647 22.4404C50.7395 22.5443 50.1318 22.4132 49.8142 21.9823C49.7289 21.8636 49.6682 21.729 49.6358 21.5864C49.6525 22.2983 49.1117 23.0639 48.7557 22.8948C48.4549 22.8096 48.432 20.9447 48.9026 20.5117Z" fill="#2F2E41"/>
<path d="M57.7967 23.9441L60.9036 30.335L63.6839 29.2966C63.6839 29.2966 59.5592 23.1543 59.4263 22.9764C59.5127 22.7019 59.5137 22.4077 59.4292 22.1327C59.3447 21.8576 59.1787 21.6147 58.9532 21.4361C58.7276 21.2574 58.4532 21.1514 58.1661 21.1322C57.879 21.1129 57.5928 21.1812 57.3454 21.3281C57.098 21.4751 56.9011 21.6936 56.7806 21.9549C56.6601 22.2162 56.6218 22.5079 56.6707 22.7914C56.7196 23.075 56.8534 23.337 57.0545 23.5428C57.2556 23.7486 57.5144 23.8886 57.7967 23.9441Z" fill="#A0616A"/>
<path d="M58.278 39.2179L64.2329 35.6443C64.6214 35.4112 64.957 35.0995 65.2182 34.7293C65.4794 34.3591 65.6604 33.9385 65.7498 33.4943C65.8392 33.0501 65.8349 32.5921 65.7372 32.1497C65.6395 31.7073 65.4506 31.2901 65.1825 30.9249L61.5307 25.9498L59.5699 28.1875L60.6885 31.1387L58.0029 31.6108L58.278 39.2179Z" fill="#2F2E41"/>
<path d="M49.8628 23.8539L45.7335 29.6371L43.1653 28.1495C43.1653 28.1495 48.2567 22.7812 48.4174 22.6279C48.378 22.3429 48.4261 22.0527 48.5553 21.7956C48.6845 21.5385 48.8887 21.3266 49.1409 21.1881C49.393 21.0496 49.6813 20.9909 49.9676 21.0198C50.2539 21.0487 50.5246 21.1638 50.7441 21.3499C50.9635 21.536 51.1213 21.7843 51.1965 22.0621C51.2717 22.3398 51.2608 22.6338 51.1653 22.9052C51.0698 23.1766 50.8941 23.4126 50.6615 23.582C50.429 23.7514 50.1504 23.8462 49.8628 23.8539Z" fill="#A0616A"/>
<path d="M46.8406 38.8335L41.5652 34.3167C41.2211 34.022 40.9422 33.6588 40.7464 33.2502C40.5506 32.8416 40.4422 32.3966 40.4282 31.9438C40.4141 31.4909 40.4948 31.0401 40.6649 30.6201C40.835 30.2002 41.0909 29.8204 41.4161 29.505L45.8466 25.2087L47.4067 27.7422L45.8115 30.4654L48.3807 31.3789L46.8406 38.8335Z" fill="#2F2E41"/>
<path d="M11.2283 45.0842C11.3791 45.0506 11.5208 44.9844 11.6433 44.8903C11.7658 44.7961 11.8661 44.6762 11.9373 44.539C12.0084 44.4018 12.0486 44.2507 12.0551 44.0963C12.0615 43.9419 12.034 43.788 11.9745 43.6454L14.7757 41.1428L12.8886 40.6435L10.5179 43.0966C10.285 43.2124 10.1026 43.4097 10.0054 43.651C9.90812 43.8923 9.90277 44.1609 9.99032 44.4059C10.0779 44.6509 10.2523 44.8552 10.4804 44.9802C10.7086 45.1052 10.9747 45.1422 11.2283 45.0842Z" fill="#9E616A"/>
<path d="M23.6053 35.0423L21.9196 36.1735C21.9196 36.1735 21.096 37.9058 20.4244 37.9501C19.7528 37.9944 19.9253 38.1146 19.7449 38.3733C19.5645 38.632 18.6546 38.4429 18.5662 38.961C18.3673 40.1266 13.0238 43.868 12.8215 43.1566L11.2695 42.0744C11.5991 41.7085 11.8818 41.303 12.1112 40.8673C12.4458 40.2036 13.8729 38.8921 14.2257 38.7536C14.5785 38.6152 14.6466 38.1501 15.0073 37.6328C15.368 37.1154 16.3651 37.2782 16.4945 36.235C16.6767 34.7673 22.6745 29.1587 23.2749 28.5328C23.9337 27.8458 25.1592 27.6682 25.1592 27.6682L26.0214 28.2694L23.6053 35.0423Z" fill="#FFD5AA"/>
<path d="M29.9496 84.8118L31.401 84.9337L32.5619 79.3934L30.4197 79.2135L29.9496 84.8118Z" fill="#9E616A"/>
<path d="M29.5593 83.778L31.8898 83.8343L31.8063 84.8278L33.883 86.5355C33.9856 86.6199 34.0585 86.7348 34.0912 86.8635C34.1238 86.9922 34.1145 87.128 34.0645 87.251C34.0145 87.374 33.9265 87.4779 33.8133 87.5473C33.7001 87.6168 33.5677 87.6483 33.4354 87.6372L30.6747 87.4053L30.2814 86.3826L30.0131 87.3497L28.9722 87.2623L29.5593 83.778Z" fill="#2F2E41"/>
<path d="M11.8617 82.0509L13.1652 82.701L16.2928 77.9829L14.3691 77.0235L11.8617 82.0509Z" fill="#9E616A"/>
<path d="M11.8817 80.9461L14.026 81.8603L13.5811 82.7525L14.8789 85.1072C14.9431 85.2235 14.9683 85.3572 14.951 85.4889C14.9338 85.6206 14.8748 85.7433 14.7829 85.8391C14.691 85.9349 14.5708 85.9988 14.4399 86.0215C14.3091 86.0442 14.1744 86.0244 14.0556 85.9651L11.5764 84.7287L11.5893 83.6331L10.9823 84.4324L10.0475 83.9662L11.8817 80.9461Z" fill="#2F2E41"/>
<path d="M28.4229 67.9075L26.9512 56.4094L22.1179 68.6415L15.134 80.039L15.097 80.0994L13.287 78.9196C13.4253 74.0651 14.441 69.5906 17.0975 65.8264L19.1106 55.0513C19.1756 54.6828 20.7286 46.0341 23.4577 44.7065L24.3647 43.0347L32.0928 41.8007L32.1177 41.834C32.777 42.7134 33.1733 43.7619 33.2604 44.8575L34.3717 58.7526L34.3723 58.7603L32.9628 68.2702L32.6078 82.4452L29.6055 82.1931C28.0417 78.5423 27.6475 73.7805 28.4229 67.9075Z" fill="#2F2E41"/>
<path d="M38.9189 21.0851C39.0257 21.1967 39.1068 21.3304 39.1563 21.4768C39.2059 21.6232 39.2228 21.7786 39.2058 21.9322C39.1888 22.0858 39.1383 22.2338 39.0579 22.3657C38.9775 22.4977 38.8691 22.6104 38.7405 22.696L39.68 26.3328L37.8335 25.7L37.2244 22.3434C37.095 22.1177 37.0529 21.8524 37.106 21.5977C37.1592 21.3431 37.3039 21.1167 37.5127 20.9616C37.7216 20.8065 37.9801 20.7334 38.2393 20.7562C38.4984 20.7789 38.7402 20.8959 38.9189 21.0851L38.9189 21.0851Z" fill="#9E616A"/>
<path d="M21.8243 46.5244C21.6204 46.5073 21.508 46.4576 21.4703 46.3681C21.4151 46.2367 21.5431 46.0819 21.6913 45.9026C21.7947 45.7777 22.0862 45.5364 21.9551 45.5091C19.9673 45.0952 21.9713 32.7936 22.9792 31.2299C23.184 30.9122 23.0397 30.3862 23.2863 29.8386C23.9597 28.3429 24.7421 27.9316 26.3006 27.1123C26.4271 27.0457 26.5589 26.9762 26.6959 26.9037C26.8731 26.8098 26.8939 26.4507 26.9158 26.0704C26.9403 25.6478 26.9655 25.2107 27.195 24.9555L27.2099 24.9388L27.232 24.9356C27.7414 24.8621 29.4401 24.7888 30.4075 25.2039L30.4209 25.2097L30.4303 25.2208C30.6469 25.4771 30.63 25.9369 30.6136 26.3815C30.6001 26.7465 30.5875 27.0912 30.7087 27.2515C31.6356 28.4773 32.7973 28.5525 32.8091 28.5532L32.8667 28.5564L32.8676 28.614C33.4699 30.0389 32.4829 35.0599 32.7169 38.2499C32.9546 41.4908 37.0499 44.5766 33.3068 44.749C33.3137 44.762 33.317 44.7766 33.3162 44.7913C33.3154 44.806 33.3106 44.8202 33.3023 44.8323C33.0435 45.2315 22.5928 46.589 21.8243 46.5244Z" fill="#FFD5AA"/>
<path d="M39.8719 32.334L37.7312 33.1808C33.6436 34.3694 31.6051 33.825 30.6139 33.1594C29.5563 32.4491 29.4434 31.487 29.4392 31.4464L29.4402 31.4271L29.8623 29.4404C29.9159 29.1881 30.0226 28.95 30.1752 28.742C30.3278 28.534 30.5229 28.3608 30.7475 28.2339C30.9722 28.107 31.2212 28.0293 31.4781 28.006C31.735 27.9826 31.994 28.0142 32.2378 28.0985L36.8646 29.6987L36.9712 27.3965L37.2276 26.5858L36.967 25.5524L37.2778 23.5469L39.0085 23.2742L40.5198 26.6099L40.1264 27.4625L40.3907 27.9255L40.3884 27.9458L39.8719 32.334Z" fill="#FFD5AA"/>
<path d="M92.6709 92.7465L0.304755 85.0271C0.265884 85.0238 0.229939 85.0051 0.204798 84.9753C0.179657 84.9454 0.167372 84.9068 0.170637 84.868C0.173903 84.8291 0.192453 84.7931 0.222218 84.7678C0.251984 84.7426 0.290536 84.7302 0.329426 84.7334L92.6956 92.4527C92.7345 92.4561 92.7704 92.4748 92.7956 92.5046C92.8207 92.5344 92.833 92.573 92.8297 92.6119C92.8265 92.6508 92.8079 92.6868 92.7782 92.712C92.7484 92.7372 92.7098 92.7496 92.6709 92.7465Z" fill="#CACACA"/>
<path d="M69.975 19.1456C71.3141 16.8252 70.6318 13.9239 69.0548 13.0138C67.4779 12.1037 64.6244 12.9645 63.2853 15.2849C62.0457 17.4327 62.6092 20.1176 63.8775 21.185C63.8543 21.1898 63.8322 21.1989 63.8124 21.212L63.466 21.4517C63.4396 21.4699 63.4183 21.4947 63.4041 21.5235C63.3899 21.5523 63.3834 21.5843 63.385 21.6163C63.3867 21.6484 63.3965 21.6795 63.4136 21.7067C63.4306 21.7339 63.4544 21.7563 63.4825 21.7717L64.2692 22.2035C64.2974 22.219 64.329 22.227 64.3611 22.2268C64.3932 22.2266 64.4248 22.2182 64.4527 22.2023C64.4807 22.1865 64.5041 22.1638 64.5208 22.1364C64.5375 22.109 64.5469 22.0777 64.5481 22.0456L64.5643 21.6247C64.5645 21.61 64.563 21.5954 64.5598 21.581C66.1195 22.1538 68.7327 21.298 69.975 19.1456Z" fill="#CCCCCC"/>
<path d="M69.3353 15.6026C69.5303 16.3726 69.4223 17.1881 69.0335 17.8807C68.6448 18.5734 68.0049 19.0903 67.246 19.3249C67.0729 19.3804 67.1856 19.6397 67.3575 19.5845C68.1717 19.3229 68.8568 18.7631 69.2755 18.0175C69.6943 17.2719 69.8156 16.3955 69.6153 15.5641C69.5729 15.3888 69.2925 15.426 69.3353 15.6026Z" fill="white"/>
<path d="M89.2304 28.9146C91.6434 27.7508 92.7129 24.9688 91.9219 23.3288C91.1309 21.6889 88.288 20.7939 85.8749 21.9578C83.6413 23.0351 82.5955 25.5713 83.0429 27.1676C83.021 27.1584 82.9975 27.1536 82.9738 27.1533L82.5526 27.1563C82.5205 27.1565 82.4889 27.165 82.461 27.1808C82.4331 27.1967 82.4096 27.2194 82.393 27.2468C82.3763 27.2742 82.3669 27.3055 82.3657 27.3376C82.3645 27.3697 82.3715 27.4015 82.3861 27.4302L82.7932 28.2299C82.8077 28.2585 82.8294 28.283 82.856 28.3009C82.8827 28.3188 82.9135 28.3296 82.9455 28.3322C82.9775 28.3349 83.0097 28.3293 83.0389 28.316C83.0681 28.3028 83.0935 28.2822 83.1126 28.2564L83.3629 27.9176C83.3714 27.9056 83.3784 27.8927 83.3838 27.879C84.3504 29.2305 86.9919 29.9943 89.2304 28.9146Z" fill="#FFD5AA"/>
<path d="M90.6961 25.6264C90.4238 26.3725 89.8755 26.9857 89.1642 27.3393C88.453 27.6929 87.6331 27.7599 86.8739 27.5265C86.6996 27.475 86.6467 27.7528 86.8199 27.8039C87.64 28.046 88.5214 27.9691 89.2873 27.5886C90.0531 27.2081 90.6468 26.5521 90.9492 25.7522C91.0129 25.5834 90.7602 25.4563 90.6961 25.6264Z" fill="white"/>
<path d="M75.528 16.5895C75.292 15.9278 75.216 15.2196 75.3065 14.5229C75.397 13.8263 75.6513 13.1609 76.0485 12.5815C76.1616 12.4183 76.2773 12.2191 76.4964 12.2043C76.5794 12.1963 76.6627 12.2167 76.7326 12.2621C76.8025 12.3076 76.855 12.3754 76.8814 12.4545C76.9018 12.5585 76.8874 12.6663 76.8404 12.7613C76.7934 12.8563 76.7165 12.9332 76.6215 12.9802C76.5265 13.0272 76.4187 13.0416 76.3147 13.0212C76.2107 13.0008 76.1163 12.9468 76.046 12.8675C75.6636 12.5025 75.7645 11.9252 75.8433 11.4602C76.0228 10.4009 76.1155 9.28063 75.745 8.24949C75.4021 7.29545 74.6094 6.45496 73.581 6.28407C73.4011 6.25417 73.3672 6.53479 73.5462 6.56454C74.5661 6.73403 75.2986 7.64755 75.5622 8.60217C75.7081 9.17583 75.7548 9.77023 75.7001 10.3596C75.678 10.6627 75.6386 10.9642 75.5899 11.264C75.5298 11.5552 75.4956 11.8512 75.4878 12.1485C75.4956 12.6353 75.7441 13.1774 76.2596 13.2984C76.7406 13.4113 77.259 12.9418 77.1679 12.4467C77.1449 12.3394 77.0957 12.2394 77.0246 12.1558C76.9535 12.0722 76.8627 12.0076 76.7605 11.9677C76.6582 11.9278 76.5477 11.9139 76.4387 11.9272C76.3298 11.9405 76.2258 11.9807 76.1362 12.0441C75.9405 12.1814 75.7996 12.4337 75.6777 12.6345C75.3097 13.2386 75.0819 13.9175 75.011 14.6213C74.9402 15.3251 75.0282 16.0358 75.2684 16.701C75.3319 16.8716 75.5914 16.7597 75.5281 16.5895L75.528 16.5895Z" fill="#964B00"/>
<path d="M31.9146 26.1461C31.8248 25.9436 31.6887 25.3744 31.4833 25.3646C31.2731 25.3561 31.0648 25.3207 30.8636 25.2591C30.8417 25.2535 30.8199 25.2467 30.7994 25.24C29.9524 24.9515 29.0752 24.7611 28.1848 24.6726C27.4665 24.6023 26.6698 24.6224 26.1245 25.0946C25.5793 25.5668 25.5642 26.6339 26.2397 26.8882C23.8934 27.0944 21.5604 26.3678 19.7461 24.8657C18.5935 23.9018 17.7084 22.666 16.7603 21.5006C15.8123 20.334 14.7547 19.2005 13.3989 18.5549C12.042 17.908 10.3224 17.8381 9.11092 18.7289C7.63336 19.8148 7.35364 21.8734 7.19897 23.7002C7.14034 24.3834 7.36586 24.257 7.94204 24.6297C8.477 24.9752 9.01382 25.6389 9.40038 25.1335C9.78693 24.6281 9.9028 23.9732 10.0261 23.3488C10.1481 22.7242 10.3062 22.0692 10.7472 21.6105C11.5054 20.822 12.8593 20.927 13.7629 21.5433C14.6664 22.1596 15.2253 23.1519 15.7523 24.1104C16.2793 25.0678 16.8368 26.0624 17.7388 26.6823C18.9239 27.4961 20.4956 27.5225 21.7438 28.2361C22.5367 28.6903 23.1499 29.3915 23.7843 30.0472C24.4199 30.7031 25.1228 31.3423 25.9959 31.6107C26.8677 31.8802 27.947 31.6751 28.4508 30.9137C28.9049 30.2251 28.79 29.285 29.2029 28.5694C29.5214 28.0172 30.1048 27.6824 30.6353 27.3269C30.8538 27.18 30.8594 27.7495 31.0501 27.5642C31.5606 27.5065 32.112 26.5913 31.9146 26.1461Z" fill="#3F3D56"/>
<path d="M28.5414 24.835C30.6941 25.0158 32.5858 23.4173 32.7666 21.2646C32.9474 19.1119 31.3489 17.2202 29.1962 17.0394C27.0435 16.8586 25.1518 18.4571 24.971 20.6098C24.7902 22.7625 26.3887 24.6542 28.5414 24.835Z" fill="#2F2E41"/>
<path d="M28.8282 25.1831C30.3783 25.2692 31.7047 24.0823 31.7907 22.5322C31.8768 20.9821 30.69 19.6557 29.1398 19.5697C27.5897 19.4836 26.2634 20.6705 26.1773 22.2206C26.0912 23.7707 27.2781 25.097 28.8282 25.1831Z" fill="#9E616A"/>
<path d="M29.37 18.1067L28.2317 18.0435C27.5144 18.0043 26.8108 18.2512 26.2753 18.7302C25.7398 19.2092 25.4163 19.881 25.3756 20.5983L25.3742 20.6235L25.3938 20.6382C25.9767 21.0984 26.6878 21.3668 27.4294 21.4067L27.4934 21.4102L28.1232 21.4345C28.2516 21.1716 28.3115 20.8806 28.2976 20.5884C28.3693 20.8703 28.4197 21.1572 28.4483 21.4467L31.2743 21.555C31.4388 21.5606 31.5989 21.5018 31.7206 21.391C31.8424 21.2802 31.9159 21.1262 31.9257 20.9619C31.9647 20.2446 31.7175 19.541 31.2383 19.0057C30.7592 18.4705 30.0872 18.1471 29.37 18.1067Z" fill="#2F2E41"/>
<path d="M27.1662 17.2138C26.8834 17.5083 26.4608 17.6054 26.0766 17.7456C25.3983 17.9993 24.7921 18.4147 24.3106 18.9557C23.8291 19.4966 23.4869 20.1469 23.3135 20.8501C23.1776 21.4231 23.1579 22.023 22.9627 22.5782C22.7685 23.1334 22.3345 23.6646 21.7502 23.7304C21.3548 23.7756 20.9706 23.6025 20.6104 23.4328C20.4123 23.3401 20.2142 23.2471 20.0162 23.1537C20.257 22.6351 20.4974 22.1165 20.7376 21.5979C20.3712 22.0796 19.9517 22.5186 19.4872 22.9065C18.7773 22.5734 18.0667 22.2403 17.3555 21.9071C19.1449 22.0132 18.9359 20.2589 19.4331 18.5379C19.7064 17.5922 21.6165 17.0477 22.0346 16.1567C22.2606 15.6734 22.6203 15.265 23.0712 14.9798C23.522 14.6945 24.0452 14.5444 24.5787 14.5472C25.1122 14.5501 25.6338 14.7057 26.0816 14.9956C26.5295 15.2856 26.8849 15.6978 27.1057 16.1835C27.4651 16.3503 27.444 16.9229 27.1662 17.2138Z" fill="#2F2E41"/>
<path d="M27.2474 18.388C28.049 18.4553 28.7534 17.8601 28.8207 17.0585C28.8881 16.2569 28.2928 15.5525 27.4912 15.4852C26.6896 15.4178 25.9852 16.0131 25.9179 16.8147C25.8506 17.6163 26.4458 18.3207 27.2474 18.388Z" fill="#2F2E41"/>
</g>
<defs>
<clipPath id="clip0_467_1096">
<rect width="92.983" height="84.6" fill="white" transform="translate(7.23816 0.711609) rotate(4.80081)"/>
</clipPath>
</defs>
</svg>
