<svg width="32" height="32" viewBox="0 0 32 32" fill="none" xmlns="http://www.w3.org/2000/svg">
<g clip-path="url(#clip0_1_3279)">
<path d="M8.88653 23.843L6.29526 28.7106L6.74246 30.1917L8.21887 29.7406L10.809 24.8759C10.1379 24.5912 9.49433 24.2455 8.88653 23.843ZM21.3936 21.148C21.41 21.1051 21.4189 21.0586 21.4335 21.013C21.4945 20.8406 21.5469 20.6688 21.5859 20.4897C21.5917 20.4578 21.5933 20.4262 21.6008 20.3969C21.6398 20.2015 21.6697 20.0043 21.6902 19.8061L21.6877 19.7763C21.8221 18.0939 21.1809 16.285 19.9337 14.7082L21.3001 12.1411C23.1347 12.2168 24.6648 11.6253 25.3195 10.3928C26.456 8.26135 24.5742 5.03664 21.121 3.18739C17.6648 1.33696 13.9453 1.56594 12.8114 3.69428C12.154 4.92845 12.5144 6.53127 13.6011 8.01891L12.2319 10.5862C10.2327 10.4247 8.37621 10.8941 7.05559 11.945C7.04732 11.9486 7.03763 11.9523 7.03244 11.9584C6.87835 12.0837 6.7314 12.2175 6.59228 12.3592C6.56986 12.3812 6.54306 12.402 6.5249 12.4236C6.39901 12.5557 6.28163 12.6956 6.17348 12.8425C6.14803 12.879 6.11085 12.9122 6.08694 12.95C5.95049 13.1341 5.82858 13.3285 5.72231 13.5316C4.01813 16.7265 6.08671 21.163 10.3356 23.44C14.5874 25.7167 19.4144 24.9683 21.1143 21.7737C21.2213 21.5715 21.3176 21.3617 21.3936 21.148ZM19.0254 7.11772C17.6966 6.40696 16.9714 5.16846 17.4083 4.34628C17.8441 3.52706 19.2759 3.43998 20.6019 4.15098C21.9335 4.86149 22.6532 6.10332 22.2189 6.92242C21.7846 7.74152 20.3556 7.82836 19.0254 7.11772Z" fill="#964B00"/>
</g>
<defs>
<clipPath id="clip0_1_3279">
<rect width="28.4822" height="28.4822" fill="white" transform="translate(0.252319 2.73325) rotate(-4.9023)"/>
</clipPath>
</defs>
</svg>
