<svg width="31" height="31" viewBox="0 0 31 31" fill="none" xmlns="http://www.w3.org/2000/svg">
<circle cx="14.195" cy="14.195" r="10.195" stroke="#ADADAF" stroke-width="2"/>
<path d="M30.1389 28.6664L23.7925 22.2769L22.5697 23.4911L28.9161 29.8806C28.9958 29.9608 29.0906 30.0246 29.195 30.0683C29.2994 30.112 29.4113 30.1347 29.5245 30.1351C29.6376 30.1355 29.7497 30.1136 29.8544 30.0706C29.9591 30.0277 30.0543 29.9646 30.1346 29.8849C30.2149 29.8051 30.2787 29.7104 30.3224 29.606C30.366 29.5016 30.3887 29.3897 30.3891 29.2765C30.3895 29.1634 30.3676 29.0513 30.3247 28.9466C30.2818 28.8419 30.2186 28.7467 30.1389 28.6664Z" fill="#ADADAF"/>
</svg>
