<svg width="255" height="200" viewBox="0 0 255 200" fill="none" xmlns="http://www.w3.org/2000/svg">
<path d="M232.117 182.579C227.228 187.807 221.627 192.321 215.478 195.989C215.337 196.075 215.194 196.157 215.05 196.241L205.095 187.439C205.2 187.342 205.316 187.233 205.44 187.114C212.858 180.078 249.68 130.884 252.134 118.905C251.964 119.903 254.348 159.041 232.117 182.579Z" fill="#636277"/>
<path d="M217.399 197.687C217.211 197.732 217.019 197.774 216.827 197.812L209.359 191.209C209.505 191.158 209.675 191.098 209.87 191.031C213.075 189.897 222.618 186.475 232.116 182.578C242.321 178.389 252.477 173.655 254.662 170.623C254.193 171.328 239.76 192.692 217.399 197.687Z" fill="#636277"/>
<path d="M231.979 52.3795H230.915V23.2741C230.915 21.0619 230.479 18.8714 229.632 16.8277C228.784 14.7839 227.542 12.9269 225.976 11.3626C224.41 9.79838 222.551 8.55755 220.505 7.71099C218.46 6.86443 216.267 6.42871 214.052 6.42871H152.325C150.111 6.42871 147.918 6.86442 145.872 7.71097C143.826 8.55753 141.967 9.79835 140.401 11.3626C138.835 12.9268 137.593 14.7838 136.746 16.8276C135.898 18.8714 135.462 21.0619 135.462 23.2741V182.948C135.462 185.161 135.898 187.351 136.746 189.395C137.593 191.439 138.835 193.296 140.401 194.86C141.967 196.424 143.826 197.665 145.872 198.512C147.918 199.358 150.11 199.794 152.325 199.794H214.052C216.267 199.794 218.459 199.358 220.505 198.512C222.551 197.665 224.41 196.424 225.976 194.86C227.542 193.296 228.784 191.439 229.631 189.395C230.479 187.351 230.915 185.161 230.915 182.948V73.0972H231.979V52.3795Z" fill="#3F3D56"/>
<path d="M227.326 23.3897V182.832C227.326 184.484 227 186.12 226.367 187.646C225.734 189.172 224.806 190.559 223.636 191.727C222.467 192.895 221.078 193.821 219.55 194.453C218.022 195.085 216.384 195.41 214.731 195.409H152.706C151.053 195.409 149.415 195.084 147.888 194.452C146.36 193.82 144.972 192.893 143.803 191.725C142.634 190.558 141.707 189.171 141.074 187.645C140.441 186.119 140.116 184.483 140.116 182.832V23.3897C140.116 21.738 140.441 20.1025 141.074 18.5764C141.707 17.0504 142.634 15.6639 143.803 14.4959C144.972 13.328 146.36 12.4015 147.888 11.7695C149.415 11.1375 151.053 10.8123 152.706 10.8124H160.233C159.864 11.7199 159.723 12.7043 159.824 13.6788C159.924 14.6534 160.263 15.5883 160.811 16.4013C161.358 17.2144 162.097 17.8806 162.962 18.3415C163.827 18.8024 164.793 19.0438 165.774 19.0444H201.136C202.117 19.0454 203.083 18.805 203.95 18.3445C204.816 17.8841 205.556 17.2177 206.103 16.4042C206.651 15.5907 206.99 14.6551 207.09 13.6799C207.19 12.7047 207.048 11.7199 206.677 10.8124H214.731C216.384 10.8118 218.022 11.1367 219.55 11.7685C221.078 12.4003 222.467 13.3266 223.636 14.4946C224.806 15.6626 225.734 17.0493 226.367 18.5755C227 20.1018 227.326 21.7377 227.326 23.3897Z" fill="white"/>
<path d="M208.032 106.244H153.514C152.559 106.243 151.644 105.864 150.969 105.189C150.293 104.515 149.914 103.6 149.913 102.646V100.855C149.914 99.9015 150.293 98.987 150.969 98.3125C151.644 97.6379 152.559 97.2585 153.514 97.2574H208.032C208.987 97.2585 209.902 97.6379 210.578 98.3125C211.253 98.987 211.633 99.9015 211.634 100.855V102.646C211.633 103.6 211.253 104.515 210.578 105.189C209.902 105.864 208.987 106.243 208.032 106.244Z" fill="#F0F0F0"/>
<path d="M208.032 121.682H153.514C152.559 121.681 151.644 121.302 150.969 120.627C150.293 119.953 149.914 119.038 149.913 118.084V116.293C149.914 115.34 150.293 114.425 150.969 113.75C151.644 113.076 152.559 112.697 153.514 112.695H208.032C208.987 112.697 209.902 113.076 210.578 113.75C211.253 114.425 211.633 115.34 211.634 116.293V118.084C211.633 119.038 211.253 119.953 210.578 120.627C209.902 121.302 208.987 121.681 208.032 121.682Z" fill="#F0F0F0"/>
<path d="M210.759 102.792H156.241C155.239 102.79 154.277 102.392 153.569 101.684C152.86 100.976 152.461 100.015 152.46 99.0137V97.2228C152.461 96.2212 152.86 95.261 153.569 94.5527C154.277 93.8445 155.239 93.4461 156.241 93.4449H210.759C211.762 93.4461 212.723 93.8445 213.432 94.5527C214.141 95.261 214.54 96.2212 214.541 97.2228V99.0137C214.54 100.015 214.141 100.976 213.432 101.684C212.723 102.392 211.762 102.79 210.759 102.792ZM156.241 94.1645C155.43 94.1654 154.652 94.4879 154.078 95.0613C153.504 95.6346 153.181 96.412 153.18 97.2228V99.0137C153.181 99.8246 153.504 100.602 154.078 101.175C154.652 101.749 155.43 102.071 156.241 102.072H210.759C211.571 102.071 212.349 101.749 212.923 101.175C213.497 100.602 213.82 99.8246 213.82 99.0137V97.2228C213.82 96.412 213.497 95.6346 212.923 95.0613C212.349 94.4879 211.571 94.1654 210.759 94.1645H156.241Z" fill="#3F3D56"/>
<path d="M210.759 118.23H156.241C155.239 118.228 154.277 117.83 153.569 117.122C152.86 116.414 152.461 115.453 152.46 114.452V112.661C152.461 111.659 152.86 110.699 153.569 109.991C154.277 109.282 155.239 108.884 156.241 108.883H210.759C211.762 108.884 212.723 109.282 213.432 109.991C214.141 110.699 214.54 111.659 214.541 112.661V114.452C214.54 115.453 214.141 116.414 213.432 117.122C212.723 117.83 211.762 118.228 210.759 118.23ZM156.241 109.603C155.43 109.603 154.652 109.926 154.078 110.499C153.504 111.073 153.181 111.85 153.18 112.661V114.452C153.181 115.263 153.504 116.04 154.078 116.613C154.652 117.187 155.43 117.509 156.241 117.51H210.759C211.571 117.509 212.349 117.187 212.923 116.613C213.497 116.04 213.82 115.263 213.82 114.452V112.661C213.82 111.85 213.497 111.073 212.923 110.499C212.349 109.926 211.571 109.603 210.759 109.603H156.241Z" fill="#3F3D56"/>
<path d="M227.326 23.3897V58.0706C221.809 59.5204 216.033 59.6867 210.443 58.5568C204.852 57.4269 199.595 55.0308 195.077 51.553C190.558 48.0752 186.899 43.6082 184.38 38.4959C181.861 33.3836 180.549 27.7621 180.546 22.0639C180.546 21.0468 180.587 20.0403 180.669 19.0444H201.136C202.117 19.0454 203.084 18.805 203.95 18.3445C204.816 17.8841 205.556 17.2177 206.103 16.4042C206.651 15.5907 206.99 14.6551 207.09 13.6799C207.19 12.7047 207.048 11.7199 206.677 10.8124H214.731C216.384 10.8118 218.022 11.1367 219.55 11.7685C221.078 12.4003 222.467 13.3266 223.636 14.4946C224.806 15.6626 225.734 17.0493 226.367 18.5755C227 20.1018 227.326 21.7377 227.326 23.3897Z" fill="#F0F0F0"/>
<path d="M171.455 193.243C171.455 193.974 171.428 194.696 171.369 195.409H152.706C151.053 195.409 149.415 195.084 147.888 194.452C146.36 193.82 144.972 192.894 143.803 191.726C142.634 190.558 141.707 189.171 141.074 187.645C140.441 186.119 140.116 184.483 140.116 182.832V165.777C144.028 165.269 148.003 165.6 151.777 166.747C155.551 167.894 159.037 169.832 162.003 172.431C164.968 175.03 167.345 178.23 168.975 181.819C170.605 185.408 171.451 189.302 171.455 193.243H171.455Z" fill="#964B00"/>
<path d="M20.9335 163.319C21.4579 163.549 22.0524 163.563 22.5866 163.356C23.1207 163.149 23.5509 162.739 23.7828 162.216L40.5953 124.151C40.9801 123.28 41.0977 122.315 40.9332 121.377C40.7687 120.439 40.3294 119.571 39.671 118.882C39.0127 118.194 38.1647 117.716 37.2344 117.509C36.3041 117.302 35.3332 117.375 34.4445 117.719H34.4445C33.4178 118.111 32.5587 118.846 32.0133 119.799C31.9266 119.95 31.8479 120.105 31.7776 120.264L14.9651 158.329C14.8506 158.588 14.7882 158.868 14.7818 159.151C14.7753 159.434 14.8247 159.716 14.9273 159.981C15.0299 160.245 15.1836 160.487 15.3797 160.692C15.5757 160.897 15.8103 161.061 16.0699 161.175L20.9335 163.319Z" fill="#FFD5AA"/>
<path d="M39.9051 139.778L23.2755 136.086L27.3915 125.209C28.0927 122.55 29.7245 120.231 31.9909 118.671C34.2574 117.111 37.0084 116.415 39.7449 116.708L39.9051 116.726L39.9051 139.778Z" fill="#2F2E41"/>
<path d="M73.4944 163.864C73.0052 163.863 72.5268 163.72 72.117 163.454C71.7072 163.187 71.3834 162.807 71.185 162.361L54.3726 124.296C53.8379 123.085 53.7882 121.715 54.2337 120.469C54.6792 119.222 55.586 118.194 56.7676 117.594C57.9492 116.995 59.3156 116.872 60.5859 117.248C61.8561 117.625 62.9335 118.474 63.5963 119.62V119.62C63.6895 119.782 63.774 119.948 63.8494 120.119L80.6618 158.184C80.9317 158.795 80.9476 159.488 80.7058 160.111C80.4641 160.734 79.9847 161.235 79.3729 161.505L74.3444 163.721L74.3419 163.715C74.0701 163.813 73.7833 163.863 73.4944 163.864V163.864Z" fill="#FFD5AA"/>
<path d="M50.2384 150.792C49.6655 150.793 49.1162 151.021 48.711 151.425C48.3059 151.83 48.078 152.379 48.0774 152.951V197.211C48.078 197.784 48.3059 198.332 48.711 198.737C49.1162 199.142 49.6655 199.37 50.2384 199.37H55.5543C56.1273 199.37 56.6766 199.142 57.0817 198.737C57.4868 198.332 57.7147 197.784 57.7154 197.211V152.951C57.7147 152.379 57.4868 151.83 57.0817 151.425C56.6766 151.021 56.1273 150.793 55.5543 150.792H50.2384Z" fill="#FFD5AA"/>
<path d="M39.7242 150.792C39.1512 150.793 38.602 151.021 38.1968 151.425C37.7917 151.83 37.5638 152.379 37.5632 152.951V197.211C37.5638 197.784 37.7917 198.332 38.1968 198.737C38.602 199.142 39.1512 199.37 39.7242 199.37H45.0402C45.6131 199.37 46.1624 199.142 46.5676 198.737C46.9727 198.332 47.2006 197.784 47.2012 197.211V152.951C47.2006 152.379 46.9727 151.83 46.5676 151.425C46.1624 151.021 45.6131 150.793 45.0402 150.792H39.7242Z" fill="#FFD5AA"/>
<path d="M47.4805 104.422C57.6252 104.422 65.8491 96.2066 65.8491 86.0724C65.8491 75.9381 57.6252 67.7227 47.4805 67.7227C37.3357 67.7227 29.1118 75.9381 29.1118 86.0724C29.1118 96.2066 37.3357 104.422 47.4805 104.422Z" fill="#FFD5AA"/>
<path d="M53.5931 93.7752C54.7838 93.7422 56.2657 93.7009 57.4074 92.8678C57.7473 92.6096 58.0266 92.2802 58.2257 91.9028C58.4248 91.5253 58.5389 91.109 58.5599 90.6828C58.5806 90.38 58.5308 90.0765 58.4146 89.7961C58.2984 89.5156 58.1188 89.2658 57.8899 89.0662C57.2936 88.5629 56.4229 88.4448 55.4846 88.7203L56.4568 81.6231L55.7431 81.5254L54.6002 89.8691L55.1962 89.5959C55.8871 89.2793 56.8355 89.1182 57.4249 89.6158C57.5696 89.7458 57.6824 89.9075 57.7544 90.0882C57.8264 90.2689 57.8557 90.4637 57.8401 90.6576C57.8226 90.9747 57.7369 91.2844 57.589 91.5655C57.441 91.8466 57.2341 92.0926 56.9824 92.2867C56.094 92.9349 54.9128 93.0186 53.5731 93.056L53.5931 93.7752Z" fill="#2F2E41"/>
<path d="M63.8658 82.2352H59.9861V82.9548H63.8658V82.2352Z" fill="#2F2E41"/>
<path d="M51.62 82.2352H47.7404V82.9548H51.62V82.2352Z" fill="#2F2E41"/>
<path d="M65.6811 164.087L59.0698 115.874C58.9989 115.357 58.743 114.883 58.3493 114.54C57.9557 114.197 57.451 114.008 56.9287 114.008H51.9384C51.9592 113.889 51.97 113.769 51.9708 113.648V111.849C51.9707 111.277 51.7431 110.728 51.3378 110.323C50.9325 109.918 50.3829 109.691 49.8097 109.691H45.4877C44.9146 109.691 44.3649 109.918 43.9596 110.323C43.5544 110.728 43.3267 111.277 43.3267 111.849V113.648C43.3274 113.769 43.3383 113.889 43.359 114.008H38.3687C37.8464 114.008 37.3417 114.197 36.9481 114.54C36.5545 114.883 36.2985 115.357 36.2276 115.874L29.6163 164.087C29.5744 164.392 29.5985 164.703 29.6869 164.998C29.7753 165.294 29.926 165.567 30.1288 165.799C30.3317 166.031 30.582 166.218 30.8629 166.345C31.1437 166.473 31.4487 166.539 31.7573 166.539H63.5401C63.8487 166.539 64.1537 166.473 64.4346 166.345C64.7154 166.218 64.9657 166.031 65.1686 165.799C65.3714 165.567 65.5221 165.294 65.6105 164.999C65.6989 164.703 65.723 164.392 65.6811 164.087V164.087Z" fill="#2F2E41"/>
<path d="M55.3924 139.778V116.726L55.5526 116.708C58.2925 116.415 61.0465 117.114 63.3145 118.677C65.5824 120.241 67.2137 122.565 67.912 125.228L72.022 136.086L55.3924 139.778Z" fill="#2F2E41"/>
<path d="M46.5555 104.995L33.8503 100.068C31.7728 99.2628 29.6836 98.4817 27.617 97.6484C26.7318 97.3403 25.9164 96.8602 25.2178 96.2358C24.6095 95.5926 24.195 94.7911 24.0216 93.9234C23.5809 92.0628 23.6606 90.0285 23.692 88.1297C23.7164 86.0526 23.8875 83.9797 24.2041 81.9266C24.759 78.0684 26.0619 74.3555 28.04 70.9958C31.6031 65.1557 37.742 60.7618 44.8034 61.1125C48.0725 61.2748 51.3604 62.4467 53.7894 64.6795C54.0427 64.982 54.327 65.2572 54.6376 65.5007C54.8535 65.5816 55.0884 65.5974 55.3131 65.546C55.6095 65.527 55.9062 65.5125 56.2031 65.5024C57.2332 65.459 58.2652 65.5023 59.2881 65.6317C61.1522 65.8329 62.919 66.5657 64.3774 67.7428C65.5913 68.7858 66.5789 70.2584 66.6805 71.8948C66.7296 72.646 66.6053 73.3984 66.3171 74.094C66.029 74.7896 65.5847 75.4098 65.0186 75.9067C63.5028 77.1829 61.3402 76.7344 59.5219 76.6381L52.861 76.2856L49.4862 76.107C48.7913 76.0702 48.7933 77.1497 49.4862 77.1864L58.4562 77.6611C59.8977 77.7374 61.3833 77.9244 62.8259 77.838C63.9344 77.7879 64.9928 77.3625 65.8273 76.6319C66.5893 75.9325 67.157 75.0478 67.4749 74.0641C67.7929 73.0803 67.8502 72.0311 67.6413 71.0186C67.1789 68.8103 65.5337 66.9836 63.605 65.8968C60.9808 64.4181 57.8466 64.2764 54.9103 64.495L55.2923 64.6531C51.9707 61.0918 46.8828 59.5881 42.1064 60.1143C37.0632 60.6699 32.5777 63.4805 29.3549 67.3238C25.7617 71.6088 23.8036 76.9518 23.0424 82.4461C22.6462 85.4124 22.5158 88.4082 22.6527 91.3977C22.647 92.7162 22.8728 94.0254 23.3198 95.2659C23.8298 96.4733 24.7519 97.4608 25.9221 98.053C27.2637 98.7 28.643 99.266 30.0524 99.7479L34.7333 101.563L43.9278 105.128L46.2682 106.035C46.9168 106.287 47.1978 105.244 46.5555 104.995Z" fill="#2F2E41"/>
<path d="M26.5788 68.3139C25.4746 68.3139 24.3953 67.9868 23.4772 67.374C22.5592 66.7612 21.8436 65.8903 21.4211 64.8712C20.9986 63.8522 20.888 62.7308 21.1034 61.649C21.3188 60.5672 21.8505 59.5735 22.6313 58.7936C23.412 58.0137 24.4067 57.4825 25.4897 57.2673C26.5726 57.0521 27.6951 57.1626 28.7152 57.5847C29.7353 58.0068 30.6071 58.7216 31.2206 59.6387C31.834 60.5558 32.1614 61.634 32.1614 62.737C32.1598 64.2156 31.571 65.6331 30.5245 66.6786C29.4779 67.7241 28.0589 68.3122 26.5788 68.3139ZM26.5788 58.2396C25.6884 58.2396 24.8179 58.5033 24.0775 58.9975C23.3372 59.4917 22.7601 60.1941 22.4194 61.0159C22.0786 61.8377 21.9895 62.742 22.1632 63.6144C22.3369 64.4869 22.7657 65.2882 23.3953 65.9172C24.0249 66.5462 24.8271 66.9746 25.7005 67.1481C26.5738 67.3216 27.479 67.2326 28.3017 66.8922C29.1243 66.5518 29.8275 65.9753 30.3222 65.2357C30.8169 64.4961 31.0809 63.6265 31.0809 62.737C31.0796 61.5446 30.6048 60.4015 29.7608 59.5583C28.9168 58.7152 27.7724 58.2409 26.5788 58.2396Z" fill="#2F2E41"/>
<path d="M254.64 200H0.36017C0.264647 200 0.173036 199.962 0.105491 199.895C0.037946 199.827 0 199.736 0 199.64C0 199.545 0.037946 199.453 0.105491 199.386C0.173036 199.318 0.264647 199.28 0.36017 199.28H254.64C254.735 199.28 254.827 199.318 254.895 199.386C254.962 199.453 255 199.545 255 199.64C255 199.736 254.962 199.827 254.895 199.895C254.827 199.962 254.735 200 254.64 200Z" fill="#3F3D56"/>
<path d="M192.578 140.299H166.696C165.741 140.297 164.825 139.918 164.15 139.243C163.475 138.569 163.095 137.654 163.094 136.701V134.91C163.095 133.956 163.475 133.041 164.15 132.367C164.825 131.692 165.741 131.313 166.696 131.312H192.578C193.533 131.313 194.448 131.692 195.124 132.367C195.799 133.041 196.179 133.956 196.18 134.91V136.701C196.179 137.654 195.799 138.569 195.124 139.243C194.448 139.918 193.533 140.297 192.578 140.299V140.299Z" fill="#964B00"/>
<path d="M195.305 136.846H169.423C168.42 136.845 167.459 136.446 166.75 135.738C166.041 135.03 165.642 134.07 165.641 133.068V131.277C165.642 130.276 166.041 129.315 166.75 128.607C167.459 127.899 168.42 127.5 169.423 127.499H195.305C196.308 127.5 197.269 127.899 197.978 128.607C198.687 129.315 199.086 130.276 199.087 131.277V133.068C199.086 134.07 198.687 135.03 197.978 135.738C197.269 136.446 196.308 136.845 195.305 136.846V136.846ZM169.423 128.219C168.611 128.22 167.833 128.542 167.259 129.116C166.685 129.689 166.362 130.466 166.361 131.277V133.068C166.362 133.879 166.685 134.656 167.259 135.23C167.833 135.803 168.611 136.125 169.423 136.126H195.305C196.117 136.125 196.895 135.803 197.469 135.23C198.043 134.656 198.366 133.879 198.367 133.068V131.277C198.366 130.466 198.043 129.689 197.469 129.116C196.895 128.542 196.117 128.22 195.305 128.219H169.423Z" fill="#3F3D56"/>
</svg>
