<?xml version="1.0" encoding="utf-8"?>
<!-- Generator: Adobe Illustrator 26.0.1, SVG Export Plug-In . SVG Version: 6.00 Build 0)  -->
<svg version="1.1" id="Layer_1" xmlns="http://www.w3.org/2000/svg" xmlns:xlink="http://www.w3.org/1999/xlink" x="0px" y="0px"
	 viewBox="0 0 239.62 34.91" style="enable-background:new 0 0 239.62 34.91;" xml:space="preserve">
<style type="text/css">
	.st0{fill:#EF4849;}
	.st1{fill:#EF4849;stroke:#EF4849;stroke-width:0.5;stroke-miterlimit:10;}
</style>
<g>
	<path class="st0" d="M3.47,11.83c0-1.04,0.2-2.02,0.6-2.94c0.4-0.92,0.94-1.72,1.63-2.4s1.49-1.23,2.4-1.63
		c0.92-0.4,1.9-0.6,2.94-0.6h11.58v5.05H11.04c-0.35,0-0.68,0.06-0.99,0.19c-0.31,0.13-0.57,0.31-0.8,0.54
		c-0.23,0.23-0.41,0.5-0.54,0.8c-0.13,0.31-0.19,0.63-0.19,0.99c0,0.35,0.06,0.68,0.19,0.99c0.13,0.31,0.31,0.58,0.54,0.81
		c0.23,0.23,0.5,0.41,0.8,0.54c0.3,0.13,0.63,0.19,0.99,0.19h5.05c1.04,0,2.03,0.2,2.95,0.59c0.92,0.39,1.72,0.93,2.41,1.62
		s1.23,1.49,1.62,2.41c0.39,0.92,0.59,1.9,0.59,2.95c0,1.04-0.2,2.02-0.59,2.94c-0.39,0.92-0.93,1.72-1.62,2.4
		c-0.69,0.69-1.49,1.23-2.41,1.63c-0.92,0.4-1.9,0.6-2.95,0.6H4.88v-5.05h11.21c0.35,0,0.68-0.06,0.99-0.19
		c0.3-0.13,0.57-0.31,0.8-0.54c0.23-0.23,0.41-0.5,0.54-0.8c0.13-0.3,0.19-0.63,0.19-0.99c0-0.35-0.06-0.68-0.19-0.99
		c-0.13-0.3-0.31-0.57-0.54-0.8c-0.23-0.23-0.5-0.41-0.8-0.54c-0.31-0.13-0.63-0.19-0.99-0.19h-5.05c-1.04,0-2.02-0.2-2.94-0.6
		c-0.92-0.4-1.72-0.94-2.4-1.63s-1.23-1.49-1.63-2.41C3.67,13.86,3.47,12.87,3.47,11.83z"/>
	<path class="st0" d="M37.22,29.5h-5.03V9.31h-7.59V4.26h20.19v5.05h-7.57V29.5z"/>
	<path class="st0" d="M52.51,29.5h-5.05V4.26h10.1c0.93,0,1.82,0.12,2.68,0.36c0.86,0.24,1.66,0.58,2.4,1.02
		c0.74,0.44,1.43,0.97,2.04,1.58c0.62,0.62,1.14,1.3,1.58,2.05c0.44,0.75,0.78,1.56,1.02,2.41c0.24,0.86,0.36,1.75,0.36,2.68
		c0,0.87-0.11,1.71-0.33,2.53c-0.22,0.82-0.53,1.6-0.93,2.34s-0.9,1.42-1.49,2.04c-0.59,0.62-1.24,1.16-1.97,1.62l2.8,6.6h-5.37
		l-2.2-5.09l-5.65,0.03V29.5z M52.51,9.31v10.1h5.05c0.69,0,1.34-0.13,1.95-0.4c0.61-0.26,1.14-0.62,1.6-1.08
		c0.46-0.46,0.82-0.99,1.08-1.61c0.26-0.62,0.4-1.27,0.4-1.96c0-0.69-0.13-1.35-0.4-1.96c-0.26-0.62-0.63-1.15-1.08-1.61
		c-0.46-0.46-0.99-0.82-1.6-1.08c-0.61-0.26-1.26-0.4-1.95-0.4H52.51z"/>
	<polygon class="st0" points="55.46,9.31 55.46,4.26 88.26,4.26 88.26,9.31 65.04,9.31 	"/>
	<polygon points="70.96,19.42 70.96,14.36 76.39,14.36 85.31,14.36 85.31,19.42 76.39,19.42 	"/>
	<polygon class="st0" points="68.44,24.45 88.26,24.45 88.26,29.5 60.26,29.5 60.26,24.45 	"/>
	<path class="st0" d="M98.51,24.45c-1.68,0.02-5.48,0.02-6.71-0.01v5.06h22.23v-5.05H98.51z"/>
	<path d="M97.33,19.42L97.33,19.42l9.08-0.01v-5.05h-9.08v-0.01c-1.28,0.02-4.25,0.02-5.53,0v5.06
		C92.99,19.39,95.97,19.41,97.33,19.42z"/>
	<path class="st0" d="M91.8,4.26v5.05c0.05,0,0.09,0,0.14,0c0.8-0.01,1.6-0.01,2.4-0.01c0.8,0,1.6,0,2.4,0.01
		c0.21,0,0.41,0,0.62,0.01v0h13.51V4.26H91.8z"/>
	<path class="st0" d="M123.24,29.5h-5.03V9.31h-7.59V4.26h20.19v5.05h-7.57V29.5z"/>
	<path class="st0" d="M142.09,11.83c0-1.04,0.2-2.02,0.6-2.94c0.4-0.92,0.94-1.72,1.63-2.4c0.69-0.69,1.49-1.23,2.4-1.63
		c0.92-0.4,1.9-0.6,2.94-0.6h11.58v5.05h-11.58c-0.35,0-0.68,0.06-0.99,0.19c-0.3,0.13-0.57,0.31-0.8,0.54
		c-0.23,0.23-0.41,0.5-0.54,0.8c-0.13,0.31-0.19,0.63-0.19,0.99c0,0.35,0.06,0.68,0.19,0.99c0.13,0.31,0.31,0.58,0.54,0.81
		c0.23,0.23,0.5,0.41,0.8,0.54c0.31,0.13,0.63,0.19,0.99,0.19h5.05c1.04,0,2.03,0.2,2.95,0.59c0.92,0.39,1.73,0.93,2.41,1.62
		c0.69,0.69,1.23,1.49,1.62,2.41c0.39,0.92,0.59,1.9,0.59,2.95c0,1.04-0.2,2.02-0.59,2.94c-0.39,0.92-0.93,1.72-1.62,2.4
		c-0.69,0.69-1.49,1.23-2.41,1.63c-0.92,0.4-1.9,0.6-2.95,0.6H143.5v-5.05h11.21c0.35,0,0.68-0.06,0.99-0.19
		c0.31-0.13,0.57-0.31,0.8-0.54c0.23-0.23,0.41-0.5,0.54-0.8c0.13-0.3,0.19-0.63,0.19-0.99c0-0.35-0.06-0.68-0.19-0.99
		c-0.13-0.3-0.31-0.57-0.54-0.8c-0.23-0.23-0.5-0.41-0.8-0.54c-0.3-0.13-0.63-0.19-0.99-0.19h-5.05c-1.04,0-2.02-0.2-2.94-0.6
		c-0.92-0.4-1.72-0.94-2.4-1.63c-0.69-0.69-1.23-1.49-1.63-2.41C142.29,13.86,142.09,12.87,142.09,11.83z"/>
	<path class="st0" d="M185.78,29.5h-5.4l-9.73-16.62V29.5h-5.05V4.26h5.4l9.73,16.63V4.26h5.05V29.5z"/>
	<path class="st0" d="M210.37,29.5h-5.05v-5.05h-10.1v5.05h-5.03V14.36c0-1.4,0.26-2.71,0.79-3.93c0.53-1.23,1.25-2.3,2.16-3.21
		c0.91-0.92,1.98-1.64,3.2-2.16c1.23-0.53,2.54-0.79,3.93-0.79c1.4,0,2.71,0.26,3.93,0.79c1.23,0.53,2.3,1.25,3.21,2.16
		c0.92,0.92,1.64,1.99,2.17,3.21c0.53,1.23,0.79,2.54,0.79,3.93V29.5z M205.32,19.42v-5.05c0-0.69-0.13-1.35-0.4-1.96
		s-0.62-1.15-1.08-1.61c-0.46-0.46-0.99-0.82-1.61-1.08c-0.62-0.26-1.27-0.4-1.96-0.4c-0.69,0-1.35,0.13-1.96,0.4
		c-0.62,0.26-1.15,0.63-1.61,1.08c-0.46,0.46-0.82,0.99-1.08,1.61c-0.26,0.62-0.4,1.27-0.4,1.96v5.05H205.32z"/>
	<g>
		<g>
			<g>
				<path class="st1" d="M236.71,6.52c-0.17-0.14-0.4-0.12-0.54,0.05l-4.75,5.64c-0.1-0.01-0.22-0.06-0.38-0.1
					c-0.12-0.05-0.26-0.11-0.39-0.2l4.92-5.87c0.14-0.17,0.12-0.4-0.05-0.54c-0.17-0.14-0.4-0.12-0.54,0.05l-5,5.93
					c-0.1-0.07-0.21-0.16-0.31-0.24c-0.1-0.09-0.21-0.18-0.29-0.26l4.98-5.93c0.14-0.17,0.12-0.4-0.05-0.54s-0.4-0.12-0.54,0.05
					l-4.91,5.87c-0.22-0.27-0.38-0.53-0.43-0.7l4.75-5.66c0.14-0.17,0.12-0.4-0.05-0.54s-0.4-0.12-0.54,0.05l-4.89,5.81
					c-0.47,0.56-0.68,1.26-0.62,1.97c0.03,0.31,0.11,0.59,0.23,0.85l-13.02,15.07c-0.53,0.63-0.46,1.59,0.18,2.11
					c0.29,0.26,0.69,0.37,1.07,0.33c0.38-0.03,0.75-0.22,1.04-0.54l12.31-15.51c0.36,0.12,0.75,0.19,1.14,0.15
					c0.69-0.06,1.36-0.39,1.83-0.95l4.87-5.81C236.9,6.89,236.88,6.66,236.71,6.52z"/>
			</g>
		</g>
		<g>
			<g>
				<path class="st1" d="M213.78,11.72c0.68,0.81,1.64,1.32,2.72,1.42c0.65,0.06,1.32-0.04,1.92-0.3l13.3,16.32
					c0.24,0.31,0.61,0.5,1.02,0.53c0.4,0.04,0.8-0.08,1.09-0.33c0.64-0.52,0.71-1.48,0.18-2.11l-13.91-15.71
					c1.08-1.49,1.03-3.54-0.17-4.96c-1.63-1.94-3.33-3.04-4.9-3.17c-0.9-0.08-1.72,0.18-2.38,0.72
					C210.77,5.68,211.22,8.67,213.78,11.72z"/>
			</g>
		</g>
	</g>
</g>
</svg>
