<svg width="15" height="15" viewBox="0 0 15 15" fill="none" xmlns="http://www.w3.org/2000/svg">
<g clip-path="url(#clip0_145_880)">
<path d="M14.3044 6.25613C14.3044 5.56579 13.7447 5.01228 13.0605 5.01228H9.12999L9.72704 2.17009C9.73948 2.1079 9.74569 2.03948 9.74569 1.97107C9.74569 1.71608 9.63997 1.47975 9.47205 1.31183L8.81281 0.658813L4.72055 4.75107C4.49044 4.98118 4.35361 5.29215 4.35361 5.63421V11.8534C4.35361 12.1833 4.48466 12.4997 4.71793 12.733C4.9512 12.9662 5.26757 13.0973 5.59746 13.0973H11.1948C11.711 13.0973 12.1525 12.7863 12.3391 12.3385L14.2173 7.95398C14.2733 7.81094 14.3044 7.66168 14.3044 7.49998V6.25613ZM0.62207 13.0973H3.10977V5.63421H0.62207V13.0973Z" fill="black"/>
</g>
<defs>
<clipPath id="clip0_145_880">
<rect width="14.9262" height="14.9262" fill="white" transform="translate(0 0.0369263)"/>
</clipPath>
</defs>
</svg>
