<svg width="31" height="31" viewBox="0 0 31 31" fill="none" xmlns="http://www.w3.org/2000/svg">
<path d="M26.9183 5.95458C26.2586 5.29455 25.4752 4.77096 24.6131 4.41373C23.751 4.05651 22.8269 3.87264 21.8937 3.87264C20.9605 3.87264 20.0364 4.05651 19.1743 4.41373C18.3121 4.77096 17.5288 5.29455 16.8691 5.95458L15.5 7.32375L14.1308 5.95458C12.7982 4.62198 10.9908 3.87333 9.1062 3.87333C7.22162 3.87333 5.41422 4.62198 4.08162 5.95458C2.74901 7.28719 2.00037 9.09458 2.00037 10.9792C2.00037 12.8638 2.74901 14.6711 4.08162 16.0038L5.45078 17.3729L15.5 27.4221L25.5491 17.3729L26.9183 16.0038C27.5783 15.344 28.1019 14.5607 28.4591 13.6986C28.8164 12.8364 29.0002 11.9124 29.0002 10.9792C29.0002 10.046 28.8164 9.12189 28.4591 8.25975C28.1019 7.39762 27.5783 6.61431 26.9183 5.95458V5.95458Z" stroke="#ADADAF" stroke-width="2" stroke-linecap="round" stroke-linejoin="round"/>
</svg>
