<svg width="120" height="90" viewBox="0 0 120 90" fill="none" xmlns="http://www.w3.org/2000/svg">
<rect width="120" height="90" fill="#BFFFF0"/>
<circle cx="60.5" cy="44.5" r="22.5" fill="white" fill-opacity="0.5"/>
<g clip-path="url(#clip0_2346_936)">
<path d="M60.5001 44.4719C63.1001 41.8579 69.6016 46.4313 60.5001 52.3126C51.3985 46.4313 57.9001 41.8594 60.5001 44.4719Z" fill="black"/>
<path d="M53.8594 32C53.6168 32 53.3776 32.0565 53.1606 32.165C52.9436 32.2734 52.7549 32.4309 52.6094 32.625L48.1563 38.5625C48.0548 38.6977 48 38.8622 48 39.0312V55.4375C48 55.8519 48.1646 56.2493 48.4576 56.5424C48.7507 56.8354 49.1481 57 49.5625 57H71.4375C71.8519 57 72.2493 56.8354 72.5424 56.5424C72.8354 56.2493 73 55.8519 73 55.4375V39.0312C73 38.8622 72.9452 38.6977 72.8437 38.5625L68.3906 32.625C68.2451 32.4309 68.0564 32.2734 67.8394 32.165C67.6224 32.0565 67.3832 32 67.1406 32H53.8594ZM53.8594 33.5625H59.7188V38.25H50.3438L53.8594 33.5625ZM61.2812 38.25V33.5625H67.1406L70.6562 38.25H61.2812ZM71.4375 39.8125V55.4375H49.5625V39.8125H71.4375Z" fill="black"/>
</g>
<defs>
<clipPath id="clip0_2346_936">
<rect width="25" height="25" fill="white" transform="translate(48 32)"/>
</clipPath>
</defs>
</svg>
