<svg width="72" height="72" viewBox="0 0 72 72" fill="none" xmlns="http://www.w3.org/2000/svg">
<rect width="72" height="72" rx="36" fill="#FFBFBF"/>
<path d="M36.5 35.5C37.7432 35.5 38.9355 35.0061 39.8146 34.1271C40.6936 33.248 41.1875 32.0557 41.1875 30.8125C41.1875 29.5693 40.6936 28.377 39.8146 27.4979C38.9355 26.6189 37.7432 26.125 36.5 26.125C35.2568 26.125 34.0645 26.6189 33.1854 27.4979C32.3064 28.377 31.8125 29.5693 31.8125 30.8125C31.8125 32.0557 32.3064 33.248 33.1854 34.1271C34.0645 35.0061 35.2568 35.5 36.5 35.5ZM39.625 30.8125C39.625 31.6413 39.2958 32.4362 38.7097 33.0222C38.1237 33.6083 37.3288 33.9375 36.5 33.9375C35.6712 33.9375 34.8763 33.6083 34.2903 33.0222C33.7042 32.4362 33.375 31.6413 33.375 30.8125C33.375 29.9837 33.7042 29.1888 34.2903 28.6028C34.8763 28.0167 35.6712 27.6875 36.5 27.6875C37.3288 27.6875 38.1237 28.0167 38.7097 28.6028C39.2958 29.1888 39.625 29.9837 39.625 30.8125ZM45.875 43.3125C45.875 44.875 44.3125 44.875 44.3125 44.875H28.6875C28.6875 44.875 27.125 44.875 27.125 43.3125C27.125 41.75 28.6875 37.0625 36.5 37.0625C44.3125 37.0625 45.875 41.75 45.875 43.3125ZM44.3125 43.3062C44.3109 42.9219 44.0719 41.7656 43.0125 40.7062C41.9938 39.6875 40.0766 38.625 36.5 38.625C32.9219 38.625 31.0063 39.6875 29.9875 40.7062C28.9281 41.7656 28.6906 42.9219 28.6875 43.3062H44.3125Z" fill="black"/>
</svg>
