<svg width="72" height="72" viewBox="0 0 72 72" fill="none" xmlns="http://www.w3.org/2000/svg">
<rect width="72" height="72" fill="#BFFFC6"/>
<circle cx="36.5" cy="35.5" r="22.5" fill="white" fill-opacity="0.5"/>
<g clip-path="url(#clip0_2308_920)">
<path d="M28.6406 25.1094C28.7873 24.9379 28.9694 24.8002 29.1744 24.7058C29.3794 24.6114 29.6024 24.5625 29.8281 24.5625H43.1719C43.3976 24.5625 43.6206 24.6114 43.8256 24.7058C44.0306 24.8002 44.2127 24.9379 44.3594 25.1094L48.4359 29.8656C48.7999 30.2904 49 30.8313 49 31.3906V31.7891C49.0001 32.5625 48.7585 33.3166 48.3091 33.946C47.8597 34.5754 47.2248 35.0486 46.4932 35.2996C45.7617 35.5506 44.97 35.5667 44.2288 35.3457C43.4877 35.1248 42.8341 34.6778 42.3594 34.0672C42.0127 34.5137 41.5685 34.875 41.0607 35.1233C40.5529 35.3717 39.995 35.5005 39.4297 35.5C38.8644 35.5006 38.3064 35.3718 37.7986 35.1235C37.2908 34.8751 36.8466 34.5138 36.5 34.0672C36.1534 34.5138 35.7092 34.8751 35.2014 35.1235C34.6936 35.3718 34.1356 35.5006 33.5703 35.5C33.005 35.5006 32.4471 35.3718 31.9392 35.1235C31.4314 34.8751 30.9872 34.5138 30.6406 34.0672C30.1659 34.6778 29.5123 35.1248 28.7712 35.3457C28.03 35.5667 27.2383 35.5506 26.5068 35.2996C25.7752 35.0486 25.1403 34.5754 24.6909 33.946C24.2415 33.3166 23.9999 32.5625 24 31.7891V31.3906C24 30.8313 24.2001 30.2904 24.5641 29.8656L28.6422 25.1078L28.6406 25.1094ZM31.4219 31.7891C31.4219 32.3589 31.6482 32.9053 32.0511 33.3082C32.454 33.7111 33.0005 33.9375 33.5703 33.9375C34.1401 33.9375 34.6866 33.7111 35.0895 33.3082C35.4924 32.9053 35.7188 32.3589 35.7188 31.7891C35.7188 31.5819 35.8011 31.3831 35.9476 31.2366C36.0941 31.0901 36.2928 31.0078 36.5 31.0078C36.7072 31.0078 36.9059 31.0901 37.0524 31.2366C37.1989 31.3831 37.2812 31.5819 37.2812 31.7891C37.2812 32.3589 37.5076 32.9053 37.9105 33.3082C38.3134 33.7111 38.8599 33.9375 39.4297 33.9375C39.9995 33.9375 40.546 33.7111 40.9489 33.3082C41.3518 32.9053 41.5781 32.3589 41.5781 31.7891C41.5781 31.5819 41.6604 31.3831 41.8069 31.2366C41.9535 31.0901 42.1522 31.0078 42.3594 31.0078C42.5666 31.0078 42.7653 31.0901 42.9118 31.2366C43.0583 31.3831 43.1406 31.5819 43.1406 31.7891C43.1406 32.3589 43.367 32.9053 43.7699 33.3082C44.1728 33.7111 44.7193 33.9375 45.2891 33.9375C45.8589 33.9375 46.4053 33.7111 46.8082 33.3082C47.2111 32.9053 47.4375 32.3589 47.4375 31.7891V31.3906C47.4375 31.2044 47.371 31.0243 47.25 30.8828L43.1719 26.125H29.8281L25.75 30.8828C25.629 31.0243 25.5625 31.2044 25.5625 31.3906V31.7891C25.5625 32.3589 25.7889 32.9053 26.1918 33.3082C26.5947 33.7111 27.1411 33.9375 27.7109 33.9375C28.2807 33.9375 28.8272 33.7111 29.2301 33.3082C29.633 32.9053 29.8594 32.3589 29.8594 31.7891C29.8594 31.5819 29.9417 31.3831 30.0882 31.2366C30.2347 31.0901 30.4334 31.0078 30.6406 31.0078C30.8478 31.0078 31.0465 31.0901 31.1931 31.2366C31.3396 31.3831 31.4219 31.5819 31.4219 31.7891ZM26.3438 36.2812C26.551 36.2812 26.7497 36.3636 26.8962 36.5101C27.0427 36.6566 27.125 36.8553 27.125 37.0625V46.4375H28.6875V38.625C28.6875 38.2106 28.8521 37.8132 29.1451 37.5201C29.4382 37.2271 29.8356 37.0625 30.25 37.0625H34.9375C35.3519 37.0625 35.7493 37.2271 36.0424 37.5201C36.3354 37.8132 36.5 38.2106 36.5 38.625V46.4375H45.875V37.0625C45.875 36.8553 45.9573 36.6566 46.1038 36.5101C46.2503 36.3636 46.449 36.2812 46.6562 36.2812C46.8635 36.2812 47.0622 36.3636 47.2087 36.5101C47.3552 36.6566 47.4375 36.8553 47.4375 37.0625V46.4375H48.2188C48.426 46.4375 48.6247 46.5198 48.7712 46.6663C48.9177 46.8128 49 47.0115 49 47.2188C49 47.426 48.9177 47.6247 48.7712 47.7712C48.6247 47.9177 48.426 48 48.2188 48H24.7812C24.574 48 24.3753 47.9177 24.2288 47.7712C24.0823 47.6247 24 47.426 24 47.2188C24 47.0115 24.0823 46.8128 24.2288 46.6663C24.3753 46.5198 24.574 46.4375 24.7812 46.4375H25.5625V37.0625C25.5625 36.8553 25.6448 36.6566 25.7913 36.5101C25.9378 36.3636 26.1365 36.2812 26.3438 36.2812ZM30.25 46.4375H34.9375V38.625H30.25V46.4375ZM38.0625 38.625C38.0625 38.2106 38.2271 37.8132 38.5201 37.5201C38.8132 37.2271 39.2106 37.0625 39.625 37.0625H42.75C43.1644 37.0625 43.5618 37.2271 43.8549 37.5201C44.1479 37.8132 44.3125 38.2106 44.3125 38.625V43.3125C44.3125 43.7269 44.1479 44.1243 43.8549 44.4174C43.5618 44.7104 43.1644 44.875 42.75 44.875H39.625C39.2106 44.875 38.8132 44.7104 38.5201 44.4174C38.2271 44.1243 38.0625 43.7269 38.0625 43.3125V38.625ZM42.75 38.625H39.625V43.3125H42.75V38.625Z" fill="black"/>
</g>
<defs>
<clipPath id="clip0_2308_920">
<rect width="25" height="25" fill="white" transform="translate(24 23)"/>
</clipPath>
</defs>
</svg>
