<svg width="45" height="45" viewBox="0 0 45 45" fill="none" xmlns="http://www.w3.org/2000/svg">
<circle cx="22.5" cy="22.5" r="22.5" fill="white" fill-opacity="0.5"/>
<g clip-path="url(#clip0_2347_967)">
<path d="M22.5001 22.4719C25.1001 19.8579 31.6016 24.4313 22.5001 30.3126C13.3985 24.4313 19.9001 19.8594 22.5001 22.4719Z" fill="black"/>
<path d="M15.8594 10C15.6168 10 15.3776 10.0565 15.1606 10.165C14.9436 10.2734 14.7549 10.4309 14.6094 10.625L10.1563 16.5625C10.0548 16.6977 10 16.8622 10 17.0312V33.4375C10 33.8519 10.1646 34.2493 10.4576 34.5424C10.7507 34.8354 11.1481 35 11.5625 35H33.4375C33.8519 35 34.2493 34.8354 34.5424 34.5424C34.8354 34.2493 35 33.8519 35 33.4375V17.0312C35 16.8622 34.9452 16.6977 34.8437 16.5625L30.3906 10.625C30.2451 10.4309 30.0564 10.2734 29.8394 10.165C29.6224 10.0565 29.3832 10 29.1406 10H15.8594ZM15.8594 11.5625H21.7188V16.25H12.3438L15.8594 11.5625ZM23.2812 16.25V11.5625H29.1406L32.6562 16.25H23.2812ZM33.4375 17.8125V33.4375H11.5625V17.8125H33.4375Z" fill="black"/>
</g>
<defs>
<clipPath id="clip0_2347_967">
<rect width="25" height="25" fill="white" transform="translate(10 10)"/>
</clipPath>
</defs>
</svg>