<svg width="25" height="25" viewBox="0 0 25 25" fill="none" xmlns="http://www.w3.org/2000/svg">
<path d="M11.6146 3.54161L7.73959 9.87494C7.3125 10.5624 7.8125 11.4583 8.625 11.4583H16.3646C17.1771 11.4583 17.6771 10.5624 17.25 9.87494L13.3854 3.54161C13.2933 3.38914 13.1634 3.26304 13.0083 3.17551C12.8532 3.08798 12.6781 3.04199 12.5 3.04199C12.3219 3.04199 12.1468 3.08798 11.9917 3.17551C11.8366 3.26304 11.7067 3.38914 11.6146 3.54161V3.54161Z" fill="black"/>
<path d="M18.2292 22.9166C20.8181 22.9166 22.9167 20.818 22.9167 18.2291C22.9167 15.6403 20.8181 13.5416 18.2292 13.5416C15.6404 13.5416 13.5417 15.6403 13.5417 18.2291C13.5417 20.818 15.6404 22.9166 18.2292 22.9166Z" fill="black"/>
<path d="M4.16667 22.3958H10.4167C10.9896 22.3958 11.4583 21.9271 11.4583 21.3542V15.1042C11.4583 14.5312 10.9896 14.0625 10.4167 14.0625H4.16667C3.59375 14.0625 3.125 14.5312 3.125 15.1042V21.3542C3.125 21.9271 3.59375 22.3958 4.16667 22.3958Z" fill="black"/>
</svg>
