<svg width="73" height="73" viewBox="0 0 73 73" fill="none" xmlns="http://www.w3.org/2000/svg">
<rect width="73" height="73" rx="36.5" fill="#FFD5AA"/>
<path d="M35.6146 27.5416L31.7396 33.8749C31.3125 34.5624 31.8125 35.4583 32.625 35.4583H40.3646C41.1771 35.4583 41.6771 34.5624 41.25 33.8749L37.3854 27.5416C37.2933 27.3891 37.1634 27.263 37.0083 27.1755C36.8532 27.088 36.6781 27.042 36.5 27.042C36.3219 27.042 36.1468 27.088 35.9917 27.1755C35.8366 27.263 35.7067 27.3891 35.6146 27.5416Z" fill="black"/>
<path d="M42.2292 46.9166C44.8181 46.9166 46.9167 44.818 46.9167 42.2291C46.9167 39.6403 44.8181 37.5416 42.2292 37.5416C39.6404 37.5416 37.5417 39.6403 37.5417 42.2291C37.5417 44.818 39.6404 46.9166 42.2292 46.9166Z" fill="black"/>
<path d="M28.1667 46.3958H34.4167C34.9896 46.3958 35.4583 45.9271 35.4583 45.3542V39.1042C35.4583 38.5312 34.9896 38.0625 34.4167 38.0625H28.1667C27.5937 38.0625 27.125 38.5312 27.125 39.1042V45.3542C27.125 45.9271 27.5937 46.3958 28.1667 46.3958Z" fill="black"/>
</svg>
