<svg width="45" height="45" viewBox="0 0 45 45" fill="none" xmlns="http://www.w3.org/2000/svg">
<circle cx="22.5" cy="22.5" r="22.5" fill="white" fill-opacity="0.5"/>
<g clip-path="url(#clip0_2287_905)">
<path d="M14.6406 12.1094C14.7873 11.9379 14.9694 11.8002 15.1744 11.7058C15.3794 11.6114 15.6024 11.5625 15.8281 11.5625H29.1719C29.3976 11.5625 29.6206 11.6114 29.8256 11.7058C30.0306 11.8002 30.2127 11.9379 30.3594 12.1094L34.4359 16.8656C34.7999 17.2904 35 17.8313 35 18.3906V18.7891C35.0001 19.5625 34.7585 20.3166 34.3091 20.946C33.8597 21.5754 33.2248 22.0486 32.4932 22.2996C31.7617 22.5506 30.97 22.5667 30.2288 22.3457C29.4877 22.1248 28.8341 21.6778 28.3594 21.0672C28.0127 21.5137 27.5685 21.875 27.0607 22.1233C26.5529 22.3717 25.995 22.5005 25.4297 22.5C24.8644 22.5006 24.3064 22.3718 23.7986 22.1235C23.2908 21.8751 22.8466 21.5138 22.5 21.0672C22.1534 21.5138 21.7092 21.8751 21.2014 22.1235C20.6936 22.3718 20.1356 22.5006 19.5703 22.5C19.005 22.5006 18.4471 22.3718 17.9392 22.1235C17.4314 21.8751 16.9872 21.5138 16.6406 21.0672C16.1659 21.6778 15.5123 22.1248 14.7712 22.3457C14.03 22.5667 13.2383 22.5506 12.5068 22.2996C11.7752 22.0486 11.1403 21.5754 10.6909 20.946C10.2415 20.3166 9.99991 19.5625 10 18.7891V18.3906C10 17.8313 10.2001 17.2904 10.5641 16.8656L14.6422 12.1078L14.6406 12.1094ZM17.4219 18.7891C17.4219 19.3589 17.6482 19.9053 18.0511 20.3082C18.454 20.7111 19.0005 20.9375 19.5703 20.9375C20.1401 20.9375 20.6866 20.7111 21.0895 20.3082C21.4924 19.9053 21.7188 19.3589 21.7188 18.7891C21.7188 18.5819 21.8011 18.3831 21.9476 18.2366C22.0941 18.0901 22.2928 18.0078 22.5 18.0078C22.7072 18.0078 22.9059 18.0901 23.0524 18.2366C23.1989 18.3831 23.2812 18.5819 23.2812 18.7891C23.2812 19.3589 23.5076 19.9053 23.9105 20.3082C24.3134 20.7111 24.8599 20.9375 25.4297 20.9375C25.9995 20.9375 26.546 20.7111 26.9489 20.3082C27.3518 19.9053 27.5781 19.3589 27.5781 18.7891C27.5781 18.5819 27.6604 18.3831 27.8069 18.2366C27.9535 18.0901 28.1522 18.0078 28.3594 18.0078C28.5666 18.0078 28.7653 18.0901 28.9118 18.2366C29.0583 18.3831 29.1406 18.5819 29.1406 18.7891C29.1406 19.3589 29.367 19.9053 29.7699 20.3082C30.1728 20.7111 30.7193 20.9375 31.2891 20.9375C31.8589 20.9375 32.4053 20.7111 32.8082 20.3082C33.2111 19.9053 33.4375 19.3589 33.4375 18.7891V18.3906C33.4375 18.2044 33.371 18.0243 33.25 17.8828L29.1719 13.125H15.8281L11.75 17.8828C11.629 18.0243 11.5625 18.2044 11.5625 18.3906V18.7891C11.5625 19.3589 11.7889 19.9053 12.1918 20.3082C12.5947 20.7111 13.1411 20.9375 13.7109 20.9375C14.2807 20.9375 14.8272 20.7111 15.2301 20.3082C15.633 19.9053 15.8594 19.3589 15.8594 18.7891C15.8594 18.5819 15.9417 18.3831 16.0882 18.2366C16.2347 18.0901 16.4334 18.0078 16.6406 18.0078C16.8478 18.0078 17.0465 18.0901 17.1931 18.2366C17.3396 18.3831 17.4219 18.5819 17.4219 18.7891V18.7891ZM12.3438 23.2812C12.551 23.2812 12.7497 23.3636 12.8962 23.5101C13.0427 23.6566 13.125 23.8553 13.125 24.0625V33.4375H14.6875V25.625C14.6875 25.2106 14.8521 24.8132 15.1451 24.5201C15.4382 24.2271 15.8356 24.0625 16.25 24.0625H20.9375C21.3519 24.0625 21.7493 24.2271 22.0424 24.5201C22.3354 24.8132 22.5 25.2106 22.5 25.625V33.4375H31.875V24.0625C31.875 23.8553 31.9573 23.6566 32.1038 23.5101C32.2503 23.3636 32.449 23.2812 32.6562 23.2812C32.8635 23.2812 33.0622 23.3636 33.2087 23.5101C33.3552 23.6566 33.4375 23.8553 33.4375 24.0625V33.4375H34.2188C34.426 33.4375 34.6247 33.5198 34.7712 33.6663C34.9177 33.8128 35 34.0115 35 34.2188C35 34.426 34.9177 34.6247 34.7712 34.7712C34.6247 34.9177 34.426 35 34.2188 35H10.7812C10.574 35 10.3753 34.9177 10.2288 34.7712C10.0823 34.6247 10 34.426 10 34.2188C10 34.0115 10.0823 33.8128 10.2288 33.6663C10.3753 33.5198 10.574 33.4375 10.7812 33.4375H11.5625V24.0625C11.5625 23.8553 11.6448 23.6566 11.7913 23.5101C11.9378 23.3636 12.1365 23.2812 12.3438 23.2812V23.2812ZM16.25 33.4375H20.9375V25.625H16.25V33.4375ZM24.0625 25.625C24.0625 25.2106 24.2271 24.8132 24.5201 24.5201C24.8132 24.2271 25.2106 24.0625 25.625 24.0625H28.75C29.1644 24.0625 29.5618 24.2271 29.8549 24.5201C30.1479 24.8132 30.3125 25.2106 30.3125 25.625V30.3125C30.3125 30.7269 30.1479 31.1243 29.8549 31.4174C29.5618 31.7104 29.1644 31.875 28.75 31.875H25.625C25.2106 31.875 24.8132 31.7104 24.5201 31.4174C24.2271 31.1243 24.0625 30.7269 24.0625 30.3125V25.625ZM28.75 25.625H25.625V30.3125H28.75V25.625Z" fill="black"/>
</g>
<defs>
<clipPath id="clip0_2287_905">
<rect width="25" height="25" fill="white" transform="translate(10 10)"/>
</clipPath>
</defs>
</svg>
