<svg width="25" height="25" viewBox="0 0 25 25" fill="none" xmlns="http://www.w3.org/2000/svg">
<path d="M9.375 17.5C9.375 17.279 9.45731 17.067 9.60382 16.9107C9.75034 16.7545 9.94905 16.6667 10.1562 16.6667H14.8438C15.051 16.6667 15.2497 16.7545 15.3962 16.9107C15.5427 17.067 15.625 17.279 15.625 17.5C15.625 17.721 15.5427 17.933 15.3962 18.0892C15.2497 18.2455 15.051 18.3333 14.8438 18.3333H10.1562C9.94905 18.3333 9.75034 18.2455 9.60382 18.0892C9.45731 17.933 9.375 17.721 9.375 17.5ZM6.25 12.5C6.25 12.279 6.33231 12.067 6.47882 11.9107C6.62534 11.7545 6.82405 11.6667 7.03125 11.6667H17.9688C18.176 11.6667 18.3747 11.7545 18.5212 11.9107C18.6677 12.067 18.75 12.279 18.75 12.5C18.75 12.721 18.6677 12.933 18.5212 13.0892C18.3747 13.2455 18.176 13.3333 17.9688 13.3333H7.03125C6.82405 13.3333 6.62534 13.2455 6.47882 13.0892C6.33231 12.933 6.25 12.721 6.25 12.5ZM3.125 7.49999C3.125 7.27898 3.20731 7.06701 3.35382 6.91073C3.50034 6.75445 3.69905 6.66666 3.90625 6.66666H21.0938C21.301 6.66666 21.4997 6.75445 21.6462 6.91073C21.7927 7.06701 21.875 7.27898 21.875 7.49999C21.875 7.721 21.7927 7.93296 21.6462 8.08924C21.4997 8.24553 21.301 8.33332 21.0938 8.33332H3.90625C3.69905 8.33332 3.50034 8.24553 3.35382 8.08924C3.20731 7.93296 3.125 7.721 3.125 7.49999Z" fill="black"/>
</svg>
