<svg width="31" height="31" viewBox="0 0 31 31" fill="none" xmlns="http://www.w3.org/2000/svg">
<path d="M14.0619 4.34861C15.9272 4.34691 17.7511 4.89847 19.3029 5.93353C20.8546 6.96858 22.0645 8.44062 22.7795 10.1634C23.4945 11.8862 23.6824 13.7824 23.3196 15.612C22.9567 17.4417 22.0594 19.1226 20.741 20.4422C19.4227 21.7617 17.7426 22.6606 15.9133 23.0251C14.0839 23.3897 12.1876 23.2034 10.4642 22.49C8.7407 21.7766 7.26756 20.568 6.23109 19.0172C5.19462 17.4664 4.64139 15.6431 4.64139 13.7778C4.65269 11.282 5.64857 8.8915 7.41258 7.12588C9.17659 5.36026 11.5662 4.3622 14.0619 4.34861ZM14.0619 2.58334C11.8479 2.58334 9.68356 3.23988 7.84264 4.46994C6.00172 5.7 4.56691 7.44833 3.71962 9.49385C2.87234 11.5394 2.65066 13.7902 3.0826 15.9617C3.51454 18.1332 4.5807 20.1279 6.14627 21.6934C7.71185 23.259 9.7065 24.3252 11.878 24.7571C14.0495 25.1891 16.3004 24.9674 18.3459 24.1201C20.3914 23.2728 22.1397 21.838 23.3698 19.9971C24.5998 18.1562 25.2564 15.9918 25.2564 13.7778C25.2564 10.8088 24.077 7.96148 21.9776 5.86211C19.8782 3.76275 17.0309 2.58334 14.0619 2.58334Z" fill="#ADADAF"/>
<path d="M30.1389 28.6664L23.7925 22.2769L22.5697 23.4911L28.9161 29.8806C28.9958 29.9608 29.0906 30.0246 29.195 30.0683C29.2993 30.112 29.4113 30.1347 29.5244 30.1351C29.6376 30.1355 29.7497 30.1136 29.8544 30.0706C29.9591 30.0277 30.0543 29.9646 30.1346 29.8849C30.2149 29.8051 30.2787 29.7104 30.3223 29.606C30.366 29.5016 30.3887 29.3897 30.3891 29.2765C30.3895 29.1634 30.3676 29.0513 30.3247 28.9466C30.2817 28.8419 30.2186 28.7467 30.1389 28.6664Z" fill="#ADADAF"/>
</svg>
