<?xml version="1.0" encoding="utf-8"?>
<!-- Generator: Adobe Illustrator 26.0.1, SVG Export Plug-In . SVG Version: 6.00 Build 0)  -->
<svg version="1.1" id="Layer_1" xmlns="http://www.w3.org/2000/svg" xmlns:xlink="http://www.w3.org/1999/xlink" x="0px" y="0px"
	 viewBox="0 0 400 400" style="enable-background:new 0 0 400 400;" xml:space="preserve">
<style type="text/css">
	.st0{fill:#00AEEF;}
	.st1{fill:#FFF200;}
	.st2{fill:#FFFFFF;}
	.st3{fill:#334B5E;}
	.st4{fill:#FFF200;stroke:#FFF200;stroke-width:0.5;stroke-miterlimit:10;}
</style>
<g>
	<g>
		<polygon class="st0" points="82.1,65.3 48.3,65.3 82.1,18.6 108.4,18.6 		"/>
		<polygon class="st1" points="116.1,65.3 82.1,65.3 108.4,18.6 135.1,18.6 		"/>
		<polygon class="st0" points="149.9,65.3 116.1,65.3 135.1,18.6 161.4,18.6 		"/>
		<polygon class="st1" points="183.9,65.3 149.9,65.3 161.4,18.6 187.8,18.6 		"/>
		<polygon class="st0" points="217.6,65.3 183.9,65.3 187.8,18.6 214.1,18.6 		"/>
		<polygon class="st1" points="251.7,65.3 217.6,65.3 214.1,18.6 240.5,18.6 		"/>
		<polygon class="st0" points="285.4,65.3 251.7,65.3 240.5,18.6 266.8,18.6 		"/>
		<polygon class="st1" points="319.5,65.3 285.4,65.3 266.8,18.6 293.2,18.6 		"/>
		<polygon class="st0" points="353.2,65.3 319.5,65.3 293.2,18.6 319.5,18.6 		"/>
		<path class="st0" d="M65.2,92L65.2,92c-9.5,0-16.9-7.7-16.9-16.9v-9.8h33.7v9.8C82.1,84.3,74.7,92,65.2,92z"/>
		<path class="st1" d="M99.3,92L99.3,92c-9.5,0-16.9-7.7-16.9-16.9v-9.8h33.7v9.8C116.1,84.3,108.4,92,99.3,92z"/>
		<path class="st0" d="M133,92L133,92c-9.5,0-16.9-7.7-16.9-16.9v-9.8h33.7v9.8C149.9,84.3,142.5,92,133,92z"/>
		<path class="st1" d="M167.1,92L167.1,92c-9.5,0-16.9-7.7-16.9-16.9v-9.8h33.7v9.8C183.9,84.3,176.2,92,167.1,92z"/>
		<path class="st0" d="M200.8,92L200.8,92c-9.5,0-16.9-7.7-16.9-16.9v-9.8h33.7v9.8C217.6,84.3,210.3,92,200.8,92z"/>
		<path class="st1" d="M234.9,92L234.9,92c-9.5,0-16.9-7.7-16.9-16.9v-9.8h33.7v9.8C251.7,84.3,244,92,234.9,92z"/>
		<path class="st0" d="M268.6,92L268.6,92c-9.5,0-16.9-7.7-16.9-16.9v-9.8h33.7v9.8C285.4,84.3,278.1,92,268.6,92z"/>
		<path class="st1" d="M302.6,92L302.6,92c-9.5,0-16.9-7.7-16.9-16.9v-9.8h33.7v9.8C319.5,84.3,311.8,92,302.6,92z"/>
		<path class="st0" d="M336.4,92L336.4,92c-9.5,0-16.9-7.7-16.9-16.9v-9.8h33.7v9.8C353.2,84.3,345.9,92,336.4,92z"/>
	</g>
	<g>
		<g>
			<polygon class="st2" points="326.7,351.9 305.1,351.9 325.1,343.6 324.4,341.6 304.2,349.9 319.5,334.6 318,333 302.5,348.5 
				311,328.3 308.9,327.4 300.6,347.6 300.6,325.8 298.4,325.8 298.4,347.6 290.1,327.4 288.1,328.3 296.4,348.5 280.9,333 
				279.5,334.6 294.8,349.9 274.8,341.6 273.9,343.6 294.1,351.9 272.3,351.9 272.3,354 294.1,354 273.9,362.5 274.8,364.5 
				294.8,356.2 279.5,371.5 280.9,373.1 296.4,357.6 288.1,377.8 290.1,378.6 298.4,358.5 298.4,380.4 300.6,380.4 300.6,358.5 
				308.9,378.6 311,377.8 302.5,357.6 318,373.1 319.5,371.5 304.2,356.2 324.4,364.5 325.1,362.5 305.1,354 326.7,354 			"/>
			<g>
				<path class="st3" d="M299.5,321.4c-17.5,0-31.7,14.2-31.7,31.7s14.2,31.7,31.7,31.7s31.7-14.2,31.7-31.7
					C331.2,335.5,317,321.4,299.5,321.4z M299.5,378.9c-14.4,0-26-11.5-26-26s11.5-26,26-26s26,11.7,26,26
					C325.4,367.4,313.9,378.9,299.5,378.9z"/>
				<circle class="st3" cx="299.5" cy="353" r="7.8"/>
			</g>
		</g>
		<g>
			<polygon class="st2" points="127.3,351.9 105.7,351.9 125.7,343.6 125,341.6 104.8,349.9 120.1,334.6 118.7,333 103.2,348.5 
				111.6,328.3 109.5,327.4 101.2,347.6 101.2,325.8 99,325.8 99,347.6 90.7,327.4 88.7,328.3 97,348.5 81.5,333 80.1,334.6 
				95.4,349.9 75.4,341.6 74.5,343.6 94.7,351.9 72.9,351.9 72.9,354 94.7,354 74.5,362.5 75.4,364.5 95.4,356.2 80.1,371.5 
				81.5,373.1 97,357.6 88.7,377.8 90.7,378.6 99,358.5 99,380.4 101.2,380.4 101.2,358.5 109.5,378.6 111.6,377.8 103.2,357.6 
				118.7,373.1 120.1,371.5 104.8,356.2 125,364.5 125.7,362.5 105.7,354 127.3,354 			"/>
			<g>
				<path class="st3" d="M100.1,321.4c-17.5,0-31.7,14.2-31.7,31.7s14.2,31.7,31.7,31.7s31.7-14.2,31.7-31.7
					C131.8,335.5,117.6,321.4,100.1,321.4z M100.1,378.9c-14.4,0-25.9-11.5-25.9-26s11.5-26,25.9-26s25.9,11.7,25.9,26
					C126,367.4,114.5,378.9,100.1,378.9z"/>
				<circle class="st3" cx="100.1" cy="353" r="7.8"/>
			</g>
		</g>
		<path class="st0" d="M349.1,333H52.5c-1.1,0-2-0.9-2-2v-26.6c0-1.1,0.9-2,2-2h296.6c1.1,0,2,0.9,2,2V331
			C351.1,332.1,350.2,333,349.1,333z"/>
	</g>
	<g>
		<path class="st1" d="M11.6,191c0-1.7,0.3-3.3,1-4.8c0.6-1.5,1.5-2.8,2.6-3.9s2.4-2,3.9-2.6s3.1-1,4.8-1h18.8v8.2H23.9
			c-0.6,0-1.1,0.1-1.6,0.3c-0.5,0.2-0.9,0.5-1.3,0.9c-0.4,0.4-0.7,0.8-0.9,1.3c-0.2,0.5-0.3,1-0.3,1.6s0.1,1.1,0.3,1.6
			s0.5,0.9,0.9,1.3s0.8,0.7,1.3,0.9c0.5,0.2,1,0.3,1.6,0.3H32c1.7,0,3.3,0.3,4.8,1c1.5,0.6,2.8,1.5,3.9,2.6s2,2.4,2.6,3.9
			s1,3.1,1,4.8s-0.3,3.3-1,4.8c-0.6,1.5-1.5,2.8-2.6,3.9c-1.1,1.1-2.4,2-3.9,2.6c-1.5,0.6-3.1,1-4.8,1H13.9v-8.2H32
			c0.6,0,1.1-0.1,1.6-0.3c0.5-0.2,0.9-0.5,1.3-0.9s0.7-0.8,0.9-1.3c0.2-0.5,0.3-1,0.3-1.6s-0.1-1.1-0.3-1.6
			c-0.2-0.5-0.5-0.9-0.9-1.3c-0.4-0.4-0.8-0.7-1.3-0.9c-0.5-0.2-1-0.3-1.6-0.3h-8.2c-1.7,0-3.3-0.3-4.8-1c-1.5-0.6-2.8-1.5-3.9-2.6
			s-2-2.4-2.6-3.9C11.9,194.2,11.6,192.6,11.6,191z"/>
		<path class="st1" d="M66.3,219.6h-8.2v-32.7H45.8v-8.2h32.7v8.2H66.3V219.6z"/>
		<path class="st1" d="M91.1,219.6h-8.2v-40.9h16.4c1.5,0,2.9,0.2,4.3,0.6c1.4,0.4,2.7,0.9,3.9,1.6c1.2,0.7,2.3,1.6,3.3,2.6
			s1.8,2.1,2.6,3.3c0.7,1.2,1.3,2.5,1.7,3.9s0.6,2.8,0.6,4.3c0,1.4-0.2,2.8-0.5,4.1s-0.9,2.6-1.5,3.8s-1.5,2.3-2.4,3.3
			c-0.9,1-2,1.9-3.2,2.6l4.5,10.7h-8.7l-3.6-8.2l-9.2,0.1C91.1,211.4,91.1,219.6,91.1,219.6z M91.1,186.9v16.4h8.2
			c1.1,0,2.2-0.2,3.2-0.6s1.8-1,2.6-1.8s1.3-1.6,1.8-2.6c0.4-1,0.6-2.1,0.6-3.2s-0.2-2.2-0.6-3.2s-1-1.9-1.8-2.6s-1.6-1.3-2.6-1.8
			c-1-0.4-2-0.6-3.2-0.6L91.1,186.9L91.1,186.9z"/>
		<polygon class="st1" points="95.8,186.9 95.8,178.7 149,178.7 149,186.9 111.4,186.9 		"/>
		<polygon class="st2" points="121,203.3 121,195.1 129.8,195.1 144.2,195.1 144.2,203.3 129.8,203.3 		"/>
		<polygon class="st1" points="116.9,211.4 149,211.4 149,219.6 103.6,219.6 103.6,211.4 		"/>
		<path class="st1" d="M165.6,211.4c-2.7,0-8.9,0-10.9,0v8.2h36v-8.2H165.6z"/>
		<path class="st2" d="M163.7,203.3L163.7,203.3l14.7,0v-8.2h-14.7v0c-2.1,0-6.9,0-9,0v8.2C156.7,203.2,161.5,203.2,163.7,203.3z"/>
		<path class="st1" d="M154.8,178.7v8.2c0.1,0,0.1,0,0.2,0c1.3,0,2.6,0,3.9,0c1.3,0,2.6,0,3.9,0c0.3,0,0.7,0,1,0l0,0h21.9v-8.2
			L154.8,178.7L154.8,178.7z"/>
		<path class="st1" d="M205.7,219.6h-8.2v-32.7h-12.3v-8.2H218v8.2h-12.3L205.7,219.6L205.7,219.6z"/>
		<path class="st1" d="M236.3,191c0-1.7,0.3-3.3,1-4.8c0.6-1.5,1.5-2.8,2.6-3.9c1.1-1.1,2.4-2,3.9-2.6s3.1-1,4.8-1h18.8v8.2h-18.8
			c-0.6,0-1.1,0.1-1.6,0.3c-0.5,0.2-0.9,0.5-1.3,0.9c-0.4,0.4-0.7,0.8-0.9,1.3c-0.2,0.5-0.3,1-0.3,1.6s0.1,1.1,0.3,1.6
			c0.2,0.5,0.5,0.9,0.9,1.3s0.8,0.7,1.3,0.9c0.5,0.2,1,0.3,1.6,0.3h8.2c1.7,0,3.3,0.3,4.8,1s2.8,1.5,3.9,2.6c1.1,1.1,2,2.4,2.6,3.9
			s1,3.1,1,4.8s-0.3,3.3-1,4.8c-0.6,1.5-1.5,2.8-2.6,3.9s-2.4,2-3.9,2.6s-3.1,1-4.8,1h-18.2v-8.2h18.2c0.6,0,1.1-0.1,1.6-0.3
			c0.5-0.2,0.9-0.5,1.3-0.9s0.7-0.8,0.9-1.3c0.2-0.5,0.3-1,0.3-1.6s-0.1-1.1-0.3-1.6c-0.2-0.5-0.5-0.9-0.9-1.3
			c-0.4-0.4-0.8-0.7-1.3-0.9c-0.5-0.2-1-0.3-1.6-0.3h-8.2c-1.7,0-3.3-0.3-4.8-1c-1.5-0.6-2.8-1.5-3.9-2.6s-2-2.4-2.6-3.9
			C236.6,194.2,236.3,192.6,236.3,191z"/>
		<path class="st1" d="M307.1,219.6h-8.8l-15.8-26.9v26.9h-8.2v-40.9h8.8l15.8,27v-27h8.2V219.6z"/>
		<path class="st1" d="M347,219.6h-8.2v-8.2h-16.4v8.2h-8.2v-24.5c0-2.3,0.4-4.4,1.3-6.4c0.9-2,2-3.7,3.5-5.2
			c1.5-1.5,3.2-2.6,5.2-3.5c2-0.9,4.1-1.3,6.4-1.3c2.3,0,4.4,0.4,6.4,1.3c2,0.9,3.7,2,5.2,3.5c1.5,1.5,2.6,3.2,3.5,5.2
			c0.9,2,1.3,4.1,1.3,6.4V219.6z M338.8,203.3v-8.2c0-1.1-0.2-2.2-0.6-3.2s-1-1.9-1.8-2.6s-1.6-1.3-2.6-1.8c-1-0.4-2.1-0.6-3.2-0.6
			s-2.2,0.2-3.2,0.6s-1.9,1-2.6,1.8s-1.3,1.6-1.8,2.6c-0.4,1-0.6,2.1-0.6,3.2v8.2H338.8z"/>
		<g>
			<g>
				<g>
					<path class="st4" d="M389.7,182.4c-0.3-0.2-0.6-0.2-0.9,0.1l-7.7,9.1c-0.2,0-0.4-0.1-0.6-0.2c-0.2-0.1-0.4-0.2-0.6-0.3l8-9.5
						c0.2-0.3,0.2-0.6-0.1-0.9s-0.6-0.2-0.9,0.1l-8.1,9.6c-0.2-0.1-0.3-0.2-0.5-0.4c-0.2-0.1-0.3-0.3-0.5-0.4l8.1-9.6
						c0.2-0.3,0.2-0.6-0.1-0.9s-0.6-0.2-0.9,0.1l-8,9.5c-0.4-0.4-0.6-0.9-0.7-1.1l7.7-9.2c0.2-0.3,0.2-0.6-0.1-0.9s-0.6-0.2-0.9,0.1
						l-7.9,9.4c-0.8,0.9-1.1,2-1,3.2c0,0.5,0.2,1,0.4,1.4L353.4,216c-0.9,1-0.8,2.6,0.3,3.4c0.5,0.4,1.1,0.6,1.7,0.5
						s1.2-0.4,1.7-0.9l20-25.1c0.6,0.2,1.2,0.3,1.8,0.2c1.1-0.1,2.2-0.6,3-1.6l7.9-9.4C390,183,389.9,182.6,389.7,182.4z"/>
				</g>
			</g>
			<g>
				<g>
					<path class="st4" d="M352.5,190.8c1.1,1.3,2.7,2.1,4.4,2.3c1.1,0.1,2.1-0.1,3.1-0.5l21.6,26.4c0.4,0.5,1,0.8,1.6,0.9
						c0.6,0.1,1.3-0.1,1.8-0.5c1-0.9,1.1-2.4,0.3-3.4l-22.5-25.5c1.8-2.4,1.7-5.7-0.3-8c-2.6-3.1-5.4-4.9-8-5.1
						c-1.5-0.1-2.8,0.3-3.9,1.2C347.6,181,348.3,185.9,352.5,190.8z"/>
				</g>
			</g>
		</g>
	</g>
</g>
</svg>
