<svg width="28" height="28" viewBox="0 0 28 28" fill="none" xmlns="http://www.w3.org/2000/svg">
<g clip-path="url(#clip0_651_360)">
<path d="M3 27.125C2.99989 27.2769 3.03935 27.4263 3.11449 27.5584C3.18964 27.6904 3.29788 27.8007 3.42856 27.8782C3.55924 27.9557 3.70786 27.9979 3.85978 28.0005C4.01171 28.0031 4.1617 27.9662 4.295 27.8932L13.5 22.8708L22.705 27.8932C22.8383 27.9662 22.9883 28.0031 23.1402 28.0005C23.2921 27.9979 23.4408 27.9557 23.5714 27.8782C23.7021 27.8007 23.8104 27.6904 23.8855 27.5584C23.9607 27.4263 24.0001 27.2769 24 27.125V3.5C24 2.57174 23.6313 1.6815 22.9749 1.02513C22.3185 0.368749 21.4283 0 20.5 0L6.5 0C5.57174 0 4.6815 0.368749 4.02513 1.02513C3.36875 1.6815 3 2.57174 3 3.5V27.125ZM13.5 7.7175C15.9272 5.22375 21.9945 9.59 13.5 15.2023C5.0055 9.59 11.0728 5.2255 13.5 7.721V7.7175Z" fill="#F54748"/>
<path fill-rule="evenodd" clip-rule="evenodd" d="M13.5 7.71747C15.9273 5.22372 21.9945 9.58997 13.5 15.2022C5.00552 9.58997 11.0728 5.22547 13.5 7.72097V7.71747Z" fill="white"/>
<path d="M3 3.5C3 2.57174 3.36875 1.6815 4.02513 1.02513C4.6815 0.368749 5.57174 0 6.5 0L20.5 0C21.4283 0 22.3185 0.368749 22.9749 1.02513C23.6313 1.6815 24 2.57174 24 3.5V27.125C23.9999 27.2833 23.9569 27.4386 23.8756 27.5743C23.7942 27.7101 23.6775 27.8212 23.538 27.8959C23.3985 27.9707 23.2413 28.0061 23.0832 27.9985C22.9251 27.991 22.772 27.9407 22.6402 27.853L13.5 22.9268L4.35975 27.853C4.22798 27.9407 4.0749 27.991 3.91681 27.9985C3.75872 28.0061 3.60153 27.9707 3.462 27.8959C3.32247 27.8212 3.20581 27.7101 3.12445 27.5743C3.04309 27.4386 3.00008 27.2833 3 27.125V3.5ZM6.5 1.75C6.03587 1.75 5.59075 1.93437 5.26256 2.26256C4.93437 2.59075 4.75 3.03587 4.75 3.5V25.4905L13.0153 21.147C13.1589 21.0514 13.3275 21.0005 13.5 21.0005C13.6725 21.0005 13.8411 21.0514 13.9848 21.147L22.25 25.4905V3.5C22.25 3.03587 22.0656 2.59075 21.7374 2.26256C21.4092 1.93437 20.9641 1.75 20.5 1.75H6.5Z" fill="white"/>
</g>
<defs>
<clipPath id="clip0_651_360">
<rect width="28" height="28" fill="white"/>
</clipPath>
</defs>
</svg>
